%
M48
M72
T01C0.01378
T02C0.02165
T03C0.03150
T04C0.03346
T05C0.03937
T06C0.04000
T07C0.05118
%
T01
X85663Y79100
X74663Y84100
X64663Y84100
X84663Y99100
X89663Y101200
X92763Y97500
X100963Y97500
X100963Y101200
X98263Y106600
X89663Y106600
X79663Y101500
X77163Y116600
X84663Y124100
X89663Y119100
X101755Y121266
X98413Y130350
X94663Y139100
X80913Y137850
X74663Y149100
X69663Y154100
X64663Y144100
X80913Y159100
X77163Y164100
X84663Y174100
X94663Y169100
X94663Y149100
X119663Y134100
X120798Y140350
X120913Y146600
X137163Y156600
X149663Y164100
X159663Y164100
X168413Y167850
X172163Y172850
X159663Y179100
X135913Y179100
X131538Y178475
X135923Y184869
X124663Y185350
X117144Y191693
X103413Y194100
X79663Y194100
X69663Y199100
X59663Y194100
X59663Y214100
X79663Y214100
X84663Y214100
X99663Y214100
X119163Y217100
X132663Y217100
X144923Y214119
X159663Y214100
X160138Y206707
X169422Y203757
X159663Y199100
X137163Y197700
X122163Y174100
X129663Y169100
X134663Y169100
X152163Y154100
X161126Y152637
X168413Y156600
X184663Y149100
X188153Y144119
X202163Y142850
X209663Y142850
X212163Y146600
X219663Y144100
X223413Y144100
X228413Y130350
X209663Y116600
X199863Y116700
X187163Y129100
X174663Y114100
X164663Y120350
X159923Y106619
X162163Y101600
X157163Y89100
X149663Y84100
X165173Y84119
X154963Y72100
X180063Y72100
X195263Y92000
X184663Y97850
X207181Y97786
X217163Y97767
X209663Y84100
X214663Y79100
X139663Y117850
X118563Y122700
X117163Y115350
X115913Y110350
X117163Y101600
X116413Y91519
X116513Y86000
X99663Y89100
X149663Y140350
X159663Y139100
X194663Y174081
X203413Y174100
X199642Y203667
X188891Y204174
X219733Y217148
X230391Y206905
X240801Y227234
X229988Y229240
X214475Y232671
X179663Y260350
X159377Y252353
X160930Y242855
X163945Y232696
X158413Y230350
X137163Y242850
X137163Y246600
X132163Y230848
X109923Y244119
X99663Y234100
X79663Y234100
X59663Y234100
X59663Y174100
X273072Y162450
X282647Y149084
X327122Y189731
X327081Y200611
X327163Y232850
X320007Y241690
T02
X245243Y263328
X214731Y263328
T03
X220145Y252501
X239830Y252501
T04
X244653Y248367
X215322Y248367
T05
X109663Y229100
X109663Y219100
X109663Y209100
X109663Y199100
X109663Y189100
X109663Y179100
X109663Y169100
X109663Y159100
X109663Y149100
X109663Y139100
X109663Y129100
X109663Y119100
X109663Y109100
X109663Y99100
X109663Y89100
X49663Y89100
X49663Y99100
X49663Y109100
X49663Y119100
X49663Y129100
X49663Y139100
X49663Y149100
X49663Y159100
X49663Y169100
X49663Y179100
X49663Y189100
X49663Y199100
X49663Y209100
X49663Y219100
X49663Y229100
T06
X296593Y161943
X296593Y151943
X296593Y141943
X357335Y142091
X357335Y152091
X357335Y162091
T07
X338419Y81198
X318419Y81198
X298419Y81198
M30
