G75*
%MOIN*%
%OFA0B0*%
%FSLAX25Y25*%
%IPPOS*%
%LPD*%
%AMOC8*
5,1,8,0,0,1.08239X$1,22.5*
%
%ADD10R,0.09357X0.04253*%
%ADD11R,0.04056X0.09490*%
%ADD12R,0.04056X0.09490*%
%ADD13R,0.10249X0.05730*%
%ADD14R,0.10249X0.05730*%
%ADD15R,0.03713X0.09307*%
%ADD16R,0.03295X0.01116*%
%ADD17R,0.09055X0.03346*%
%ADD18R,0.03543X0.09055*%
%ADD19R,0.09055X0.03543*%
%ADD20R,0.08858X0.03543*%
%ADD21R,0.03445X0.08858*%
%ADD22R,0.03346X0.08858*%
%ADD23R,0.08858X0.03445*%
%ADD24R,0.07480X0.11220*%
%ADD25R,0.03556X0.07101*%
%ADD26R,0.00861X0.00178*%
%ADD27R,0.03717X0.09162*%
%ADD28R,0.00396X0.00008*%
%ADD29R,0.07212X0.09165*%
%ADD30R,0.09178X0.03735*%
%ADD31R,0.05753X0.10641*%
%ADD32R,0.09160X0.03714*%
%ADD33R,0.09160X0.03714*%
%ADD34R,0.34352X0.11807*%
%ADD35C,0.03200*%
%ADD36R,0.29278X0.06586*%
%ADD37R,0.04016X0.07442*%
%ADD38R,0.07796X0.09293*%
%ADD39R,0.16944X0.13924*%
%ADD40R,0.04442X0.03713*%
%ADD41R,0.05918X0.06706*%
%ADD42R,0.03162X0.09461*%
%ADD43R,0.03162X0.03556*%
%ADD44R,0.03556X0.03162*%
%ADD45R,0.06706X0.06706*%
%ADD46C,0.06706*%
%ADD47C,0.01374*%
%ADD48R,0.02375X0.05524*%
%ADD49R,0.03713X0.04442*%
%ADD50R,0.04304X0.11784*%
%ADD51R,0.42454X0.27729*%
%ADD52R,0.06312X0.04737*%
%ADD53C,0.01285*%
%ADD54R,0.13398X0.07887*%
%ADD55R,0.07887X0.13398*%
%ADD56R,0.07100X0.05400*%
%ADD57R,0.07200X0.00600*%
%ADD58R,0.05900X0.10200*%
%ADD59R,0.06312X0.06312*%
%ADD60C,0.06800*%
%ADD61C,0.08674*%
%ADD62R,0.02572X0.05918*%
%ADD63C,0.03950*%
%ADD64C,0.00394*%
D10*
X0194692Y0144116D03*
D11*
X0082109Y0069123D03*
D12*
X0057145Y0069103D03*
D13*
X0174630Y0122203D03*
D14*
X0174644Y0106022D03*
D15*
X0179674Y0179088D03*
X0184543Y0179088D03*
D16*
X0199666Y0179057D03*
D17*
X0149702Y0174080D03*
X0139663Y0174080D03*
X0124702Y0159120D03*
X0122733Y0084120D03*
D18*
X0119190Y0223588D03*
D19*
X0144781Y0244061D03*
X0154623Y0244061D03*
X0172143Y0137565D03*
X0122733Y0093076D03*
X0122733Y0088746D03*
D20*
X0144682Y0154100D03*
D21*
X0164318Y0211679D03*
X0205165Y0091502D03*
X0209692Y0091600D03*
D22*
X0144682Y0091600D03*
X0140942Y0091600D03*
D23*
X0174702Y0089090D03*
D24*
X0243403Y0119061D03*
D25*
X0133363Y0191801D03*
D26*
X0129916Y0191540D03*
D27*
X0129562Y0191600D03*
D28*
X0139457Y0191275D03*
D29*
X0139512Y0191212D03*
D30*
X0157157Y0189095D03*
X0157157Y0184101D03*
X0157163Y0194095D03*
D31*
X0139707Y0164124D03*
D32*
X0127158Y0144094D03*
D33*
X0127158Y0139104D03*
X0127181Y0134103D03*
D34*
X0189001Y0193520D03*
D35*
X0218736Y0252512D02*
X0218738Y0252586D01*
X0218744Y0252659D01*
X0218754Y0252733D01*
X0218768Y0252805D01*
X0218785Y0252877D01*
X0218807Y0252947D01*
X0218832Y0253017D01*
X0218861Y0253085D01*
X0218893Y0253151D01*
X0218930Y0253215D01*
X0218969Y0253278D01*
X0219012Y0253338D01*
X0219058Y0253396D01*
X0219107Y0253451D01*
X0219159Y0253504D01*
X0219213Y0253553D01*
X0219270Y0253600D01*
X0219330Y0253644D01*
X0219392Y0253684D01*
X0219456Y0253721D01*
X0219522Y0253754D01*
X0219589Y0253784D01*
X0219658Y0253810D01*
X0219728Y0253833D01*
X0219800Y0253851D01*
X0219872Y0253866D01*
X0219945Y0253877D01*
X0220019Y0253884D01*
X0220093Y0253887D01*
X0220166Y0253886D01*
X0220240Y0253881D01*
X0220313Y0253872D01*
X0220386Y0253859D01*
X0220458Y0253843D01*
X0220529Y0253822D01*
X0220599Y0253798D01*
X0220667Y0253770D01*
X0220734Y0253738D01*
X0220799Y0253703D01*
X0220861Y0253664D01*
X0220922Y0253622D01*
X0220981Y0253577D01*
X0221037Y0253529D01*
X0221090Y0253478D01*
X0221140Y0253424D01*
X0221188Y0253367D01*
X0221232Y0253308D01*
X0221273Y0253247D01*
X0221311Y0253183D01*
X0221345Y0253118D01*
X0221376Y0253051D01*
X0221403Y0252982D01*
X0221426Y0252912D01*
X0221446Y0252841D01*
X0221462Y0252769D01*
X0221474Y0252696D01*
X0221482Y0252623D01*
X0221486Y0252549D01*
X0221486Y0252475D01*
X0221482Y0252401D01*
X0221474Y0252328D01*
X0221462Y0252255D01*
X0221446Y0252183D01*
X0221426Y0252112D01*
X0221403Y0252042D01*
X0221376Y0251973D01*
X0221345Y0251906D01*
X0221311Y0251841D01*
X0221273Y0251777D01*
X0221232Y0251716D01*
X0221188Y0251657D01*
X0221140Y0251600D01*
X0221090Y0251546D01*
X0221037Y0251495D01*
X0220981Y0251447D01*
X0220922Y0251402D01*
X0220861Y0251360D01*
X0220798Y0251321D01*
X0220734Y0251286D01*
X0220667Y0251254D01*
X0220599Y0251226D01*
X0220529Y0251202D01*
X0220458Y0251181D01*
X0220386Y0251165D01*
X0220313Y0251152D01*
X0220240Y0251143D01*
X0220166Y0251138D01*
X0220093Y0251137D01*
X0220019Y0251140D01*
X0219945Y0251147D01*
X0219872Y0251158D01*
X0219800Y0251173D01*
X0219728Y0251191D01*
X0219658Y0251214D01*
X0219589Y0251240D01*
X0219522Y0251270D01*
X0219456Y0251303D01*
X0219392Y0251340D01*
X0219330Y0251380D01*
X0219270Y0251424D01*
X0219213Y0251471D01*
X0219159Y0251520D01*
X0219107Y0251573D01*
X0219058Y0251628D01*
X0219012Y0251686D01*
X0218969Y0251746D01*
X0218930Y0251809D01*
X0218893Y0251873D01*
X0218861Y0251939D01*
X0218832Y0252007D01*
X0218807Y0252077D01*
X0218785Y0252147D01*
X0218768Y0252219D01*
X0218754Y0252291D01*
X0218744Y0252365D01*
X0218738Y0252438D01*
X0218736Y0252512D01*
X0238529Y0252445D02*
X0238531Y0252519D01*
X0238537Y0252592D01*
X0238547Y0252666D01*
X0238561Y0252738D01*
X0238578Y0252810D01*
X0238600Y0252880D01*
X0238625Y0252950D01*
X0238654Y0253018D01*
X0238686Y0253084D01*
X0238723Y0253148D01*
X0238762Y0253211D01*
X0238805Y0253271D01*
X0238851Y0253329D01*
X0238900Y0253384D01*
X0238952Y0253437D01*
X0239006Y0253486D01*
X0239063Y0253533D01*
X0239123Y0253577D01*
X0239185Y0253617D01*
X0239249Y0253654D01*
X0239315Y0253687D01*
X0239382Y0253717D01*
X0239451Y0253743D01*
X0239521Y0253766D01*
X0239593Y0253784D01*
X0239665Y0253799D01*
X0239738Y0253810D01*
X0239812Y0253817D01*
X0239886Y0253820D01*
X0239959Y0253819D01*
X0240033Y0253814D01*
X0240106Y0253805D01*
X0240179Y0253792D01*
X0240251Y0253776D01*
X0240322Y0253755D01*
X0240392Y0253731D01*
X0240460Y0253703D01*
X0240527Y0253671D01*
X0240592Y0253636D01*
X0240654Y0253597D01*
X0240715Y0253555D01*
X0240774Y0253510D01*
X0240830Y0253462D01*
X0240883Y0253411D01*
X0240933Y0253357D01*
X0240981Y0253300D01*
X0241025Y0253241D01*
X0241066Y0253180D01*
X0241104Y0253116D01*
X0241138Y0253051D01*
X0241169Y0252984D01*
X0241196Y0252915D01*
X0241219Y0252845D01*
X0241239Y0252774D01*
X0241255Y0252702D01*
X0241267Y0252629D01*
X0241275Y0252556D01*
X0241279Y0252482D01*
X0241279Y0252408D01*
X0241275Y0252334D01*
X0241267Y0252261D01*
X0241255Y0252188D01*
X0241239Y0252116D01*
X0241219Y0252045D01*
X0241196Y0251975D01*
X0241169Y0251906D01*
X0241138Y0251839D01*
X0241104Y0251774D01*
X0241066Y0251710D01*
X0241025Y0251649D01*
X0240981Y0251590D01*
X0240933Y0251533D01*
X0240883Y0251479D01*
X0240830Y0251428D01*
X0240774Y0251380D01*
X0240715Y0251335D01*
X0240654Y0251293D01*
X0240591Y0251254D01*
X0240527Y0251219D01*
X0240460Y0251187D01*
X0240392Y0251159D01*
X0240322Y0251135D01*
X0240251Y0251114D01*
X0240179Y0251098D01*
X0240106Y0251085D01*
X0240033Y0251076D01*
X0239959Y0251071D01*
X0239886Y0251070D01*
X0239812Y0251073D01*
X0239738Y0251080D01*
X0239665Y0251091D01*
X0239593Y0251106D01*
X0239521Y0251124D01*
X0239451Y0251147D01*
X0239382Y0251173D01*
X0239315Y0251203D01*
X0239249Y0251236D01*
X0239185Y0251273D01*
X0239123Y0251313D01*
X0239063Y0251357D01*
X0239006Y0251404D01*
X0238952Y0251453D01*
X0238900Y0251506D01*
X0238851Y0251561D01*
X0238805Y0251619D01*
X0238762Y0251679D01*
X0238723Y0251742D01*
X0238686Y0251806D01*
X0238654Y0251872D01*
X0238625Y0251940D01*
X0238600Y0252010D01*
X0238578Y0252080D01*
X0238561Y0252152D01*
X0238547Y0252224D01*
X0238537Y0252298D01*
X0238531Y0252371D01*
X0238529Y0252445D01*
D36*
X0230484Y0248697D03*
D37*
X0133277Y0191804D03*
D38*
X0186689Y0105370D03*
D39*
X0153392Y0189118D03*
D40*
X0154800Y0189100D03*
X0159525Y0189100D03*
X0159525Y0184100D03*
X0154800Y0184100D03*
X0154800Y0194100D03*
X0159525Y0194100D03*
X0152025Y0174100D03*
X0147300Y0174100D03*
X0142025Y0174100D03*
X0137300Y0174100D03*
X0127025Y0159100D03*
X0122300Y0159100D03*
X0124800Y0144100D03*
X0129525Y0144100D03*
X0129525Y0139100D03*
X0124800Y0139100D03*
X0124800Y0134100D03*
X0129525Y0134100D03*
X0142300Y0154100D03*
X0147025Y0154100D03*
X0169700Y0137600D03*
X0174425Y0137600D03*
X0192300Y0144100D03*
X0197025Y0144100D03*
X0125025Y0093100D03*
X0125025Y0088800D03*
X0125025Y0084100D03*
X0120300Y0084100D03*
X0120300Y0088800D03*
X0120300Y0093100D03*
X0172300Y0089100D03*
X0177025Y0089100D03*
X0157025Y0244100D03*
X0152300Y0244100D03*
X0147025Y0244100D03*
X0142300Y0244100D03*
D41*
X0167172Y0131413D03*
X0174653Y0131413D03*
X0177153Y0096600D03*
X0169672Y0096600D03*
D42*
X0154663Y0103864D03*
X0149663Y0103864D03*
X0144663Y0103864D03*
X0139663Y0103864D03*
X0134663Y0103864D03*
X0129663Y0103864D03*
X0124663Y0103864D03*
X0124663Y0124336D03*
X0129663Y0124336D03*
X0134663Y0124336D03*
X0139663Y0124336D03*
X0144663Y0124336D03*
X0149663Y0124336D03*
X0154663Y0124336D03*
X0194663Y0124336D03*
X0199663Y0124336D03*
X0204663Y0124336D03*
X0209663Y0124336D03*
X0214663Y0124336D03*
X0219663Y0124336D03*
X0224663Y0124336D03*
X0224663Y0103864D03*
X0219663Y0103864D03*
X0214663Y0103864D03*
X0209663Y0103864D03*
X0204663Y0103864D03*
X0199663Y0103864D03*
X0194663Y0103864D03*
X0154663Y0203864D03*
X0149663Y0203864D03*
X0144663Y0203864D03*
X0139663Y0203864D03*
X0134663Y0203864D03*
X0129663Y0203864D03*
X0124663Y0203864D03*
X0124663Y0224336D03*
X0129663Y0224336D03*
X0134663Y0224336D03*
X0139663Y0224336D03*
X0144663Y0224336D03*
X0149663Y0224336D03*
X0154663Y0224336D03*
D43*
X0156631Y0234100D03*
X0152694Y0234100D03*
X0146631Y0234100D03*
X0142694Y0234100D03*
X0142694Y0239100D03*
X0146631Y0239100D03*
X0152694Y0239100D03*
X0156631Y0239100D03*
X0136631Y0239100D03*
X0132694Y0239100D03*
X0126631Y0239100D03*
X0122694Y0239100D03*
X0122694Y0234100D03*
X0126631Y0234100D03*
X0132694Y0234100D03*
X0136631Y0234100D03*
X0146594Y0194200D03*
X0150531Y0194200D03*
X0150531Y0189100D03*
X0146594Y0189100D03*
X0146694Y0184100D03*
X0150631Y0184100D03*
X0124756Y0189100D03*
X0120819Y0189100D03*
X0120819Y0194100D03*
X0124756Y0194100D03*
X0126631Y0164100D03*
X0122694Y0164100D03*
X0135194Y0144100D03*
X0139131Y0144100D03*
X0139131Y0139100D03*
X0135194Y0139100D03*
X0135194Y0134100D03*
X0139131Y0134100D03*
X0150194Y0134100D03*
X0154131Y0134100D03*
X0175194Y0151600D03*
X0179131Y0151600D03*
X0192694Y0149100D03*
X0196631Y0149100D03*
X0202694Y0146600D03*
X0206631Y0146600D03*
X0212694Y0139100D03*
X0216631Y0139100D03*
X0222694Y0139100D03*
X0226631Y0139100D03*
X0226631Y0134100D03*
X0222694Y0134100D03*
X0216631Y0134100D03*
X0212694Y0134100D03*
X0196631Y0134100D03*
X0192694Y0134100D03*
X0192694Y0139100D03*
X0196631Y0139100D03*
X0186631Y0134100D03*
X0182694Y0134100D03*
X0186194Y0094100D03*
X0190131Y0094100D03*
X0190131Y0088800D03*
X0186194Y0088800D03*
X0215194Y0089100D03*
X0219131Y0089100D03*
X0219131Y0094100D03*
X0215194Y0094100D03*
X0225194Y0094100D03*
X0229131Y0094100D03*
X0229131Y0089100D03*
X0225194Y0089100D03*
X0154131Y0089100D03*
X0150194Y0089100D03*
X0150194Y0094100D03*
X0154131Y0094100D03*
X0135331Y0093700D03*
X0131394Y0093700D03*
X0131394Y0088900D03*
X0135331Y0088900D03*
X0135331Y0083800D03*
X0131394Y0083800D03*
X0318944Y0227850D03*
X0322881Y0227850D03*
D44*
X0261349Y0148466D03*
X0261349Y0144529D03*
X0207163Y0138569D03*
X0202163Y0138569D03*
X0202163Y0134631D03*
X0207163Y0134631D03*
X0199663Y0093369D03*
X0199663Y0089431D03*
X0144663Y0134631D03*
X0144663Y0138569D03*
X0169663Y0177131D03*
X0169663Y0181069D03*
X0174663Y0181069D03*
X0174663Y0177131D03*
X0189663Y0177131D03*
X0189663Y0181069D03*
X0194663Y0181069D03*
X0194663Y0177131D03*
X0133363Y0189831D03*
X0133363Y0193769D03*
X0163963Y0222931D03*
X0163963Y0226869D03*
D45*
X0109663Y0229100D03*
X0049663Y0229100D03*
D46*
X0049663Y0219100D03*
X0049663Y0209100D03*
X0049663Y0199100D03*
X0049663Y0189100D03*
X0049663Y0179100D03*
X0049663Y0169100D03*
X0049663Y0159100D03*
X0049663Y0149100D03*
X0049663Y0139100D03*
X0049663Y0129100D03*
X0049663Y0119100D03*
X0049663Y0109100D03*
X0049663Y0099100D03*
X0049663Y0089100D03*
X0109663Y0089100D03*
X0109663Y0099100D03*
X0109663Y0109100D03*
X0109663Y0119100D03*
X0109663Y0129100D03*
X0109663Y0139100D03*
X0109663Y0149100D03*
X0109663Y0159100D03*
X0109663Y0169100D03*
X0109663Y0179100D03*
X0109663Y0189100D03*
X0109663Y0199100D03*
X0109663Y0209100D03*
X0109663Y0219100D03*
D47*
X0137549Y0166966D02*
X0141895Y0166966D01*
X0137549Y0166966D02*
X0137549Y0168714D01*
X0141895Y0168714D01*
X0141895Y0166966D01*
X0141895Y0168271D02*
X0137549Y0168271D01*
X0137549Y0163226D02*
X0141895Y0163226D01*
X0137549Y0163226D02*
X0137549Y0164974D01*
X0141895Y0164974D01*
X0141895Y0163226D01*
X0141895Y0164531D02*
X0137549Y0164531D01*
X0137549Y0159486D02*
X0141895Y0159486D01*
X0137549Y0159486D02*
X0137549Y0161234D01*
X0141895Y0161234D01*
X0141895Y0159486D01*
X0141895Y0160791D02*
X0137549Y0160791D01*
X0147431Y0159486D02*
X0151777Y0159486D01*
X0147431Y0159486D02*
X0147431Y0161234D01*
X0151777Y0161234D01*
X0151777Y0159486D01*
X0151777Y0160791D02*
X0147431Y0160791D01*
X0147431Y0166966D02*
X0151777Y0166966D01*
X0147431Y0166966D02*
X0147431Y0168714D01*
X0151777Y0168714D01*
X0151777Y0166966D01*
X0151777Y0168271D02*
X0147431Y0168271D01*
D48*
X0170824Y0122171D03*
X0173383Y0122171D03*
X0175942Y0122171D03*
X0178501Y0122171D03*
X0178501Y0106029D03*
X0175942Y0106029D03*
X0173383Y0106029D03*
X0170824Y0106029D03*
D49*
X0184663Y0107712D03*
X0188763Y0107762D03*
X0188763Y0103038D03*
X0184663Y0102988D03*
X0205163Y0093862D03*
X0209663Y0093962D03*
X0209663Y0089238D03*
X0205163Y0089138D03*
X0144663Y0089238D03*
X0140963Y0089238D03*
X0140963Y0093962D03*
X0144663Y0093962D03*
X0082163Y0071462D03*
X0082163Y0066738D03*
X0057163Y0066738D03*
X0057163Y0071462D03*
X0179663Y0176738D03*
X0184663Y0176738D03*
X0184663Y0181462D03*
X0179663Y0181462D03*
X0199663Y0181462D03*
X0199663Y0176738D03*
X0164332Y0209321D03*
X0164332Y0214045D03*
X0141263Y0193562D03*
X0137763Y0193562D03*
X0137763Y0188838D03*
X0141263Y0188838D03*
X0129563Y0189238D03*
X0129563Y0193962D03*
X0119163Y0221238D03*
X0119163Y0225962D03*
D50*
X0173997Y0193510D03*
X0178997Y0193510D03*
X0183997Y0193510D03*
X0188997Y0193510D03*
X0193997Y0193510D03*
X0198997Y0193510D03*
X0203997Y0193510D03*
D51*
X0188997Y0234258D03*
D52*
X0176493Y0167840D03*
X0176493Y0160360D03*
X0184082Y0164090D03*
X0192743Y0160350D03*
X0184082Y0156610D03*
X0167832Y0164100D03*
X0314082Y0217850D03*
X0322743Y0214110D03*
X0322743Y0221590D03*
X0331582Y0217860D03*
X0340243Y0221600D03*
X0331582Y0225340D03*
D53*
X0328130Y0235036D02*
X0326292Y0235036D01*
X0326292Y0235536D01*
X0328130Y0235536D01*
X0328130Y0235036D01*
X0328130Y0238185D02*
X0326292Y0238185D01*
X0326292Y0238685D01*
X0328130Y0238685D01*
X0328130Y0238185D01*
X0330662Y0236611D02*
X0332500Y0236611D01*
X0330662Y0236611D02*
X0330662Y0237111D01*
X0332500Y0237111D01*
X0332500Y0236611D01*
X0170267Y0151350D02*
X0168429Y0151350D01*
X0168429Y0151850D01*
X0170267Y0151850D01*
X0170267Y0151350D01*
X0165897Y0149775D02*
X0164059Y0149775D01*
X0164059Y0150275D01*
X0165897Y0150275D01*
X0165897Y0149775D01*
X0165897Y0152925D02*
X0164059Y0152925D01*
X0164059Y0153425D01*
X0165897Y0153425D01*
X0165897Y0152925D01*
D54*
X0327163Y0184326D03*
X0327163Y0206374D03*
D55*
X0303749Y0192600D03*
X0281702Y0192600D03*
X0223186Y0160350D03*
X0201139Y0160350D03*
X0350076Y0192600D03*
X0372123Y0192600D03*
D56*
X0243413Y0122100D03*
X0243413Y0116100D03*
D57*
X0243413Y0119100D03*
D58*
X0073413Y0069100D03*
X0065913Y0069100D03*
D59*
X0094182Y0063100D03*
X0109143Y0063100D03*
X0109243Y0077800D03*
X0094282Y0077800D03*
X0159982Y0072100D03*
X0174943Y0072100D03*
D60*
X0293593Y0141943D02*
X0299593Y0141943D01*
X0299593Y0151943D02*
X0293593Y0151943D01*
X0293593Y0161943D02*
X0299593Y0161943D01*
X0354335Y0162091D02*
X0360335Y0162091D01*
X0360335Y0152091D02*
X0354335Y0152091D01*
X0354335Y0142091D02*
X0360335Y0142091D01*
D61*
X0338419Y0081198D03*
X0318419Y0081198D03*
X0298419Y0081198D03*
D62*
X0235135Y0248391D03*
X0232576Y0248391D03*
X0230017Y0248391D03*
X0227458Y0248391D03*
X0224899Y0248391D03*
D63*
X0220174Y0252525D03*
X0239859Y0252525D03*
D64*
X0242054Y0251383D02*
X0247310Y0251383D01*
X0247650Y0250795D01*
X0247859Y0250149D01*
X0247930Y0249474D01*
X0247930Y0247309D01*
X0247859Y0246633D01*
X0247650Y0245988D01*
X0247310Y0245400D01*
X0246856Y0244895D01*
X0246306Y0244496D01*
X0245686Y0244220D01*
X0245022Y0244078D01*
X0244343Y0244078D01*
X0243679Y0244220D01*
X0243058Y0244496D01*
X0242509Y0244895D01*
X0242055Y0245400D01*
X0241715Y0245988D01*
X0241505Y0246633D01*
X0241434Y0247309D01*
X0241434Y0249474D01*
X0241505Y0250149D01*
X0241715Y0250795D01*
X0242055Y0251383D01*
X0242509Y0251888D01*
X0243058Y0252287D01*
X0243679Y0252563D01*
X0244343Y0252704D01*
X0245022Y0252704D01*
X0245686Y0252563D01*
X0246306Y0252287D01*
X0246856Y0251888D01*
X0247310Y0251383D01*
X0247537Y0250990D02*
X0241828Y0250990D01*
X0241651Y0250598D02*
X0247713Y0250598D01*
X0247841Y0250206D02*
X0241524Y0250206D01*
X0241470Y0249814D02*
X0247895Y0249814D01*
X0247930Y0249422D02*
X0241434Y0249422D01*
X0241434Y0249029D02*
X0247930Y0249029D01*
X0247930Y0248637D02*
X0241434Y0248637D01*
X0241434Y0248245D02*
X0247930Y0248245D01*
X0247930Y0247853D02*
X0241434Y0247853D01*
X0241434Y0247461D02*
X0247930Y0247461D01*
X0247905Y0247068D02*
X0241460Y0247068D01*
X0241501Y0246676D02*
X0247864Y0246676D01*
X0247746Y0246284D02*
X0241619Y0246284D01*
X0241770Y0245892D02*
X0247594Y0245892D01*
X0247368Y0245500D02*
X0241997Y0245500D01*
X0242318Y0245107D02*
X0247047Y0245107D01*
X0246608Y0244715D02*
X0242756Y0244715D01*
X0243447Y0244323D02*
X0245918Y0244323D01*
X0246957Y0251775D02*
X0242407Y0251775D01*
X0242893Y0252167D02*
X0246471Y0252167D01*
X0245694Y0252559D02*
X0243670Y0252559D01*
X0244995Y0259430D02*
X0244452Y0259545D01*
X0243944Y0259771D01*
X0243495Y0260098D01*
X0243123Y0260510D01*
X0242845Y0260992D01*
X0242673Y0261520D01*
X0242615Y0262072D01*
X0242615Y0264631D01*
X0242673Y0265184D01*
X0242845Y0265712D01*
X0243123Y0266194D01*
X0243495Y0266606D01*
X0243944Y0266933D01*
X0244452Y0267159D01*
X0244995Y0267274D01*
X0245551Y0267274D01*
X0246094Y0267159D01*
X0246602Y0266933D01*
X0247051Y0266606D01*
X0247423Y0266194D01*
X0247701Y0265712D01*
X0247872Y0265184D01*
X0247930Y0264631D01*
X0247930Y0262072D01*
X0247872Y0261520D01*
X0247701Y0260992D01*
X0247423Y0260510D01*
X0247051Y0260098D01*
X0246602Y0259771D01*
X0246094Y0259545D01*
X0245551Y0259430D01*
X0244995Y0259430D01*
X0244285Y0259619D02*
X0246261Y0259619D01*
X0246932Y0260011D02*
X0243613Y0260011D01*
X0243219Y0260404D02*
X0247327Y0260404D01*
X0247588Y0260796D02*
X0242958Y0260796D01*
X0242781Y0261188D02*
X0247764Y0261188D01*
X0247879Y0261580D02*
X0242667Y0261580D01*
X0242626Y0261972D02*
X0247920Y0261972D01*
X0247930Y0262365D02*
X0242615Y0262365D01*
X0242615Y0262757D02*
X0247930Y0262757D01*
X0247930Y0263149D02*
X0242615Y0263149D01*
X0242615Y0263541D02*
X0247930Y0263541D01*
X0247930Y0263933D02*
X0242615Y0263933D01*
X0242615Y0264326D02*
X0247930Y0264326D01*
X0247921Y0264718D02*
X0242624Y0264718D01*
X0242666Y0265110D02*
X0247880Y0265110D01*
X0247769Y0265502D02*
X0242777Y0265502D01*
X0242950Y0265895D02*
X0247595Y0265895D01*
X0247339Y0266287D02*
X0243207Y0266287D01*
X0243595Y0266679D02*
X0246951Y0266679D01*
X0246291Y0267071D02*
X0244255Y0267071D01*
X0217419Y0264631D02*
X0217419Y0262072D01*
X0217360Y0261520D01*
X0217189Y0260992D01*
X0216911Y0260510D01*
X0216539Y0260098D01*
X0216090Y0259771D01*
X0215582Y0259545D01*
X0215039Y0259430D01*
X0214483Y0259430D01*
X0213940Y0259545D01*
X0213432Y0259771D01*
X0212983Y0260098D01*
X0212611Y0260510D01*
X0212333Y0260992D01*
X0212162Y0261520D01*
X0212104Y0262072D01*
X0212104Y0264631D01*
X0212162Y0265184D01*
X0212333Y0265712D01*
X0212611Y0266194D01*
X0212983Y0266606D01*
X0213432Y0266933D01*
X0213940Y0267159D01*
X0214483Y0267274D01*
X0215039Y0267274D01*
X0215582Y0267159D01*
X0216090Y0266933D01*
X0216539Y0266606D01*
X0216911Y0266194D01*
X0217189Y0265712D01*
X0217360Y0265184D01*
X0217419Y0264631D01*
X0217409Y0264718D02*
X0212113Y0264718D01*
X0212104Y0264326D02*
X0217419Y0264326D01*
X0217419Y0263933D02*
X0212104Y0263933D01*
X0212104Y0263541D02*
X0217419Y0263541D01*
X0217419Y0263149D02*
X0212104Y0263149D01*
X0212104Y0262757D02*
X0217419Y0262757D01*
X0217419Y0262365D02*
X0212104Y0262365D01*
X0212114Y0261972D02*
X0217408Y0261972D01*
X0217367Y0261580D02*
X0212155Y0261580D01*
X0212269Y0261188D02*
X0217253Y0261188D01*
X0217076Y0260796D02*
X0212446Y0260796D01*
X0212707Y0260404D02*
X0216815Y0260404D01*
X0216421Y0260011D02*
X0213101Y0260011D01*
X0213773Y0259619D02*
X0215749Y0259619D01*
X0217368Y0265110D02*
X0212154Y0265110D01*
X0212265Y0265502D02*
X0217257Y0265502D01*
X0217084Y0265895D02*
X0212438Y0265895D01*
X0212695Y0266287D02*
X0216827Y0266287D01*
X0216439Y0266679D02*
X0213083Y0266679D01*
X0213743Y0267071D02*
X0215779Y0267071D01*
X0215691Y0252704D02*
X0215012Y0252704D01*
X0214348Y0252563D01*
X0213728Y0252287D01*
X0213178Y0251888D01*
X0212724Y0251383D01*
X0212384Y0250795D01*
X0212175Y0250149D01*
X0212104Y0249474D01*
X0212104Y0247309D01*
X0212175Y0246633D01*
X0212384Y0245988D01*
X0212724Y0245400D01*
X0213178Y0244895D01*
X0213728Y0244496D01*
X0214348Y0244220D01*
X0215012Y0244078D01*
X0215691Y0244078D01*
X0216355Y0244220D01*
X0216976Y0244496D01*
X0217525Y0244895D01*
X0217979Y0245400D01*
X0218319Y0245988D01*
X0218529Y0246633D01*
X0218600Y0247309D01*
X0218600Y0249474D01*
X0218529Y0250149D01*
X0218319Y0250795D01*
X0217979Y0251383D01*
X0217525Y0251888D01*
X0216976Y0252287D01*
X0216355Y0252563D01*
X0215691Y0252704D01*
X0216364Y0252559D02*
X0214339Y0252559D01*
X0213563Y0252167D02*
X0217140Y0252167D01*
X0217627Y0251775D02*
X0213077Y0251775D01*
X0212724Y0251383D02*
X0217980Y0251383D01*
X0218206Y0250990D02*
X0212497Y0250990D01*
X0212320Y0250598D02*
X0218383Y0250598D01*
X0218510Y0250206D02*
X0212193Y0250206D01*
X0212139Y0249814D02*
X0218564Y0249814D01*
X0218600Y0249422D02*
X0212104Y0249422D01*
X0212104Y0249029D02*
X0218600Y0249029D01*
X0218600Y0248637D02*
X0212104Y0248637D01*
X0212104Y0248245D02*
X0218600Y0248245D01*
X0218600Y0247853D02*
X0212104Y0247853D01*
X0212104Y0247461D02*
X0218600Y0247461D01*
X0218574Y0247068D02*
X0212129Y0247068D01*
X0212170Y0246676D02*
X0218533Y0246676D01*
X0218415Y0246284D02*
X0212288Y0246284D01*
X0212440Y0245892D02*
X0218263Y0245892D01*
X0218037Y0245500D02*
X0212666Y0245500D01*
X0212987Y0245107D02*
X0217716Y0245107D01*
X0217277Y0244715D02*
X0213426Y0244715D01*
X0214116Y0244323D02*
X0216587Y0244323D01*
M02*
