G75*
%MOIN*%
%OFA0B0*%
%FSLAX25Y25*%
%IPPOS*%
%LPD*%
%AMOC8*
5,1,8,0,0,1.08239X$1,22.5*
%
%ADD10R,0.06299X0.06299*%
%ADD11C,0.06299*%
%ADD12C,0.06299*%
%ADD13R,0.04994X0.06694*%
%ADD14R,0.00600X0.07200*%
D10*
X0011300Y0186300D03*
X0071300Y0186300D03*
D11*
X0011300Y0046300D03*
X0011300Y0056300D03*
X0011300Y0066300D03*
X0011300Y0076300D03*
X0011300Y0086300D03*
X0011300Y0096300D03*
X0011300Y0106300D03*
X0011300Y0116300D03*
X0011300Y0126300D03*
X0011300Y0136300D03*
X0011300Y0146300D03*
X0011300Y0156300D03*
X0011300Y0166300D03*
X0011300Y0176300D03*
X0071300Y0176300D03*
X0071300Y0166300D03*
X0071300Y0156300D03*
X0071300Y0146300D03*
X0071300Y0136300D03*
X0071300Y0126300D03*
X0071300Y0116300D03*
X0071300Y0106300D03*
X0071300Y0096300D03*
X0071300Y0086300D03*
X0071300Y0076300D03*
X0071300Y0066300D03*
X0071300Y0056300D03*
X0071300Y0046300D03*
D12*
X0190847Y0143800D02*
X0196753Y0143800D01*
X0196753Y0153800D02*
X0190847Y0153800D01*
X0190847Y0163800D02*
X0196753Y0163800D01*
X0196753Y0173800D02*
X0190847Y0173800D01*
X0283800Y0046753D02*
X0283800Y0040847D01*
X0293800Y0040847D02*
X0293800Y0046753D01*
D13*
X0122735Y0163790D03*
X0116735Y0163790D03*
D14*
X0119735Y0163790D03*
M02*
