%
M48
M72
T01C0.01378
T02C0.03937
%
T01
X56300Y36300
X61300Y46300
X46300Y56300
X51300Y61300
X61300Y61300
X76300Y71300
X81300Y77550
X61300Y76300
X51300Y86300
X46300Y91300
X36300Y91300
X26300Y101300
X36300Y106300
X31300Y111300
X21300Y111300
X38800Y121300
X42550Y116300
X51300Y106300
X56300Y106300
X56300Y116300
X65050Y116300
X61300Y126300
X46300Y131300
X41300Y131300
X21300Y131300
X21300Y151300
X31300Y156300
X41300Y151300
X61300Y146300
X65050Y151300
X61300Y166300
X46300Y171300
X41300Y171300
X21300Y171300
X21300Y191300
X41300Y191300
X61300Y191300
X71560Y201319
X93800Y188048
X98800Y200050
X103800Y203800
X116300Y206300
X122550Y206300
X118800Y201300
X120050Y187550
X131300Y181300
X121300Y171300
X131300Y163800
X141300Y161300
X151300Y161300
X156300Y157550
X166300Y161300
X165050Y131300
X156300Y131281
X133800Y130050
X130050Y125050
X121300Y121300
X111300Y121300
X98800Y113800
X113800Y111300
X122763Y109837
X130050Y113800
X146300Y106300
X149790Y101319
X163800Y100050
X171300Y100050
X173800Y103800
X181300Y101300
X185050Y101300
X190050Y87550
X171300Y73800
X148800Y86300
X126300Y77550
X136300Y71300
X121560Y63819
X123800Y58800
X127810Y46319
X118800Y46300
X111300Y41300
X82550Y43800
X82550Y48819
X78800Y58800
X104060Y67569
X101300Y75050
X81300Y91300
X82436Y97550
X61300Y96300
X36300Y76300
X21300Y71300
X38800Y66300
X21300Y51300
X111300Y97550
X121300Y96300
X96300Y126300
X91300Y126300
X83800Y131300
X91300Y136300
X97550Y136300
X99060Y142569
X89412Y154412
X98781Y154949
X101560Y171319
X121300Y156300
X121300Y136300
X233800Y88800
X233800Y83800
X233800Y78800
X238800Y78800
X243800Y81300
X248800Y81300
X253800Y81300
X258800Y78800
X263800Y78800
X263800Y83800
X258800Y83800
X258800Y88800
X263800Y88800
X263800Y93800
X258800Y93800
X253800Y93800
X253800Y98800
X258800Y98800
X263800Y98800
X268800Y98800
X273800Y98800
X278800Y98800
X278800Y93800
X273800Y93800
X268800Y93800
X268800Y88800
X273800Y88800
X278800Y88800
X283800Y88800
X283800Y93800
X283800Y98800
X276300Y103800
X276300Y108800
X276300Y113800
X276300Y118800
X271300Y118800
X266300Y118800
X261300Y118800
X261300Y113800
X266300Y113800
X271300Y113800
X271300Y108800
X266300Y108800
X261300Y108800
X261300Y103800
X266300Y103800
X271300Y103800
X248800Y98800
X243800Y98800
X243800Y93800
X238800Y93800
X238800Y88800
X238800Y83800
X248800Y93800
X248800Y71300
X243800Y71300
X238800Y71300
X238800Y66300
X238800Y61300
X243800Y58800
X248800Y58800
X248800Y53800
X243800Y53800
X238800Y56300
X233800Y61300
X233800Y66300
X233800Y71300
X253800Y71300
X258800Y71300
X263800Y71300
X263800Y66300
X258800Y66300
X258800Y61300
X263800Y61300
X258800Y56300
X253800Y53800
X253800Y58800
X248800Y48800
X293800Y88800
X293800Y93800
X293800Y98800
X298800Y98800
X303800Y98800
X308800Y98800
X308800Y93800
X303800Y93800
X298800Y93800
X298800Y88800
X303800Y88800
X308800Y88800
X313800Y88800
X318800Y88800
X318800Y83800
X313800Y83800
X313800Y78800
X318800Y78800
X323800Y81300
X328800Y81300
X333800Y81300
X338800Y83800
X338800Y88800
X338800Y93800
X333800Y93800
X328800Y93800
X328800Y98800
X333800Y98800
X323800Y98800
X318800Y98800
X313800Y98800
X313800Y93800
X318800Y93800
X323800Y93800
X316300Y103800
X311300Y103800
X306300Y103800
X306300Y108800
X311300Y108800
X316300Y108800
X316300Y113800
X311300Y113800
X306300Y113800
X306300Y118800
X311300Y118800
X316300Y118800
X313800Y123800
X308800Y123800
X303800Y123800
X303800Y128800
X308800Y128800
X293800Y131300
X281300Y131300
X273800Y128800
X268800Y128800
X268800Y123800
X273800Y123800
X263800Y123800
X301300Y118800
X301300Y113800
X301300Y108800
X301300Y103800
X343800Y88800
X343800Y83800
X343800Y78800
X343800Y71300
X343800Y66300
X343800Y61300
X338800Y61300
X333800Y58800
X328800Y58800
X328800Y53800
X333800Y53800
X338800Y56300
X328800Y48800
X323800Y53800
X318800Y56300
X323800Y58800
X318800Y61300
X313800Y61300
X313800Y66300
X318800Y66300
X318800Y71300
X313800Y71300
X323800Y71300
X328800Y71300
X333800Y71300
X338800Y71300
X338800Y66300
X288800Y151300
X288800Y156300
X288800Y190050
X293347Y196300
X300050Y193800
X311300Y196300
X280241Y202550
X266300Y200069
X275796Y190796
X191300Y217550
X141300Y217550
X146300Y55050
X156300Y46300
X168819Y54986
X178800Y54967
X171300Y41300
X176300Y36300
T02
X71300Y46300
X71300Y56300
X71300Y66300
X71300Y76300
X71300Y86300
X71300Y96300
X71300Y106300
X71300Y116300
X71300Y126300
X71300Y136300
X71300Y146300
X71300Y156300
X71300Y166300
X71300Y176300
X71300Y186300
X11300Y186300
X11300Y176300
X11300Y166300
X11300Y156300
X11300Y146300
X11300Y136300
X11300Y126300
X11300Y116300
X11300Y106300
X11300Y96300
X11300Y86300
X11300Y76300
X11300Y66300
X11300Y56300
X11300Y46300
X193800Y143800
X193800Y153800
X193800Y163800
X193800Y173800
X283800Y43800
X293800Y43800
M30
