G75*
%MOIN*%
%OFA0B0*%
%FSLAX25Y25*%
%IPPOS*%
%LPD*%
%AMOC8*
5,1,8,0,0,1.08239X$1,22.5*
%
%ADD10R,0.05906X0.05906*%
%ADD11C,0.05906*%
%ADD12C,0.05906*%
%ADD13R,0.04600X0.06300*%
%ADD14C,0.02559*%
%ADD15C,0.00600*%
%ADD16C,0.02400*%
%ADD17C,0.04000*%
%ADD18C,0.03200*%
%ADD19C,0.01200*%
D10*
X0011300Y0186300D03*
X0071300Y0186300D03*
D11*
X0071300Y0176300D03*
X0071300Y0166300D03*
X0071300Y0156300D03*
X0071300Y0146300D03*
X0071300Y0136300D03*
X0071300Y0126300D03*
X0071300Y0116300D03*
X0071300Y0106300D03*
X0071300Y0096300D03*
X0071300Y0086300D03*
X0071300Y0076300D03*
X0071300Y0066300D03*
X0071300Y0056300D03*
X0071300Y0046300D03*
X0011300Y0046300D03*
X0011300Y0056300D03*
X0011300Y0066300D03*
X0011300Y0076300D03*
X0011300Y0086300D03*
X0011300Y0096300D03*
X0011300Y0106300D03*
X0011300Y0116300D03*
X0011300Y0126300D03*
X0011300Y0136300D03*
X0011300Y0146300D03*
X0011300Y0156300D03*
X0011300Y0166300D03*
X0011300Y0176300D03*
D12*
X0190847Y0173800D02*
X0196753Y0173800D01*
X0196753Y0163800D02*
X0190847Y0163800D01*
X0190847Y0153800D02*
X0196753Y0153800D01*
X0196753Y0143800D02*
X0190847Y0143800D01*
X0283800Y0046753D02*
X0283800Y0040847D01*
X0293800Y0040847D02*
X0293800Y0046753D01*
D13*
X0122735Y0163790D03*
X0116735Y0163790D03*
D14*
X0121300Y0156300D03*
X0131300Y0163800D03*
X0141300Y0161300D03*
X0151300Y0161300D03*
X0156300Y0157550D03*
X0166300Y0161300D03*
X0131300Y0181300D03*
X0120050Y0187550D03*
X0118800Y0201300D03*
X0116300Y0206300D03*
X0122550Y0206300D03*
X0103800Y0203800D03*
X0098800Y0200050D03*
X0093800Y0188048D03*
X0071560Y0201319D03*
X0061300Y0191300D03*
X0041300Y0191300D03*
X0021300Y0191300D03*
X0021300Y0171300D03*
X0041300Y0171300D03*
X0046300Y0171300D03*
X0061300Y0166300D03*
X0065050Y0151300D03*
X0061300Y0146300D03*
X0041300Y0151300D03*
X0031300Y0156300D03*
X0021300Y0151300D03*
X0021300Y0131300D03*
X0038800Y0121300D03*
X0042550Y0116300D03*
X0031300Y0111300D03*
X0036300Y0106300D03*
X0026300Y0101300D03*
X0021300Y0111300D03*
X0036300Y0091300D03*
X0046300Y0091300D03*
X0051300Y0086300D03*
X0061300Y0076300D03*
X0076300Y0071300D03*
X0081300Y0077550D03*
X0081300Y0091300D03*
X0082436Y0097550D03*
X0061300Y0096300D03*
X0056300Y0106300D03*
X0051300Y0106300D03*
X0056300Y0116300D03*
X0065050Y0116300D03*
X0061300Y0126300D03*
X0046300Y0131300D03*
X0041300Y0131300D03*
X0083800Y0131300D03*
X0091300Y0126300D03*
X0096300Y0126300D03*
X0097550Y0136300D03*
X0091300Y0136300D03*
X0099060Y0142569D03*
X0089412Y0154412D03*
X0098781Y0154949D03*
X0101560Y0171319D03*
X0121300Y0171300D03*
X0121300Y0136300D03*
X0133800Y0130050D03*
X0130050Y0125050D03*
X0121300Y0121300D03*
X0111300Y0121300D03*
X0098800Y0113800D03*
X0113800Y0111300D03*
X0122763Y0109837D03*
X0130050Y0113800D03*
X0146300Y0106300D03*
X0149790Y0101319D03*
X0163800Y0100050D03*
X0171300Y0100050D03*
X0173800Y0103800D03*
X0181300Y0101300D03*
X0185050Y0101300D03*
X0190050Y0087550D03*
X0171300Y0073800D03*
X0148800Y0086300D03*
X0136300Y0071300D03*
X0126300Y0077550D03*
X0121560Y0063819D03*
X0123800Y0058800D03*
X0127810Y0046319D03*
X0118800Y0046300D03*
X0111300Y0041300D03*
X0082550Y0043800D03*
X0082550Y0048819D03*
X0078800Y0058800D03*
X0061300Y0061300D03*
X0051300Y0061300D03*
X0046300Y0056300D03*
X0038800Y0066300D03*
X0036300Y0076300D03*
X0021300Y0071300D03*
X0021300Y0051300D03*
X0056300Y0036300D03*
X0061300Y0046300D03*
X0104060Y0067569D03*
X0101300Y0075050D03*
X0121300Y0096300D03*
X0111300Y0097550D03*
X0156300Y0131281D03*
X0165050Y0131300D03*
X0233800Y0088800D03*
X0233800Y0083800D03*
X0233800Y0078800D03*
X0238800Y0078800D03*
X0243800Y0081300D03*
X0248800Y0081300D03*
X0253800Y0081300D03*
X0258800Y0078800D03*
X0263800Y0078800D03*
X0263800Y0083800D03*
X0258800Y0083800D03*
X0258800Y0088800D03*
X0263800Y0088800D03*
X0263800Y0093800D03*
X0258800Y0093800D03*
X0253800Y0093800D03*
X0253800Y0098800D03*
X0258800Y0098800D03*
X0263800Y0098800D03*
X0268800Y0098800D03*
X0273800Y0098800D03*
X0278800Y0098800D03*
X0278800Y0093800D03*
X0273800Y0093800D03*
X0268800Y0093800D03*
X0268800Y0088800D03*
X0273800Y0088800D03*
X0278800Y0088800D03*
X0283800Y0088800D03*
X0283800Y0093800D03*
X0283800Y0098800D03*
X0276300Y0103800D03*
X0276300Y0108800D03*
X0276300Y0113800D03*
X0271300Y0113800D03*
X0266300Y0113800D03*
X0261300Y0113800D03*
X0261300Y0108800D03*
X0266300Y0108800D03*
X0271300Y0108800D03*
X0271300Y0103800D03*
X0266300Y0103800D03*
X0261300Y0103800D03*
X0248800Y0098800D03*
X0243800Y0098800D03*
X0243800Y0093800D03*
X0238800Y0093800D03*
X0238800Y0088800D03*
X0238800Y0083800D03*
X0248800Y0093800D03*
X0248800Y0071300D03*
X0243800Y0071300D03*
X0238800Y0071300D03*
X0233800Y0071300D03*
X0233800Y0066300D03*
X0233800Y0061300D03*
X0238800Y0061300D03*
X0243800Y0058800D03*
X0248800Y0058800D03*
X0248800Y0053800D03*
X0243800Y0053800D03*
X0238800Y0056300D03*
X0248800Y0048800D03*
X0253800Y0053800D03*
X0258800Y0056300D03*
X0253800Y0058800D03*
X0258800Y0061300D03*
X0263800Y0061300D03*
X0263800Y0066300D03*
X0258800Y0066300D03*
X0258800Y0071300D03*
X0253800Y0071300D03*
X0263800Y0071300D03*
X0238800Y0066300D03*
X0293800Y0088800D03*
X0293800Y0093800D03*
X0293800Y0098800D03*
X0298800Y0098800D03*
X0303800Y0098800D03*
X0308800Y0098800D03*
X0308800Y0093800D03*
X0303800Y0093800D03*
X0298800Y0093800D03*
X0298800Y0088800D03*
X0303800Y0088800D03*
X0308800Y0088800D03*
X0313800Y0088800D03*
X0318800Y0088800D03*
X0318800Y0083800D03*
X0313800Y0083800D03*
X0313800Y0078800D03*
X0318800Y0078800D03*
X0323800Y0081300D03*
X0328800Y0081300D03*
X0333800Y0081300D03*
X0338800Y0083800D03*
X0338800Y0088800D03*
X0338800Y0093800D03*
X0333800Y0093800D03*
X0328800Y0093800D03*
X0328800Y0098800D03*
X0333800Y0098800D03*
X0323800Y0098800D03*
X0318800Y0098800D03*
X0313800Y0098800D03*
X0313800Y0093800D03*
X0318800Y0093800D03*
X0323800Y0093800D03*
X0316300Y0103800D03*
X0311300Y0103800D03*
X0306300Y0103800D03*
X0306300Y0108800D03*
X0311300Y0108800D03*
X0316300Y0108800D03*
X0316300Y0113800D03*
X0311300Y0113800D03*
X0306300Y0113800D03*
X0301300Y0113800D03*
X0301300Y0108800D03*
X0301300Y0103800D03*
X0301300Y0118800D03*
X0306300Y0118800D03*
X0311300Y0118800D03*
X0316300Y0118800D03*
X0313800Y0123800D03*
X0308800Y0123800D03*
X0303800Y0123800D03*
X0303800Y0128800D03*
X0308800Y0128800D03*
X0293800Y0131300D03*
X0281300Y0131300D03*
X0273800Y0128800D03*
X0268800Y0128800D03*
X0268800Y0123800D03*
X0273800Y0123800D03*
X0271300Y0118800D03*
X0266300Y0118800D03*
X0261300Y0118800D03*
X0263800Y0123800D03*
X0276300Y0118800D03*
X0288800Y0151300D03*
X0288800Y0156300D03*
X0288800Y0190050D03*
X0293347Y0196300D03*
X0300050Y0193800D03*
X0311300Y0196300D03*
X0280241Y0202550D03*
X0266300Y0200069D03*
X0275796Y0190796D03*
X0191300Y0217550D03*
X0141300Y0217550D03*
X0343800Y0088800D03*
X0343800Y0083800D03*
X0343800Y0078800D03*
X0343800Y0071300D03*
X0338800Y0071300D03*
X0333800Y0071300D03*
X0328800Y0071300D03*
X0323800Y0071300D03*
X0318800Y0071300D03*
X0313800Y0071300D03*
X0313800Y0066300D03*
X0318800Y0066300D03*
X0318800Y0061300D03*
X0313800Y0061300D03*
X0318800Y0056300D03*
X0323800Y0053800D03*
X0323800Y0058800D03*
X0328800Y0058800D03*
X0333800Y0058800D03*
X0338800Y0056300D03*
X0333800Y0053800D03*
X0328800Y0053800D03*
X0328800Y0048800D03*
X0338800Y0061300D03*
X0338800Y0066300D03*
X0343800Y0066300D03*
X0343800Y0061300D03*
X0178800Y0054967D03*
X0168819Y0054986D03*
X0156300Y0046300D03*
X0146300Y0055050D03*
X0171300Y0041300D03*
X0176300Y0036300D03*
D15*
X0003568Y0013568D02*
X0003568Y0225567D01*
X0125050Y0225567D01*
X0125050Y0210400D01*
X0118137Y0210400D01*
X0117200Y0209463D01*
X0116617Y0208880D01*
X0115787Y0208880D01*
X0114839Y0208487D01*
X0114113Y0207761D01*
X0113720Y0206813D01*
X0113720Y0205787D01*
X0113881Y0205400D01*
X0105848Y0205400D01*
X0105261Y0205987D01*
X0104313Y0206380D01*
X0103287Y0206380D01*
X0102339Y0205987D01*
X0101613Y0205261D01*
X0101220Y0204313D01*
X0101220Y0203287D01*
X0101381Y0202900D01*
X0099387Y0202900D01*
X0099117Y0202630D01*
X0098287Y0202630D01*
X0097339Y0202237D01*
X0096613Y0201511D01*
X0096220Y0200563D01*
X0096220Y0199537D01*
X0096613Y0198589D01*
X0097339Y0197863D01*
X0098287Y0197470D01*
X0099313Y0197470D01*
X0100261Y0197863D01*
X0100987Y0198589D01*
X0101380Y0199537D01*
X0101380Y0199700D01*
X0116752Y0199700D01*
X0117339Y0199113D01*
X0118287Y0198720D01*
X0119313Y0198720D01*
X0120261Y0199113D01*
X0120848Y0199700D01*
X0125050Y0199700D01*
X0125050Y0168240D01*
X0119897Y0168240D01*
X0119735Y0168079D01*
X0119574Y0168240D01*
X0113897Y0168240D01*
X0113135Y0167479D01*
X0113135Y0167090D01*
X0079480Y0167090D01*
X0079456Y0167100D01*
X0078144Y0167100D01*
X0076931Y0166598D01*
X0076002Y0165669D01*
X0075387Y0165054D01*
X0075553Y0165454D01*
X0075553Y0167146D01*
X0074905Y0168709D01*
X0073709Y0169905D01*
X0072146Y0170553D01*
X0070454Y0170553D01*
X0068891Y0169905D01*
X0067695Y0168709D01*
X0067047Y0167146D01*
X0067047Y0165454D01*
X0067695Y0163891D01*
X0068891Y0162695D01*
X0070454Y0162047D01*
X0072146Y0162047D01*
X0072546Y0162213D01*
X0070886Y0160553D01*
X0070454Y0160553D01*
X0068891Y0159905D01*
X0068586Y0159600D01*
X0030644Y0159600D01*
X0029431Y0159098D01*
X0028502Y0158169D01*
X0028000Y0156956D01*
X0028000Y0155644D01*
X0028502Y0154431D01*
X0029431Y0153502D01*
X0030644Y0153000D01*
X0063102Y0153000D01*
X0062863Y0152761D01*
X0062470Y0151813D01*
X0062470Y0150787D01*
X0062863Y0149839D01*
X0063589Y0149113D01*
X0064537Y0148720D01*
X0065563Y0148720D01*
X0066511Y0149113D01*
X0067098Y0149700D01*
X0068686Y0149700D01*
X0067695Y0148709D01*
X0067047Y0147146D01*
X0067047Y0145454D01*
X0067695Y0143891D01*
X0068891Y0142695D01*
X0070454Y0142047D01*
X0072146Y0142047D01*
X0073709Y0142695D01*
X0074905Y0143891D01*
X0075553Y0145454D01*
X0075553Y0146035D01*
X0089700Y0131887D01*
X0089700Y0128348D01*
X0089113Y0127761D01*
X0088720Y0126813D01*
X0088720Y0125787D01*
X0089113Y0124839D01*
X0089839Y0124113D01*
X0090787Y0123720D01*
X0091813Y0123720D01*
X0092761Y0124113D01*
X0093487Y0124839D01*
X0093800Y0125595D01*
X0094113Y0124839D01*
X0094839Y0124113D01*
X0095787Y0123720D01*
X0096617Y0123720D01*
X0096887Y0123450D01*
X0109802Y0123450D01*
X0109252Y0122900D01*
X0073914Y0122900D01*
X0074905Y0123891D01*
X0075553Y0125454D01*
X0075553Y0127146D01*
X0074905Y0128709D01*
X0073914Y0129700D01*
X0081752Y0129700D01*
X0082339Y0129113D01*
X0083287Y0128720D01*
X0084313Y0128720D01*
X0085261Y0129113D01*
X0085987Y0129839D01*
X0086380Y0130787D01*
X0086380Y0131813D01*
X0085987Y0132761D01*
X0085261Y0133487D01*
X0084313Y0133880D01*
X0083287Y0133880D01*
X0082339Y0133487D01*
X0081752Y0132900D01*
X0073914Y0132900D01*
X0074905Y0133891D01*
X0075553Y0135454D01*
X0075553Y0137146D01*
X0074905Y0138709D01*
X0073709Y0139905D01*
X0072146Y0140553D01*
X0070454Y0140553D01*
X0068891Y0139905D01*
X0067695Y0138709D01*
X0067047Y0137146D01*
X0067047Y0135454D01*
X0067695Y0133891D01*
X0068686Y0132900D01*
X0048348Y0132900D01*
X0047761Y0133487D01*
X0046813Y0133880D01*
X0045787Y0133880D01*
X0044839Y0133487D01*
X0044113Y0132761D01*
X0043720Y0131813D01*
X0043720Y0130787D01*
X0044113Y0129839D01*
X0044839Y0129113D01*
X0045787Y0128720D01*
X0046813Y0128720D01*
X0047761Y0129113D01*
X0048348Y0129700D01*
X0068686Y0129700D01*
X0067695Y0128709D01*
X0067047Y0127146D01*
X0067047Y0125454D01*
X0067695Y0123891D01*
X0068686Y0122900D01*
X0040848Y0122900D01*
X0040261Y0123487D01*
X0039313Y0123880D01*
X0038287Y0123880D01*
X0037339Y0123487D01*
X0036613Y0122761D01*
X0036220Y0121813D01*
X0036220Y0120787D01*
X0036613Y0119839D01*
X0037339Y0119113D01*
X0038287Y0118720D01*
X0039313Y0118720D01*
X0040261Y0119113D01*
X0040848Y0119700D01*
X0068686Y0119700D01*
X0067695Y0118709D01*
X0067269Y0117682D01*
X0067237Y0117761D01*
X0066511Y0118487D01*
X0065563Y0118880D01*
X0064537Y0118880D01*
X0063589Y0118487D01*
X0063002Y0117900D01*
X0058348Y0117900D01*
X0057761Y0118487D01*
X0056813Y0118880D01*
X0055787Y0118880D01*
X0054839Y0118487D01*
X0054113Y0117761D01*
X0053720Y0116813D01*
X0053720Y0115787D01*
X0054113Y0114839D01*
X0054839Y0114113D01*
X0055787Y0113720D01*
X0056813Y0113720D01*
X0057761Y0114113D01*
X0058348Y0114700D01*
X0063002Y0114700D01*
X0063589Y0114113D01*
X0064537Y0113720D01*
X0065563Y0113720D01*
X0066511Y0114113D01*
X0067237Y0114839D01*
X0067269Y0114918D01*
X0067695Y0113891D01*
X0068386Y0113200D01*
X0033048Y0113200D01*
X0032761Y0113487D01*
X0031813Y0113880D01*
X0030787Y0113880D01*
X0029839Y0113487D01*
X0029113Y0112761D01*
X0028720Y0111813D01*
X0028720Y0110787D01*
X0029113Y0109839D01*
X0029839Y0109113D01*
X0030787Y0108720D01*
X0031813Y0108720D01*
X0032761Y0109113D01*
X0033048Y0109400D01*
X0068386Y0109400D01*
X0067695Y0108709D01*
X0067360Y0107900D01*
X0058348Y0107900D01*
X0057761Y0108487D01*
X0056813Y0108880D01*
X0055787Y0108880D01*
X0054839Y0108487D01*
X0054113Y0107761D01*
X0053720Y0106813D01*
X0053720Y0105787D01*
X0054113Y0104839D01*
X0054839Y0104113D01*
X0055787Y0103720D01*
X0056813Y0103720D01*
X0057761Y0104113D01*
X0058348Y0104700D01*
X0067360Y0104700D01*
X0067695Y0103891D01*
X0068686Y0102900D01*
X0028348Y0102900D01*
X0027761Y0103487D01*
X0026813Y0103880D01*
X0025787Y0103880D01*
X0024839Y0103487D01*
X0024113Y0102761D01*
X0023720Y0101813D01*
X0023720Y0100787D01*
X0024113Y0099839D01*
X0024839Y0099113D01*
X0025787Y0098720D01*
X0026813Y0098720D01*
X0027761Y0099113D01*
X0028348Y0099700D01*
X0068686Y0099700D01*
X0067695Y0098709D01*
X0067047Y0097146D01*
X0067047Y0095454D01*
X0067695Y0093891D01*
X0068686Y0092900D01*
X0048348Y0092900D01*
X0047761Y0093487D01*
X0046813Y0093880D01*
X0045787Y0093880D01*
X0044839Y0093487D01*
X0044113Y0092761D01*
X0043720Y0091813D01*
X0043720Y0090787D01*
X0044113Y0089839D01*
X0044839Y0089113D01*
X0045787Y0088720D01*
X0046813Y0088720D01*
X0047761Y0089113D01*
X0048348Y0089700D01*
X0068686Y0089700D01*
X0067695Y0088709D01*
X0067047Y0087146D01*
X0067047Y0085454D01*
X0067695Y0083891D01*
X0068686Y0082900D01*
X0036963Y0082900D01*
X0015218Y0104645D01*
X0015553Y0105454D01*
X0015553Y0107146D01*
X0014905Y0108709D01*
X0013709Y0109905D01*
X0012146Y0110553D01*
X0010454Y0110553D01*
X0008891Y0109905D01*
X0007695Y0108709D01*
X0007047Y0107146D01*
X0007047Y0105454D01*
X0007695Y0103891D01*
X0008891Y0102695D01*
X0010454Y0102047D01*
X0012146Y0102047D01*
X0012955Y0102382D01*
X0035637Y0079700D01*
X0068686Y0079700D01*
X0067695Y0078709D01*
X0067047Y0077146D01*
X0067047Y0075454D01*
X0067695Y0073891D01*
X0068686Y0072900D01*
X0036963Y0072900D01*
X0015218Y0094645D01*
X0015553Y0095454D01*
X0015553Y0097146D01*
X0014905Y0098709D01*
X0013709Y0099905D01*
X0012146Y0100553D01*
X0010454Y0100553D01*
X0008891Y0099905D01*
X0007695Y0098709D01*
X0007047Y0097146D01*
X0007047Y0095454D01*
X0007695Y0093891D01*
X0008891Y0092695D01*
X0010454Y0092047D01*
X0012146Y0092047D01*
X0012955Y0092382D01*
X0035637Y0069700D01*
X0068686Y0069700D01*
X0067695Y0068709D01*
X0067360Y0067900D01*
X0040848Y0067900D01*
X0040261Y0068487D01*
X0039313Y0068880D01*
X0038287Y0068880D01*
X0037339Y0068487D01*
X0036613Y0067761D01*
X0036220Y0066813D01*
X0036220Y0065787D01*
X0036613Y0064839D01*
X0037339Y0064113D01*
X0038287Y0063720D01*
X0039313Y0063720D01*
X0040261Y0064113D01*
X0040848Y0064700D01*
X0067360Y0064700D01*
X0067695Y0063891D01*
X0068891Y0062695D01*
X0070454Y0062047D01*
X0072146Y0062047D01*
X0073709Y0062695D01*
X0074905Y0063891D01*
X0075553Y0065454D01*
X0075553Y0067146D01*
X0074905Y0068709D01*
X0073914Y0069700D01*
X0074252Y0069700D01*
X0074839Y0069113D01*
X0075787Y0068720D01*
X0076813Y0068720D01*
X0077761Y0069113D01*
X0078487Y0069839D01*
X0078880Y0070787D01*
X0078880Y0071813D01*
X0078487Y0072761D01*
X0077761Y0073487D01*
X0076813Y0073880D01*
X0075787Y0073880D01*
X0074839Y0073487D01*
X0074252Y0072900D01*
X0073914Y0072900D01*
X0074905Y0073891D01*
X0075553Y0075454D01*
X0075553Y0077146D01*
X0074905Y0078709D01*
X0073914Y0079700D01*
X0076887Y0079700D01*
X0078720Y0077867D01*
X0078720Y0077037D01*
X0079113Y0076089D01*
X0079839Y0075363D01*
X0080787Y0074970D01*
X0081813Y0074970D01*
X0082761Y0075363D01*
X0083487Y0076089D01*
X0083880Y0077037D01*
X0083880Y0078063D01*
X0083487Y0079011D01*
X0082761Y0079737D01*
X0081813Y0080130D01*
X0080983Y0080130D01*
X0078213Y0082900D01*
X0073914Y0082900D01*
X0074905Y0083891D01*
X0075553Y0085454D01*
X0075553Y0087146D01*
X0074905Y0088709D01*
X0073709Y0089905D01*
X0073503Y0089991D01*
X0083213Y0099700D01*
X0109700Y0099700D01*
X0109700Y0099598D01*
X0109113Y0099011D01*
X0108720Y0098063D01*
X0108720Y0097037D01*
X0109113Y0096089D01*
X0109839Y0095363D01*
X0110787Y0094970D01*
X0111813Y0094970D01*
X0112761Y0095363D01*
X0113487Y0096089D01*
X0113880Y0097037D01*
X0113880Y0098063D01*
X0113487Y0099011D01*
X0112900Y0099598D01*
X0112900Y0099700D01*
X0138137Y0099700D01*
X0147200Y0090637D01*
X0147200Y0088348D01*
X0146613Y0087761D01*
X0146220Y0086813D01*
X0146220Y0085787D01*
X0146613Y0084839D01*
X0147339Y0084113D01*
X0148287Y0083720D01*
X0149313Y0083720D01*
X0150261Y0084113D01*
X0150987Y0084839D01*
X0151380Y0085787D01*
X0151380Y0086813D01*
X0150987Y0087761D01*
X0150400Y0088348D01*
X0150400Y0089700D01*
X0163213Y0089700D01*
X0170983Y0097470D01*
X0171813Y0097470D01*
X0172761Y0097863D01*
X0173487Y0098589D01*
X0173880Y0099537D01*
X0173880Y0100563D01*
X0173607Y0101220D01*
X0174117Y0101220D01*
X0187470Y0087867D01*
X0187470Y0087037D01*
X0187863Y0086089D01*
X0188589Y0085363D01*
X0189537Y0084970D01*
X0190563Y0084970D01*
X0191511Y0085363D01*
X0192237Y0086089D01*
X0192630Y0087037D01*
X0192630Y0088063D01*
X0192237Y0089011D01*
X0191511Y0089737D01*
X0190563Y0090130D01*
X0189733Y0090130D01*
X0181142Y0098720D01*
X0181813Y0098720D01*
X0182761Y0099113D01*
X0183175Y0099527D01*
X0183589Y0099113D01*
X0184537Y0098720D01*
X0185563Y0098720D01*
X0186511Y0099113D01*
X0187237Y0099839D01*
X0187630Y0100787D01*
X0187630Y0101617D01*
X0194813Y0108800D01*
X0196300Y0108800D01*
X0196300Y0013568D01*
X0003568Y0013568D01*
X0003568Y0013694D02*
X0196300Y0013694D01*
X0196300Y0014293D02*
X0003568Y0014293D01*
X0003568Y0014891D02*
X0196300Y0014891D01*
X0196300Y0015490D02*
X0003568Y0015490D01*
X0003568Y0016088D02*
X0196300Y0016088D01*
X0196300Y0016687D02*
X0003568Y0016687D01*
X0003568Y0017285D02*
X0196300Y0017285D01*
X0196300Y0017884D02*
X0003568Y0017884D01*
X0003568Y0018482D02*
X0196300Y0018482D01*
X0196300Y0019081D02*
X0003568Y0019081D01*
X0003568Y0019679D02*
X0196300Y0019679D01*
X0196300Y0020278D02*
X0003568Y0020278D01*
X0003568Y0020876D02*
X0196300Y0020876D01*
X0196300Y0021475D02*
X0003568Y0021475D01*
X0003568Y0022073D02*
X0196300Y0022073D01*
X0196300Y0022672D02*
X0003568Y0022672D01*
X0003568Y0023270D02*
X0196300Y0023270D01*
X0196300Y0023869D02*
X0003568Y0023869D01*
X0003568Y0024467D02*
X0196300Y0024467D01*
X0196300Y0025066D02*
X0003568Y0025066D01*
X0003568Y0025664D02*
X0196300Y0025664D01*
X0196300Y0026263D02*
X0003568Y0026263D01*
X0003568Y0026861D02*
X0196300Y0026861D01*
X0196300Y0027460D02*
X0003568Y0027460D01*
X0003568Y0028058D02*
X0196300Y0028058D01*
X0196300Y0028657D02*
X0003568Y0028657D01*
X0003568Y0029255D02*
X0196300Y0029255D01*
X0196300Y0029854D02*
X0003568Y0029854D01*
X0003568Y0030452D02*
X0196300Y0030452D01*
X0196300Y0031051D02*
X0003568Y0031051D01*
X0003568Y0031649D02*
X0196300Y0031649D01*
X0196300Y0032248D02*
X0003568Y0032248D01*
X0003568Y0032846D02*
X0196300Y0032846D01*
X0196300Y0033445D02*
X0158031Y0033445D01*
X0158169Y0033502D02*
X0159098Y0034431D01*
X0159498Y0035396D01*
X0171277Y0047176D01*
X0171719Y0048242D01*
X0171719Y0055563D01*
X0171277Y0056629D01*
X0170462Y0057445D01*
X0169396Y0057886D01*
X0168242Y0057886D01*
X0167176Y0057445D01*
X0166360Y0056629D01*
X0165919Y0055563D01*
X0165919Y0050020D01*
X0155499Y0039600D01*
X0148200Y0039600D01*
X0148200Y0053302D01*
X0148487Y0053589D01*
X0148880Y0054537D01*
X0148880Y0055563D01*
X0148487Y0056511D01*
X0147761Y0057237D01*
X0146813Y0057630D01*
X0145787Y0057630D01*
X0144839Y0057237D01*
X0144113Y0056511D01*
X0143720Y0055563D01*
X0143720Y0054537D01*
X0144113Y0053589D01*
X0144400Y0053302D01*
X0144400Y0039600D01*
X0055644Y0039600D01*
X0054431Y0039098D01*
X0053502Y0038169D01*
X0053000Y0036956D01*
X0053000Y0035644D01*
X0053502Y0034431D01*
X0054431Y0033502D01*
X0055644Y0033000D01*
X0156956Y0033000D01*
X0158169Y0033502D01*
X0158710Y0034043D02*
X0196300Y0034043D01*
X0196300Y0034642D02*
X0159185Y0034642D01*
X0159433Y0035240D02*
X0196300Y0035240D01*
X0196300Y0035839D02*
X0159940Y0035839D01*
X0160539Y0036437D02*
X0196300Y0036437D01*
X0196300Y0037036D02*
X0161137Y0037036D01*
X0161736Y0037634D02*
X0196300Y0037634D01*
X0196300Y0038233D02*
X0162334Y0038233D01*
X0162933Y0038832D02*
X0196300Y0038832D01*
X0196300Y0039430D02*
X0163531Y0039430D01*
X0164130Y0040029D02*
X0196300Y0040029D01*
X0196300Y0040627D02*
X0164728Y0040627D01*
X0165327Y0041226D02*
X0196300Y0041226D01*
X0196300Y0041824D02*
X0165925Y0041824D01*
X0166524Y0042423D02*
X0196300Y0042423D01*
X0196300Y0043021D02*
X0167122Y0043021D01*
X0167721Y0043620D02*
X0196300Y0043620D01*
X0196300Y0044218D02*
X0168319Y0044218D01*
X0168918Y0044817D02*
X0196300Y0044817D01*
X0196300Y0045415D02*
X0169516Y0045415D01*
X0170115Y0046014D02*
X0196300Y0046014D01*
X0196300Y0046612D02*
X0170713Y0046612D01*
X0171292Y0047211D02*
X0196300Y0047211D01*
X0196300Y0047809D02*
X0171540Y0047809D01*
X0171719Y0048408D02*
X0196300Y0048408D01*
X0196300Y0049006D02*
X0171719Y0049006D01*
X0171719Y0049605D02*
X0196300Y0049605D01*
X0196300Y0050203D02*
X0171719Y0050203D01*
X0171719Y0050802D02*
X0196300Y0050802D01*
X0196300Y0051400D02*
X0171719Y0051400D01*
X0171719Y0051999D02*
X0196300Y0051999D01*
X0196300Y0052597D02*
X0179819Y0052597D01*
X0180261Y0052781D02*
X0180987Y0053506D01*
X0181380Y0054454D01*
X0181380Y0055481D01*
X0180987Y0056429D01*
X0180261Y0057154D01*
X0179313Y0057547D01*
X0178287Y0057547D01*
X0177600Y0057262D01*
X0169463Y0065400D01*
X0128137Y0065400D01*
X0127200Y0064463D01*
X0124117Y0061380D01*
X0123287Y0061380D01*
X0122339Y0060987D01*
X0121613Y0060261D01*
X0121220Y0059313D01*
X0121220Y0058483D01*
X0118137Y0055400D01*
X0117200Y0054463D01*
X0117200Y0054463D01*
X0115637Y0052900D01*
X0073914Y0052900D01*
X0074905Y0053891D01*
X0075553Y0055454D01*
X0075553Y0057146D01*
X0074905Y0058709D01*
X0073709Y0059905D01*
X0072146Y0060553D01*
X0070454Y0060553D01*
X0068891Y0059905D01*
X0067695Y0058709D01*
X0067047Y0057146D01*
X0067047Y0055454D01*
X0067695Y0053891D01*
X0068686Y0052900D01*
X0051963Y0052900D01*
X0048880Y0055983D01*
X0048880Y0056813D01*
X0048487Y0057761D01*
X0047761Y0058487D01*
X0046813Y0058880D01*
X0045787Y0058880D01*
X0044839Y0058487D01*
X0044113Y0057761D01*
X0043720Y0056813D01*
X0043720Y0055787D01*
X0044113Y0054839D01*
X0044839Y0054113D01*
X0045787Y0053720D01*
X0046617Y0053720D01*
X0049700Y0050637D01*
X0050637Y0049700D01*
X0068686Y0049700D01*
X0067695Y0048709D01*
X0067047Y0047146D01*
X0067047Y0045454D01*
X0067695Y0043891D01*
X0068891Y0042695D01*
X0070454Y0042047D01*
X0072146Y0042047D01*
X0073709Y0042695D01*
X0074905Y0043891D01*
X0075553Y0045454D01*
X0075553Y0047146D01*
X0074905Y0048709D01*
X0073914Y0049700D01*
X0116963Y0049700D01*
X0117200Y0049937D01*
X0117200Y0048348D01*
X0116613Y0047761D01*
X0116220Y0046813D01*
X0116220Y0045787D01*
X0116613Y0044839D01*
X0117339Y0044113D01*
X0118287Y0043720D01*
X0119313Y0043720D01*
X0120261Y0044113D01*
X0120987Y0044839D01*
X0121380Y0045787D01*
X0121380Y0046813D01*
X0120987Y0047761D01*
X0120400Y0048348D01*
X0120400Y0053137D01*
X0123483Y0056220D01*
X0124313Y0056220D01*
X0125261Y0056613D01*
X0125987Y0057339D01*
X0126380Y0058287D01*
X0126380Y0059117D01*
X0129463Y0062200D01*
X0168137Y0062200D01*
X0176459Y0053878D01*
X0176613Y0053506D01*
X0177339Y0052781D01*
X0178287Y0052388D01*
X0179313Y0052388D01*
X0180261Y0052781D01*
X0180676Y0053196D02*
X0196300Y0053196D01*
X0196300Y0053794D02*
X0181106Y0053794D01*
X0181354Y0054393D02*
X0196300Y0054393D01*
X0196300Y0054991D02*
X0181380Y0054991D01*
X0181334Y0055590D02*
X0196300Y0055590D01*
X0196300Y0056188D02*
X0181086Y0056188D01*
X0180629Y0056787D02*
X0196300Y0056787D01*
X0196300Y0057385D02*
X0179703Y0057385D01*
X0177897Y0057385D02*
X0177477Y0057385D01*
X0176879Y0057984D02*
X0196300Y0057984D01*
X0196300Y0058582D02*
X0176280Y0058582D01*
X0175682Y0059181D02*
X0196300Y0059181D01*
X0196300Y0059779D02*
X0175083Y0059779D01*
X0174485Y0060378D02*
X0196300Y0060378D01*
X0196300Y0060976D02*
X0173886Y0060976D01*
X0173288Y0061575D02*
X0196300Y0061575D01*
X0196300Y0062173D02*
X0172689Y0062173D01*
X0172091Y0062772D02*
X0196300Y0062772D01*
X0196300Y0063370D02*
X0171492Y0063370D01*
X0170894Y0063969D02*
X0196300Y0063969D01*
X0196300Y0064568D02*
X0170295Y0064568D01*
X0169697Y0065166D02*
X0196300Y0065166D01*
X0196300Y0065765D02*
X0075553Y0065765D01*
X0075553Y0066363D02*
X0196300Y0066363D01*
X0196300Y0066962D02*
X0075553Y0066962D01*
X0075381Y0067560D02*
X0196300Y0067560D01*
X0196300Y0068159D02*
X0075133Y0068159D01*
X0074857Y0068757D02*
X0075698Y0068757D01*
X0076901Y0068757D02*
X0196300Y0068757D01*
X0196300Y0069356D02*
X0078004Y0069356D01*
X0078535Y0069954D02*
X0196300Y0069954D01*
X0196300Y0070553D02*
X0078782Y0070553D01*
X0078880Y0071151D02*
X0196300Y0071151D01*
X0196300Y0071750D02*
X0078880Y0071750D01*
X0078658Y0072348D02*
X0196300Y0072348D01*
X0196300Y0072947D02*
X0078301Y0072947D01*
X0077620Y0073545D02*
X0196300Y0073545D01*
X0196300Y0074144D02*
X0075010Y0074144D01*
X0074980Y0073545D02*
X0074559Y0073545D01*
X0074299Y0072947D02*
X0073961Y0072947D01*
X0075258Y0074742D02*
X0196300Y0074742D01*
X0196300Y0075341D02*
X0082707Y0075341D01*
X0083337Y0075939D02*
X0196300Y0075939D01*
X0196300Y0076538D02*
X0083673Y0076538D01*
X0083880Y0077136D02*
X0196300Y0077136D01*
X0196300Y0077735D02*
X0083880Y0077735D01*
X0083768Y0078333D02*
X0196300Y0078333D01*
X0196300Y0078932D02*
X0083520Y0078932D01*
X0082968Y0079530D02*
X0196300Y0079530D01*
X0196300Y0080129D02*
X0081815Y0080129D01*
X0080385Y0080727D02*
X0196300Y0080727D01*
X0196300Y0081326D02*
X0079787Y0081326D01*
X0079188Y0081924D02*
X0196300Y0081924D01*
X0196300Y0082523D02*
X0078590Y0082523D01*
X0077550Y0081300D02*
X0036300Y0081300D01*
X0011300Y0106300D01*
X0015227Y0104668D02*
X0054284Y0104668D01*
X0053936Y0105266D02*
X0015475Y0105266D01*
X0015553Y0105865D02*
X0053720Y0105865D01*
X0053720Y0106463D02*
X0015553Y0106463D01*
X0015553Y0107062D02*
X0053823Y0107062D01*
X0054071Y0107660D02*
X0015340Y0107660D01*
X0015092Y0108259D02*
X0054611Y0108259D01*
X0055733Y0108857D02*
X0032144Y0108857D01*
X0030456Y0108857D02*
X0014757Y0108857D01*
X0014158Y0109456D02*
X0029496Y0109456D01*
X0029024Y0110054D02*
X0013349Y0110054D01*
X0012146Y0112047D02*
X0010454Y0112047D01*
X0008891Y0112695D01*
X0007695Y0113891D01*
X0007047Y0115454D01*
X0007047Y0117146D01*
X0007695Y0118709D01*
X0008891Y0119905D01*
X0010454Y0120553D01*
X0012146Y0120553D01*
X0013709Y0119905D01*
X0014905Y0118709D01*
X0015553Y0117146D01*
X0015553Y0115454D01*
X0014905Y0113891D01*
X0013709Y0112695D01*
X0012146Y0112047D01*
X0013114Y0112448D02*
X0028984Y0112448D01*
X0028736Y0111850D02*
X0003568Y0111850D01*
X0003568Y0112448D02*
X0009486Y0112448D01*
X0008539Y0113047D02*
X0003568Y0113047D01*
X0003568Y0113645D02*
X0007940Y0113645D01*
X0007548Y0114244D02*
X0003568Y0114244D01*
X0003568Y0114842D02*
X0007301Y0114842D01*
X0007053Y0115441D02*
X0003568Y0115441D01*
X0003568Y0116039D02*
X0007047Y0116039D01*
X0007047Y0116638D02*
X0003568Y0116638D01*
X0003568Y0117237D02*
X0007085Y0117237D01*
X0007333Y0117835D02*
X0003568Y0117835D01*
X0003568Y0118434D02*
X0007581Y0118434D01*
X0008018Y0119032D02*
X0003568Y0119032D01*
X0003568Y0119631D02*
X0008616Y0119631D01*
X0009673Y0120229D02*
X0003568Y0120229D01*
X0003568Y0120828D02*
X0036220Y0120828D01*
X0036220Y0121426D02*
X0003568Y0121426D01*
X0003568Y0122025D02*
X0036308Y0122025D01*
X0036556Y0122623D02*
X0013536Y0122623D01*
X0013709Y0122695D02*
X0014905Y0123891D01*
X0015553Y0125454D01*
X0015553Y0127146D01*
X0014905Y0128709D01*
X0013709Y0129905D01*
X0012146Y0130553D01*
X0010454Y0130553D01*
X0008891Y0129905D01*
X0007695Y0128709D01*
X0007047Y0127146D01*
X0007047Y0125454D01*
X0007695Y0123891D01*
X0008891Y0122695D01*
X0010454Y0122047D01*
X0012146Y0122047D01*
X0013709Y0122695D01*
X0014236Y0123222D02*
X0037074Y0123222D01*
X0038144Y0123820D02*
X0014834Y0123820D01*
X0015124Y0124419D02*
X0067476Y0124419D01*
X0067228Y0125017D02*
X0015372Y0125017D01*
X0015553Y0125616D02*
X0067047Y0125616D01*
X0067047Y0126214D02*
X0015553Y0126214D01*
X0015553Y0126813D02*
X0067047Y0126813D01*
X0067157Y0127411D02*
X0015443Y0127411D01*
X0015195Y0128010D02*
X0067405Y0128010D01*
X0067653Y0128608D02*
X0014947Y0128608D01*
X0014408Y0129207D02*
X0044745Y0129207D01*
X0044147Y0129805D02*
X0013809Y0129805D01*
X0012506Y0130404D02*
X0043879Y0130404D01*
X0043720Y0131002D02*
X0003568Y0131002D01*
X0003568Y0130404D02*
X0010094Y0130404D01*
X0008791Y0129805D02*
X0003568Y0129805D01*
X0003568Y0129207D02*
X0008192Y0129207D01*
X0007653Y0128608D02*
X0003568Y0128608D01*
X0003568Y0128010D02*
X0007405Y0128010D01*
X0007157Y0127411D02*
X0003568Y0127411D01*
X0003568Y0126813D02*
X0007047Y0126813D01*
X0007047Y0126214D02*
X0003568Y0126214D01*
X0003568Y0125616D02*
X0007047Y0125616D01*
X0007228Y0125017D02*
X0003568Y0125017D01*
X0003568Y0124419D02*
X0007476Y0124419D01*
X0007766Y0123820D02*
X0003568Y0123820D01*
X0003568Y0123222D02*
X0008364Y0123222D01*
X0009064Y0122623D02*
X0003568Y0122623D01*
X0012927Y0120229D02*
X0036452Y0120229D01*
X0036821Y0119631D02*
X0013984Y0119631D01*
X0014582Y0119032D02*
X0037535Y0119032D01*
X0040065Y0119032D02*
X0068018Y0119032D01*
X0067581Y0118434D02*
X0066564Y0118434D01*
X0067163Y0117835D02*
X0067333Y0117835D01*
X0068616Y0119631D02*
X0040779Y0119631D01*
X0038800Y0121300D02*
X0111300Y0121300D01*
X0113648Y0120229D02*
X0125050Y0120229D01*
X0125050Y0119631D02*
X0113279Y0119631D01*
X0113487Y0119839D02*
X0113880Y0120787D01*
X0113880Y0121813D01*
X0113487Y0122761D01*
X0112798Y0123450D01*
X0115713Y0123450D01*
X0116650Y0124387D01*
X0116650Y0124387D01*
X0125050Y0132787D01*
X0125050Y0111056D01*
X0124950Y0111298D01*
X0124224Y0112024D01*
X0123276Y0112417D01*
X0122250Y0112417D01*
X0121302Y0112024D01*
X0120576Y0111298D01*
X0120183Y0110350D01*
X0120183Y0109946D01*
X0118137Y0107900D01*
X0080637Y0107900D01*
X0079700Y0106963D01*
X0075637Y0102900D01*
X0073914Y0102900D01*
X0074905Y0103891D01*
X0075553Y0105454D01*
X0075553Y0107146D01*
X0074905Y0108709D01*
X0074214Y0109400D01*
X0112052Y0109400D01*
X0112339Y0109113D01*
X0113287Y0108720D01*
X0114313Y0108720D01*
X0115261Y0109113D01*
X0115987Y0109839D01*
X0116380Y0110787D01*
X0116380Y0111813D01*
X0115987Y0112761D01*
X0115261Y0113487D01*
X0114313Y0113880D01*
X0113287Y0113880D01*
X0112339Y0113487D01*
X0112052Y0113200D01*
X0101344Y0113200D01*
X0101380Y0113287D01*
X0101380Y0114313D01*
X0100987Y0115261D01*
X0100261Y0115987D01*
X0099313Y0116380D01*
X0098287Y0116380D01*
X0097339Y0115987D01*
X0096613Y0115261D01*
X0096220Y0114313D01*
X0096220Y0113287D01*
X0096256Y0113200D01*
X0074214Y0113200D01*
X0074905Y0113891D01*
X0075553Y0115454D01*
X0075553Y0117146D01*
X0074905Y0118709D01*
X0073914Y0119700D01*
X0109252Y0119700D01*
X0109839Y0119113D01*
X0110787Y0118720D01*
X0111813Y0118720D01*
X0112761Y0119113D01*
X0113487Y0119839D01*
X0113880Y0120828D02*
X0125050Y0120828D01*
X0125050Y0121426D02*
X0113880Y0121426D01*
X0113792Y0122025D02*
X0125050Y0122025D01*
X0125050Y0122623D02*
X0113544Y0122623D01*
X0113026Y0123222D02*
X0125050Y0123222D01*
X0125050Y0123820D02*
X0116083Y0123820D01*
X0116681Y0124419D02*
X0125050Y0124419D01*
X0125050Y0125017D02*
X0117280Y0125017D01*
X0117878Y0125616D02*
X0125050Y0125616D01*
X0125050Y0126214D02*
X0118477Y0126214D01*
X0119075Y0126813D02*
X0125050Y0126813D01*
X0125050Y0127411D02*
X0119674Y0127411D01*
X0120272Y0128010D02*
X0125050Y0128010D01*
X0125050Y0128608D02*
X0120871Y0128608D01*
X0121469Y0129207D02*
X0125050Y0129207D01*
X0125050Y0129805D02*
X0122068Y0129805D01*
X0122666Y0130404D02*
X0125050Y0130404D01*
X0125050Y0131002D02*
X0123265Y0131002D01*
X0123863Y0131601D02*
X0125050Y0131601D01*
X0125050Y0132199D02*
X0124462Y0132199D01*
X0127550Y0132199D02*
X0153119Y0132199D01*
X0153718Y0131601D02*
X0127550Y0131601D01*
X0127550Y0131002D02*
X0153720Y0131002D01*
X0153720Y0130768D02*
X0154113Y0129820D01*
X0154839Y0129094D01*
X0155787Y0128702D01*
X0156813Y0128702D01*
X0157761Y0129094D01*
X0158487Y0129820D01*
X0158880Y0130768D01*
X0158880Y0131794D01*
X0158487Y0132742D01*
X0157761Y0133468D01*
X0156813Y0133861D01*
X0155983Y0133861D01*
X0151944Y0137900D01*
X0127550Y0137900D01*
X0127550Y0160490D01*
X0131947Y0160490D01*
X0133159Y0160993D01*
X0134098Y0161931D01*
X0134600Y0163144D01*
X0134600Y0164456D01*
X0134098Y0165669D01*
X0133169Y0166598D01*
X0131956Y0167100D01*
X0130644Y0167100D01*
X0130620Y0167090D01*
X0127550Y0167090D01*
X0127550Y0199700D01*
X0199387Y0199700D01*
X0205637Y0193450D01*
X0208800Y0193450D01*
X0208800Y0076300D01*
X0209674Y0076300D01*
X0209757Y0076099D01*
X0211099Y0074757D01*
X0212851Y0074031D01*
X0214749Y0074031D01*
X0216501Y0074757D01*
X0217290Y0075547D01*
X0218137Y0074700D01*
X0288450Y0074700D01*
X0288450Y0013568D01*
X0218568Y0013568D01*
X0218568Y0059749D01*
X0217843Y0061501D01*
X0216501Y0062843D01*
X0214749Y0063568D01*
X0212851Y0063568D01*
X0211099Y0062843D01*
X0209757Y0061501D01*
X0209031Y0059749D01*
X0209031Y0013568D01*
X0197550Y0013568D01*
X0197550Y0111300D01*
X0197313Y0111300D01*
X0201570Y0115557D01*
X0202507Y0116494D01*
X0202507Y0146963D01*
X0200007Y0149463D01*
X0199218Y0150251D01*
X0200358Y0151391D01*
X0201005Y0152954D01*
X0201005Y0154646D01*
X0200358Y0156209D01*
X0199162Y0157405D01*
X0197599Y0158053D01*
X0190001Y0158053D01*
X0188438Y0157405D01*
X0187242Y0156209D01*
X0186594Y0154646D01*
X0186594Y0152954D01*
X0187242Y0151391D01*
X0188438Y0150195D01*
X0190001Y0149547D01*
X0192200Y0149547D01*
X0192200Y0148137D01*
X0192285Y0148053D01*
X0190001Y0148053D01*
X0188438Y0147405D01*
X0187242Y0146209D01*
X0186594Y0144646D01*
X0186594Y0142954D01*
X0187242Y0141391D01*
X0188438Y0140195D01*
X0190001Y0139547D01*
X0192200Y0139547D01*
X0192200Y0139387D01*
X0197200Y0134387D01*
X0197200Y0119463D01*
X0189037Y0111300D01*
X0182313Y0111300D01*
X0185400Y0114387D01*
X0185400Y0158450D01*
X0198213Y0158450D01*
X0199150Y0159387D01*
X0199150Y0160190D01*
X0199162Y0160195D01*
X0200358Y0161391D01*
X0201005Y0162954D01*
X0201005Y0164646D01*
X0200358Y0166209D01*
X0199162Y0167405D01*
X0198386Y0167727D01*
X0198213Y0167900D01*
X0197967Y0167900D01*
X0197599Y0168053D01*
X0190001Y0168053D01*
X0189633Y0167900D01*
X0178137Y0167900D01*
X0177200Y0166963D01*
X0172200Y0161963D01*
X0172200Y0136963D01*
X0161887Y0126650D01*
X0140713Y0126650D01*
X0138213Y0129150D01*
X0127550Y0129150D01*
X0127550Y0134700D01*
X0150618Y0134700D01*
X0153720Y0131598D01*
X0153720Y0130768D01*
X0153871Y0130404D02*
X0127550Y0130404D01*
X0127550Y0129805D02*
X0154128Y0129805D01*
X0154726Y0129207D02*
X0127550Y0129207D01*
X0127550Y0127550D02*
X0137550Y0127550D01*
X0140050Y0125050D01*
X0162550Y0125050D01*
X0173800Y0136300D01*
X0173800Y0161300D01*
X0178800Y0166300D01*
X0187407Y0166300D01*
X0187210Y0166029D01*
X0186906Y0165432D01*
X0186699Y0164796D01*
X0186594Y0164135D01*
X0186594Y0164100D01*
X0193500Y0164100D01*
X0193500Y0163500D01*
X0186594Y0163500D01*
X0186594Y0163465D01*
X0186699Y0162804D01*
X0186906Y0162167D01*
X0187210Y0161571D01*
X0187603Y0161030D01*
X0188077Y0160556D01*
X0188618Y0160163D01*
X0188840Y0160050D01*
X0183800Y0160050D01*
X0183800Y0115050D01*
X0180050Y0111300D01*
X0127550Y0111300D01*
X0127550Y0127550D01*
X0127550Y0127411D02*
X0137689Y0127411D01*
X0138287Y0126813D02*
X0127550Y0126813D01*
X0127550Y0126214D02*
X0138886Y0126214D01*
X0139484Y0125616D02*
X0127550Y0125616D01*
X0127550Y0125017D02*
X0183800Y0125017D01*
X0183800Y0124419D02*
X0127550Y0124419D01*
X0127550Y0123820D02*
X0183800Y0123820D01*
X0183800Y0123222D02*
X0127550Y0123222D01*
X0127550Y0122623D02*
X0183800Y0122623D01*
X0183800Y0122025D02*
X0127550Y0122025D01*
X0127550Y0121426D02*
X0183800Y0121426D01*
X0183800Y0120828D02*
X0127550Y0120828D01*
X0127550Y0120229D02*
X0183800Y0120229D01*
X0183800Y0119631D02*
X0127550Y0119631D01*
X0127550Y0119032D02*
X0183800Y0119032D01*
X0183800Y0118434D02*
X0127550Y0118434D01*
X0127550Y0117835D02*
X0183800Y0117835D01*
X0183800Y0117237D02*
X0127550Y0117237D01*
X0127550Y0116638D02*
X0183800Y0116638D01*
X0183800Y0116039D02*
X0127550Y0116039D01*
X0127550Y0115441D02*
X0183800Y0115441D01*
X0183592Y0114842D02*
X0127550Y0114842D01*
X0127550Y0114244D02*
X0182994Y0114244D01*
X0182395Y0113645D02*
X0127550Y0113645D01*
X0127550Y0113047D02*
X0181797Y0113047D01*
X0181198Y0112448D02*
X0127550Y0112448D01*
X0127550Y0111850D02*
X0180600Y0111850D01*
X0182863Y0111850D02*
X0189587Y0111850D01*
X0190186Y0112448D02*
X0183461Y0112448D01*
X0184060Y0113047D02*
X0190784Y0113047D01*
X0191383Y0113645D02*
X0184658Y0113645D01*
X0185257Y0114244D02*
X0191981Y0114244D01*
X0192580Y0114842D02*
X0185400Y0114842D01*
X0185400Y0115441D02*
X0193178Y0115441D01*
X0193777Y0116039D02*
X0185400Y0116039D01*
X0185400Y0116638D02*
X0194375Y0116638D01*
X0194974Y0117237D02*
X0185400Y0117237D01*
X0185400Y0117835D02*
X0195572Y0117835D01*
X0196171Y0118434D02*
X0185400Y0118434D01*
X0185400Y0119032D02*
X0196769Y0119032D01*
X0197200Y0119631D02*
X0185400Y0119631D01*
X0185400Y0120229D02*
X0197200Y0120229D01*
X0197200Y0120828D02*
X0185400Y0120828D01*
X0185400Y0121426D02*
X0197200Y0121426D01*
X0197200Y0122025D02*
X0185400Y0122025D01*
X0185400Y0122623D02*
X0197200Y0122623D01*
X0197200Y0123222D02*
X0185400Y0123222D01*
X0185400Y0123820D02*
X0197200Y0123820D01*
X0197200Y0124419D02*
X0185400Y0124419D01*
X0185400Y0125017D02*
X0197200Y0125017D01*
X0197200Y0125616D02*
X0185400Y0125616D01*
X0185400Y0126214D02*
X0197200Y0126214D01*
X0197200Y0126813D02*
X0185400Y0126813D01*
X0185400Y0127411D02*
X0197200Y0127411D01*
X0197200Y0128010D02*
X0185400Y0128010D01*
X0185400Y0128608D02*
X0197200Y0128608D01*
X0197200Y0129207D02*
X0185400Y0129207D01*
X0185400Y0129805D02*
X0197200Y0129805D01*
X0197200Y0130404D02*
X0185400Y0130404D01*
X0185400Y0131002D02*
X0197200Y0131002D01*
X0197200Y0131601D02*
X0185400Y0131601D01*
X0185400Y0132199D02*
X0197200Y0132199D01*
X0197200Y0132798D02*
X0185400Y0132798D01*
X0185400Y0133396D02*
X0197200Y0133396D01*
X0197200Y0133995D02*
X0185400Y0133995D01*
X0185400Y0134593D02*
X0196994Y0134593D01*
X0196395Y0135192D02*
X0185400Y0135192D01*
X0185400Y0135790D02*
X0195797Y0135790D01*
X0195198Y0136389D02*
X0185400Y0136389D01*
X0185400Y0136987D02*
X0194600Y0136987D01*
X0194001Y0137586D02*
X0185400Y0137586D01*
X0185400Y0138184D02*
X0193403Y0138184D01*
X0192804Y0138783D02*
X0185400Y0138783D01*
X0185400Y0139381D02*
X0192206Y0139381D01*
X0193800Y0140050D02*
X0198800Y0135050D01*
X0198800Y0118800D01*
X0181300Y0101300D01*
X0178911Y0102274D02*
X0177589Y0102274D01*
X0176990Y0102872D02*
X0179224Y0102872D01*
X0179113Y0102761D02*
X0178720Y0101813D01*
X0178720Y0101142D01*
X0176380Y0103483D01*
X0176380Y0104313D01*
X0175987Y0105261D01*
X0175261Y0105987D01*
X0174313Y0106380D01*
X0173287Y0106380D01*
X0172339Y0105987D01*
X0171613Y0105261D01*
X0171220Y0104313D01*
X0171220Y0103287D01*
X0171493Y0102630D01*
X0170787Y0102630D01*
X0169839Y0102237D01*
X0169113Y0101511D01*
X0168720Y0100563D01*
X0168720Y0099733D01*
X0161887Y0092900D01*
X0149463Y0092900D01*
X0140400Y0101963D01*
X0140163Y0102200D01*
X0156887Y0102200D01*
X0159700Y0099387D01*
X0160637Y0098450D01*
X0161752Y0098450D01*
X0162339Y0097863D01*
X0163287Y0097470D01*
X0164313Y0097470D01*
X0165261Y0097863D01*
X0165987Y0098589D01*
X0166380Y0099537D01*
X0166380Y0100563D01*
X0165987Y0101511D01*
X0165261Y0102237D01*
X0164313Y0102630D01*
X0163287Y0102630D01*
X0162339Y0102237D01*
X0161857Y0101755D01*
X0158213Y0105400D01*
X0120163Y0105400D01*
X0122088Y0107325D01*
X0122250Y0107258D01*
X0123276Y0107258D01*
X0124224Y0107650D01*
X0124950Y0108376D01*
X0125125Y0108800D01*
X0186537Y0108800D01*
X0181617Y0103880D01*
X0180787Y0103880D01*
X0179839Y0103487D01*
X0179113Y0102761D01*
X0179823Y0103471D02*
X0176392Y0103471D01*
X0176380Y0104069D02*
X0181807Y0104069D01*
X0182405Y0104668D02*
X0176233Y0104668D01*
X0175982Y0105266D02*
X0183004Y0105266D01*
X0183602Y0105865D02*
X0175383Y0105865D01*
X0173800Y0103800D02*
X0190050Y0087550D01*
X0192445Y0088508D02*
X0196300Y0088508D01*
X0196300Y0089106D02*
X0192142Y0089106D01*
X0191543Y0089705D02*
X0196300Y0089705D01*
X0196300Y0090303D02*
X0189559Y0090303D01*
X0188961Y0090902D02*
X0196300Y0090902D01*
X0196300Y0091501D02*
X0188362Y0091501D01*
X0187764Y0092099D02*
X0196300Y0092099D01*
X0196300Y0092698D02*
X0187165Y0092698D01*
X0186567Y0093296D02*
X0196300Y0093296D01*
X0196300Y0093895D02*
X0185968Y0093895D01*
X0185370Y0094493D02*
X0196300Y0094493D01*
X0196300Y0095092D02*
X0184771Y0095092D01*
X0184173Y0095690D02*
X0196300Y0095690D01*
X0196300Y0096289D02*
X0183574Y0096289D01*
X0182976Y0096887D02*
X0196300Y0096887D01*
X0196300Y0097486D02*
X0182377Y0097486D01*
X0181779Y0098084D02*
X0196300Y0098084D01*
X0196300Y0098683D02*
X0181180Y0098683D01*
X0182929Y0099281D02*
X0183421Y0099281D01*
X0185050Y0101300D02*
X0200907Y0117157D01*
X0200907Y0146300D01*
X0198407Y0148800D01*
X0193800Y0148800D01*
X0193800Y0153800D01*
X0199315Y0150155D02*
X0208800Y0150155D01*
X0208800Y0150753D02*
X0199720Y0150753D01*
X0200319Y0151352D02*
X0208800Y0151352D01*
X0208800Y0151950D02*
X0200590Y0151950D01*
X0200838Y0152549D02*
X0208800Y0152549D01*
X0208800Y0153147D02*
X0201005Y0153147D01*
X0201005Y0153746D02*
X0208800Y0153746D01*
X0208800Y0154344D02*
X0201005Y0154344D01*
X0200883Y0154943D02*
X0208800Y0154943D01*
X0208800Y0155541D02*
X0200635Y0155541D01*
X0200387Y0156140D02*
X0208800Y0156140D01*
X0208800Y0156738D02*
X0199829Y0156738D01*
X0199230Y0157337D02*
X0208800Y0157337D01*
X0208800Y0157935D02*
X0197882Y0157935D01*
X0198297Y0158534D02*
X0208800Y0158534D01*
X0208800Y0159132D02*
X0198895Y0159132D01*
X0199150Y0159731D02*
X0208800Y0159731D01*
X0208800Y0160329D02*
X0199296Y0160329D01*
X0199895Y0160928D02*
X0208800Y0160928D01*
X0208800Y0161526D02*
X0200414Y0161526D01*
X0200662Y0162125D02*
X0208800Y0162125D01*
X0208800Y0162723D02*
X0200910Y0162723D01*
X0201005Y0163322D02*
X0208800Y0163322D01*
X0208800Y0163920D02*
X0201005Y0163920D01*
X0201005Y0164519D02*
X0208800Y0164519D01*
X0208800Y0165117D02*
X0200810Y0165117D01*
X0200562Y0165716D02*
X0208800Y0165716D01*
X0208800Y0166314D02*
X0200253Y0166314D01*
X0199654Y0166913D02*
X0208800Y0166913D01*
X0208800Y0167511D02*
X0198905Y0167511D01*
X0198385Y0169859D02*
X0198982Y0170163D01*
X0199523Y0170556D01*
X0199997Y0171030D01*
X0200390Y0171571D01*
X0200694Y0172167D01*
X0200901Y0172804D01*
X0201005Y0173465D01*
X0201005Y0173500D01*
X0194100Y0173500D01*
X0194100Y0174100D01*
X0193500Y0174100D01*
X0193500Y0178053D01*
X0190513Y0178053D01*
X0189851Y0177948D01*
X0189215Y0177741D01*
X0188618Y0177437D01*
X0188077Y0177044D01*
X0187603Y0176570D01*
X0187210Y0176029D01*
X0186906Y0175432D01*
X0186699Y0174796D01*
X0186594Y0174135D01*
X0186594Y0174100D01*
X0193500Y0174100D01*
X0193500Y0173500D01*
X0194100Y0173500D01*
X0194100Y0169547D01*
X0197087Y0169547D01*
X0197749Y0169652D01*
X0198385Y0169859D01*
X0198477Y0169905D02*
X0208800Y0169905D01*
X0208800Y0169307D02*
X0127550Y0169307D01*
X0127550Y0169905D02*
X0189123Y0169905D01*
X0189215Y0169859D02*
X0189851Y0169652D01*
X0190513Y0169547D01*
X0193500Y0169547D01*
X0193500Y0173500D01*
X0186594Y0173500D01*
X0186594Y0173465D01*
X0186699Y0172804D01*
X0186906Y0172167D01*
X0187210Y0171571D01*
X0187603Y0171030D01*
X0188077Y0170556D01*
X0188618Y0170163D01*
X0189215Y0169859D01*
X0188149Y0170504D02*
X0127550Y0170504D01*
X0127550Y0171103D02*
X0187550Y0171103D01*
X0187144Y0171701D02*
X0127550Y0171701D01*
X0127550Y0172300D02*
X0186863Y0172300D01*
X0186684Y0172898D02*
X0127550Y0172898D01*
X0127550Y0173497D02*
X0186594Y0173497D01*
X0186683Y0174694D02*
X0127550Y0174694D01*
X0127550Y0175292D02*
X0186860Y0175292D01*
X0187139Y0175891D02*
X0127550Y0175891D01*
X0127550Y0176489D02*
X0187544Y0176489D01*
X0188137Y0177088D02*
X0127550Y0177088D01*
X0127550Y0177686D02*
X0189107Y0177686D01*
X0193500Y0177686D02*
X0194100Y0177686D01*
X0194100Y0178053D02*
X0194100Y0174100D01*
X0201005Y0174100D01*
X0201005Y0174135D01*
X0200901Y0174796D01*
X0200694Y0175432D01*
X0200390Y0176029D01*
X0199997Y0176570D01*
X0199523Y0177044D01*
X0198982Y0177437D01*
X0198385Y0177741D01*
X0197749Y0177948D01*
X0197087Y0178053D01*
X0194100Y0178053D01*
X0194100Y0177088D02*
X0193500Y0177088D01*
X0193500Y0176489D02*
X0194100Y0176489D01*
X0194100Y0175891D02*
X0193500Y0175891D01*
X0193500Y0175292D02*
X0194100Y0175292D01*
X0194100Y0174694D02*
X0193500Y0174694D01*
X0193500Y0174095D02*
X0127550Y0174095D01*
X0125050Y0174095D02*
X0074950Y0174095D01*
X0074937Y0174071D02*
X0075241Y0174667D01*
X0075448Y0175304D01*
X0075553Y0175965D01*
X0075553Y0176000D01*
X0071600Y0176000D01*
X0071600Y0176600D01*
X0075553Y0176600D01*
X0075553Y0176635D01*
X0075448Y0177296D01*
X0075241Y0177932D01*
X0074937Y0178529D01*
X0074544Y0179070D01*
X0074070Y0179544D01*
X0073855Y0179700D01*
X0079792Y0179700D01*
X0086540Y0186448D01*
X0091752Y0186448D01*
X0092339Y0185861D01*
X0093287Y0185469D01*
X0094313Y0185469D01*
X0095261Y0185861D01*
X0095848Y0186448D01*
X0117714Y0186448D01*
X0117863Y0186089D01*
X0118589Y0185363D01*
X0119537Y0184970D01*
X0120563Y0184970D01*
X0121511Y0185363D01*
X0122237Y0186089D01*
X0122630Y0187037D01*
X0122630Y0188063D01*
X0122237Y0189011D01*
X0121511Y0189737D01*
X0120563Y0190130D01*
X0119537Y0190130D01*
X0118589Y0189737D01*
X0118500Y0189648D01*
X0095848Y0189648D01*
X0095261Y0190235D01*
X0094313Y0190628D01*
X0093287Y0190628D01*
X0092339Y0190235D01*
X0091752Y0189648D01*
X0085214Y0189648D01*
X0078466Y0182900D01*
X0075553Y0182900D01*
X0075553Y0189791D01*
X0074791Y0190553D01*
X0067809Y0190553D01*
X0067047Y0189791D01*
X0067047Y0182900D01*
X0055637Y0182900D01*
X0046617Y0173880D01*
X0045787Y0173880D01*
X0044839Y0173487D01*
X0044113Y0172761D01*
X0043720Y0171813D01*
X0043720Y0170787D01*
X0044113Y0169839D01*
X0044839Y0169113D01*
X0045787Y0168720D01*
X0046813Y0168720D01*
X0047761Y0169113D01*
X0048487Y0169839D01*
X0048880Y0170787D01*
X0048880Y0171617D01*
X0056963Y0179700D01*
X0068745Y0179700D01*
X0068530Y0179544D01*
X0068056Y0179070D01*
X0067663Y0178529D01*
X0067359Y0177932D01*
X0067152Y0177296D01*
X0067047Y0176635D01*
X0067047Y0176600D01*
X0071000Y0176600D01*
X0071000Y0176000D01*
X0071600Y0176000D01*
X0071600Y0172047D01*
X0071635Y0172047D01*
X0072296Y0172152D01*
X0072932Y0172359D01*
X0073529Y0172663D01*
X0074070Y0173056D01*
X0074544Y0173530D01*
X0074937Y0174071D01*
X0075250Y0174694D02*
X0125050Y0174694D01*
X0125050Y0175292D02*
X0075444Y0175292D01*
X0075541Y0175891D02*
X0125050Y0175891D01*
X0125050Y0176489D02*
X0071600Y0176489D01*
X0071300Y0176300D02*
X0077550Y0176300D01*
X0075481Y0177088D02*
X0125050Y0177088D01*
X0125050Y0177686D02*
X0075321Y0177686D01*
X0075062Y0178285D02*
X0125050Y0178285D01*
X0125050Y0178883D02*
X0074680Y0178883D01*
X0074133Y0179482D02*
X0125050Y0179482D01*
X0125050Y0180080D02*
X0080172Y0180080D01*
X0080770Y0180679D02*
X0125050Y0180679D01*
X0125050Y0181277D02*
X0081369Y0181277D01*
X0081967Y0181876D02*
X0125050Y0181876D01*
X0125050Y0182474D02*
X0082566Y0182474D01*
X0083164Y0183073D02*
X0125050Y0183073D01*
X0125050Y0183671D02*
X0083763Y0183671D01*
X0084361Y0184270D02*
X0125050Y0184270D01*
X0125050Y0184868D02*
X0084960Y0184868D01*
X0085558Y0185467D02*
X0118485Y0185467D01*
X0117887Y0186065D02*
X0095465Y0186065D01*
X0093800Y0188048D02*
X0085877Y0188048D01*
X0079129Y0181300D01*
X0056300Y0181300D01*
X0046300Y0171300D01*
X0043922Y0172300D02*
X0012755Y0172300D01*
X0012146Y0172047D02*
X0013709Y0172695D01*
X0014905Y0173891D01*
X0015553Y0175454D01*
X0015553Y0177146D01*
X0014905Y0178709D01*
X0013709Y0179905D01*
X0012146Y0180553D01*
X0010454Y0180553D01*
X0008891Y0179905D01*
X0007695Y0178709D01*
X0007047Y0177146D01*
X0007047Y0175454D01*
X0007695Y0173891D01*
X0008891Y0172695D01*
X0010454Y0172047D01*
X0012146Y0172047D01*
X0012146Y0170553D02*
X0010454Y0170553D01*
X0008891Y0169905D01*
X0007695Y0168709D01*
X0007047Y0167146D01*
X0007047Y0165454D01*
X0007695Y0163891D01*
X0008891Y0162695D01*
X0010454Y0162047D01*
X0012146Y0162047D01*
X0013709Y0162695D01*
X0014905Y0163891D01*
X0015553Y0165454D01*
X0015553Y0167146D01*
X0014905Y0168709D01*
X0013709Y0169905D01*
X0012146Y0170553D01*
X0012264Y0170504D02*
X0043838Y0170504D01*
X0043720Y0171103D02*
X0003568Y0171103D01*
X0003568Y0171701D02*
X0043720Y0171701D01*
X0044250Y0172898D02*
X0013912Y0172898D01*
X0014511Y0173497D02*
X0044862Y0173497D01*
X0046832Y0174095D02*
X0014990Y0174095D01*
X0015238Y0174694D02*
X0047431Y0174694D01*
X0048029Y0175292D02*
X0015486Y0175292D01*
X0015553Y0175891D02*
X0048628Y0175891D01*
X0049226Y0176489D02*
X0015553Y0176489D01*
X0015553Y0177088D02*
X0049825Y0177088D01*
X0050423Y0177686D02*
X0015329Y0177686D01*
X0015081Y0178285D02*
X0051022Y0178285D01*
X0051620Y0178883D02*
X0014731Y0178883D01*
X0014133Y0179482D02*
X0052219Y0179482D01*
X0052817Y0180080D02*
X0013287Y0180080D01*
X0014791Y0182047D02*
X0007809Y0182047D01*
X0007047Y0182809D01*
X0007047Y0189791D01*
X0007809Y0190553D01*
X0014791Y0190553D01*
X0015553Y0189791D01*
X0015553Y0182809D01*
X0014791Y0182047D01*
X0015218Y0182474D02*
X0055212Y0182474D01*
X0054613Y0181876D02*
X0003568Y0181876D01*
X0003568Y0182474D02*
X0007382Y0182474D01*
X0007047Y0183073D02*
X0003568Y0183073D01*
X0003568Y0183671D02*
X0007047Y0183671D01*
X0007047Y0184270D02*
X0003568Y0184270D01*
X0003568Y0184868D02*
X0007047Y0184868D01*
X0007047Y0185467D02*
X0003568Y0185467D01*
X0003568Y0186065D02*
X0007047Y0186065D01*
X0007047Y0186664D02*
X0003568Y0186664D01*
X0003568Y0187262D02*
X0007047Y0187262D01*
X0007047Y0187861D02*
X0003568Y0187861D01*
X0003568Y0188459D02*
X0007047Y0188459D01*
X0007047Y0189058D02*
X0003568Y0189058D01*
X0003568Y0189656D02*
X0007047Y0189656D01*
X0007511Y0190255D02*
X0003568Y0190255D01*
X0003568Y0190853D02*
X0125050Y0190853D01*
X0125050Y0190255D02*
X0095213Y0190255D01*
X0095840Y0189656D02*
X0118508Y0189656D01*
X0119552Y0188048D02*
X0120050Y0187550D01*
X0119552Y0188048D02*
X0093800Y0188048D01*
X0092135Y0186065D02*
X0086157Y0186065D01*
X0084025Y0188459D02*
X0075553Y0188459D01*
X0075553Y0187861D02*
X0083427Y0187861D01*
X0082828Y0187262D02*
X0075553Y0187262D01*
X0075553Y0186664D02*
X0082230Y0186664D01*
X0081631Y0186065D02*
X0075553Y0186065D01*
X0075553Y0185467D02*
X0081033Y0185467D01*
X0080434Y0184868D02*
X0075553Y0184868D01*
X0075553Y0184270D02*
X0079836Y0184270D01*
X0079237Y0183671D02*
X0075553Y0183671D01*
X0075553Y0183073D02*
X0078639Y0183073D01*
X0075553Y0189058D02*
X0084624Y0189058D01*
X0091760Y0189656D02*
X0075553Y0189656D01*
X0075089Y0190255D02*
X0092387Y0190255D01*
X0097166Y0198036D02*
X0003568Y0198036D01*
X0003568Y0198634D02*
X0096594Y0198634D01*
X0096347Y0199233D02*
X0003568Y0199233D01*
X0003568Y0199831D02*
X0096220Y0199831D01*
X0096220Y0200430D02*
X0003568Y0200430D01*
X0003568Y0201028D02*
X0096413Y0201028D01*
X0096729Y0201627D02*
X0003568Y0201627D01*
X0003568Y0202225D02*
X0097327Y0202225D01*
X0099311Y0202824D02*
X0003568Y0202824D01*
X0003568Y0203422D02*
X0101220Y0203422D01*
X0101220Y0204021D02*
X0003568Y0204021D01*
X0003568Y0204619D02*
X0101347Y0204619D01*
X0101595Y0205218D02*
X0003568Y0205218D01*
X0003568Y0205816D02*
X0102168Y0205816D01*
X0103800Y0203800D02*
X0201300Y0203800D01*
X0207550Y0197550D01*
X0275050Y0197550D01*
X0288800Y0183800D01*
X0288800Y0156300D01*
X0286300Y0153800D02*
X0286300Y0183800D01*
X0275050Y0195050D01*
X0206300Y0195050D01*
X0200050Y0201300D01*
X0118800Y0201300D01*
X0100050Y0201300D01*
X0098800Y0200050D01*
X0101253Y0199233D02*
X0117219Y0199233D01*
X0120381Y0199233D02*
X0125050Y0199233D01*
X0125050Y0198634D02*
X0101006Y0198634D01*
X0100434Y0198036D02*
X0125050Y0198036D01*
X0125050Y0197437D02*
X0003568Y0197437D01*
X0003568Y0196839D02*
X0125050Y0196839D01*
X0125050Y0196240D02*
X0003568Y0196240D01*
X0003568Y0195641D02*
X0125050Y0195641D01*
X0125050Y0195043D02*
X0003568Y0195043D01*
X0003568Y0194444D02*
X0125050Y0194444D01*
X0125050Y0193846D02*
X0003568Y0193846D01*
X0003568Y0193247D02*
X0125050Y0193247D01*
X0125050Y0192649D02*
X0003568Y0192649D01*
X0003568Y0192050D02*
X0125050Y0192050D01*
X0125050Y0191452D02*
X0003568Y0191452D01*
X0003568Y0181277D02*
X0054014Y0181277D01*
X0053416Y0180679D02*
X0003568Y0180679D01*
X0003568Y0180080D02*
X0009313Y0180080D01*
X0008467Y0179482D02*
X0003568Y0179482D01*
X0003568Y0178883D02*
X0007869Y0178883D01*
X0007519Y0178285D02*
X0003568Y0178285D01*
X0003568Y0177686D02*
X0007271Y0177686D01*
X0007047Y0177088D02*
X0003568Y0177088D01*
X0003568Y0176489D02*
X0007047Y0176489D01*
X0007047Y0175891D02*
X0003568Y0175891D01*
X0003568Y0175292D02*
X0007114Y0175292D01*
X0007362Y0174694D02*
X0003568Y0174694D01*
X0003568Y0174095D02*
X0007610Y0174095D01*
X0008089Y0173497D02*
X0003568Y0173497D01*
X0003568Y0172898D02*
X0008688Y0172898D01*
X0009845Y0172300D02*
X0003568Y0172300D01*
X0003568Y0170504D02*
X0010336Y0170504D01*
X0008891Y0169905D02*
X0003568Y0169905D01*
X0003568Y0169307D02*
X0008293Y0169307D01*
X0007694Y0168708D02*
X0003568Y0168708D01*
X0003568Y0168110D02*
X0007447Y0168110D01*
X0007199Y0167511D02*
X0003568Y0167511D01*
X0003568Y0166913D02*
X0007047Y0166913D01*
X0007047Y0166314D02*
X0003568Y0166314D01*
X0003568Y0165716D02*
X0007047Y0165716D01*
X0007187Y0165117D02*
X0003568Y0165117D01*
X0003568Y0164519D02*
X0007435Y0164519D01*
X0007683Y0163920D02*
X0003568Y0163920D01*
X0003568Y0163322D02*
X0008264Y0163322D01*
X0008862Y0162723D02*
X0003568Y0162723D01*
X0003568Y0162125D02*
X0010267Y0162125D01*
X0010304Y0160448D02*
X0009667Y0160241D01*
X0009071Y0159937D01*
X0008530Y0159544D01*
X0008056Y0159070D01*
X0007663Y0158529D01*
X0007359Y0157932D01*
X0007152Y0157296D01*
X0007047Y0156635D01*
X0007047Y0156600D01*
X0011000Y0156600D01*
X0011000Y0160553D01*
X0010965Y0160553D01*
X0010304Y0160448D01*
X0009939Y0160329D02*
X0003568Y0160329D01*
X0003568Y0159731D02*
X0008787Y0159731D01*
X0008118Y0159132D02*
X0003568Y0159132D01*
X0003568Y0158534D02*
X0007666Y0158534D01*
X0007360Y0157935D02*
X0003568Y0157935D01*
X0003568Y0157337D02*
X0007165Y0157337D01*
X0007064Y0156738D02*
X0003568Y0156738D01*
X0003568Y0156140D02*
X0011000Y0156140D01*
X0011000Y0156000D02*
X0007047Y0156000D01*
X0007047Y0155965D01*
X0007152Y0155304D01*
X0007359Y0154667D01*
X0007663Y0154071D01*
X0008056Y0153530D01*
X0008530Y0153056D01*
X0009071Y0152663D01*
X0009667Y0152359D01*
X0010304Y0152152D01*
X0010965Y0152047D01*
X0011000Y0152047D01*
X0011000Y0156000D01*
X0011600Y0156000D01*
X0011600Y0156600D01*
X0015553Y0156600D01*
X0015553Y0156635D01*
X0015448Y0157296D01*
X0015241Y0157932D01*
X0014937Y0158529D01*
X0014544Y0159070D01*
X0014070Y0159544D01*
X0013529Y0159937D01*
X0012932Y0160241D01*
X0012296Y0160448D01*
X0011635Y0160553D01*
X0011600Y0160553D01*
X0011600Y0156600D01*
X0011000Y0156600D01*
X0011000Y0156000D01*
X0011000Y0155541D02*
X0011600Y0155541D01*
X0011600Y0156000D02*
X0011600Y0152047D01*
X0011635Y0152047D01*
X0012296Y0152152D01*
X0012932Y0152359D01*
X0013529Y0152663D01*
X0014070Y0153056D01*
X0014544Y0153530D01*
X0014937Y0154071D01*
X0015241Y0154667D01*
X0015448Y0155304D01*
X0015553Y0155965D01*
X0015553Y0156000D01*
X0011600Y0156000D01*
X0011600Y0156140D02*
X0028000Y0156140D01*
X0028000Y0156738D02*
X0015536Y0156738D01*
X0015435Y0157337D02*
X0028158Y0157337D01*
X0028405Y0157935D02*
X0015240Y0157935D01*
X0014934Y0158534D02*
X0028867Y0158534D01*
X0029514Y0159132D02*
X0014482Y0159132D01*
X0013813Y0159731D02*
X0068717Y0159731D01*
X0069915Y0160329D02*
X0012661Y0160329D01*
X0011600Y0160329D02*
X0011000Y0160329D01*
X0011000Y0159731D02*
X0011600Y0159731D01*
X0011600Y0159132D02*
X0011000Y0159132D01*
X0011000Y0158534D02*
X0011600Y0158534D01*
X0011600Y0157935D02*
X0011000Y0157935D01*
X0011000Y0157337D02*
X0011600Y0157337D01*
X0011600Y0156738D02*
X0011000Y0156738D01*
X0011000Y0154943D02*
X0011600Y0154943D01*
X0011600Y0154344D02*
X0011000Y0154344D01*
X0011000Y0153746D02*
X0011600Y0153746D01*
X0011600Y0153147D02*
X0011000Y0153147D01*
X0011000Y0152549D02*
X0011600Y0152549D01*
X0013305Y0152549D02*
X0062775Y0152549D01*
X0062527Y0151950D02*
X0003568Y0151950D01*
X0003568Y0151352D02*
X0062470Y0151352D01*
X0062484Y0150753D02*
X0003568Y0150753D01*
X0003568Y0150155D02*
X0009493Y0150155D01*
X0008891Y0149905D02*
X0007695Y0148709D01*
X0007047Y0147146D01*
X0007047Y0145454D01*
X0007695Y0143891D01*
X0008891Y0142695D01*
X0010454Y0142047D01*
X0012146Y0142047D01*
X0013709Y0142695D01*
X0014905Y0143891D01*
X0015553Y0145454D01*
X0015553Y0147146D01*
X0014905Y0148709D01*
X0013709Y0149905D01*
X0012146Y0150553D01*
X0010454Y0150553D01*
X0008891Y0149905D01*
X0008542Y0149556D02*
X0003568Y0149556D01*
X0003568Y0148958D02*
X0007943Y0148958D01*
X0007550Y0148359D02*
X0003568Y0148359D01*
X0003568Y0147761D02*
X0007302Y0147761D01*
X0007054Y0147162D02*
X0003568Y0147162D01*
X0003568Y0146564D02*
X0007047Y0146564D01*
X0007047Y0145965D02*
X0003568Y0145965D01*
X0003568Y0145367D02*
X0007083Y0145367D01*
X0007331Y0144768D02*
X0003568Y0144768D01*
X0003568Y0144170D02*
X0007579Y0144170D01*
X0008015Y0143571D02*
X0003568Y0143571D01*
X0003568Y0142972D02*
X0008613Y0142972D01*
X0009665Y0142374D02*
X0003568Y0142374D01*
X0003568Y0141775D02*
X0079812Y0141775D01*
X0080410Y0141177D02*
X0003568Y0141177D01*
X0003568Y0140578D02*
X0081009Y0140578D01*
X0081607Y0139980D02*
X0073529Y0139980D01*
X0074233Y0139381D02*
X0082206Y0139381D01*
X0082804Y0138783D02*
X0074831Y0138783D01*
X0075123Y0138184D02*
X0083403Y0138184D01*
X0084001Y0137586D02*
X0075371Y0137586D01*
X0075553Y0136987D02*
X0084600Y0136987D01*
X0085198Y0136389D02*
X0075553Y0136389D01*
X0075553Y0135790D02*
X0085797Y0135790D01*
X0086395Y0135192D02*
X0075444Y0135192D01*
X0075196Y0134593D02*
X0086994Y0134593D01*
X0087592Y0133995D02*
X0074948Y0133995D01*
X0074411Y0133396D02*
X0082248Y0133396D01*
X0083800Y0131300D02*
X0046300Y0131300D01*
X0043880Y0132199D02*
X0012513Y0132199D01*
X0012146Y0132047D02*
X0013709Y0132695D01*
X0014905Y0133891D01*
X0015553Y0135454D01*
X0015553Y0137146D01*
X0014905Y0138709D01*
X0013709Y0139905D01*
X0012146Y0140553D01*
X0010454Y0140553D01*
X0008891Y0139905D01*
X0007695Y0138709D01*
X0007047Y0137146D01*
X0007047Y0135454D01*
X0007695Y0133891D01*
X0008891Y0132695D01*
X0010454Y0132047D01*
X0012146Y0132047D01*
X0013812Y0132798D02*
X0044150Y0132798D01*
X0044748Y0133396D02*
X0014411Y0133396D01*
X0014948Y0133995D02*
X0067652Y0133995D01*
X0067404Y0134593D02*
X0015196Y0134593D01*
X0015444Y0135192D02*
X0067156Y0135192D01*
X0067047Y0135790D02*
X0015553Y0135790D01*
X0015553Y0136389D02*
X0067047Y0136389D01*
X0067047Y0136987D02*
X0015553Y0136987D01*
X0015371Y0137586D02*
X0067229Y0137586D01*
X0067477Y0138184D02*
X0015123Y0138184D01*
X0014831Y0138783D02*
X0067769Y0138783D01*
X0068367Y0139381D02*
X0014233Y0139381D01*
X0013529Y0139980D02*
X0069071Y0139980D01*
X0069665Y0142374D02*
X0012935Y0142374D01*
X0013987Y0142972D02*
X0068613Y0142972D01*
X0068015Y0143571D02*
X0014585Y0143571D01*
X0015021Y0144170D02*
X0067579Y0144170D01*
X0067331Y0144768D02*
X0015269Y0144768D01*
X0015516Y0145367D02*
X0067083Y0145367D01*
X0067047Y0145965D02*
X0015553Y0145965D01*
X0015553Y0146564D02*
X0067047Y0146564D01*
X0067054Y0147162D02*
X0015546Y0147162D01*
X0015298Y0147761D02*
X0067302Y0147761D01*
X0067550Y0148359D02*
X0015050Y0148359D01*
X0014657Y0148958D02*
X0063964Y0148958D01*
X0063146Y0149556D02*
X0014058Y0149556D01*
X0013107Y0150155D02*
X0062732Y0150155D01*
X0065050Y0151300D02*
X0072550Y0151300D01*
X0091300Y0132550D01*
X0091300Y0126300D01*
X0093067Y0124419D02*
X0094533Y0124419D01*
X0094039Y0125017D02*
X0093561Y0125017D01*
X0092054Y0123820D02*
X0095546Y0123820D01*
X0097550Y0125050D02*
X0096300Y0126300D01*
X0097550Y0125050D02*
X0115050Y0125050D01*
X0126300Y0136300D01*
X0151281Y0136300D01*
X0156300Y0131281D01*
X0158712Y0132199D02*
X0167437Y0132199D01*
X0168035Y0132798D02*
X0158431Y0132798D01*
X0157833Y0133396D02*
X0168634Y0133396D01*
X0169232Y0133995D02*
X0155849Y0133995D01*
X0155250Y0134593D02*
X0169831Y0134593D01*
X0170429Y0135192D02*
X0154652Y0135192D01*
X0154053Y0135790D02*
X0171028Y0135790D01*
X0171626Y0136389D02*
X0153455Y0136389D01*
X0152856Y0136987D02*
X0172200Y0136987D01*
X0172200Y0137586D02*
X0152258Y0137586D01*
X0150725Y0134593D02*
X0127550Y0134593D01*
X0127550Y0133995D02*
X0151324Y0133995D01*
X0151922Y0133396D02*
X0127550Y0133396D01*
X0127550Y0132798D02*
X0152521Y0132798D01*
X0157874Y0129207D02*
X0164444Y0129207D01*
X0165043Y0129805D02*
X0158472Y0129805D01*
X0158729Y0130404D02*
X0165641Y0130404D01*
X0166240Y0131002D02*
X0158880Y0131002D01*
X0158880Y0131601D02*
X0166838Y0131601D01*
X0167904Y0130404D02*
X0183800Y0130404D01*
X0183800Y0131002D02*
X0168502Y0131002D01*
X0169101Y0131601D02*
X0183800Y0131601D01*
X0183800Y0132199D02*
X0169699Y0132199D01*
X0170298Y0132798D02*
X0183800Y0132798D01*
X0183800Y0133396D02*
X0170896Y0133396D01*
X0171495Y0133995D02*
X0183800Y0133995D01*
X0183800Y0134593D02*
X0172093Y0134593D01*
X0172692Y0135192D02*
X0183800Y0135192D01*
X0183800Y0135790D02*
X0173290Y0135790D01*
X0173800Y0136389D02*
X0183800Y0136389D01*
X0183800Y0136987D02*
X0173800Y0136987D01*
X0173800Y0137586D02*
X0183800Y0137586D01*
X0183800Y0138184D02*
X0173800Y0138184D01*
X0173800Y0138783D02*
X0183800Y0138783D01*
X0183800Y0139381D02*
X0173800Y0139381D01*
X0173800Y0139980D02*
X0183800Y0139980D01*
X0183800Y0140578D02*
X0173800Y0140578D01*
X0173800Y0141177D02*
X0183800Y0141177D01*
X0183800Y0141775D02*
X0173800Y0141775D01*
X0173800Y0142374D02*
X0183800Y0142374D01*
X0183800Y0142972D02*
X0173800Y0142972D01*
X0173800Y0143571D02*
X0183800Y0143571D01*
X0183800Y0144170D02*
X0173800Y0144170D01*
X0173800Y0144768D02*
X0183800Y0144768D01*
X0183800Y0145367D02*
X0173800Y0145367D01*
X0173800Y0145965D02*
X0183800Y0145965D01*
X0183800Y0146564D02*
X0173800Y0146564D01*
X0173800Y0147162D02*
X0183800Y0147162D01*
X0183800Y0147761D02*
X0173800Y0147761D01*
X0173800Y0148359D02*
X0183800Y0148359D01*
X0183800Y0148958D02*
X0173800Y0148958D01*
X0173800Y0149556D02*
X0183800Y0149556D01*
X0183800Y0150155D02*
X0173800Y0150155D01*
X0173800Y0150753D02*
X0183800Y0150753D01*
X0183800Y0151352D02*
X0173800Y0151352D01*
X0173800Y0151950D02*
X0183800Y0151950D01*
X0183800Y0152549D02*
X0173800Y0152549D01*
X0173800Y0153147D02*
X0183800Y0153147D01*
X0183800Y0153746D02*
X0173800Y0153746D01*
X0173800Y0154344D02*
X0183800Y0154344D01*
X0183800Y0154943D02*
X0173800Y0154943D01*
X0173800Y0155541D02*
X0183800Y0155541D01*
X0183800Y0156140D02*
X0173800Y0156140D01*
X0173800Y0156738D02*
X0183800Y0156738D01*
X0183800Y0157337D02*
X0173800Y0157337D01*
X0173800Y0157935D02*
X0183800Y0157935D01*
X0183800Y0158534D02*
X0173800Y0158534D01*
X0173800Y0159132D02*
X0183800Y0159132D01*
X0183800Y0159731D02*
X0173800Y0159731D01*
X0173800Y0160329D02*
X0188389Y0160329D01*
X0187705Y0160928D02*
X0173800Y0160928D01*
X0174026Y0161526D02*
X0187242Y0161526D01*
X0186928Y0162125D02*
X0174625Y0162125D01*
X0175223Y0162723D02*
X0186725Y0162723D01*
X0186617Y0163322D02*
X0175822Y0163322D01*
X0176420Y0163920D02*
X0193500Y0163920D01*
X0193800Y0163800D02*
X0183800Y0163800D01*
X0186655Y0164519D02*
X0177019Y0164519D01*
X0177617Y0165117D02*
X0186804Y0165117D01*
X0187050Y0165716D02*
X0178216Y0165716D01*
X0177150Y0166913D02*
X0132408Y0166913D01*
X0133452Y0166314D02*
X0176552Y0166314D01*
X0175953Y0165716D02*
X0134051Y0165716D01*
X0134326Y0165117D02*
X0175355Y0165117D01*
X0174756Y0164519D02*
X0134574Y0164519D01*
X0134600Y0163920D02*
X0174158Y0163920D01*
X0173559Y0163322D02*
X0134600Y0163322D01*
X0134426Y0162723D02*
X0172961Y0162723D01*
X0172362Y0162125D02*
X0134178Y0162125D01*
X0133693Y0161526D02*
X0172200Y0161526D01*
X0172200Y0160928D02*
X0133003Y0160928D01*
X0127550Y0160329D02*
X0172200Y0160329D01*
X0172200Y0159731D02*
X0127550Y0159731D01*
X0127550Y0159132D02*
X0172200Y0159132D01*
X0172200Y0158534D02*
X0127550Y0158534D01*
X0127550Y0157935D02*
X0172200Y0157935D01*
X0172200Y0157337D02*
X0127550Y0157337D01*
X0127550Y0156738D02*
X0172200Y0156738D01*
X0172200Y0156140D02*
X0127550Y0156140D01*
X0127550Y0155541D02*
X0172200Y0155541D01*
X0172200Y0154943D02*
X0127550Y0154943D01*
X0127550Y0154344D02*
X0172200Y0154344D01*
X0172200Y0153746D02*
X0127550Y0153746D01*
X0127550Y0153147D02*
X0172200Y0153147D01*
X0172200Y0152549D02*
X0127550Y0152549D01*
X0127550Y0151950D02*
X0172200Y0151950D01*
X0172200Y0151352D02*
X0127550Y0151352D01*
X0127550Y0150753D02*
X0172200Y0150753D01*
X0172200Y0150155D02*
X0127550Y0150155D01*
X0127550Y0149556D02*
X0172200Y0149556D01*
X0172200Y0148958D02*
X0127550Y0148958D01*
X0127550Y0148359D02*
X0172200Y0148359D01*
X0172200Y0147761D02*
X0127550Y0147761D01*
X0127550Y0147162D02*
X0172200Y0147162D01*
X0172200Y0146564D02*
X0127550Y0146564D01*
X0127550Y0145965D02*
X0172200Y0145965D01*
X0172200Y0145367D02*
X0127550Y0145367D01*
X0127550Y0144768D02*
X0172200Y0144768D01*
X0172200Y0144170D02*
X0127550Y0144170D01*
X0127550Y0143571D02*
X0172200Y0143571D01*
X0172200Y0142972D02*
X0127550Y0142972D01*
X0127550Y0142374D02*
X0172200Y0142374D01*
X0172200Y0141775D02*
X0127550Y0141775D01*
X0127550Y0141177D02*
X0172200Y0141177D01*
X0172200Y0140578D02*
X0127550Y0140578D01*
X0127550Y0139980D02*
X0172200Y0139980D01*
X0172200Y0139381D02*
X0127550Y0139381D01*
X0127550Y0138783D02*
X0172200Y0138783D01*
X0172200Y0138184D02*
X0127550Y0138184D01*
X0125050Y0138184D02*
X0099314Y0138184D01*
X0099011Y0138487D02*
X0098063Y0138880D01*
X0097233Y0138880D01*
X0091012Y0145101D01*
X0091012Y0152364D01*
X0091599Y0152951D01*
X0091992Y0153899D01*
X0091992Y0154925D01*
X0091839Y0155293D01*
X0094901Y0155293D01*
X0096515Y0153679D01*
X0096594Y0153487D01*
X0097320Y0152762D01*
X0098268Y0152369D01*
X0099294Y0152369D01*
X0100242Y0152762D01*
X0100968Y0153487D01*
X0101361Y0154435D01*
X0101361Y0155462D01*
X0100968Y0156410D01*
X0100242Y0157135D01*
X0100050Y0157215D01*
X0098056Y0159209D01*
X0097352Y0159913D01*
X0096434Y0160293D01*
X0079960Y0160293D01*
X0080157Y0160490D01*
X0113135Y0160490D01*
X0113135Y0160102D01*
X0113897Y0159340D01*
X0119574Y0159340D01*
X0119735Y0159502D01*
X0119897Y0159340D01*
X0125050Y0159340D01*
X0125050Y0137313D01*
X0114387Y0126650D01*
X0098880Y0126650D01*
X0098880Y0126813D01*
X0098487Y0127761D01*
X0097761Y0128487D01*
X0096813Y0128880D01*
X0095787Y0128880D01*
X0094839Y0128487D01*
X0094113Y0127761D01*
X0093800Y0127005D01*
X0093487Y0127761D01*
X0092900Y0128348D01*
X0092900Y0133213D01*
X0091963Y0134150D01*
X0073503Y0152609D01*
X0073709Y0152695D01*
X0074905Y0153891D01*
X0075486Y0155293D01*
X0086985Y0155293D01*
X0086833Y0154925D01*
X0086833Y0153899D01*
X0087225Y0152951D01*
X0087812Y0152364D01*
X0087812Y0143775D01*
X0088749Y0142838D01*
X0094970Y0136617D01*
X0094970Y0135787D01*
X0095363Y0134839D01*
X0096089Y0134113D01*
X0097037Y0133720D01*
X0098063Y0133720D01*
X0099011Y0134113D01*
X0099737Y0134839D01*
X0100130Y0135787D01*
X0100130Y0136813D01*
X0099737Y0137761D01*
X0099011Y0138487D01*
X0098296Y0138783D02*
X0125050Y0138783D01*
X0125050Y0139381D02*
X0096731Y0139381D01*
X0096133Y0139980D02*
X0125050Y0139980D01*
X0125050Y0140578D02*
X0095534Y0140578D01*
X0094936Y0141177D02*
X0125050Y0141177D01*
X0125050Y0141775D02*
X0094337Y0141775D01*
X0093739Y0142374D02*
X0125050Y0142374D01*
X0125050Y0142972D02*
X0093140Y0142972D01*
X0092542Y0143571D02*
X0125050Y0143571D01*
X0125050Y0144170D02*
X0091943Y0144170D01*
X0091345Y0144768D02*
X0125050Y0144768D01*
X0125050Y0145367D02*
X0091012Y0145367D01*
X0091012Y0145965D02*
X0125050Y0145965D01*
X0125050Y0146564D02*
X0091012Y0146564D01*
X0091012Y0147162D02*
X0125050Y0147162D01*
X0125050Y0147761D02*
X0091012Y0147761D01*
X0091012Y0148359D02*
X0125050Y0148359D01*
X0125050Y0148958D02*
X0091012Y0148958D01*
X0091012Y0149556D02*
X0125050Y0149556D01*
X0125050Y0150155D02*
X0091012Y0150155D01*
X0091012Y0150753D02*
X0125050Y0150753D01*
X0125050Y0151352D02*
X0091012Y0151352D01*
X0091012Y0151950D02*
X0125050Y0151950D01*
X0125050Y0152549D02*
X0099728Y0152549D01*
X0100628Y0153147D02*
X0125050Y0153147D01*
X0125050Y0153746D02*
X0101075Y0153746D01*
X0101323Y0154344D02*
X0125050Y0154344D01*
X0125050Y0154943D02*
X0101361Y0154943D01*
X0101328Y0155541D02*
X0125050Y0155541D01*
X0125050Y0156140D02*
X0101080Y0156140D01*
X0100639Y0156738D02*
X0125050Y0156738D01*
X0125050Y0157337D02*
X0099928Y0157337D01*
X0099330Y0157935D02*
X0125050Y0157935D01*
X0125050Y0158534D02*
X0098731Y0158534D01*
X0098133Y0159132D02*
X0125050Y0159132D01*
X0121300Y0156300D02*
X0121300Y0136300D01*
X0122929Y0135192D02*
X0099883Y0135192D01*
X0100130Y0135790D02*
X0123528Y0135790D01*
X0124126Y0136389D02*
X0100130Y0136389D01*
X0100057Y0136987D02*
X0124725Y0136987D01*
X0125050Y0137586D02*
X0099809Y0137586D01*
X0097550Y0136300D02*
X0089412Y0144438D01*
X0089412Y0154412D01*
X0087628Y0152549D02*
X0073564Y0152549D01*
X0074161Y0153147D02*
X0087144Y0153147D01*
X0086896Y0153746D02*
X0074760Y0153746D01*
X0075093Y0154344D02*
X0086833Y0154344D01*
X0086840Y0154943D02*
X0075341Y0154943D01*
X0074163Y0151950D02*
X0087812Y0151950D01*
X0087812Y0151352D02*
X0074761Y0151352D01*
X0075360Y0150753D02*
X0087812Y0150753D01*
X0087812Y0150155D02*
X0075958Y0150155D01*
X0076557Y0149556D02*
X0087812Y0149556D01*
X0087812Y0148958D02*
X0077155Y0148958D01*
X0077754Y0148359D02*
X0087812Y0148359D01*
X0087812Y0147761D02*
X0078352Y0147761D01*
X0078951Y0147162D02*
X0087812Y0147162D01*
X0087812Y0146564D02*
X0079549Y0146564D01*
X0080148Y0145965D02*
X0087812Y0145965D01*
X0087812Y0145367D02*
X0080746Y0145367D01*
X0081345Y0144768D02*
X0087812Y0144768D01*
X0087812Y0144170D02*
X0081943Y0144170D01*
X0082542Y0143571D02*
X0088016Y0143571D01*
X0088615Y0142972D02*
X0083140Y0142972D01*
X0083739Y0142374D02*
X0089213Y0142374D01*
X0089812Y0141775D02*
X0084337Y0141775D01*
X0084936Y0141177D02*
X0090410Y0141177D01*
X0091009Y0140578D02*
X0085534Y0140578D01*
X0086133Y0139980D02*
X0091607Y0139980D01*
X0092206Y0139381D02*
X0086731Y0139381D01*
X0087330Y0138783D02*
X0092804Y0138783D01*
X0093403Y0138184D02*
X0087928Y0138184D01*
X0088527Y0137586D02*
X0094001Y0137586D01*
X0094600Y0136987D02*
X0089125Y0136987D01*
X0089724Y0136389D02*
X0094970Y0136389D01*
X0094970Y0135790D02*
X0090322Y0135790D01*
X0090921Y0135192D02*
X0095217Y0135192D01*
X0095609Y0134593D02*
X0091519Y0134593D01*
X0092118Y0133995D02*
X0096375Y0133995D01*
X0098725Y0133995D02*
X0121732Y0133995D01*
X0122331Y0134593D02*
X0099491Y0134593D01*
X0097468Y0128608D02*
X0116345Y0128608D01*
X0115747Y0128010D02*
X0098238Y0128010D01*
X0098632Y0127411D02*
X0115148Y0127411D01*
X0114550Y0126813D02*
X0098880Y0126813D01*
X0095132Y0128608D02*
X0092900Y0128608D01*
X0092900Y0129207D02*
X0116944Y0129207D01*
X0117543Y0129805D02*
X0092900Y0129805D01*
X0092900Y0130404D02*
X0118141Y0130404D01*
X0118740Y0131002D02*
X0092900Y0131002D01*
X0092900Y0131601D02*
X0119338Y0131601D01*
X0119937Y0132199D02*
X0092900Y0132199D01*
X0092900Y0132798D02*
X0120535Y0132798D01*
X0121134Y0133396D02*
X0092716Y0133396D01*
X0089700Y0131601D02*
X0086380Y0131601D01*
X0086380Y0131002D02*
X0089700Y0131002D01*
X0089700Y0130404D02*
X0086221Y0130404D01*
X0085953Y0129805D02*
X0089700Y0129805D01*
X0089700Y0129207D02*
X0085355Y0129207D01*
X0082245Y0129207D02*
X0074408Y0129207D01*
X0074947Y0128608D02*
X0089700Y0128608D01*
X0089362Y0128010D02*
X0075195Y0128010D01*
X0075443Y0127411D02*
X0088968Y0127411D01*
X0088720Y0126813D02*
X0075553Y0126813D01*
X0075553Y0126214D02*
X0088720Y0126214D01*
X0088791Y0125616D02*
X0075553Y0125616D01*
X0075372Y0125017D02*
X0089039Y0125017D01*
X0089533Y0124419D02*
X0075124Y0124419D01*
X0074834Y0123820D02*
X0090546Y0123820D01*
X0093632Y0127411D02*
X0093968Y0127411D01*
X0094362Y0128010D02*
X0093238Y0128010D01*
X0089388Y0132199D02*
X0086220Y0132199D01*
X0085950Y0132798D02*
X0088789Y0132798D01*
X0088191Y0133396D02*
X0085352Y0133396D01*
X0079213Y0142374D02*
X0072935Y0142374D01*
X0073987Y0142972D02*
X0078615Y0142972D01*
X0078016Y0143571D02*
X0074585Y0143571D01*
X0075021Y0144170D02*
X0077418Y0144170D01*
X0076819Y0144768D02*
X0075269Y0144768D01*
X0075516Y0145367D02*
X0076221Y0145367D01*
X0075622Y0145965D02*
X0075553Y0145965D01*
X0068542Y0149556D02*
X0066954Y0149556D01*
X0066136Y0148958D02*
X0067943Y0148958D01*
X0071261Y0160928D02*
X0003568Y0160928D01*
X0003568Y0161526D02*
X0071859Y0161526D01*
X0072333Y0162125D02*
X0072458Y0162125D01*
X0070267Y0162125D02*
X0012333Y0162125D01*
X0013738Y0162723D02*
X0068862Y0162723D01*
X0068264Y0163322D02*
X0014336Y0163322D01*
X0014917Y0163920D02*
X0067683Y0163920D01*
X0067435Y0164519D02*
X0015165Y0164519D01*
X0015413Y0165117D02*
X0067187Y0165117D01*
X0067047Y0165716D02*
X0015553Y0165716D01*
X0015553Y0166314D02*
X0067047Y0166314D01*
X0067047Y0166913D02*
X0015553Y0166913D01*
X0015401Y0167511D02*
X0067199Y0167511D01*
X0067447Y0168110D02*
X0015153Y0168110D01*
X0014906Y0168708D02*
X0067694Y0168708D01*
X0068293Y0169307D02*
X0047955Y0169307D01*
X0048514Y0169905D02*
X0068891Y0169905D01*
X0070336Y0170504D02*
X0048762Y0170504D01*
X0048880Y0171103D02*
X0125050Y0171103D01*
X0125050Y0171701D02*
X0048964Y0171701D01*
X0049562Y0172300D02*
X0069850Y0172300D01*
X0069667Y0172359D02*
X0070304Y0172152D01*
X0070965Y0172047D01*
X0071000Y0172047D01*
X0071000Y0176000D01*
X0067047Y0176000D01*
X0067047Y0175965D01*
X0067152Y0175304D01*
X0067359Y0174667D01*
X0067663Y0174071D01*
X0068056Y0173530D01*
X0068530Y0173056D01*
X0069071Y0172663D01*
X0069667Y0172359D01*
X0068747Y0172898D02*
X0050161Y0172898D01*
X0050759Y0173497D02*
X0068089Y0173497D01*
X0067650Y0174095D02*
X0051358Y0174095D01*
X0051956Y0174694D02*
X0067350Y0174694D01*
X0067156Y0175292D02*
X0052555Y0175292D01*
X0053153Y0175891D02*
X0067059Y0175891D01*
X0067119Y0177088D02*
X0054350Y0177088D01*
X0054949Y0177686D02*
X0067279Y0177686D01*
X0067538Y0178285D02*
X0055547Y0178285D01*
X0056146Y0178883D02*
X0067920Y0178883D01*
X0068467Y0179482D02*
X0056744Y0179482D01*
X0053752Y0176489D02*
X0071000Y0176489D01*
X0071000Y0175891D02*
X0071600Y0175891D01*
X0071600Y0175292D02*
X0071000Y0175292D01*
X0071000Y0174694D02*
X0071600Y0174694D01*
X0071600Y0174095D02*
X0071000Y0174095D01*
X0071000Y0173497D02*
X0071600Y0173497D01*
X0071600Y0172898D02*
X0071000Y0172898D01*
X0071000Y0172300D02*
X0071600Y0172300D01*
X0072750Y0172300D02*
X0125050Y0172300D01*
X0125050Y0172898D02*
X0073853Y0172898D01*
X0074511Y0173497D02*
X0125050Y0173497D01*
X0125050Y0170504D02*
X0072264Y0170504D01*
X0073709Y0169905D02*
X0125050Y0169905D01*
X0125050Y0169307D02*
X0074307Y0169307D01*
X0074906Y0168708D02*
X0125050Y0168708D01*
X0127550Y0168708D02*
X0208800Y0168708D01*
X0208800Y0168110D02*
X0127550Y0168110D01*
X0127550Y0167511D02*
X0177749Y0167511D01*
X0171300Y0173800D02*
X0193800Y0173800D01*
X0194100Y0174095D02*
X0208800Y0174095D01*
X0208800Y0173497D02*
X0201005Y0173497D01*
X0200916Y0172898D02*
X0208800Y0172898D01*
X0208800Y0172300D02*
X0200737Y0172300D01*
X0200456Y0171701D02*
X0208800Y0171701D01*
X0208800Y0171103D02*
X0200050Y0171103D01*
X0199451Y0170504D02*
X0208800Y0170504D01*
X0208800Y0174694D02*
X0200917Y0174694D01*
X0200740Y0175292D02*
X0208800Y0175292D01*
X0208800Y0175891D02*
X0200461Y0175891D01*
X0200056Y0176489D02*
X0208800Y0176489D01*
X0208800Y0177088D02*
X0199463Y0177088D01*
X0198493Y0177686D02*
X0208800Y0177686D01*
X0208800Y0178285D02*
X0127550Y0178285D01*
X0127550Y0178883D02*
X0208800Y0178883D01*
X0208800Y0179482D02*
X0127550Y0179482D01*
X0127550Y0180080D02*
X0208800Y0180080D01*
X0208800Y0180679D02*
X0127550Y0180679D01*
X0127550Y0181277D02*
X0208800Y0181277D01*
X0208800Y0181876D02*
X0127550Y0181876D01*
X0127550Y0182474D02*
X0208800Y0182474D01*
X0208800Y0183073D02*
X0127550Y0183073D01*
X0127550Y0183671D02*
X0208800Y0183671D01*
X0208800Y0184270D02*
X0127550Y0184270D01*
X0127550Y0184868D02*
X0208800Y0184868D01*
X0208800Y0185467D02*
X0127550Y0185467D01*
X0127550Y0186065D02*
X0208800Y0186065D01*
X0208800Y0186664D02*
X0127550Y0186664D01*
X0127550Y0187262D02*
X0208800Y0187262D01*
X0208800Y0187861D02*
X0127550Y0187861D01*
X0127550Y0188459D02*
X0208800Y0188459D01*
X0208800Y0189058D02*
X0127550Y0189058D01*
X0127550Y0189656D02*
X0208800Y0189656D01*
X0208800Y0190255D02*
X0127550Y0190255D01*
X0127550Y0190853D02*
X0208800Y0190853D01*
X0208800Y0191452D02*
X0127550Y0191452D01*
X0127550Y0192050D02*
X0208800Y0192050D01*
X0208800Y0192649D02*
X0127550Y0192649D01*
X0127550Y0193247D02*
X0208800Y0193247D01*
X0205241Y0193846D02*
X0127550Y0193846D01*
X0127550Y0194444D02*
X0204643Y0194444D01*
X0204044Y0195043D02*
X0127550Y0195043D01*
X0127550Y0195641D02*
X0203446Y0195641D01*
X0202847Y0196240D02*
X0127550Y0196240D01*
X0127550Y0196839D02*
X0202249Y0196839D01*
X0201650Y0197437D02*
X0127550Y0197437D01*
X0127550Y0198036D02*
X0201052Y0198036D01*
X0200453Y0198634D02*
X0127550Y0198634D01*
X0127550Y0199233D02*
X0199855Y0199233D01*
X0202550Y0206300D02*
X0122550Y0206300D01*
X0118800Y0208800D02*
X0203800Y0208800D01*
X0210050Y0202550D01*
X0280241Y0202550D01*
X0282651Y0201627D02*
X0357299Y0201627D01*
X0357299Y0202225D02*
X0282820Y0202225D01*
X0282820Y0202037D02*
X0282820Y0203063D01*
X0282428Y0204011D01*
X0281702Y0204737D01*
X0280754Y0205130D01*
X0279728Y0205130D01*
X0278780Y0204737D01*
X0278193Y0204150D01*
X0218800Y0204150D01*
X0218800Y0225567D01*
X0357299Y0225567D01*
X0357299Y0187900D01*
X0308213Y0187900D01*
X0302630Y0193483D01*
X0302630Y0194313D01*
X0302237Y0195261D01*
X0301511Y0195987D01*
X0300563Y0196380D01*
X0299537Y0196380D01*
X0298589Y0195987D01*
X0297863Y0195261D01*
X0297470Y0194313D01*
X0297470Y0193287D01*
X0297863Y0192339D01*
X0298589Y0191613D01*
X0299537Y0191220D01*
X0300367Y0191220D01*
X0303687Y0187900D01*
X0295400Y0187900D01*
X0295400Y0191963D01*
X0294947Y0192415D01*
X0294947Y0194252D01*
X0295534Y0194839D01*
X0295927Y0195787D01*
X0295927Y0196813D01*
X0295534Y0197761D01*
X0294808Y0198487D01*
X0293860Y0198880D01*
X0292834Y0198880D01*
X0291886Y0198487D01*
X0291160Y0197761D01*
X0290768Y0196813D01*
X0290768Y0195787D01*
X0291160Y0194839D01*
X0291747Y0194252D01*
X0291747Y0191090D01*
X0292200Y0190637D01*
X0292200Y0187900D01*
X0288137Y0187900D01*
X0287550Y0187313D01*
X0278213Y0196650D01*
X0278213Y0196650D01*
X0276650Y0198213D01*
X0275713Y0199150D01*
X0268711Y0199150D01*
X0268880Y0199556D01*
X0268880Y0200582D01*
X0268727Y0200950D01*
X0278193Y0200950D01*
X0278780Y0200363D01*
X0279728Y0199970D01*
X0280754Y0199970D01*
X0281702Y0200363D01*
X0282428Y0201089D01*
X0282820Y0202037D01*
X0282820Y0202824D02*
X0357299Y0202824D01*
X0357299Y0203422D02*
X0282672Y0203422D01*
X0282418Y0204021D02*
X0357299Y0204021D01*
X0357299Y0204619D02*
X0281820Y0204619D01*
X0278662Y0204619D02*
X0218800Y0204619D01*
X0218800Y0205218D02*
X0357299Y0205218D01*
X0357299Y0205816D02*
X0218800Y0205816D01*
X0218800Y0206415D02*
X0357299Y0206415D01*
X0357299Y0207013D02*
X0218800Y0207013D01*
X0218800Y0207612D02*
X0357299Y0207612D01*
X0357299Y0208210D02*
X0218800Y0208210D01*
X0218800Y0208809D02*
X0357299Y0208809D01*
X0357299Y0209407D02*
X0218800Y0209407D01*
X0218800Y0210006D02*
X0357299Y0210006D01*
X0357299Y0210604D02*
X0218800Y0210604D01*
X0218800Y0211203D02*
X0357299Y0211203D01*
X0357299Y0211801D02*
X0218800Y0211801D01*
X0218800Y0212400D02*
X0357299Y0212400D01*
X0357299Y0212998D02*
X0218800Y0212998D01*
X0218800Y0213597D02*
X0357299Y0213597D01*
X0357299Y0214195D02*
X0218800Y0214195D01*
X0218800Y0214794D02*
X0357299Y0214794D01*
X0357299Y0215392D02*
X0218800Y0215392D01*
X0218800Y0215991D02*
X0357299Y0215991D01*
X0357299Y0216589D02*
X0218800Y0216589D01*
X0218800Y0217188D02*
X0357299Y0217188D01*
X0357299Y0217786D02*
X0218800Y0217786D01*
X0218800Y0218385D02*
X0357299Y0218385D01*
X0357299Y0218983D02*
X0218800Y0218983D01*
X0218800Y0219582D02*
X0357299Y0219582D01*
X0357299Y0220180D02*
X0218800Y0220180D01*
X0218800Y0220779D02*
X0357299Y0220779D01*
X0357299Y0221377D02*
X0218800Y0221377D01*
X0218800Y0221976D02*
X0357299Y0221976D01*
X0357299Y0222574D02*
X0218800Y0222574D01*
X0218800Y0223173D02*
X0357299Y0223173D01*
X0357299Y0223772D02*
X0218800Y0223772D01*
X0218800Y0224370D02*
X0357299Y0224370D01*
X0357299Y0224969D02*
X0218800Y0224969D01*
X0208800Y0224969D02*
X0127550Y0224969D01*
X0127550Y0225567D02*
X0127550Y0210400D01*
X0204463Y0210400D01*
X0208800Y0206063D01*
X0208800Y0225567D01*
X0127550Y0225567D01*
X0127550Y0224370D02*
X0208800Y0224370D01*
X0208800Y0223772D02*
X0127550Y0223772D01*
X0127550Y0223173D02*
X0208800Y0223173D01*
X0208800Y0222574D02*
X0127550Y0222574D01*
X0127550Y0221976D02*
X0208800Y0221976D01*
X0208800Y0221377D02*
X0127550Y0221377D01*
X0127550Y0220779D02*
X0208800Y0220779D01*
X0208800Y0220180D02*
X0127550Y0220180D01*
X0127550Y0219582D02*
X0208800Y0219582D01*
X0208800Y0218983D02*
X0127550Y0218983D01*
X0127550Y0218385D02*
X0208800Y0218385D01*
X0208800Y0217786D02*
X0127550Y0217786D01*
X0127550Y0217188D02*
X0208800Y0217188D01*
X0208800Y0216589D02*
X0127550Y0216589D01*
X0127550Y0215991D02*
X0208800Y0215991D01*
X0208800Y0215392D02*
X0127550Y0215392D01*
X0127550Y0214794D02*
X0208800Y0214794D01*
X0208800Y0214195D02*
X0127550Y0214195D01*
X0127550Y0213597D02*
X0208800Y0213597D01*
X0208800Y0212998D02*
X0127550Y0212998D01*
X0127550Y0212400D02*
X0208800Y0212400D01*
X0208800Y0211801D02*
X0127550Y0211801D01*
X0127550Y0211203D02*
X0208800Y0211203D01*
X0208800Y0210604D02*
X0127550Y0210604D01*
X0125050Y0210604D02*
X0003568Y0210604D01*
X0003568Y0210006D02*
X0117743Y0210006D01*
X0117145Y0209407D02*
X0003568Y0209407D01*
X0003568Y0208809D02*
X0115616Y0208809D01*
X0114562Y0208210D02*
X0003568Y0208210D01*
X0003568Y0207612D02*
X0114051Y0207612D01*
X0113803Y0207013D02*
X0003568Y0207013D01*
X0003568Y0206415D02*
X0113720Y0206415D01*
X0113720Y0205816D02*
X0105432Y0205816D01*
X0116300Y0206300D02*
X0118800Y0208800D01*
X0125050Y0211203D02*
X0003568Y0211203D01*
X0003568Y0211801D02*
X0125050Y0211801D01*
X0125050Y0212400D02*
X0003568Y0212400D01*
X0003568Y0212998D02*
X0125050Y0212998D01*
X0125050Y0213597D02*
X0003568Y0213597D01*
X0003568Y0214195D02*
X0125050Y0214195D01*
X0125050Y0214794D02*
X0003568Y0214794D01*
X0003568Y0215392D02*
X0125050Y0215392D01*
X0125050Y0215991D02*
X0003568Y0215991D01*
X0003568Y0216589D02*
X0125050Y0216589D01*
X0125050Y0217188D02*
X0003568Y0217188D01*
X0003568Y0217786D02*
X0125050Y0217786D01*
X0125050Y0218385D02*
X0003568Y0218385D01*
X0003568Y0218983D02*
X0125050Y0218983D01*
X0125050Y0219582D02*
X0003568Y0219582D01*
X0003568Y0220180D02*
X0125050Y0220180D01*
X0125050Y0220779D02*
X0003568Y0220779D01*
X0003568Y0221377D02*
X0125050Y0221377D01*
X0125050Y0221976D02*
X0003568Y0221976D01*
X0003568Y0222574D02*
X0125050Y0222574D01*
X0125050Y0223173D02*
X0003568Y0223173D01*
X0003568Y0223772D02*
X0125050Y0223772D01*
X0125050Y0224370D02*
X0003568Y0224370D01*
X0003568Y0224969D02*
X0125050Y0224969D01*
X0125050Y0189656D02*
X0121592Y0189656D01*
X0122190Y0189058D02*
X0125050Y0189058D01*
X0125050Y0188459D02*
X0122465Y0188459D01*
X0122630Y0187861D02*
X0125050Y0187861D01*
X0125050Y0187262D02*
X0122630Y0187262D01*
X0122475Y0186664D02*
X0125050Y0186664D01*
X0125050Y0186065D02*
X0122213Y0186065D01*
X0121615Y0185467D02*
X0125050Y0185467D01*
X0119766Y0168110D02*
X0119704Y0168110D01*
X0113766Y0168110D02*
X0075153Y0168110D01*
X0075401Y0167511D02*
X0113168Y0167511D01*
X0113135Y0160329D02*
X0079996Y0160329D01*
X0075451Y0165117D02*
X0075413Y0165117D01*
X0075553Y0165716D02*
X0076049Y0165716D01*
X0075553Y0166314D02*
X0076648Y0166314D01*
X0077692Y0166913D02*
X0075553Y0166913D01*
X0091984Y0154943D02*
X0095251Y0154943D01*
X0095850Y0154344D02*
X0091992Y0154344D01*
X0091928Y0153746D02*
X0096448Y0153746D01*
X0096934Y0153147D02*
X0091680Y0153147D01*
X0091197Y0152549D02*
X0097834Y0152549D01*
X0097534Y0159731D02*
X0113506Y0159731D01*
X0156300Y0158800D02*
X0171300Y0173800D01*
X0193500Y0173497D02*
X0194100Y0173497D01*
X0194100Y0172898D02*
X0193500Y0172898D01*
X0193500Y0172300D02*
X0194100Y0172300D01*
X0194100Y0171701D02*
X0193500Y0171701D01*
X0193500Y0171103D02*
X0194100Y0171103D01*
X0194100Y0170504D02*
X0193500Y0170504D01*
X0193500Y0169905D02*
X0194100Y0169905D01*
X0189718Y0157935D02*
X0185400Y0157935D01*
X0185400Y0157337D02*
X0188370Y0157337D01*
X0187771Y0156738D02*
X0185400Y0156738D01*
X0185400Y0156140D02*
X0187213Y0156140D01*
X0186965Y0155541D02*
X0185400Y0155541D01*
X0185400Y0154943D02*
X0186717Y0154943D01*
X0186594Y0154344D02*
X0185400Y0154344D01*
X0185400Y0153746D02*
X0186594Y0153746D01*
X0186594Y0153147D02*
X0185400Y0153147D01*
X0185400Y0152549D02*
X0186762Y0152549D01*
X0187010Y0151950D02*
X0185400Y0151950D01*
X0185400Y0151352D02*
X0187281Y0151352D01*
X0187880Y0150753D02*
X0185400Y0150753D01*
X0185400Y0150155D02*
X0188535Y0150155D01*
X0189980Y0149556D02*
X0185400Y0149556D01*
X0185400Y0148958D02*
X0192200Y0148958D01*
X0192200Y0148359D02*
X0185400Y0148359D01*
X0185400Y0147761D02*
X0189296Y0147761D01*
X0188195Y0147162D02*
X0185400Y0147162D01*
X0185400Y0146564D02*
X0187597Y0146564D01*
X0187141Y0145965D02*
X0185400Y0145965D01*
X0185400Y0145367D02*
X0186893Y0145367D01*
X0186645Y0144768D02*
X0185400Y0144768D01*
X0185400Y0144170D02*
X0186594Y0144170D01*
X0186594Y0143571D02*
X0185400Y0143571D01*
X0185400Y0142972D02*
X0186594Y0142972D01*
X0186835Y0142374D02*
X0185400Y0142374D01*
X0185400Y0141775D02*
X0187083Y0141775D01*
X0187456Y0141177D02*
X0185400Y0141177D01*
X0185400Y0140578D02*
X0188054Y0140578D01*
X0188957Y0139980D02*
X0185400Y0139980D01*
X0193800Y0140050D02*
X0193800Y0143800D01*
X0199914Y0149556D02*
X0208800Y0149556D01*
X0208800Y0148958D02*
X0200512Y0148958D01*
X0201111Y0148359D02*
X0208800Y0148359D01*
X0208800Y0147761D02*
X0201709Y0147761D01*
X0202308Y0147162D02*
X0208800Y0147162D01*
X0208800Y0146564D02*
X0202507Y0146564D01*
X0202507Y0145965D02*
X0208800Y0145965D01*
X0208800Y0145367D02*
X0202507Y0145367D01*
X0202507Y0144768D02*
X0208800Y0144768D01*
X0208800Y0144170D02*
X0202507Y0144170D01*
X0202507Y0143571D02*
X0208800Y0143571D01*
X0208800Y0142972D02*
X0202507Y0142972D01*
X0202507Y0142374D02*
X0208800Y0142374D01*
X0208800Y0141775D02*
X0202507Y0141775D01*
X0202507Y0141177D02*
X0208800Y0141177D01*
X0208800Y0140578D02*
X0202507Y0140578D01*
X0202507Y0139980D02*
X0208800Y0139980D01*
X0208800Y0139381D02*
X0202507Y0139381D01*
X0202507Y0138783D02*
X0208800Y0138783D01*
X0208800Y0138184D02*
X0202507Y0138184D01*
X0202507Y0137586D02*
X0208800Y0137586D01*
X0208800Y0136987D02*
X0202507Y0136987D01*
X0202507Y0136389D02*
X0208800Y0136389D01*
X0208800Y0135790D02*
X0202507Y0135790D01*
X0202507Y0135192D02*
X0208800Y0135192D01*
X0208800Y0134593D02*
X0202507Y0134593D01*
X0202507Y0133995D02*
X0208800Y0133995D01*
X0208800Y0133396D02*
X0202507Y0133396D01*
X0202507Y0132798D02*
X0208800Y0132798D01*
X0208800Y0132199D02*
X0202507Y0132199D01*
X0202507Y0131601D02*
X0208800Y0131601D01*
X0208800Y0131002D02*
X0202507Y0131002D01*
X0202507Y0130404D02*
X0208800Y0130404D01*
X0208800Y0129805D02*
X0202507Y0129805D01*
X0202507Y0129207D02*
X0208800Y0129207D01*
X0208800Y0128608D02*
X0202507Y0128608D01*
X0202507Y0128010D02*
X0208800Y0128010D01*
X0208800Y0127411D02*
X0202507Y0127411D01*
X0202507Y0126813D02*
X0208800Y0126813D01*
X0208800Y0126214D02*
X0202507Y0126214D01*
X0202507Y0125616D02*
X0208800Y0125616D01*
X0208800Y0125017D02*
X0202507Y0125017D01*
X0202507Y0124419D02*
X0208800Y0124419D01*
X0208800Y0123820D02*
X0202507Y0123820D01*
X0202507Y0123222D02*
X0208800Y0123222D01*
X0208800Y0122623D02*
X0202507Y0122623D01*
X0202507Y0122025D02*
X0208800Y0122025D01*
X0208800Y0121426D02*
X0202507Y0121426D01*
X0202507Y0120828D02*
X0208800Y0120828D01*
X0208800Y0120229D02*
X0202507Y0120229D01*
X0202507Y0119631D02*
X0208800Y0119631D01*
X0208800Y0119032D02*
X0202507Y0119032D01*
X0202507Y0118434D02*
X0208800Y0118434D01*
X0208800Y0117835D02*
X0202507Y0117835D01*
X0202507Y0117237D02*
X0208800Y0117237D01*
X0208800Y0116638D02*
X0202507Y0116638D01*
X0202052Y0116039D02*
X0208800Y0116039D01*
X0208800Y0115441D02*
X0201454Y0115441D01*
X0200855Y0114842D02*
X0208800Y0114842D01*
X0208800Y0114244D02*
X0200257Y0114244D01*
X0199658Y0113645D02*
X0208800Y0113645D01*
X0208800Y0113047D02*
X0199060Y0113047D01*
X0198461Y0112448D02*
X0208800Y0112448D01*
X0208800Y0111850D02*
X0197863Y0111850D01*
X0197550Y0111251D02*
X0208800Y0111251D01*
X0208800Y0110653D02*
X0197550Y0110653D01*
X0197550Y0110054D02*
X0208800Y0110054D01*
X0208800Y0109456D02*
X0197550Y0109456D01*
X0197550Y0108857D02*
X0208800Y0108857D01*
X0208800Y0108259D02*
X0197550Y0108259D01*
X0197550Y0107660D02*
X0208800Y0107660D01*
X0208800Y0107062D02*
X0197550Y0107062D01*
X0197550Y0106463D02*
X0208800Y0106463D01*
X0208800Y0105865D02*
X0197550Y0105865D01*
X0197550Y0105266D02*
X0208800Y0105266D01*
X0208800Y0104668D02*
X0197550Y0104668D01*
X0197550Y0104069D02*
X0208800Y0104069D01*
X0208800Y0103471D02*
X0197550Y0103471D01*
X0197550Y0102872D02*
X0208800Y0102872D01*
X0208800Y0102274D02*
X0197550Y0102274D01*
X0197550Y0101675D02*
X0208800Y0101675D01*
X0208800Y0101077D02*
X0197550Y0101077D01*
X0197550Y0100478D02*
X0208800Y0100478D01*
X0208800Y0099880D02*
X0197550Y0099880D01*
X0197550Y0099281D02*
X0208800Y0099281D01*
X0208800Y0098683D02*
X0197550Y0098683D01*
X0197550Y0098084D02*
X0208800Y0098084D01*
X0208800Y0097486D02*
X0197550Y0097486D01*
X0197550Y0096887D02*
X0208800Y0096887D01*
X0208800Y0096289D02*
X0197550Y0096289D01*
X0197550Y0095690D02*
X0208800Y0095690D01*
X0208800Y0095092D02*
X0197550Y0095092D01*
X0197550Y0094493D02*
X0208800Y0094493D01*
X0208800Y0093895D02*
X0197550Y0093895D01*
X0197550Y0093296D02*
X0208800Y0093296D01*
X0208800Y0092698D02*
X0197550Y0092698D01*
X0197550Y0092099D02*
X0208800Y0092099D01*
X0208800Y0091501D02*
X0197550Y0091501D01*
X0197550Y0090902D02*
X0208800Y0090902D01*
X0208800Y0090303D02*
X0197550Y0090303D01*
X0197550Y0089705D02*
X0208800Y0089705D01*
X0208800Y0089106D02*
X0197550Y0089106D01*
X0197550Y0088508D02*
X0208800Y0088508D01*
X0208800Y0087909D02*
X0197550Y0087909D01*
X0197550Y0087311D02*
X0208800Y0087311D01*
X0208800Y0086712D02*
X0197550Y0086712D01*
X0197550Y0086114D02*
X0208800Y0086114D01*
X0208800Y0085515D02*
X0197550Y0085515D01*
X0197550Y0084917D02*
X0208800Y0084917D01*
X0208800Y0084318D02*
X0197550Y0084318D01*
X0197550Y0083720D02*
X0208800Y0083720D01*
X0208800Y0083121D02*
X0197550Y0083121D01*
X0197550Y0082523D02*
X0208800Y0082523D01*
X0208800Y0081924D02*
X0197550Y0081924D01*
X0197550Y0081326D02*
X0208800Y0081326D01*
X0208800Y0080727D02*
X0197550Y0080727D01*
X0197550Y0080129D02*
X0208800Y0080129D01*
X0208800Y0079530D02*
X0197550Y0079530D01*
X0197550Y0078932D02*
X0208800Y0078932D01*
X0208800Y0078333D02*
X0197550Y0078333D01*
X0197550Y0077735D02*
X0208800Y0077735D01*
X0208800Y0077136D02*
X0197550Y0077136D01*
X0197550Y0076538D02*
X0208800Y0076538D01*
X0209757Y0076099D02*
X0209757Y0076099D01*
X0209917Y0075939D02*
X0197550Y0075939D01*
X0197550Y0075341D02*
X0210516Y0075341D01*
X0211099Y0074757D02*
X0211099Y0074757D01*
X0211136Y0074742D02*
X0197550Y0074742D01*
X0197550Y0074144D02*
X0212581Y0074144D01*
X0215019Y0074144D02*
X0288450Y0074144D01*
X0288450Y0073545D02*
X0197550Y0073545D01*
X0197550Y0072947D02*
X0288450Y0072947D01*
X0288450Y0072348D02*
X0197550Y0072348D01*
X0197550Y0071750D02*
X0288450Y0071750D01*
X0288450Y0071151D02*
X0197550Y0071151D01*
X0197550Y0070553D02*
X0288450Y0070553D01*
X0288450Y0069954D02*
X0197550Y0069954D01*
X0197550Y0069356D02*
X0288450Y0069356D01*
X0288450Y0068757D02*
X0197550Y0068757D01*
X0197550Y0068159D02*
X0288450Y0068159D01*
X0288450Y0067560D02*
X0197550Y0067560D01*
X0197550Y0066962D02*
X0288450Y0066962D01*
X0288450Y0066363D02*
X0197550Y0066363D01*
X0197550Y0065765D02*
X0288450Y0065765D01*
X0288450Y0065166D02*
X0197550Y0065166D01*
X0197550Y0064568D02*
X0288450Y0064568D01*
X0288450Y0063969D02*
X0197550Y0063969D01*
X0197550Y0063370D02*
X0212373Y0063370D01*
X0211099Y0062843D02*
X0211099Y0062843D01*
X0211028Y0062772D02*
X0197550Y0062772D01*
X0197550Y0062173D02*
X0210430Y0062173D01*
X0209831Y0061575D02*
X0197550Y0061575D01*
X0197550Y0060976D02*
X0209540Y0060976D01*
X0209757Y0061501D02*
X0209757Y0061501D01*
X0209757Y0061501D01*
X0209292Y0060378D02*
X0197550Y0060378D01*
X0197550Y0059779D02*
X0209044Y0059779D01*
X0209031Y0059181D02*
X0197550Y0059181D01*
X0197550Y0058582D02*
X0209031Y0058582D01*
X0209031Y0057984D02*
X0197550Y0057984D01*
X0197550Y0057385D02*
X0209031Y0057385D01*
X0209031Y0056787D02*
X0197550Y0056787D01*
X0197550Y0056188D02*
X0209031Y0056188D01*
X0209031Y0055590D02*
X0197550Y0055590D01*
X0197550Y0054991D02*
X0209031Y0054991D01*
X0209031Y0054393D02*
X0197550Y0054393D01*
X0197550Y0053794D02*
X0209031Y0053794D01*
X0209031Y0053196D02*
X0197550Y0053196D01*
X0197550Y0052597D02*
X0209031Y0052597D01*
X0209031Y0051999D02*
X0197550Y0051999D01*
X0197550Y0051400D02*
X0209031Y0051400D01*
X0209031Y0050802D02*
X0197550Y0050802D01*
X0197550Y0050203D02*
X0209031Y0050203D01*
X0209031Y0049605D02*
X0197550Y0049605D01*
X0197550Y0049006D02*
X0209031Y0049006D01*
X0209031Y0048408D02*
X0197550Y0048408D01*
X0197550Y0047809D02*
X0209031Y0047809D01*
X0209031Y0047211D02*
X0197550Y0047211D01*
X0197550Y0046612D02*
X0209031Y0046612D01*
X0209031Y0046014D02*
X0197550Y0046014D01*
X0197550Y0045415D02*
X0209031Y0045415D01*
X0209031Y0044817D02*
X0197550Y0044817D01*
X0197550Y0044218D02*
X0209031Y0044218D01*
X0209031Y0043620D02*
X0197550Y0043620D01*
X0197550Y0043021D02*
X0209031Y0043021D01*
X0209031Y0042423D02*
X0197550Y0042423D01*
X0197550Y0041824D02*
X0209031Y0041824D01*
X0209031Y0041226D02*
X0197550Y0041226D01*
X0197550Y0040627D02*
X0209031Y0040627D01*
X0209031Y0040029D02*
X0197550Y0040029D01*
X0197550Y0039430D02*
X0209031Y0039430D01*
X0209031Y0038832D02*
X0197550Y0038832D01*
X0197550Y0038233D02*
X0209031Y0038233D01*
X0209031Y0037634D02*
X0197550Y0037634D01*
X0197550Y0037036D02*
X0209031Y0037036D01*
X0209031Y0036437D02*
X0197550Y0036437D01*
X0197550Y0035839D02*
X0209031Y0035839D01*
X0209031Y0035240D02*
X0197550Y0035240D01*
X0197550Y0034642D02*
X0209031Y0034642D01*
X0209031Y0034043D02*
X0197550Y0034043D01*
X0197550Y0033445D02*
X0209031Y0033445D01*
X0209031Y0032846D02*
X0197550Y0032846D01*
X0197550Y0032248D02*
X0209031Y0032248D01*
X0209031Y0031649D02*
X0197550Y0031649D01*
X0197550Y0031051D02*
X0209031Y0031051D01*
X0209031Y0030452D02*
X0197550Y0030452D01*
X0197550Y0029854D02*
X0209031Y0029854D01*
X0209031Y0029255D02*
X0197550Y0029255D01*
X0197550Y0028657D02*
X0209031Y0028657D01*
X0209031Y0028058D02*
X0197550Y0028058D01*
X0197550Y0027460D02*
X0209031Y0027460D01*
X0209031Y0026861D02*
X0197550Y0026861D01*
X0197550Y0026263D02*
X0209031Y0026263D01*
X0209031Y0025664D02*
X0197550Y0025664D01*
X0197550Y0025066D02*
X0209031Y0025066D01*
X0209031Y0024467D02*
X0197550Y0024467D01*
X0197550Y0023869D02*
X0209031Y0023869D01*
X0209031Y0023270D02*
X0197550Y0023270D01*
X0197550Y0022672D02*
X0209031Y0022672D01*
X0209031Y0022073D02*
X0197550Y0022073D01*
X0197550Y0021475D02*
X0209031Y0021475D01*
X0209031Y0020876D02*
X0197550Y0020876D01*
X0197550Y0020278D02*
X0209031Y0020278D01*
X0209031Y0019679D02*
X0197550Y0019679D01*
X0197550Y0019081D02*
X0209031Y0019081D01*
X0209031Y0018482D02*
X0197550Y0018482D01*
X0197550Y0017884D02*
X0209031Y0017884D01*
X0209031Y0017285D02*
X0197550Y0017285D01*
X0197550Y0016687D02*
X0209031Y0016687D01*
X0209031Y0016088D02*
X0197550Y0016088D01*
X0197550Y0015490D02*
X0209031Y0015490D01*
X0209031Y0014891D02*
X0197550Y0014891D01*
X0197550Y0014293D02*
X0209031Y0014293D01*
X0209031Y0013694D02*
X0197550Y0013694D01*
X0218568Y0013694D02*
X0288450Y0013694D01*
X0288450Y0014293D02*
X0218568Y0014293D01*
X0218568Y0014891D02*
X0288450Y0014891D01*
X0288450Y0015490D02*
X0218568Y0015490D01*
X0218568Y0016088D02*
X0288450Y0016088D01*
X0288450Y0016687D02*
X0218568Y0016687D01*
X0218568Y0017285D02*
X0288450Y0017285D01*
X0288450Y0017884D02*
X0218568Y0017884D01*
X0218568Y0018482D02*
X0288450Y0018482D01*
X0288450Y0019081D02*
X0218568Y0019081D01*
X0218568Y0019679D02*
X0288450Y0019679D01*
X0288450Y0020278D02*
X0218568Y0020278D01*
X0218568Y0020876D02*
X0288450Y0020876D01*
X0288450Y0021475D02*
X0218568Y0021475D01*
X0218568Y0022073D02*
X0288450Y0022073D01*
X0288450Y0022672D02*
X0218568Y0022672D01*
X0218568Y0023270D02*
X0288450Y0023270D01*
X0288450Y0023869D02*
X0218568Y0023869D01*
X0218568Y0024467D02*
X0288450Y0024467D01*
X0288450Y0025066D02*
X0218568Y0025066D01*
X0218568Y0025664D02*
X0288450Y0025664D01*
X0288450Y0026263D02*
X0218568Y0026263D01*
X0218568Y0026861D02*
X0288450Y0026861D01*
X0288450Y0027460D02*
X0218568Y0027460D01*
X0218568Y0028058D02*
X0288450Y0028058D01*
X0288450Y0028657D02*
X0218568Y0028657D01*
X0218568Y0029255D02*
X0288450Y0029255D01*
X0288450Y0029854D02*
X0218568Y0029854D01*
X0218568Y0030452D02*
X0288450Y0030452D01*
X0288450Y0031051D02*
X0218568Y0031051D01*
X0218568Y0031649D02*
X0288450Y0031649D01*
X0288450Y0032248D02*
X0218568Y0032248D01*
X0218568Y0032846D02*
X0288450Y0032846D01*
X0288450Y0033445D02*
X0218568Y0033445D01*
X0218568Y0034043D02*
X0288450Y0034043D01*
X0288450Y0034642D02*
X0218568Y0034642D01*
X0218568Y0035240D02*
X0288450Y0035240D01*
X0288450Y0035839D02*
X0218568Y0035839D01*
X0218568Y0036437D02*
X0288450Y0036437D01*
X0288450Y0037036D02*
X0285687Y0037036D01*
X0285432Y0036906D02*
X0286029Y0037210D01*
X0286570Y0037603D01*
X0287044Y0038077D01*
X0287437Y0038618D01*
X0287741Y0039215D01*
X0287948Y0039851D01*
X0288053Y0040513D01*
X0288053Y0043500D01*
X0284100Y0043500D01*
X0284100Y0044100D01*
X0283500Y0044100D01*
X0283500Y0051005D01*
X0283465Y0051005D01*
X0282804Y0050901D01*
X0282167Y0050694D01*
X0281571Y0050390D01*
X0281030Y0049997D01*
X0280556Y0049523D01*
X0280163Y0048982D01*
X0279859Y0048385D01*
X0279652Y0047749D01*
X0279547Y0047087D01*
X0279547Y0044100D01*
X0283500Y0044100D01*
X0283500Y0043500D01*
X0279547Y0043500D01*
X0279547Y0040513D01*
X0279652Y0039851D01*
X0279859Y0039215D01*
X0280163Y0038618D01*
X0280556Y0038077D01*
X0281030Y0037603D01*
X0281571Y0037210D01*
X0282167Y0036906D01*
X0282804Y0036699D01*
X0283465Y0036594D01*
X0283500Y0036594D01*
X0283500Y0043500D01*
X0284100Y0043500D01*
X0284100Y0036594D01*
X0284135Y0036594D01*
X0284796Y0036699D01*
X0285432Y0036906D01*
X0284100Y0037036D02*
X0283500Y0037036D01*
X0283500Y0037634D02*
X0284100Y0037634D01*
X0284100Y0038233D02*
X0283500Y0038233D01*
X0283500Y0038832D02*
X0284100Y0038832D01*
X0284100Y0039430D02*
X0283500Y0039430D01*
X0283500Y0040029D02*
X0284100Y0040029D01*
X0284100Y0040627D02*
X0283500Y0040627D01*
X0283500Y0041226D02*
X0284100Y0041226D01*
X0284100Y0041824D02*
X0283500Y0041824D01*
X0283500Y0042423D02*
X0284100Y0042423D01*
X0284100Y0043021D02*
X0283500Y0043021D01*
X0283500Y0043620D02*
X0218568Y0043620D01*
X0218568Y0044218D02*
X0279547Y0044218D01*
X0279547Y0044817D02*
X0218568Y0044817D01*
X0218568Y0045415D02*
X0279547Y0045415D01*
X0279547Y0046014D02*
X0218568Y0046014D01*
X0218568Y0046612D02*
X0279547Y0046612D01*
X0279567Y0047211D02*
X0218568Y0047211D01*
X0218568Y0047809D02*
X0279672Y0047809D01*
X0279870Y0048408D02*
X0218568Y0048408D01*
X0218568Y0049006D02*
X0280181Y0049006D01*
X0280638Y0049605D02*
X0218568Y0049605D01*
X0218568Y0050203D02*
X0281314Y0050203D01*
X0282499Y0050802D02*
X0218568Y0050802D01*
X0218568Y0051400D02*
X0288450Y0051400D01*
X0288450Y0050802D02*
X0285101Y0050802D01*
X0284796Y0050901D02*
X0284135Y0051005D01*
X0284100Y0051005D01*
X0284100Y0044100D01*
X0288053Y0044100D01*
X0288053Y0047087D01*
X0287948Y0047749D01*
X0287741Y0048385D01*
X0287437Y0048982D01*
X0287044Y0049523D01*
X0286570Y0049997D01*
X0286029Y0050390D01*
X0285432Y0050694D01*
X0284796Y0050901D01*
X0284100Y0050802D02*
X0283500Y0050802D01*
X0283500Y0050203D02*
X0284100Y0050203D01*
X0284100Y0049605D02*
X0283500Y0049605D01*
X0283500Y0049006D02*
X0284100Y0049006D01*
X0284100Y0048408D02*
X0283500Y0048408D01*
X0283500Y0047809D02*
X0284100Y0047809D01*
X0284100Y0047211D02*
X0283500Y0047211D01*
X0283500Y0046612D02*
X0284100Y0046612D01*
X0284100Y0046014D02*
X0283500Y0046014D01*
X0283500Y0045415D02*
X0284100Y0045415D01*
X0284100Y0044817D02*
X0283500Y0044817D01*
X0283500Y0044218D02*
X0284100Y0044218D01*
X0283800Y0043800D02*
X0288800Y0043800D01*
X0288800Y0125050D01*
X0291300Y0127550D01*
X0291300Y0187550D01*
X0288800Y0190050D01*
X0288098Y0187861D02*
X0287002Y0187861D01*
X0286403Y0188459D02*
X0292200Y0188459D01*
X0292200Y0189058D02*
X0285805Y0189058D01*
X0285206Y0189656D02*
X0292200Y0189656D01*
X0292200Y0190255D02*
X0284608Y0190255D01*
X0284009Y0190853D02*
X0291984Y0190853D01*
X0291747Y0191452D02*
X0283411Y0191452D01*
X0282812Y0192050D02*
X0291747Y0192050D01*
X0291747Y0192649D02*
X0282214Y0192649D01*
X0281615Y0193247D02*
X0291747Y0193247D01*
X0291747Y0193846D02*
X0281017Y0193846D01*
X0280418Y0194444D02*
X0291555Y0194444D01*
X0291076Y0195043D02*
X0279820Y0195043D01*
X0279221Y0195641D02*
X0290828Y0195641D01*
X0290768Y0196240D02*
X0278623Y0196240D01*
X0278024Y0196839D02*
X0290778Y0196839D01*
X0291026Y0197437D02*
X0277426Y0197437D01*
X0276827Y0198036D02*
X0291435Y0198036D01*
X0292242Y0198634D02*
X0276229Y0198634D01*
X0276650Y0198213D02*
X0276650Y0198213D01*
X0278713Y0200430D02*
X0268880Y0200430D01*
X0268880Y0199831D02*
X0357299Y0199831D01*
X0357299Y0199233D02*
X0268746Y0199233D01*
X0266300Y0200069D02*
X0208819Y0200069D01*
X0208800Y0200050D01*
X0202550Y0206300D01*
X0206054Y0208809D02*
X0208800Y0208809D01*
X0208800Y0209407D02*
X0205455Y0209407D01*
X0204857Y0210006D02*
X0208800Y0210006D01*
X0208800Y0208210D02*
X0206652Y0208210D01*
X0207251Y0207612D02*
X0208800Y0207612D01*
X0208800Y0207013D02*
X0207850Y0207013D01*
X0208448Y0206415D02*
X0208800Y0206415D01*
X0218800Y0193450D02*
X0274387Y0193450D01*
X0274702Y0193135D01*
X0274334Y0192982D01*
X0273609Y0192257D01*
X0273216Y0191309D01*
X0273216Y0190282D01*
X0273609Y0189334D01*
X0274334Y0188609D01*
X0275282Y0188216D01*
X0276112Y0188216D01*
X0282200Y0182128D01*
X0282200Y0151887D01*
X0283137Y0150950D01*
X0284700Y0149387D01*
X0284700Y0132900D01*
X0283348Y0132900D01*
X0282761Y0133487D01*
X0281813Y0133880D01*
X0280787Y0133880D01*
X0279839Y0133487D01*
X0279113Y0132761D01*
X0278720Y0131813D01*
X0278720Y0130787D01*
X0279113Y0129839D01*
X0279839Y0129113D01*
X0280787Y0128720D01*
X0281813Y0128720D01*
X0282761Y0129113D01*
X0283348Y0129700D01*
X0286963Y0129700D01*
X0287900Y0130637D01*
X0287900Y0148881D01*
X0288287Y0148720D01*
X0288800Y0148720D01*
X0288800Y0127313D01*
X0288137Y0126650D01*
X0287200Y0125713D01*
X0287200Y0076300D01*
X0218800Y0076300D01*
X0218800Y0193450D01*
X0218800Y0193247D02*
X0274590Y0193247D01*
X0274001Y0192649D02*
X0218800Y0192649D01*
X0218800Y0192050D02*
X0273523Y0192050D01*
X0273275Y0191452D02*
X0218800Y0191452D01*
X0218800Y0190853D02*
X0273216Y0190853D01*
X0273227Y0190255D02*
X0218800Y0190255D01*
X0218800Y0189656D02*
X0273475Y0189656D01*
X0273885Y0189058D02*
X0218800Y0189058D01*
X0218800Y0188459D02*
X0274695Y0188459D01*
X0276468Y0187861D02*
X0218800Y0187861D01*
X0218800Y0187262D02*
X0277066Y0187262D01*
X0277665Y0186664D02*
X0218800Y0186664D01*
X0218800Y0186065D02*
X0278263Y0186065D01*
X0278862Y0185467D02*
X0218800Y0185467D01*
X0218800Y0184868D02*
X0279460Y0184868D01*
X0280059Y0184270D02*
X0218800Y0184270D01*
X0218800Y0183671D02*
X0280657Y0183671D01*
X0281256Y0183073D02*
X0218800Y0183073D01*
X0218800Y0182474D02*
X0281854Y0182474D01*
X0282200Y0181876D02*
X0218800Y0181876D01*
X0218800Y0181277D02*
X0282200Y0181277D01*
X0282200Y0180679D02*
X0218800Y0180679D01*
X0218800Y0180080D02*
X0282200Y0180080D01*
X0282200Y0179482D02*
X0218800Y0179482D01*
X0218800Y0178883D02*
X0282200Y0178883D01*
X0282200Y0178285D02*
X0218800Y0178285D01*
X0218800Y0177686D02*
X0282200Y0177686D01*
X0282200Y0177088D02*
X0218800Y0177088D01*
X0218800Y0176489D02*
X0282200Y0176489D01*
X0282200Y0175891D02*
X0218800Y0175891D01*
X0218800Y0175292D02*
X0282200Y0175292D01*
X0282200Y0174694D02*
X0218800Y0174694D01*
X0218800Y0174095D02*
X0282200Y0174095D01*
X0282200Y0173497D02*
X0218800Y0173497D01*
X0218800Y0172898D02*
X0282200Y0172898D01*
X0282200Y0172300D02*
X0218800Y0172300D01*
X0218800Y0171701D02*
X0282200Y0171701D01*
X0282200Y0171103D02*
X0218800Y0171103D01*
X0218800Y0170504D02*
X0282200Y0170504D01*
X0282200Y0169905D02*
X0218800Y0169905D01*
X0218800Y0169307D02*
X0282200Y0169307D01*
X0282200Y0168708D02*
X0218800Y0168708D01*
X0218800Y0168110D02*
X0282200Y0168110D01*
X0282200Y0167511D02*
X0218800Y0167511D01*
X0218800Y0166913D02*
X0282200Y0166913D01*
X0282200Y0166314D02*
X0218800Y0166314D01*
X0218800Y0165716D02*
X0282200Y0165716D01*
X0282200Y0165117D02*
X0218800Y0165117D01*
X0218800Y0164519D02*
X0282200Y0164519D01*
X0282200Y0163920D02*
X0218800Y0163920D01*
X0218800Y0163322D02*
X0282200Y0163322D01*
X0282200Y0162723D02*
X0218800Y0162723D01*
X0218800Y0162125D02*
X0282200Y0162125D01*
X0282200Y0161526D02*
X0218800Y0161526D01*
X0218800Y0160928D02*
X0282200Y0160928D01*
X0282200Y0160329D02*
X0218800Y0160329D01*
X0218800Y0159731D02*
X0282200Y0159731D01*
X0282200Y0159132D02*
X0218800Y0159132D01*
X0218800Y0158534D02*
X0282200Y0158534D01*
X0282200Y0157935D02*
X0218800Y0157935D01*
X0218800Y0157337D02*
X0282200Y0157337D01*
X0282200Y0156738D02*
X0218800Y0156738D01*
X0218800Y0156140D02*
X0282200Y0156140D01*
X0282200Y0155541D02*
X0218800Y0155541D01*
X0218800Y0154943D02*
X0282200Y0154943D01*
X0282200Y0154344D02*
X0218800Y0154344D01*
X0218800Y0153746D02*
X0282200Y0153746D01*
X0282200Y0153147D02*
X0218800Y0153147D01*
X0218800Y0152549D02*
X0282200Y0152549D01*
X0282200Y0151950D02*
X0218800Y0151950D01*
X0218800Y0151352D02*
X0282736Y0151352D01*
X0283334Y0150753D02*
X0218800Y0150753D01*
X0218800Y0150155D02*
X0283933Y0150155D01*
X0284531Y0149556D02*
X0218800Y0149556D01*
X0218800Y0148958D02*
X0284700Y0148958D01*
X0284700Y0148359D02*
X0218800Y0148359D01*
X0218800Y0147761D02*
X0284700Y0147761D01*
X0284700Y0147162D02*
X0218800Y0147162D01*
X0218800Y0146564D02*
X0284700Y0146564D01*
X0284700Y0145965D02*
X0218800Y0145965D01*
X0218800Y0145367D02*
X0284700Y0145367D01*
X0284700Y0144768D02*
X0218800Y0144768D01*
X0218800Y0144170D02*
X0284700Y0144170D01*
X0284700Y0143571D02*
X0218800Y0143571D01*
X0218800Y0142972D02*
X0284700Y0142972D01*
X0284700Y0142374D02*
X0218800Y0142374D01*
X0218800Y0141775D02*
X0284700Y0141775D01*
X0284700Y0141177D02*
X0218800Y0141177D01*
X0218800Y0140578D02*
X0284700Y0140578D01*
X0284700Y0139980D02*
X0218800Y0139980D01*
X0218800Y0139381D02*
X0284700Y0139381D01*
X0284700Y0138783D02*
X0218800Y0138783D01*
X0218800Y0138184D02*
X0284700Y0138184D01*
X0284700Y0137586D02*
X0218800Y0137586D01*
X0218800Y0136987D02*
X0284700Y0136987D01*
X0284700Y0136389D02*
X0218800Y0136389D01*
X0218800Y0135790D02*
X0284700Y0135790D01*
X0284700Y0135192D02*
X0218800Y0135192D01*
X0218800Y0134593D02*
X0284700Y0134593D01*
X0284700Y0133995D02*
X0218800Y0133995D01*
X0218800Y0133396D02*
X0279748Y0133396D01*
X0279150Y0132798D02*
X0218800Y0132798D01*
X0218800Y0132199D02*
X0278880Y0132199D01*
X0278720Y0131601D02*
X0218800Y0131601D01*
X0218800Y0131002D02*
X0278720Y0131002D01*
X0278879Y0130404D02*
X0218800Y0130404D01*
X0218800Y0129805D02*
X0279147Y0129805D01*
X0279745Y0129207D02*
X0218800Y0129207D01*
X0218800Y0128608D02*
X0288800Y0128608D01*
X0288800Y0128010D02*
X0218800Y0128010D01*
X0218800Y0127411D02*
X0288800Y0127411D01*
X0288300Y0126813D02*
X0218800Y0126813D01*
X0218800Y0126214D02*
X0287701Y0126214D01*
X0287200Y0125616D02*
X0218800Y0125616D01*
X0218800Y0125017D02*
X0287200Y0125017D01*
X0287200Y0124419D02*
X0218800Y0124419D01*
X0218800Y0123820D02*
X0287200Y0123820D01*
X0287200Y0123222D02*
X0218800Y0123222D01*
X0218800Y0122623D02*
X0287200Y0122623D01*
X0287200Y0122025D02*
X0218800Y0122025D01*
X0218800Y0121426D02*
X0287200Y0121426D01*
X0287200Y0120828D02*
X0218800Y0120828D01*
X0218800Y0120229D02*
X0287200Y0120229D01*
X0287200Y0119631D02*
X0218800Y0119631D01*
X0218800Y0119032D02*
X0287200Y0119032D01*
X0287200Y0118434D02*
X0218800Y0118434D01*
X0218800Y0117835D02*
X0287200Y0117835D01*
X0287200Y0117237D02*
X0218800Y0117237D01*
X0218800Y0116638D02*
X0287200Y0116638D01*
X0287200Y0116039D02*
X0218800Y0116039D01*
X0218800Y0115441D02*
X0287200Y0115441D01*
X0287200Y0114842D02*
X0218800Y0114842D01*
X0218800Y0114244D02*
X0287200Y0114244D01*
X0287200Y0113645D02*
X0218800Y0113645D01*
X0218800Y0113047D02*
X0287200Y0113047D01*
X0287200Y0112448D02*
X0218800Y0112448D01*
X0218800Y0111850D02*
X0287200Y0111850D01*
X0287200Y0111251D02*
X0218800Y0111251D01*
X0218800Y0110653D02*
X0287200Y0110653D01*
X0287200Y0110054D02*
X0218800Y0110054D01*
X0218800Y0109456D02*
X0287200Y0109456D01*
X0287200Y0108857D02*
X0218800Y0108857D01*
X0218800Y0108259D02*
X0287200Y0108259D01*
X0287200Y0107660D02*
X0218800Y0107660D01*
X0218800Y0107062D02*
X0287200Y0107062D01*
X0287200Y0106463D02*
X0218800Y0106463D01*
X0218800Y0105865D02*
X0287200Y0105865D01*
X0287200Y0105266D02*
X0218800Y0105266D01*
X0218800Y0104668D02*
X0287200Y0104668D01*
X0287200Y0104069D02*
X0218800Y0104069D01*
X0218800Y0103471D02*
X0287200Y0103471D01*
X0287200Y0102872D02*
X0218800Y0102872D01*
X0218800Y0102274D02*
X0287200Y0102274D01*
X0287200Y0101675D02*
X0218800Y0101675D01*
X0218800Y0101077D02*
X0287200Y0101077D01*
X0287200Y0100478D02*
X0218800Y0100478D01*
X0218800Y0099880D02*
X0287200Y0099880D01*
X0287200Y0099281D02*
X0218800Y0099281D01*
X0218800Y0098683D02*
X0287200Y0098683D01*
X0287200Y0098084D02*
X0218800Y0098084D01*
X0218800Y0097486D02*
X0287200Y0097486D01*
X0287200Y0096887D02*
X0218800Y0096887D01*
X0218800Y0096289D02*
X0287200Y0096289D01*
X0287200Y0095690D02*
X0218800Y0095690D01*
X0218800Y0095092D02*
X0287200Y0095092D01*
X0287200Y0094493D02*
X0218800Y0094493D01*
X0218800Y0093895D02*
X0287200Y0093895D01*
X0287200Y0093296D02*
X0218800Y0093296D01*
X0218800Y0092698D02*
X0287200Y0092698D01*
X0287200Y0092099D02*
X0218800Y0092099D01*
X0218800Y0091501D02*
X0287200Y0091501D01*
X0287200Y0090902D02*
X0218800Y0090902D01*
X0218800Y0090303D02*
X0287200Y0090303D01*
X0287200Y0089705D02*
X0218800Y0089705D01*
X0218800Y0089106D02*
X0287200Y0089106D01*
X0287200Y0088508D02*
X0218800Y0088508D01*
X0218800Y0087909D02*
X0287200Y0087909D01*
X0287200Y0087311D02*
X0218800Y0087311D01*
X0218800Y0086712D02*
X0287200Y0086712D01*
X0287200Y0086114D02*
X0218800Y0086114D01*
X0218800Y0085515D02*
X0287200Y0085515D01*
X0287200Y0084917D02*
X0218800Y0084917D01*
X0218800Y0084318D02*
X0287200Y0084318D01*
X0287200Y0083720D02*
X0218800Y0083720D01*
X0218800Y0083121D02*
X0287200Y0083121D01*
X0287200Y0082523D02*
X0218800Y0082523D01*
X0218800Y0081924D02*
X0287200Y0081924D01*
X0287200Y0081326D02*
X0218800Y0081326D01*
X0218800Y0080727D02*
X0287200Y0080727D01*
X0287200Y0080129D02*
X0218800Y0080129D01*
X0218800Y0079530D02*
X0287200Y0079530D01*
X0287200Y0078932D02*
X0218800Y0078932D01*
X0218800Y0078333D02*
X0287200Y0078333D01*
X0287200Y0077735D02*
X0218800Y0077735D01*
X0218800Y0077136D02*
X0287200Y0077136D01*
X0287200Y0076538D02*
X0218800Y0076538D01*
X0217497Y0075341D02*
X0217084Y0075341D01*
X0216501Y0074757D02*
X0216501Y0074757D01*
X0216464Y0074742D02*
X0218095Y0074742D01*
X0215227Y0063370D02*
X0288450Y0063370D01*
X0288450Y0062772D02*
X0216572Y0062772D01*
X0216501Y0062843D02*
X0216501Y0062843D01*
X0217170Y0062173D02*
X0288450Y0062173D01*
X0288450Y0061575D02*
X0217769Y0061575D01*
X0217843Y0061501D02*
X0217843Y0061501D01*
X0218060Y0060976D02*
X0288450Y0060976D01*
X0288450Y0060378D02*
X0218308Y0060378D01*
X0218556Y0059779D02*
X0288450Y0059779D01*
X0288450Y0059181D02*
X0218568Y0059181D01*
X0218568Y0058582D02*
X0288450Y0058582D01*
X0288450Y0057984D02*
X0218568Y0057984D01*
X0218568Y0057385D02*
X0288450Y0057385D01*
X0288450Y0056787D02*
X0218568Y0056787D01*
X0218568Y0056188D02*
X0288450Y0056188D01*
X0288450Y0055590D02*
X0218568Y0055590D01*
X0218568Y0054991D02*
X0288450Y0054991D01*
X0288450Y0054393D02*
X0218568Y0054393D01*
X0218568Y0053794D02*
X0288450Y0053794D01*
X0288450Y0053196D02*
X0218568Y0053196D01*
X0218568Y0052597D02*
X0288450Y0052597D01*
X0288450Y0051999D02*
X0218568Y0051999D01*
X0218568Y0043021D02*
X0279547Y0043021D01*
X0279547Y0042423D02*
X0218568Y0042423D01*
X0218568Y0041824D02*
X0279547Y0041824D01*
X0279547Y0041226D02*
X0218568Y0041226D01*
X0218568Y0040627D02*
X0279547Y0040627D01*
X0279624Y0040029D02*
X0218568Y0040029D01*
X0218568Y0039430D02*
X0279789Y0039430D01*
X0280054Y0038832D02*
X0218568Y0038832D01*
X0218568Y0038233D02*
X0280443Y0038233D01*
X0280998Y0037634D02*
X0218568Y0037634D01*
X0218568Y0037036D02*
X0281913Y0037036D01*
X0286602Y0037634D02*
X0288450Y0037634D01*
X0288450Y0038233D02*
X0287157Y0038233D01*
X0287546Y0038832D02*
X0288450Y0038832D01*
X0288450Y0039430D02*
X0287811Y0039430D01*
X0287976Y0040029D02*
X0288450Y0040029D01*
X0288450Y0040627D02*
X0288053Y0040627D01*
X0288053Y0041226D02*
X0288450Y0041226D01*
X0288450Y0041824D02*
X0288053Y0041824D01*
X0288053Y0042423D02*
X0288450Y0042423D01*
X0288450Y0043021D02*
X0288053Y0043021D01*
X0288450Y0043620D02*
X0284100Y0043620D01*
X0288053Y0044218D02*
X0288450Y0044218D01*
X0288450Y0044817D02*
X0288053Y0044817D01*
X0288053Y0045415D02*
X0288450Y0045415D01*
X0288450Y0046014D02*
X0288053Y0046014D01*
X0288053Y0046612D02*
X0288450Y0046612D01*
X0288450Y0047211D02*
X0288033Y0047211D01*
X0287928Y0047809D02*
X0288450Y0047809D01*
X0288450Y0048408D02*
X0287730Y0048408D01*
X0287419Y0049006D02*
X0288450Y0049006D01*
X0288450Y0049605D02*
X0286962Y0049605D01*
X0286286Y0050203D02*
X0288450Y0050203D01*
X0290400Y0050203D02*
X0291314Y0050203D01*
X0291571Y0050390D02*
X0291030Y0049997D01*
X0290556Y0049523D01*
X0290400Y0049308D01*
X0290400Y0076300D01*
X0313095Y0076300D01*
X0313287Y0076220D01*
X0314313Y0076220D01*
X0314505Y0076300D01*
X0318095Y0076300D01*
X0318287Y0076220D01*
X0319313Y0076220D01*
X0319505Y0076300D01*
X0343095Y0076300D01*
X0343287Y0076220D01*
X0344313Y0076220D01*
X0344505Y0076300D01*
X0357299Y0076300D01*
X0357299Y0013568D01*
X0290050Y0013568D01*
X0290050Y0038840D01*
X0290163Y0038618D01*
X0290556Y0038077D01*
X0291030Y0037603D01*
X0291571Y0037210D01*
X0292167Y0036906D01*
X0292804Y0036699D01*
X0293465Y0036594D01*
X0293500Y0036594D01*
X0293500Y0043500D01*
X0294100Y0043500D01*
X0294100Y0044100D01*
X0293500Y0044100D01*
X0293500Y0051005D01*
X0293465Y0051005D01*
X0292804Y0050901D01*
X0292167Y0050694D01*
X0291571Y0050390D01*
X0292499Y0050802D02*
X0290400Y0050802D01*
X0290400Y0051400D02*
X0357299Y0051400D01*
X0357299Y0050802D02*
X0295101Y0050802D01*
X0294796Y0050901D02*
X0294135Y0051005D01*
X0294100Y0051005D01*
X0294100Y0044100D01*
X0298053Y0044100D01*
X0298053Y0047087D01*
X0297948Y0047749D01*
X0297741Y0048385D01*
X0297437Y0048982D01*
X0297044Y0049523D01*
X0296570Y0049997D01*
X0296029Y0050390D01*
X0295432Y0050694D01*
X0294796Y0050901D01*
X0294100Y0050802D02*
X0293500Y0050802D01*
X0293500Y0050203D02*
X0294100Y0050203D01*
X0294100Y0049605D02*
X0293500Y0049605D01*
X0293500Y0049006D02*
X0294100Y0049006D01*
X0294100Y0048408D02*
X0293500Y0048408D01*
X0293500Y0047809D02*
X0294100Y0047809D01*
X0294100Y0047211D02*
X0293500Y0047211D01*
X0293500Y0046612D02*
X0294100Y0046612D01*
X0294100Y0046014D02*
X0293500Y0046014D01*
X0293500Y0045415D02*
X0294100Y0045415D01*
X0294100Y0044817D02*
X0293500Y0044817D01*
X0293500Y0044218D02*
X0294100Y0044218D01*
X0294100Y0043620D02*
X0357299Y0043620D01*
X0357299Y0044218D02*
X0298053Y0044218D01*
X0298053Y0044817D02*
X0357299Y0044817D01*
X0357299Y0045415D02*
X0298053Y0045415D01*
X0298053Y0046014D02*
X0357299Y0046014D01*
X0357299Y0046612D02*
X0298053Y0046612D01*
X0298033Y0047211D02*
X0357299Y0047211D01*
X0357299Y0047809D02*
X0297928Y0047809D01*
X0297730Y0048408D02*
X0357299Y0048408D01*
X0357299Y0049006D02*
X0297419Y0049006D01*
X0296962Y0049605D02*
X0357299Y0049605D01*
X0357299Y0050203D02*
X0296286Y0050203D01*
X0290638Y0049605D02*
X0290400Y0049605D01*
X0290400Y0051999D02*
X0357299Y0051999D01*
X0357299Y0052597D02*
X0290400Y0052597D01*
X0290400Y0053196D02*
X0357299Y0053196D01*
X0357299Y0053794D02*
X0290400Y0053794D01*
X0290400Y0054393D02*
X0357299Y0054393D01*
X0357299Y0054991D02*
X0290400Y0054991D01*
X0290400Y0055590D02*
X0357299Y0055590D01*
X0357299Y0056188D02*
X0290400Y0056188D01*
X0290400Y0056787D02*
X0357299Y0056787D01*
X0357299Y0057385D02*
X0290400Y0057385D01*
X0290400Y0057984D02*
X0357299Y0057984D01*
X0357299Y0058582D02*
X0290400Y0058582D01*
X0290400Y0059181D02*
X0357299Y0059181D01*
X0357299Y0059779D02*
X0290400Y0059779D01*
X0290400Y0060378D02*
X0357299Y0060378D01*
X0357299Y0060976D02*
X0290400Y0060976D01*
X0290400Y0061575D02*
X0357299Y0061575D01*
X0357299Y0062173D02*
X0290400Y0062173D01*
X0290400Y0062772D02*
X0357299Y0062772D01*
X0357299Y0063370D02*
X0290400Y0063370D01*
X0290400Y0063969D02*
X0357299Y0063969D01*
X0357299Y0064568D02*
X0290400Y0064568D01*
X0290400Y0065166D02*
X0357299Y0065166D01*
X0357299Y0065765D02*
X0290400Y0065765D01*
X0290400Y0066363D02*
X0357299Y0066363D01*
X0357299Y0066962D02*
X0290400Y0066962D01*
X0290400Y0067560D02*
X0357299Y0067560D01*
X0357299Y0068159D02*
X0290400Y0068159D01*
X0290400Y0068757D02*
X0357299Y0068757D01*
X0357299Y0069356D02*
X0290400Y0069356D01*
X0290400Y0069954D02*
X0357299Y0069954D01*
X0357299Y0070553D02*
X0290400Y0070553D01*
X0290400Y0071151D02*
X0357299Y0071151D01*
X0357299Y0071750D02*
X0290400Y0071750D01*
X0290400Y0072348D02*
X0357299Y0072348D01*
X0357299Y0072947D02*
X0290400Y0072947D01*
X0290400Y0073545D02*
X0357299Y0073545D01*
X0357299Y0074144D02*
X0290400Y0074144D01*
X0290400Y0074742D02*
X0357299Y0074742D01*
X0357299Y0075341D02*
X0290400Y0075341D01*
X0290400Y0075939D02*
X0357299Y0075939D01*
X0357299Y0077900D02*
X0290400Y0077900D01*
X0290400Y0124387D01*
X0291963Y0125950D01*
X0292900Y0126887D01*
X0292900Y0128881D01*
X0293287Y0128720D01*
X0294313Y0128720D01*
X0295261Y0129113D01*
X0295987Y0129839D01*
X0296380Y0130787D01*
X0296380Y0131813D01*
X0295987Y0132761D01*
X0295400Y0133348D01*
X0295400Y0186300D01*
X0357299Y0186300D01*
X0357299Y0077900D01*
X0357299Y0078333D02*
X0290400Y0078333D01*
X0290400Y0078932D02*
X0357299Y0078932D01*
X0357299Y0079530D02*
X0290400Y0079530D01*
X0290400Y0080129D02*
X0357299Y0080129D01*
X0357299Y0080727D02*
X0290400Y0080727D01*
X0290400Y0081326D02*
X0357299Y0081326D01*
X0357299Y0081924D02*
X0290400Y0081924D01*
X0290400Y0082523D02*
X0357299Y0082523D01*
X0357299Y0083121D02*
X0290400Y0083121D01*
X0290400Y0083720D02*
X0357299Y0083720D01*
X0357299Y0084318D02*
X0290400Y0084318D01*
X0290400Y0084917D02*
X0357299Y0084917D01*
X0357299Y0085515D02*
X0290400Y0085515D01*
X0290400Y0086114D02*
X0357299Y0086114D01*
X0357299Y0086712D02*
X0290400Y0086712D01*
X0290400Y0087311D02*
X0357299Y0087311D01*
X0357299Y0087909D02*
X0290400Y0087909D01*
X0290400Y0088508D02*
X0357299Y0088508D01*
X0357299Y0089106D02*
X0290400Y0089106D01*
X0290400Y0089705D02*
X0357299Y0089705D01*
X0357299Y0090303D02*
X0290400Y0090303D01*
X0290400Y0090902D02*
X0357299Y0090902D01*
X0357299Y0091501D02*
X0290400Y0091501D01*
X0290400Y0092099D02*
X0357299Y0092099D01*
X0357299Y0092698D02*
X0290400Y0092698D01*
X0290400Y0093296D02*
X0357299Y0093296D01*
X0357299Y0093895D02*
X0290400Y0093895D01*
X0290400Y0094493D02*
X0357299Y0094493D01*
X0357299Y0095092D02*
X0290400Y0095092D01*
X0290400Y0095690D02*
X0357299Y0095690D01*
X0357299Y0096289D02*
X0290400Y0096289D01*
X0290400Y0096887D02*
X0357299Y0096887D01*
X0357299Y0097486D02*
X0290400Y0097486D01*
X0290400Y0098084D02*
X0357299Y0098084D01*
X0357299Y0098683D02*
X0290400Y0098683D01*
X0290400Y0099281D02*
X0357299Y0099281D01*
X0357299Y0099880D02*
X0290400Y0099880D01*
X0290400Y0100478D02*
X0357299Y0100478D01*
X0357299Y0101077D02*
X0290400Y0101077D01*
X0290400Y0101675D02*
X0357299Y0101675D01*
X0357299Y0102274D02*
X0290400Y0102274D01*
X0290400Y0102872D02*
X0357299Y0102872D01*
X0357299Y0103471D02*
X0290400Y0103471D01*
X0290400Y0104069D02*
X0357299Y0104069D01*
X0357299Y0104668D02*
X0290400Y0104668D01*
X0290400Y0105266D02*
X0357299Y0105266D01*
X0357299Y0105865D02*
X0290400Y0105865D01*
X0290400Y0106463D02*
X0357299Y0106463D01*
X0357299Y0107062D02*
X0290400Y0107062D01*
X0290400Y0107660D02*
X0357299Y0107660D01*
X0357299Y0108259D02*
X0290400Y0108259D01*
X0290400Y0108857D02*
X0357299Y0108857D01*
X0357299Y0109456D02*
X0290400Y0109456D01*
X0290400Y0110054D02*
X0357299Y0110054D01*
X0357299Y0110653D02*
X0290400Y0110653D01*
X0290400Y0111251D02*
X0357299Y0111251D01*
X0357299Y0111850D02*
X0290400Y0111850D01*
X0290400Y0112448D02*
X0357299Y0112448D01*
X0357299Y0113047D02*
X0290400Y0113047D01*
X0290400Y0113645D02*
X0357299Y0113645D01*
X0357299Y0114244D02*
X0290400Y0114244D01*
X0290400Y0114842D02*
X0357299Y0114842D01*
X0357299Y0115441D02*
X0290400Y0115441D01*
X0290400Y0116039D02*
X0357299Y0116039D01*
X0357299Y0116638D02*
X0290400Y0116638D01*
X0290400Y0117237D02*
X0357299Y0117237D01*
X0357299Y0117835D02*
X0290400Y0117835D01*
X0290400Y0118434D02*
X0357299Y0118434D01*
X0357299Y0119032D02*
X0290400Y0119032D01*
X0290400Y0119631D02*
X0357299Y0119631D01*
X0357299Y0120229D02*
X0290400Y0120229D01*
X0290400Y0120828D02*
X0357299Y0120828D01*
X0357299Y0121426D02*
X0290400Y0121426D01*
X0290400Y0122025D02*
X0357299Y0122025D01*
X0357299Y0122623D02*
X0290400Y0122623D01*
X0290400Y0123222D02*
X0357299Y0123222D01*
X0357299Y0123820D02*
X0290400Y0123820D01*
X0290431Y0124419D02*
X0357299Y0124419D01*
X0357299Y0125017D02*
X0291030Y0125017D01*
X0291628Y0125616D02*
X0357299Y0125616D01*
X0357299Y0126214D02*
X0292227Y0126214D01*
X0292825Y0126813D02*
X0357299Y0126813D01*
X0357299Y0127411D02*
X0292900Y0127411D01*
X0292900Y0128010D02*
X0357299Y0128010D01*
X0357299Y0128608D02*
X0292900Y0128608D01*
X0295355Y0129207D02*
X0357299Y0129207D01*
X0357299Y0129805D02*
X0295953Y0129805D01*
X0296221Y0130404D02*
X0357299Y0130404D01*
X0357299Y0131002D02*
X0296380Y0131002D01*
X0296380Y0131601D02*
X0357299Y0131601D01*
X0357299Y0132199D02*
X0296220Y0132199D01*
X0295950Y0132798D02*
X0357299Y0132798D01*
X0357299Y0133396D02*
X0295400Y0133396D01*
X0295400Y0133995D02*
X0357299Y0133995D01*
X0357299Y0134593D02*
X0295400Y0134593D01*
X0295400Y0135192D02*
X0357299Y0135192D01*
X0357299Y0135790D02*
X0295400Y0135790D01*
X0295400Y0136389D02*
X0357299Y0136389D01*
X0357299Y0136987D02*
X0295400Y0136987D01*
X0295400Y0137586D02*
X0357299Y0137586D01*
X0357299Y0138184D02*
X0295400Y0138184D01*
X0295400Y0138783D02*
X0357299Y0138783D01*
X0357299Y0139381D02*
X0295400Y0139381D01*
X0295400Y0139980D02*
X0357299Y0139980D01*
X0357299Y0140578D02*
X0295400Y0140578D01*
X0295400Y0141177D02*
X0357299Y0141177D01*
X0357299Y0141775D02*
X0295400Y0141775D01*
X0295400Y0142374D02*
X0357299Y0142374D01*
X0357299Y0142972D02*
X0295400Y0142972D01*
X0295400Y0143571D02*
X0357299Y0143571D01*
X0357299Y0144170D02*
X0295400Y0144170D01*
X0295400Y0144768D02*
X0357299Y0144768D01*
X0357299Y0145367D02*
X0295400Y0145367D01*
X0295400Y0145965D02*
X0357299Y0145965D01*
X0357299Y0146564D02*
X0295400Y0146564D01*
X0295400Y0147162D02*
X0357299Y0147162D01*
X0357299Y0147761D02*
X0295400Y0147761D01*
X0295400Y0148359D02*
X0357299Y0148359D01*
X0357299Y0148958D02*
X0295400Y0148958D01*
X0295400Y0149556D02*
X0357299Y0149556D01*
X0357299Y0150155D02*
X0295400Y0150155D01*
X0295400Y0150753D02*
X0357299Y0150753D01*
X0357299Y0151352D02*
X0295400Y0151352D01*
X0295400Y0151950D02*
X0357299Y0151950D01*
X0357299Y0152549D02*
X0295400Y0152549D01*
X0295400Y0153147D02*
X0357299Y0153147D01*
X0357299Y0153746D02*
X0295400Y0153746D01*
X0295400Y0154344D02*
X0357299Y0154344D01*
X0357299Y0154943D02*
X0295400Y0154943D01*
X0295400Y0155541D02*
X0357299Y0155541D01*
X0357299Y0156140D02*
X0295400Y0156140D01*
X0295400Y0156738D02*
X0357299Y0156738D01*
X0357299Y0157337D02*
X0295400Y0157337D01*
X0295400Y0157935D02*
X0357299Y0157935D01*
X0357299Y0158534D02*
X0295400Y0158534D01*
X0295400Y0159132D02*
X0357299Y0159132D01*
X0357299Y0159731D02*
X0295400Y0159731D01*
X0295400Y0160329D02*
X0357299Y0160329D01*
X0357299Y0160928D02*
X0295400Y0160928D01*
X0295400Y0161526D02*
X0357299Y0161526D01*
X0357299Y0162125D02*
X0295400Y0162125D01*
X0295400Y0162723D02*
X0357299Y0162723D01*
X0357299Y0163322D02*
X0295400Y0163322D01*
X0295400Y0163920D02*
X0357299Y0163920D01*
X0357299Y0164519D02*
X0295400Y0164519D01*
X0295400Y0165117D02*
X0357299Y0165117D01*
X0357299Y0165716D02*
X0295400Y0165716D01*
X0295400Y0166314D02*
X0357299Y0166314D01*
X0357299Y0166913D02*
X0295400Y0166913D01*
X0295400Y0167511D02*
X0357299Y0167511D01*
X0357299Y0168110D02*
X0295400Y0168110D01*
X0295400Y0168708D02*
X0357299Y0168708D01*
X0357299Y0169307D02*
X0295400Y0169307D01*
X0295400Y0169905D02*
X0357299Y0169905D01*
X0357299Y0170504D02*
X0295400Y0170504D01*
X0295400Y0171103D02*
X0357299Y0171103D01*
X0357299Y0171701D02*
X0295400Y0171701D01*
X0295400Y0172300D02*
X0357299Y0172300D01*
X0357299Y0172898D02*
X0295400Y0172898D01*
X0295400Y0173497D02*
X0357299Y0173497D01*
X0357299Y0174095D02*
X0295400Y0174095D01*
X0295400Y0174694D02*
X0357299Y0174694D01*
X0357299Y0175292D02*
X0295400Y0175292D01*
X0295400Y0175891D02*
X0357299Y0175891D01*
X0357299Y0176489D02*
X0295400Y0176489D01*
X0295400Y0177088D02*
X0357299Y0177088D01*
X0357299Y0177686D02*
X0295400Y0177686D01*
X0295400Y0178285D02*
X0357299Y0178285D01*
X0357299Y0178883D02*
X0295400Y0178883D01*
X0295400Y0179482D02*
X0357299Y0179482D01*
X0357299Y0180080D02*
X0295400Y0180080D01*
X0295400Y0180679D02*
X0357299Y0180679D01*
X0357299Y0181277D02*
X0295400Y0181277D01*
X0295400Y0181876D02*
X0357299Y0181876D01*
X0357299Y0182474D02*
X0295400Y0182474D01*
X0295400Y0183073D02*
X0357299Y0183073D01*
X0357299Y0183671D02*
X0295400Y0183671D01*
X0295400Y0184270D02*
X0357299Y0184270D01*
X0357299Y0184868D02*
X0295400Y0184868D01*
X0295400Y0185467D02*
X0357299Y0185467D01*
X0357299Y0186065D02*
X0295400Y0186065D01*
X0295400Y0188459D02*
X0303128Y0188459D01*
X0302529Y0189058D02*
X0295400Y0189058D01*
X0295400Y0189656D02*
X0301931Y0189656D01*
X0301332Y0190255D02*
X0295400Y0190255D01*
X0295400Y0190853D02*
X0300734Y0190853D01*
X0298978Y0191452D02*
X0295400Y0191452D01*
X0295312Y0192050D02*
X0298152Y0192050D01*
X0297735Y0192649D02*
X0294947Y0192649D01*
X0294947Y0193247D02*
X0297487Y0193247D01*
X0297470Y0193846D02*
X0294947Y0193846D01*
X0295140Y0194444D02*
X0297525Y0194444D01*
X0297773Y0195043D02*
X0295619Y0195043D01*
X0295867Y0195641D02*
X0298243Y0195641D01*
X0299200Y0196240D02*
X0295927Y0196240D01*
X0295916Y0196839D02*
X0357299Y0196839D01*
X0357299Y0197437D02*
X0295668Y0197437D01*
X0295260Y0198036D02*
X0357299Y0198036D01*
X0357299Y0198634D02*
X0294453Y0198634D01*
X0293347Y0196300D02*
X0293347Y0191753D01*
X0293800Y0191300D01*
X0293800Y0131300D01*
X0288800Y0131002D02*
X0287900Y0131002D01*
X0287900Y0131601D02*
X0288800Y0131601D01*
X0288800Y0132199D02*
X0287900Y0132199D01*
X0287900Y0132798D02*
X0288800Y0132798D01*
X0288800Y0133396D02*
X0287900Y0133396D01*
X0287900Y0133995D02*
X0288800Y0133995D01*
X0288800Y0134593D02*
X0287900Y0134593D01*
X0287900Y0135192D02*
X0288800Y0135192D01*
X0288800Y0135790D02*
X0287900Y0135790D01*
X0287900Y0136389D02*
X0288800Y0136389D01*
X0288800Y0136987D02*
X0287900Y0136987D01*
X0287900Y0137586D02*
X0288800Y0137586D01*
X0288800Y0138184D02*
X0287900Y0138184D01*
X0287900Y0138783D02*
X0288800Y0138783D01*
X0288800Y0139381D02*
X0287900Y0139381D01*
X0287900Y0139980D02*
X0288800Y0139980D01*
X0288800Y0140578D02*
X0287900Y0140578D01*
X0287900Y0141177D02*
X0288800Y0141177D01*
X0288800Y0141775D02*
X0287900Y0141775D01*
X0287900Y0142374D02*
X0288800Y0142374D01*
X0288800Y0142972D02*
X0287900Y0142972D01*
X0287900Y0143571D02*
X0288800Y0143571D01*
X0288800Y0144170D02*
X0287900Y0144170D01*
X0287900Y0144768D02*
X0288800Y0144768D01*
X0288800Y0145367D02*
X0287900Y0145367D01*
X0287900Y0145965D02*
X0288800Y0145965D01*
X0288800Y0146564D02*
X0287900Y0146564D01*
X0287900Y0147162D02*
X0288800Y0147162D01*
X0288800Y0147761D02*
X0287900Y0147761D01*
X0287900Y0148359D02*
X0288800Y0148359D01*
X0288800Y0151300D02*
X0286300Y0153800D01*
X0283800Y0152550D02*
X0283800Y0182791D01*
X0275796Y0190796D01*
X0281769Y0200430D02*
X0357299Y0200430D01*
X0357299Y0201028D02*
X0282367Y0201028D01*
X0300050Y0193800D02*
X0312550Y0181300D01*
X0312550Y0148800D01*
X0312550Y0138925D01*
X0308800Y0135175D01*
X0308800Y0128800D01*
X0288800Y0129207D02*
X0282855Y0129207D01*
X0281300Y0131300D02*
X0286300Y0131300D01*
X0286300Y0150050D01*
X0283800Y0152550D01*
X0284700Y0133396D02*
X0282852Y0133396D01*
X0287068Y0129805D02*
X0288800Y0129805D01*
X0288800Y0130404D02*
X0287666Y0130404D01*
X0307653Y0188459D02*
X0357299Y0188459D01*
X0357299Y0189058D02*
X0307055Y0189058D01*
X0306456Y0189656D02*
X0357299Y0189656D01*
X0357299Y0190255D02*
X0305858Y0190255D01*
X0305259Y0190853D02*
X0357299Y0190853D01*
X0357299Y0191452D02*
X0304661Y0191452D01*
X0304062Y0192050D02*
X0357299Y0192050D01*
X0357299Y0192649D02*
X0303464Y0192649D01*
X0302865Y0193247D02*
X0357299Y0193247D01*
X0357299Y0193846D02*
X0302630Y0193846D01*
X0302575Y0194444D02*
X0357299Y0194444D01*
X0357299Y0195043D02*
X0302327Y0195043D01*
X0301857Y0195641D02*
X0357299Y0195641D01*
X0357299Y0196240D02*
X0300900Y0196240D01*
X0183800Y0129805D02*
X0167305Y0129805D01*
X0166707Y0129207D02*
X0183800Y0129207D01*
X0183800Y0128608D02*
X0166108Y0128608D01*
X0165510Y0128010D02*
X0183800Y0128010D01*
X0183800Y0127411D02*
X0164911Y0127411D01*
X0164313Y0126813D02*
X0183800Y0126813D01*
X0183800Y0126214D02*
X0163714Y0126214D01*
X0163116Y0125616D02*
X0183800Y0125616D01*
X0165050Y0131300D02*
X0165050Y0132550D01*
X0156300Y0141300D01*
X0156300Y0157550D01*
X0156300Y0158800D01*
X0163845Y0128608D02*
X0138755Y0128608D01*
X0139353Y0128010D02*
X0163247Y0128010D01*
X0162648Y0127411D02*
X0139952Y0127411D01*
X0140550Y0126813D02*
X0162050Y0126813D01*
X0184799Y0107062D02*
X0121825Y0107062D01*
X0121226Y0106463D02*
X0184201Y0106463D01*
X0185398Y0107660D02*
X0124234Y0107660D01*
X0124833Y0108259D02*
X0185996Y0108259D01*
X0190082Y0104069D02*
X0196300Y0104069D01*
X0196300Y0103471D02*
X0189483Y0103471D01*
X0188885Y0102872D02*
X0196300Y0102872D01*
X0196300Y0102274D02*
X0188286Y0102274D01*
X0187688Y0101675D02*
X0196300Y0101675D01*
X0196300Y0101077D02*
X0187630Y0101077D01*
X0187502Y0100478D02*
X0196300Y0100478D01*
X0196300Y0099880D02*
X0187254Y0099880D01*
X0186679Y0099281D02*
X0196300Y0099281D01*
X0196300Y0104668D02*
X0190680Y0104668D01*
X0191279Y0105266D02*
X0196300Y0105266D01*
X0196300Y0105865D02*
X0191878Y0105865D01*
X0192476Y0106463D02*
X0196300Y0106463D01*
X0196300Y0107062D02*
X0193075Y0107062D01*
X0193673Y0107660D02*
X0196300Y0107660D01*
X0196300Y0108259D02*
X0194272Y0108259D01*
X0178720Y0101675D02*
X0178188Y0101675D01*
X0176056Y0099281D02*
X0173774Y0099281D01*
X0173880Y0099880D02*
X0175458Y0099880D01*
X0174859Y0100478D02*
X0173880Y0100478D01*
X0173667Y0101077D02*
X0174261Y0101077D01*
X0173526Y0098683D02*
X0176655Y0098683D01*
X0177253Y0098084D02*
X0172982Y0098084D01*
X0171850Y0097486D02*
X0177852Y0097486D01*
X0178450Y0096887D02*
X0170400Y0096887D01*
X0169801Y0096289D02*
X0179049Y0096289D01*
X0179647Y0095690D02*
X0169203Y0095690D01*
X0168604Y0095092D02*
X0180246Y0095092D01*
X0180844Y0094493D02*
X0168006Y0094493D01*
X0167407Y0093895D02*
X0181443Y0093895D01*
X0182041Y0093296D02*
X0166809Y0093296D01*
X0166210Y0092698D02*
X0182640Y0092698D01*
X0183238Y0092099D02*
X0165612Y0092099D01*
X0165013Y0091501D02*
X0183837Y0091501D01*
X0184435Y0090902D02*
X0164415Y0090902D01*
X0163816Y0090303D02*
X0185034Y0090303D01*
X0185632Y0089705D02*
X0163218Y0089705D01*
X0162550Y0091300D02*
X0171300Y0100050D01*
X0168933Y0101077D02*
X0166167Y0101077D01*
X0166380Y0100478D02*
X0168720Y0100478D01*
X0168720Y0099880D02*
X0166380Y0099880D01*
X0166274Y0099281D02*
X0168268Y0099281D01*
X0167670Y0098683D02*
X0166026Y0098683D01*
X0165482Y0098084D02*
X0167071Y0098084D01*
X0166473Y0097486D02*
X0164350Y0097486D01*
X0163250Y0097486D02*
X0144877Y0097486D01*
X0144279Y0098084D02*
X0162118Y0098084D01*
X0160405Y0098683D02*
X0143680Y0098683D01*
X0143082Y0099281D02*
X0159806Y0099281D01*
X0159208Y0099880D02*
X0142483Y0099880D01*
X0141885Y0100478D02*
X0158609Y0100478D01*
X0158011Y0101077D02*
X0141286Y0101077D01*
X0140688Y0101675D02*
X0157412Y0101675D01*
X0157550Y0103800D02*
X0161300Y0100050D01*
X0163800Y0100050D01*
X0165823Y0101675D02*
X0169277Y0101675D01*
X0169928Y0102274D02*
X0165172Y0102274D01*
X0162428Y0102274D02*
X0161339Y0102274D01*
X0160740Y0102872D02*
X0171392Y0102872D01*
X0171220Y0103471D02*
X0160142Y0103471D01*
X0159543Y0104069D02*
X0171220Y0104069D01*
X0171367Y0104668D02*
X0158945Y0104668D01*
X0158346Y0105266D02*
X0171618Y0105266D01*
X0172217Y0105865D02*
X0120628Y0105865D01*
X0118800Y0106300D02*
X0122337Y0109837D01*
X0122763Y0109837D01*
X0120309Y0110653D02*
X0116324Y0110653D01*
X0116380Y0111251D02*
X0120557Y0111251D01*
X0121128Y0111850D02*
X0116364Y0111850D01*
X0116116Y0112448D02*
X0125050Y0112448D01*
X0125050Y0111850D02*
X0124398Y0111850D01*
X0124969Y0111251D02*
X0125050Y0111251D01*
X0125050Y0113047D02*
X0115701Y0113047D01*
X0114878Y0113645D02*
X0125050Y0113645D01*
X0125050Y0114244D02*
X0101380Y0114244D01*
X0101380Y0113645D02*
X0112722Y0113645D01*
X0116076Y0110054D02*
X0120183Y0110054D01*
X0119693Y0109456D02*
X0115604Y0109456D01*
X0114644Y0108857D02*
X0119095Y0108857D01*
X0118496Y0108259D02*
X0075092Y0108259D01*
X0075340Y0107660D02*
X0080398Y0107660D01*
X0079799Y0107062D02*
X0075553Y0107062D01*
X0075553Y0106463D02*
X0079201Y0106463D01*
X0078602Y0105865D02*
X0075553Y0105865D01*
X0075475Y0105266D02*
X0078004Y0105266D01*
X0077405Y0104668D02*
X0075227Y0104668D01*
X0074979Y0104069D02*
X0076807Y0104069D01*
X0076208Y0103471D02*
X0074485Y0103471D01*
X0076300Y0101300D02*
X0081300Y0106300D01*
X0118800Y0106300D01*
X0112956Y0108857D02*
X0074757Y0108857D01*
X0071300Y0106300D02*
X0056300Y0106300D01*
X0057989Y0108259D02*
X0067508Y0108259D01*
X0067843Y0108857D02*
X0056867Y0108857D01*
X0058316Y0104668D02*
X0067373Y0104668D01*
X0067621Y0104069D02*
X0057655Y0104069D01*
X0054945Y0104069D02*
X0015793Y0104069D01*
X0016392Y0103471D02*
X0024823Y0103471D01*
X0024224Y0102872D02*
X0016990Y0102872D01*
X0017589Y0102274D02*
X0023911Y0102274D01*
X0023720Y0101675D02*
X0018188Y0101675D01*
X0018786Y0101077D02*
X0023720Y0101077D01*
X0023848Y0100478D02*
X0019385Y0100478D01*
X0019983Y0099880D02*
X0024096Y0099880D01*
X0024671Y0099281D02*
X0020582Y0099281D01*
X0021180Y0098683D02*
X0067684Y0098683D01*
X0067436Y0098084D02*
X0021779Y0098084D01*
X0022377Y0097486D02*
X0067188Y0097486D01*
X0067047Y0096887D02*
X0022976Y0096887D01*
X0023574Y0096289D02*
X0067047Y0096289D01*
X0067047Y0095690D02*
X0024173Y0095690D01*
X0024771Y0095092D02*
X0067197Y0095092D01*
X0067445Y0094493D02*
X0025370Y0094493D01*
X0025968Y0093895D02*
X0067693Y0093895D01*
X0068290Y0093296D02*
X0047952Y0093296D01*
X0046300Y0091300D02*
X0072550Y0091300D01*
X0082550Y0101300D01*
X0111300Y0101300D01*
X0111300Y0097550D01*
X0113088Y0095690D02*
X0142147Y0095690D01*
X0141549Y0096289D02*
X0113570Y0096289D01*
X0113817Y0096887D02*
X0140950Y0096887D01*
X0140352Y0097486D02*
X0113880Y0097486D01*
X0113871Y0098084D02*
X0139753Y0098084D01*
X0139155Y0098683D02*
X0113623Y0098683D01*
X0113217Y0099281D02*
X0138556Y0099281D01*
X0138800Y0101300D02*
X0111300Y0101300D01*
X0109383Y0099281D02*
X0082794Y0099281D01*
X0082195Y0098683D02*
X0108977Y0098683D01*
X0108729Y0098084D02*
X0081597Y0098084D01*
X0080998Y0097486D02*
X0108720Y0097486D01*
X0108783Y0096887D02*
X0080400Y0096887D01*
X0079801Y0096289D02*
X0109030Y0096289D01*
X0109512Y0095690D02*
X0079203Y0095690D01*
X0078604Y0095092D02*
X0110494Y0095092D01*
X0112105Y0095092D02*
X0142746Y0095092D01*
X0143344Y0094493D02*
X0078006Y0094493D01*
X0077407Y0093895D02*
X0143943Y0093895D01*
X0144541Y0093296D02*
X0076809Y0093296D01*
X0076210Y0092698D02*
X0145140Y0092698D01*
X0145738Y0092099D02*
X0075612Y0092099D01*
X0075013Y0091501D02*
X0146337Y0091501D01*
X0146935Y0090902D02*
X0074415Y0090902D01*
X0073816Y0090303D02*
X0147200Y0090303D01*
X0147200Y0089705D02*
X0073909Y0089705D01*
X0074508Y0089106D02*
X0147200Y0089106D01*
X0147200Y0088508D02*
X0074989Y0088508D01*
X0075236Y0087909D02*
X0146761Y0087909D01*
X0146427Y0087311D02*
X0075484Y0087311D01*
X0075553Y0086712D02*
X0146220Y0086712D01*
X0146220Y0086114D02*
X0075553Y0086114D01*
X0075553Y0085515D02*
X0146333Y0085515D01*
X0146581Y0084917D02*
X0075330Y0084917D01*
X0075082Y0084318D02*
X0147134Y0084318D01*
X0148800Y0086300D02*
X0148800Y0091300D01*
X0162550Y0091300D01*
X0162283Y0093296D02*
X0149067Y0093296D01*
X0148468Y0093895D02*
X0162882Y0093895D01*
X0163480Y0094493D02*
X0147870Y0094493D01*
X0147271Y0095092D02*
X0164079Y0095092D01*
X0164677Y0095690D02*
X0146673Y0095690D01*
X0146074Y0096289D02*
X0165276Y0096289D01*
X0165874Y0096887D02*
X0145476Y0096887D01*
X0148800Y0091300D02*
X0138800Y0101300D01*
X0150400Y0089106D02*
X0186231Y0089106D01*
X0186829Y0088508D02*
X0150400Y0088508D01*
X0150839Y0087909D02*
X0187428Y0087909D01*
X0187470Y0087311D02*
X0151173Y0087311D01*
X0151380Y0086712D02*
X0187605Y0086712D01*
X0187853Y0086114D02*
X0151380Y0086114D01*
X0151267Y0085515D02*
X0188437Y0085515D01*
X0191663Y0085515D02*
X0196300Y0085515D01*
X0196300Y0084917D02*
X0151019Y0084917D01*
X0150466Y0084318D02*
X0196300Y0084318D01*
X0196300Y0083720D02*
X0074734Y0083720D01*
X0074136Y0083121D02*
X0196300Y0083121D01*
X0196300Y0086114D02*
X0192247Y0086114D01*
X0192495Y0086712D02*
X0196300Y0086712D01*
X0196300Y0087311D02*
X0192630Y0087311D01*
X0192630Y0087909D02*
X0196300Y0087909D01*
X0186300Y0073800D02*
X0171300Y0073800D01*
X0168800Y0063800D02*
X0177633Y0054967D01*
X0178800Y0054967D01*
X0177781Y0052597D02*
X0171719Y0052597D01*
X0171719Y0053196D02*
X0176924Y0053196D01*
X0176494Y0053794D02*
X0171719Y0053794D01*
X0171719Y0054393D02*
X0175944Y0054393D01*
X0175346Y0054991D02*
X0171719Y0054991D01*
X0171708Y0055590D02*
X0174747Y0055590D01*
X0174149Y0056188D02*
X0171460Y0056188D01*
X0171120Y0056787D02*
X0173550Y0056787D01*
X0172952Y0057385D02*
X0170521Y0057385D01*
X0171755Y0058582D02*
X0126380Y0058582D01*
X0126444Y0059181D02*
X0171156Y0059181D01*
X0170558Y0059779D02*
X0127042Y0059779D01*
X0127641Y0060378D02*
X0169959Y0060378D01*
X0169361Y0060976D02*
X0128239Y0060976D01*
X0128838Y0061575D02*
X0168762Y0061575D01*
X0168164Y0062173D02*
X0129436Y0062173D01*
X0128800Y0063800D02*
X0168800Y0063800D01*
X0167117Y0057385D02*
X0147403Y0057385D01*
X0148211Y0056787D02*
X0166518Y0056787D01*
X0166178Y0056188D02*
X0148621Y0056188D01*
X0148868Y0055590D02*
X0165930Y0055590D01*
X0165919Y0054991D02*
X0148880Y0054991D01*
X0148820Y0054393D02*
X0165919Y0054393D01*
X0165919Y0053794D02*
X0148572Y0053794D01*
X0148200Y0053196D02*
X0165919Y0053196D01*
X0165919Y0052597D02*
X0148200Y0052597D01*
X0148200Y0051999D02*
X0165919Y0051999D01*
X0165919Y0051400D02*
X0148200Y0051400D01*
X0148200Y0050802D02*
X0165919Y0050802D01*
X0165919Y0050203D02*
X0148200Y0050203D01*
X0148200Y0049605D02*
X0165504Y0049605D01*
X0164905Y0049006D02*
X0148200Y0049006D01*
X0148200Y0048408D02*
X0164306Y0048408D01*
X0163708Y0047809D02*
X0148200Y0047809D01*
X0148200Y0047211D02*
X0163109Y0047211D01*
X0162511Y0046612D02*
X0148200Y0046612D01*
X0148200Y0046014D02*
X0161912Y0046014D01*
X0161314Y0045415D02*
X0148200Y0045415D01*
X0148200Y0044817D02*
X0160715Y0044817D01*
X0160117Y0044218D02*
X0148200Y0044218D01*
X0148200Y0043620D02*
X0159518Y0043620D01*
X0158920Y0043021D02*
X0148200Y0043021D01*
X0148200Y0042423D02*
X0158321Y0042423D01*
X0157723Y0041824D02*
X0148200Y0041824D01*
X0148200Y0041226D02*
X0157124Y0041226D01*
X0156526Y0040627D02*
X0148200Y0040627D01*
X0148200Y0040029D02*
X0155927Y0040029D01*
X0144400Y0040029D02*
X0003568Y0040029D01*
X0003568Y0040627D02*
X0144400Y0040627D01*
X0144400Y0041226D02*
X0003568Y0041226D01*
X0003568Y0041824D02*
X0144400Y0041824D01*
X0144400Y0042423D02*
X0073052Y0042423D01*
X0074035Y0043021D02*
X0144400Y0043021D01*
X0144400Y0043620D02*
X0074634Y0043620D01*
X0075041Y0044218D02*
X0117234Y0044218D01*
X0116635Y0044817D02*
X0075289Y0044817D01*
X0075537Y0045415D02*
X0116374Y0045415D01*
X0116220Y0046014D02*
X0075553Y0046014D01*
X0075553Y0046612D02*
X0116220Y0046612D01*
X0116385Y0047211D02*
X0075526Y0047211D01*
X0075278Y0047809D02*
X0116661Y0047809D01*
X0117200Y0048408D02*
X0075030Y0048408D01*
X0074608Y0049006D02*
X0117200Y0049006D01*
X0117200Y0049605D02*
X0074010Y0049605D01*
X0068590Y0049605D02*
X0014010Y0049605D01*
X0013709Y0049905D02*
X0012146Y0050553D01*
X0010454Y0050553D01*
X0008891Y0049905D01*
X0007695Y0048709D01*
X0007047Y0047146D01*
X0007047Y0045454D01*
X0007695Y0043891D01*
X0008891Y0042695D01*
X0010454Y0042047D01*
X0012146Y0042047D01*
X0013709Y0042695D01*
X0014905Y0043891D01*
X0015553Y0045454D01*
X0015553Y0047146D01*
X0014905Y0048709D01*
X0013709Y0049905D01*
X0012990Y0050203D02*
X0050134Y0050203D01*
X0049536Y0050802D02*
X0003568Y0050802D01*
X0003568Y0051400D02*
X0048937Y0051400D01*
X0048338Y0051999D02*
X0003568Y0051999D01*
X0003568Y0052597D02*
X0009126Y0052597D01*
X0008891Y0052695D02*
X0010454Y0052047D01*
X0012146Y0052047D01*
X0013709Y0052695D01*
X0014905Y0053891D01*
X0015553Y0055454D01*
X0015553Y0057146D01*
X0014905Y0058709D01*
X0013709Y0059905D01*
X0012146Y0060553D01*
X0010454Y0060553D01*
X0008891Y0059905D01*
X0007695Y0058709D01*
X0007047Y0057146D01*
X0007047Y0055454D01*
X0007695Y0053891D01*
X0008891Y0052695D01*
X0008390Y0053196D02*
X0003568Y0053196D01*
X0003568Y0053794D02*
X0007791Y0053794D01*
X0007487Y0054393D02*
X0003568Y0054393D01*
X0003568Y0054991D02*
X0007239Y0054991D01*
X0007047Y0055590D02*
X0003568Y0055590D01*
X0003568Y0056188D02*
X0007047Y0056188D01*
X0007047Y0056787D02*
X0003568Y0056787D01*
X0003568Y0057385D02*
X0007146Y0057385D01*
X0007394Y0057984D02*
X0003568Y0057984D01*
X0003568Y0058582D02*
X0007642Y0058582D01*
X0008167Y0059181D02*
X0003568Y0059181D01*
X0003568Y0059779D02*
X0008765Y0059779D01*
X0010032Y0060378D02*
X0003568Y0060378D01*
X0003568Y0060976D02*
X0122328Y0060976D01*
X0121730Y0060378D02*
X0072568Y0060378D01*
X0073835Y0059779D02*
X0121414Y0059779D01*
X0121220Y0059181D02*
X0074433Y0059181D01*
X0074958Y0058582D02*
X0121220Y0058582D01*
X0120721Y0057984D02*
X0075206Y0057984D01*
X0075454Y0057385D02*
X0120123Y0057385D01*
X0119524Y0056787D02*
X0075553Y0056787D01*
X0075553Y0056188D02*
X0118926Y0056188D01*
X0118327Y0055590D02*
X0075553Y0055590D01*
X0075361Y0054991D02*
X0117729Y0054991D01*
X0118137Y0055400D02*
X0118137Y0055400D01*
X0117130Y0054393D02*
X0075113Y0054393D01*
X0074809Y0053794D02*
X0116532Y0053794D01*
X0115933Y0053196D02*
X0074210Y0053196D01*
X0068390Y0053196D02*
X0051667Y0053196D01*
X0051068Y0053794D02*
X0067791Y0053794D01*
X0067487Y0054393D02*
X0050470Y0054393D01*
X0049871Y0054991D02*
X0067239Y0054991D01*
X0067047Y0055590D02*
X0049273Y0055590D01*
X0048880Y0056188D02*
X0067047Y0056188D01*
X0067047Y0056787D02*
X0048880Y0056787D01*
X0048642Y0057385D02*
X0067146Y0057385D01*
X0067394Y0057984D02*
X0048264Y0057984D01*
X0047530Y0058582D02*
X0067642Y0058582D01*
X0068167Y0059181D02*
X0014433Y0059181D01*
X0014958Y0058582D02*
X0045070Y0058582D01*
X0044336Y0057984D02*
X0015206Y0057984D01*
X0015454Y0057385D02*
X0043958Y0057385D01*
X0043720Y0056787D02*
X0015553Y0056787D01*
X0015553Y0056188D02*
X0043720Y0056188D01*
X0043802Y0055590D02*
X0015553Y0055590D01*
X0015361Y0054991D02*
X0044050Y0054991D01*
X0044559Y0054393D02*
X0015113Y0054393D01*
X0014809Y0053794D02*
X0045609Y0053794D01*
X0047141Y0053196D02*
X0014210Y0053196D01*
X0013474Y0052597D02*
X0047740Y0052597D01*
X0051300Y0051300D02*
X0046300Y0056300D01*
X0051300Y0051300D02*
X0116300Y0051300D01*
X0118800Y0053800D01*
X0118800Y0046300D01*
X0121215Y0047211D02*
X0144400Y0047211D01*
X0144400Y0047809D02*
X0120939Y0047809D01*
X0120400Y0048408D02*
X0144400Y0048408D01*
X0144400Y0049006D02*
X0120400Y0049006D01*
X0120400Y0049605D02*
X0144400Y0049605D01*
X0144400Y0050203D02*
X0120400Y0050203D01*
X0120400Y0050802D02*
X0144400Y0050802D01*
X0144400Y0051400D02*
X0120400Y0051400D01*
X0120400Y0051999D02*
X0144400Y0051999D01*
X0144400Y0052597D02*
X0120400Y0052597D01*
X0120459Y0053196D02*
X0144400Y0053196D01*
X0144028Y0053794D02*
X0121057Y0053794D01*
X0121656Y0054393D02*
X0143780Y0054393D01*
X0143720Y0054991D02*
X0122254Y0054991D01*
X0122853Y0055590D02*
X0143732Y0055590D01*
X0143979Y0056188D02*
X0123451Y0056188D01*
X0125435Y0056787D02*
X0144389Y0056787D01*
X0145197Y0057385D02*
X0126006Y0057385D01*
X0126254Y0057984D02*
X0172353Y0057984D01*
X0171300Y0041300D02*
X0186300Y0041300D01*
X0186300Y0073800D01*
X0157550Y0103800D02*
X0082550Y0103800D01*
X0075050Y0096300D01*
X0071300Y0096300D01*
X0068267Y0099281D02*
X0027929Y0099281D01*
X0026300Y0101300D02*
X0076300Y0101300D01*
X0082436Y0097550D02*
X0082436Y0092436D01*
X0081300Y0091300D01*
X0097550Y0075050D01*
X0101300Y0075050D01*
X0104060Y0072290D01*
X0104060Y0067569D01*
X0118800Y0053800D02*
X0123800Y0058800D01*
X0128800Y0063800D01*
X0127903Y0065166D02*
X0075433Y0065166D01*
X0075186Y0064568D02*
X0127305Y0064568D01*
X0126706Y0063969D02*
X0074938Y0063969D01*
X0074385Y0063370D02*
X0126108Y0063370D01*
X0125509Y0062772D02*
X0073786Y0062772D01*
X0072451Y0062173D02*
X0124911Y0062173D01*
X0124312Y0061575D02*
X0003568Y0061575D01*
X0003568Y0062173D02*
X0010149Y0062173D01*
X0010454Y0062047D02*
X0012146Y0062047D01*
X0013709Y0062695D01*
X0014905Y0063891D01*
X0015553Y0065454D01*
X0015553Y0067146D01*
X0014905Y0068709D01*
X0013709Y0069905D01*
X0012146Y0070553D01*
X0010454Y0070553D01*
X0008891Y0069905D01*
X0007695Y0068709D01*
X0007047Y0067146D01*
X0007047Y0065454D01*
X0007695Y0063891D01*
X0008891Y0062695D01*
X0010454Y0062047D01*
X0008814Y0062772D02*
X0003568Y0062772D01*
X0003568Y0063370D02*
X0008215Y0063370D01*
X0007662Y0063969D02*
X0003568Y0063969D01*
X0003568Y0064568D02*
X0007414Y0064568D01*
X0007167Y0065166D02*
X0003568Y0065166D01*
X0003568Y0065765D02*
X0007047Y0065765D01*
X0007047Y0066363D02*
X0003568Y0066363D01*
X0003568Y0066962D02*
X0007047Y0066962D01*
X0007219Y0067560D02*
X0003568Y0067560D01*
X0003568Y0068159D02*
X0007467Y0068159D01*
X0007743Y0068757D02*
X0003568Y0068757D01*
X0003568Y0069356D02*
X0008341Y0069356D01*
X0009009Y0069954D02*
X0003568Y0069954D01*
X0003568Y0070553D02*
X0010454Y0070553D01*
X0010454Y0072047D02*
X0012146Y0072047D01*
X0013709Y0072695D01*
X0014905Y0073891D01*
X0015553Y0075454D01*
X0015553Y0077146D01*
X0014905Y0078709D01*
X0013709Y0079905D01*
X0012146Y0080553D01*
X0010454Y0080553D01*
X0008891Y0079905D01*
X0007695Y0078709D01*
X0007047Y0077146D01*
X0007047Y0075454D01*
X0007695Y0073891D01*
X0008891Y0072695D01*
X0010454Y0072047D01*
X0009728Y0072348D02*
X0003568Y0072348D01*
X0003568Y0071750D02*
X0033588Y0071750D01*
X0034186Y0071151D02*
X0003568Y0071151D01*
X0003568Y0072947D02*
X0008639Y0072947D01*
X0008041Y0073545D02*
X0003568Y0073545D01*
X0003568Y0074144D02*
X0007590Y0074144D01*
X0007342Y0074742D02*
X0003568Y0074742D01*
X0003568Y0075341D02*
X0007094Y0075341D01*
X0007047Y0075939D02*
X0003568Y0075939D01*
X0003568Y0076538D02*
X0007047Y0076538D01*
X0007047Y0077136D02*
X0003568Y0077136D01*
X0003568Y0077735D02*
X0007291Y0077735D01*
X0007539Y0078333D02*
X0003568Y0078333D01*
X0003568Y0078932D02*
X0007917Y0078932D01*
X0008516Y0079530D02*
X0003568Y0079530D01*
X0003568Y0080129D02*
X0009431Y0080129D01*
X0010454Y0082047D02*
X0012146Y0082047D01*
X0013709Y0082695D01*
X0014905Y0083891D01*
X0015553Y0085454D01*
X0015553Y0087146D01*
X0014905Y0088709D01*
X0013709Y0089905D01*
X0012146Y0090553D01*
X0010454Y0090553D01*
X0008891Y0089905D01*
X0007695Y0088709D01*
X0007047Y0087146D01*
X0007047Y0085454D01*
X0007695Y0083891D01*
X0008891Y0082695D01*
X0010454Y0082047D01*
X0009306Y0082523D02*
X0003568Y0082523D01*
X0003568Y0083121D02*
X0008464Y0083121D01*
X0007866Y0083720D02*
X0003568Y0083720D01*
X0003568Y0084318D02*
X0007518Y0084318D01*
X0007270Y0084917D02*
X0003568Y0084917D01*
X0003568Y0085515D02*
X0007047Y0085515D01*
X0007047Y0086114D02*
X0003568Y0086114D01*
X0003568Y0086712D02*
X0007047Y0086712D01*
X0007116Y0087311D02*
X0003568Y0087311D01*
X0003568Y0087909D02*
X0007364Y0087909D01*
X0007611Y0088508D02*
X0003568Y0088508D01*
X0003568Y0089106D02*
X0008092Y0089106D01*
X0008691Y0089705D02*
X0003568Y0089705D01*
X0003568Y0090303D02*
X0009852Y0090303D01*
X0010329Y0092099D02*
X0003568Y0092099D01*
X0003568Y0091501D02*
X0013837Y0091501D01*
X0013238Y0092099D02*
X0012271Y0092099D01*
X0012748Y0090303D02*
X0015034Y0090303D01*
X0015632Y0089705D02*
X0013909Y0089705D01*
X0014508Y0089106D02*
X0016231Y0089106D01*
X0016829Y0088508D02*
X0014989Y0088508D01*
X0015236Y0087909D02*
X0017428Y0087909D01*
X0018026Y0087311D02*
X0015484Y0087311D01*
X0015553Y0086712D02*
X0018625Y0086712D01*
X0019223Y0086114D02*
X0015553Y0086114D01*
X0015553Y0085515D02*
X0019822Y0085515D01*
X0020420Y0084917D02*
X0015330Y0084917D01*
X0015082Y0084318D02*
X0021019Y0084318D01*
X0021617Y0083720D02*
X0014734Y0083720D01*
X0014136Y0083121D02*
X0022216Y0083121D01*
X0022814Y0082523D02*
X0013294Y0082523D01*
X0013169Y0080129D02*
X0025208Y0080129D01*
X0024610Y0080727D02*
X0003568Y0080727D01*
X0003568Y0081326D02*
X0024011Y0081326D01*
X0023413Y0081924D02*
X0003568Y0081924D01*
X0014084Y0079530D02*
X0025807Y0079530D01*
X0026405Y0078932D02*
X0014683Y0078932D01*
X0015061Y0078333D02*
X0027004Y0078333D01*
X0027602Y0077735D02*
X0015309Y0077735D01*
X0015553Y0077136D02*
X0028201Y0077136D01*
X0028800Y0076538D02*
X0015553Y0076538D01*
X0015553Y0075939D02*
X0029398Y0075939D01*
X0029997Y0075341D02*
X0015506Y0075341D01*
X0015258Y0074742D02*
X0030595Y0074742D01*
X0031194Y0074144D02*
X0015010Y0074144D01*
X0014559Y0073545D02*
X0031792Y0073545D01*
X0032391Y0072947D02*
X0013961Y0072947D01*
X0012872Y0072348D02*
X0032989Y0072348D01*
X0034785Y0070553D02*
X0012146Y0070553D01*
X0013591Y0069954D02*
X0035383Y0069954D01*
X0036300Y0071300D02*
X0011300Y0096300D01*
X0008290Y0093296D02*
X0003568Y0093296D01*
X0003568Y0092698D02*
X0008888Y0092698D01*
X0007693Y0093895D02*
X0003568Y0093895D01*
X0003568Y0094493D02*
X0007445Y0094493D01*
X0007197Y0095092D02*
X0003568Y0095092D01*
X0003568Y0095690D02*
X0007047Y0095690D01*
X0007047Y0096289D02*
X0003568Y0096289D01*
X0003568Y0096887D02*
X0007047Y0096887D01*
X0007188Y0097486D02*
X0003568Y0097486D01*
X0003568Y0098084D02*
X0007436Y0098084D01*
X0007684Y0098683D02*
X0003568Y0098683D01*
X0003568Y0099281D02*
X0008267Y0099281D01*
X0008865Y0099880D02*
X0003568Y0099880D01*
X0003568Y0100478D02*
X0010274Y0100478D01*
X0009907Y0102274D02*
X0003568Y0102274D01*
X0003568Y0102872D02*
X0008713Y0102872D01*
X0008115Y0103471D02*
X0003568Y0103471D01*
X0003568Y0104069D02*
X0007621Y0104069D01*
X0007373Y0104668D02*
X0003568Y0104668D01*
X0003568Y0105266D02*
X0007125Y0105266D01*
X0007047Y0105865D02*
X0003568Y0105865D01*
X0003568Y0106463D02*
X0007047Y0106463D01*
X0007047Y0107062D02*
X0003568Y0107062D01*
X0003568Y0107660D02*
X0007260Y0107660D01*
X0007508Y0108259D02*
X0003568Y0108259D01*
X0003568Y0108857D02*
X0007843Y0108857D01*
X0008442Y0109456D02*
X0003568Y0109456D01*
X0003568Y0110054D02*
X0009251Y0110054D01*
X0014061Y0113047D02*
X0029399Y0113047D01*
X0030222Y0113645D02*
X0014660Y0113645D01*
X0015051Y0114244D02*
X0054708Y0114244D01*
X0054112Y0114842D02*
X0015299Y0114842D01*
X0015547Y0115441D02*
X0053864Y0115441D01*
X0053720Y0116039D02*
X0015553Y0116039D01*
X0015553Y0116638D02*
X0053720Y0116638D01*
X0053896Y0117237D02*
X0015515Y0117237D01*
X0015267Y0117835D02*
X0054187Y0117835D01*
X0054786Y0118434D02*
X0015019Y0118434D01*
X0003568Y0111251D02*
X0028720Y0111251D01*
X0028776Y0110653D02*
X0003568Y0110653D01*
X0012693Y0102274D02*
X0013064Y0102274D01*
X0013662Y0101675D02*
X0003568Y0101675D01*
X0003568Y0101077D02*
X0014261Y0101077D01*
X0014859Y0100478D02*
X0012326Y0100478D01*
X0013735Y0099880D02*
X0015458Y0099880D01*
X0016056Y0099281D02*
X0014333Y0099281D01*
X0014916Y0098683D02*
X0016655Y0098683D01*
X0017253Y0098084D02*
X0015164Y0098084D01*
X0015412Y0097486D02*
X0017852Y0097486D01*
X0018450Y0096887D02*
X0015553Y0096887D01*
X0015553Y0096289D02*
X0019049Y0096289D01*
X0019647Y0095690D02*
X0015553Y0095690D01*
X0015403Y0095092D02*
X0020246Y0095092D01*
X0020844Y0094493D02*
X0015370Y0094493D01*
X0015968Y0093895D02*
X0021443Y0093895D01*
X0022041Y0093296D02*
X0016567Y0093296D01*
X0017165Y0092698D02*
X0022640Y0092698D01*
X0023238Y0092099D02*
X0017764Y0092099D01*
X0018362Y0091501D02*
X0023837Y0091501D01*
X0024435Y0090902D02*
X0018961Y0090902D01*
X0019559Y0090303D02*
X0025034Y0090303D01*
X0025632Y0089705D02*
X0020158Y0089705D01*
X0020756Y0089106D02*
X0026231Y0089106D01*
X0026829Y0088508D02*
X0021355Y0088508D01*
X0021953Y0087909D02*
X0027428Y0087909D01*
X0028026Y0087311D02*
X0022552Y0087311D01*
X0023150Y0086712D02*
X0028625Y0086712D01*
X0029223Y0086114D02*
X0023749Y0086114D01*
X0024347Y0085515D02*
X0029822Y0085515D01*
X0030420Y0084917D02*
X0024946Y0084917D01*
X0025544Y0084318D02*
X0031019Y0084318D01*
X0031617Y0083720D02*
X0026143Y0083720D01*
X0026741Y0083121D02*
X0032216Y0083121D01*
X0032814Y0082523D02*
X0027340Y0082523D01*
X0027938Y0081924D02*
X0033413Y0081924D01*
X0034011Y0081326D02*
X0028537Y0081326D01*
X0029135Y0080727D02*
X0034610Y0080727D01*
X0035208Y0080129D02*
X0029734Y0080129D01*
X0030332Y0079530D02*
X0068516Y0079530D01*
X0067917Y0078932D02*
X0030931Y0078932D01*
X0031529Y0078333D02*
X0067539Y0078333D01*
X0067291Y0077735D02*
X0032128Y0077735D01*
X0032726Y0077136D02*
X0067047Y0077136D01*
X0067047Y0076538D02*
X0033325Y0076538D01*
X0033923Y0075939D02*
X0067047Y0075939D01*
X0067094Y0075341D02*
X0034522Y0075341D01*
X0035121Y0074742D02*
X0067342Y0074742D01*
X0067590Y0074144D02*
X0035719Y0074144D01*
X0036318Y0073545D02*
X0068041Y0073545D01*
X0068639Y0072947D02*
X0036916Y0072947D01*
X0036300Y0071300D02*
X0076300Y0071300D01*
X0074596Y0069356D02*
X0074259Y0069356D01*
X0068341Y0069356D02*
X0014259Y0069356D01*
X0014857Y0068757D02*
X0037991Y0068757D01*
X0037011Y0068159D02*
X0015133Y0068159D01*
X0015381Y0067560D02*
X0036530Y0067560D01*
X0036282Y0066962D02*
X0015553Y0066962D01*
X0015553Y0066363D02*
X0036220Y0066363D01*
X0036230Y0065765D02*
X0015553Y0065765D01*
X0015433Y0065166D02*
X0036478Y0065166D01*
X0036884Y0064568D02*
X0015186Y0064568D01*
X0014938Y0063969D02*
X0037687Y0063969D01*
X0039913Y0063969D02*
X0067662Y0063969D01*
X0067414Y0064568D02*
X0040716Y0064568D01*
X0038800Y0066300D02*
X0071300Y0066300D01*
X0068215Y0063370D02*
X0014385Y0063370D01*
X0013786Y0062772D02*
X0068814Y0062772D01*
X0070149Y0062173D02*
X0012451Y0062173D01*
X0012568Y0060378D02*
X0070032Y0060378D01*
X0068765Y0059779D02*
X0013835Y0059779D01*
X0009610Y0050203D02*
X0003568Y0050203D01*
X0003568Y0049605D02*
X0008590Y0049605D01*
X0007992Y0049006D02*
X0003568Y0049006D01*
X0003568Y0048408D02*
X0007570Y0048408D01*
X0007322Y0047809D02*
X0003568Y0047809D01*
X0003568Y0047211D02*
X0007074Y0047211D01*
X0007047Y0046612D02*
X0003568Y0046612D01*
X0003568Y0046014D02*
X0007047Y0046014D01*
X0007063Y0045415D02*
X0003568Y0045415D01*
X0003568Y0044817D02*
X0007311Y0044817D01*
X0007559Y0044218D02*
X0003568Y0044218D01*
X0003568Y0043620D02*
X0007966Y0043620D01*
X0008565Y0043021D02*
X0003568Y0043021D01*
X0003568Y0042423D02*
X0009548Y0042423D01*
X0013052Y0042423D02*
X0069548Y0042423D01*
X0068565Y0043021D02*
X0014035Y0043021D01*
X0014634Y0043620D02*
X0067966Y0043620D01*
X0067559Y0044218D02*
X0015041Y0044218D01*
X0015289Y0044817D02*
X0067311Y0044817D01*
X0067063Y0045415D02*
X0015537Y0045415D01*
X0015553Y0046014D02*
X0067047Y0046014D01*
X0067047Y0046612D02*
X0015553Y0046612D01*
X0015526Y0047211D02*
X0067074Y0047211D01*
X0067322Y0047809D02*
X0015278Y0047809D01*
X0015030Y0048408D02*
X0067570Y0048408D01*
X0067992Y0049006D02*
X0014608Y0049006D01*
X0003568Y0039430D02*
X0055233Y0039430D01*
X0054165Y0038832D02*
X0003568Y0038832D01*
X0003568Y0038233D02*
X0053566Y0038233D01*
X0053281Y0037634D02*
X0003568Y0037634D01*
X0003568Y0037036D02*
X0053033Y0037036D01*
X0053000Y0036437D02*
X0003568Y0036437D01*
X0003568Y0035839D02*
X0053000Y0035839D01*
X0053167Y0035240D02*
X0003568Y0035240D01*
X0003568Y0034642D02*
X0053415Y0034642D01*
X0053890Y0034043D02*
X0003568Y0034043D01*
X0003568Y0033445D02*
X0054569Y0033445D01*
X0082550Y0043800D02*
X0108800Y0043800D01*
X0111300Y0041300D01*
X0120366Y0044218D02*
X0144400Y0044218D01*
X0144400Y0044817D02*
X0120965Y0044817D01*
X0121226Y0045415D02*
X0144400Y0045415D01*
X0144400Y0046014D02*
X0121380Y0046014D01*
X0121380Y0046612D02*
X0144400Y0046612D01*
X0136300Y0071300D02*
X0132550Y0071300D01*
X0126300Y0077550D01*
X0081300Y0077550D02*
X0077550Y0081300D01*
X0077057Y0079530D02*
X0074084Y0079530D01*
X0074683Y0078932D02*
X0077655Y0078932D01*
X0078254Y0078333D02*
X0075061Y0078333D01*
X0075309Y0077735D02*
X0078720Y0077735D01*
X0078720Y0077136D02*
X0075553Y0077136D01*
X0075553Y0076538D02*
X0078927Y0076538D01*
X0079263Y0075939D02*
X0075553Y0075939D01*
X0075506Y0075341D02*
X0079893Y0075341D01*
X0067743Y0068757D02*
X0039609Y0068757D01*
X0040589Y0068159D02*
X0067467Y0068159D01*
X0068464Y0083121D02*
X0036741Y0083121D01*
X0036143Y0083720D02*
X0067866Y0083720D01*
X0067518Y0084318D02*
X0035544Y0084318D01*
X0034946Y0084917D02*
X0067270Y0084917D01*
X0067047Y0085515D02*
X0034347Y0085515D01*
X0033749Y0086114D02*
X0067047Y0086114D01*
X0067047Y0086712D02*
X0033150Y0086712D01*
X0032552Y0087311D02*
X0067116Y0087311D01*
X0067364Y0087909D02*
X0031953Y0087909D01*
X0031355Y0088508D02*
X0067611Y0088508D01*
X0068092Y0089106D02*
X0047745Y0089106D01*
X0044855Y0089106D02*
X0030756Y0089106D01*
X0030158Y0089705D02*
X0044247Y0089705D01*
X0043921Y0090303D02*
X0029559Y0090303D01*
X0028961Y0090902D02*
X0043720Y0090902D01*
X0043720Y0091501D02*
X0028362Y0091501D01*
X0027764Y0092099D02*
X0043839Y0092099D01*
X0044087Y0092698D02*
X0027165Y0092698D01*
X0026567Y0093296D02*
X0044648Y0093296D01*
X0027777Y0103471D02*
X0068115Y0103471D01*
X0067940Y0113645D02*
X0032378Y0113645D01*
X0040526Y0123222D02*
X0068364Y0123222D01*
X0067766Y0123820D02*
X0039456Y0123820D01*
X0047855Y0129207D02*
X0068192Y0129207D01*
X0068189Y0133396D02*
X0047852Y0133396D01*
X0043720Y0131601D02*
X0003568Y0131601D01*
X0003568Y0132199D02*
X0010087Y0132199D01*
X0008788Y0132798D02*
X0003568Y0132798D01*
X0003568Y0133396D02*
X0008189Y0133396D01*
X0007652Y0133995D02*
X0003568Y0133995D01*
X0003568Y0134593D02*
X0007404Y0134593D01*
X0007156Y0135192D02*
X0003568Y0135192D01*
X0003568Y0135790D02*
X0007047Y0135790D01*
X0007047Y0136389D02*
X0003568Y0136389D01*
X0003568Y0136987D02*
X0007047Y0136987D01*
X0007229Y0137586D02*
X0003568Y0137586D01*
X0003568Y0138184D02*
X0007477Y0138184D01*
X0007769Y0138783D02*
X0003568Y0138783D01*
X0003568Y0139381D02*
X0008367Y0139381D01*
X0009071Y0139980D02*
X0003568Y0139980D01*
X0003568Y0152549D02*
X0009295Y0152549D01*
X0008439Y0153147D02*
X0003568Y0153147D01*
X0003568Y0153746D02*
X0007899Y0153746D01*
X0007524Y0154344D02*
X0003568Y0154344D01*
X0003568Y0154943D02*
X0007269Y0154943D01*
X0007114Y0155541D02*
X0003568Y0155541D01*
X0014161Y0153147D02*
X0030288Y0153147D01*
X0029187Y0153746D02*
X0014701Y0153746D01*
X0015076Y0154344D02*
X0028589Y0154344D01*
X0028290Y0154943D02*
X0015331Y0154943D01*
X0015486Y0155541D02*
X0028042Y0155541D01*
X0014307Y0169307D02*
X0044645Y0169307D01*
X0044086Y0169905D02*
X0013709Y0169905D01*
X0015553Y0183073D02*
X0067047Y0183073D01*
X0067047Y0183671D02*
X0015553Y0183671D01*
X0015553Y0184270D02*
X0067047Y0184270D01*
X0067047Y0184868D02*
X0015553Y0184868D01*
X0015553Y0185467D02*
X0067047Y0185467D01*
X0067047Y0186065D02*
X0015553Y0186065D01*
X0015553Y0186664D02*
X0067047Y0186664D01*
X0067047Y0187262D02*
X0015553Y0187262D01*
X0015553Y0187861D02*
X0067047Y0187861D01*
X0067047Y0188459D02*
X0015553Y0188459D01*
X0015553Y0189058D02*
X0067047Y0189058D01*
X0067047Y0189656D02*
X0015553Y0189656D01*
X0015089Y0190255D02*
X0067511Y0190255D01*
X0074236Y0123222D02*
X0109574Y0123222D01*
X0109321Y0119631D02*
X0073984Y0119631D01*
X0074582Y0119032D02*
X0110035Y0119032D01*
X0112565Y0119032D02*
X0125050Y0119032D01*
X0125050Y0118434D02*
X0075019Y0118434D01*
X0075267Y0117835D02*
X0125050Y0117835D01*
X0125050Y0117237D02*
X0075515Y0117237D01*
X0075553Y0116638D02*
X0125050Y0116638D01*
X0125050Y0116039D02*
X0100134Y0116039D01*
X0100807Y0115441D02*
X0125050Y0115441D01*
X0125050Y0114842D02*
X0101160Y0114842D01*
X0098800Y0113800D02*
X0098800Y0111300D01*
X0096220Y0113645D02*
X0074660Y0113645D01*
X0075051Y0114244D02*
X0096220Y0114244D01*
X0096440Y0114842D02*
X0075299Y0114842D01*
X0075547Y0115441D02*
X0096793Y0115441D01*
X0097466Y0116039D02*
X0075553Y0116039D01*
X0067548Y0114244D02*
X0066642Y0114244D01*
X0067238Y0114842D02*
X0067301Y0114842D01*
X0065050Y0116300D02*
X0056300Y0116300D01*
X0057892Y0114244D02*
X0063458Y0114244D01*
X0063536Y0118434D02*
X0057814Y0118434D01*
X0014435Y0090902D02*
X0003568Y0090902D01*
X0082550Y0048819D02*
X0082550Y0043800D01*
X0290050Y0038832D02*
X0290054Y0038832D01*
X0290050Y0038233D02*
X0290443Y0038233D01*
X0290050Y0037634D02*
X0290998Y0037634D01*
X0291913Y0037036D02*
X0290050Y0037036D01*
X0290050Y0036437D02*
X0357299Y0036437D01*
X0357299Y0035839D02*
X0290050Y0035839D01*
X0290050Y0035240D02*
X0357299Y0035240D01*
X0357299Y0034642D02*
X0290050Y0034642D01*
X0290050Y0034043D02*
X0357299Y0034043D01*
X0357299Y0033445D02*
X0290050Y0033445D01*
X0290050Y0032846D02*
X0357299Y0032846D01*
X0357299Y0032248D02*
X0290050Y0032248D01*
X0290050Y0031649D02*
X0357299Y0031649D01*
X0357299Y0031051D02*
X0290050Y0031051D01*
X0290050Y0030452D02*
X0357299Y0030452D01*
X0357299Y0029854D02*
X0290050Y0029854D01*
X0290050Y0029255D02*
X0357299Y0029255D01*
X0357299Y0028657D02*
X0290050Y0028657D01*
X0290050Y0028058D02*
X0357299Y0028058D01*
X0357299Y0027460D02*
X0290050Y0027460D01*
X0290050Y0026861D02*
X0357299Y0026861D01*
X0357299Y0026263D02*
X0290050Y0026263D01*
X0290050Y0025664D02*
X0357299Y0025664D01*
X0357299Y0025066D02*
X0290050Y0025066D01*
X0290050Y0024467D02*
X0357299Y0024467D01*
X0357299Y0023869D02*
X0290050Y0023869D01*
X0290050Y0023270D02*
X0357299Y0023270D01*
X0357299Y0022672D02*
X0290050Y0022672D01*
X0290050Y0022073D02*
X0357299Y0022073D01*
X0357299Y0021475D02*
X0290050Y0021475D01*
X0290050Y0020876D02*
X0357299Y0020876D01*
X0357299Y0020278D02*
X0290050Y0020278D01*
X0290050Y0019679D02*
X0357299Y0019679D01*
X0357299Y0019081D02*
X0290050Y0019081D01*
X0290050Y0018482D02*
X0357299Y0018482D01*
X0357299Y0017884D02*
X0290050Y0017884D01*
X0290050Y0017285D02*
X0357299Y0017285D01*
X0357299Y0016687D02*
X0290050Y0016687D01*
X0290050Y0016088D02*
X0357299Y0016088D01*
X0357299Y0015490D02*
X0290050Y0015490D01*
X0290050Y0014891D02*
X0357299Y0014891D01*
X0357299Y0014293D02*
X0290050Y0014293D01*
X0290050Y0013694D02*
X0357299Y0013694D01*
X0357299Y0037036D02*
X0295687Y0037036D01*
X0295432Y0036906D02*
X0296029Y0037210D01*
X0296570Y0037603D01*
X0297044Y0038077D01*
X0297437Y0038618D01*
X0297741Y0039215D01*
X0297948Y0039851D01*
X0298053Y0040513D01*
X0298053Y0043500D01*
X0294100Y0043500D01*
X0294100Y0036594D01*
X0294135Y0036594D01*
X0294796Y0036699D01*
X0295432Y0036906D01*
X0294100Y0037036D02*
X0293500Y0037036D01*
X0293500Y0037634D02*
X0294100Y0037634D01*
X0294100Y0038233D02*
X0293500Y0038233D01*
X0293500Y0038832D02*
X0294100Y0038832D01*
X0294100Y0039430D02*
X0293500Y0039430D01*
X0293500Y0040029D02*
X0294100Y0040029D01*
X0294100Y0040627D02*
X0293500Y0040627D01*
X0293500Y0041226D02*
X0294100Y0041226D01*
X0294100Y0041824D02*
X0293500Y0041824D01*
X0293500Y0042423D02*
X0294100Y0042423D01*
X0294100Y0043021D02*
X0293500Y0043021D01*
X0298053Y0043021D02*
X0357299Y0043021D01*
X0357299Y0042423D02*
X0298053Y0042423D01*
X0298053Y0041824D02*
X0357299Y0041824D01*
X0357299Y0041226D02*
X0298053Y0041226D01*
X0298053Y0040627D02*
X0357299Y0040627D01*
X0357299Y0040029D02*
X0297976Y0040029D01*
X0297811Y0039430D02*
X0357299Y0039430D01*
X0357299Y0038832D02*
X0297546Y0038832D01*
X0297157Y0038233D02*
X0357299Y0038233D01*
X0357299Y0037634D02*
X0296602Y0037634D01*
D16*
X0098781Y0154949D02*
X0095936Y0157793D01*
X0073012Y0157793D01*
X0071518Y0156300D01*
X0071300Y0156300D01*
X0086300Y0171300D02*
X0081300Y0176300D01*
X0077550Y0176300D01*
X0086300Y0171300D02*
X0121300Y0171300D01*
X0123800Y0173800D01*
X0127550Y0173800D01*
X0131300Y0177550D01*
X0131300Y0181300D01*
D17*
X0131300Y0163800D02*
X0131290Y0163790D01*
X0122735Y0163790D01*
X0116735Y0163790D02*
X0078810Y0163790D01*
X0078800Y0163800D01*
X0071300Y0156300D01*
X0031300Y0156300D01*
X0130050Y0125050D02*
X0135050Y0125050D01*
X0138800Y0121300D01*
X0171300Y0121300D01*
X0181300Y0131300D01*
X0181300Y0161300D01*
X0183800Y0163800D01*
X0156300Y0036300D02*
X0146300Y0036300D01*
X0056300Y0036300D01*
D18*
X0156300Y0036300D02*
X0168819Y0048819D01*
X0168819Y0054986D01*
D19*
X0146300Y0055050D02*
X0146300Y0036300D01*
X0113800Y0111300D02*
X0098800Y0111300D01*
X0031300Y0111300D01*
M02*
