G75*
%MOIN*%
%OFA0B0*%
%FSLAX25Y25*%
%IPPOS*%
%LPD*%
%AMOC8*
5,1,8,0,0,1.08239X$1,22.5*
%
%ADD10R,0.11813X0.07632*%
%ADD11R,0.06706X0.06706*%
%ADD12C,0.06706*%
%ADD13R,0.05400X0.07100*%
%ADD14R,0.00600X0.07200*%
%ADD15C,0.06800*%
%ADD16C,0.08674*%
%ADD17C,0.03950*%
%ADD18C,0.00394*%
D10*
X0125611Y0206607D03*
D11*
X0109663Y0229100D03*
X0049663Y0229100D03*
D12*
X0049663Y0089100D03*
X0049663Y0099100D03*
X0049663Y0109100D03*
X0049663Y0119100D03*
X0049663Y0129100D03*
X0049663Y0139100D03*
X0049663Y0149100D03*
X0049663Y0159100D03*
X0049663Y0169100D03*
X0049663Y0179100D03*
X0049663Y0189100D03*
X0049663Y0199100D03*
X0049663Y0209100D03*
X0049663Y0219100D03*
X0109663Y0219100D03*
X0109663Y0209100D03*
X0109663Y0199100D03*
X0109663Y0189100D03*
X0109663Y0179100D03*
X0109663Y0169100D03*
X0109663Y0159100D03*
X0109663Y0149100D03*
X0109663Y0139100D03*
X0109663Y0129100D03*
X0109663Y0119100D03*
X0109663Y0109100D03*
X0109663Y0099100D03*
X0109663Y0089100D03*
D13*
X0122598Y0206590D03*
X0128598Y0206590D03*
D14*
X0125598Y0206590D03*
D15*
X0293593Y0161943D02*
X0299593Y0161943D01*
X0299593Y0151943D02*
X0293593Y0151943D01*
X0293593Y0141943D02*
X0299593Y0141943D01*
X0354335Y0142091D02*
X0360335Y0142091D01*
X0360335Y0152091D02*
X0354335Y0152091D01*
X0354335Y0162091D02*
X0360335Y0162091D01*
D16*
X0338419Y0081198D03*
X0318419Y0081198D03*
X0298419Y0081198D03*
D17*
X0239830Y0252501D03*
X0220145Y0252501D03*
D18*
X0217950Y0251359D02*
X0217495Y0251864D01*
X0216946Y0252263D01*
X0216326Y0252539D01*
X0215661Y0252680D01*
X0214982Y0252680D01*
X0214318Y0252539D01*
X0213698Y0252263D01*
X0213149Y0251864D01*
X0212694Y0251359D01*
X0212355Y0250771D01*
X0212145Y0250125D01*
X0212074Y0249450D01*
X0212074Y0247285D01*
X0212145Y0246609D01*
X0212355Y0245964D01*
X0212694Y0245376D01*
X0213149Y0244871D01*
X0213698Y0244472D01*
X0214318Y0244196D01*
X0214982Y0244055D01*
X0215661Y0244055D01*
X0216326Y0244196D01*
X0216946Y0244472D01*
X0217495Y0244871D01*
X0217950Y0245376D01*
X0218289Y0245964D01*
X0218499Y0246609D01*
X0218570Y0247285D01*
X0218570Y0249450D01*
X0218499Y0250125D01*
X0218289Y0250771D01*
X0217950Y0251359D01*
X0217929Y0251383D02*
X0212715Y0251383D01*
X0212481Y0250990D02*
X0218163Y0250990D01*
X0218345Y0250598D02*
X0212298Y0250598D01*
X0212171Y0250206D02*
X0218473Y0250206D01*
X0218532Y0249814D02*
X0212112Y0249814D01*
X0212074Y0249422D02*
X0218570Y0249422D01*
X0218570Y0249029D02*
X0212074Y0249029D01*
X0212074Y0248637D02*
X0218570Y0248637D01*
X0218570Y0248245D02*
X0212074Y0248245D01*
X0212074Y0247853D02*
X0218570Y0247853D01*
X0218570Y0247461D02*
X0212074Y0247461D01*
X0212097Y0247068D02*
X0218547Y0247068D01*
X0218506Y0246676D02*
X0212138Y0246676D01*
X0212251Y0246284D02*
X0218393Y0246284D01*
X0218248Y0245892D02*
X0212396Y0245892D01*
X0212623Y0245500D02*
X0218021Y0245500D01*
X0217708Y0245107D02*
X0212936Y0245107D01*
X0213363Y0244715D02*
X0217281Y0244715D01*
X0216611Y0244323D02*
X0214033Y0244323D01*
X0213068Y0251775D02*
X0217575Y0251775D01*
X0217078Y0252167D02*
X0213566Y0252167D01*
X0214413Y0252559D02*
X0216231Y0252559D01*
X0215009Y0259406D02*
X0214454Y0259406D01*
X0213910Y0259521D01*
X0213403Y0259747D01*
X0212953Y0260074D01*
X0212581Y0260487D01*
X0212304Y0260968D01*
X0212132Y0261496D01*
X0212074Y0262049D01*
X0212074Y0264608D01*
X0212132Y0265160D01*
X0212304Y0265688D01*
X0212581Y0266170D01*
X0212953Y0266582D01*
X0213403Y0266909D01*
X0213910Y0267135D01*
X0214454Y0267251D01*
X0215009Y0267251D01*
X0215553Y0267135D01*
X0216060Y0266909D01*
X0216510Y0266582D01*
X0216881Y0266170D01*
X0217159Y0265688D01*
X0217331Y0265160D01*
X0217389Y0264608D01*
X0217389Y0262049D01*
X0217331Y0261496D01*
X0217159Y0260968D01*
X0216881Y0260487D01*
X0216510Y0260074D01*
X0216060Y0259747D01*
X0215553Y0259521D01*
X0215009Y0259406D01*
X0215773Y0259619D02*
X0213690Y0259619D01*
X0213039Y0260011D02*
X0216424Y0260011D01*
X0216807Y0260404D02*
X0212656Y0260404D01*
X0212403Y0260796D02*
X0217060Y0260796D01*
X0217231Y0261188D02*
X0212232Y0261188D01*
X0212123Y0261580D02*
X0217340Y0261580D01*
X0217381Y0261972D02*
X0212082Y0261972D01*
X0212074Y0262365D02*
X0217389Y0262365D01*
X0217389Y0262757D02*
X0212074Y0262757D01*
X0212074Y0263149D02*
X0217389Y0263149D01*
X0217389Y0263541D02*
X0212074Y0263541D01*
X0212074Y0263933D02*
X0217389Y0263933D01*
X0217389Y0264326D02*
X0212074Y0264326D01*
X0212085Y0264718D02*
X0217377Y0264718D01*
X0217336Y0265110D02*
X0212127Y0265110D01*
X0212243Y0265502D02*
X0217220Y0265502D01*
X0217040Y0265895D02*
X0212423Y0265895D01*
X0212687Y0266287D02*
X0216776Y0266287D01*
X0216377Y0266679D02*
X0213086Y0266679D01*
X0213767Y0267071D02*
X0215696Y0267071D01*
X0242586Y0264608D02*
X0242586Y0262049D01*
X0242644Y0261496D01*
X0242815Y0260968D01*
X0243093Y0260487D01*
X0243465Y0260074D01*
X0243914Y0259747D01*
X0244422Y0259521D01*
X0244965Y0259406D01*
X0245521Y0259406D01*
X0246064Y0259521D01*
X0246572Y0259747D01*
X0247021Y0260074D01*
X0247393Y0260487D01*
X0247671Y0260968D01*
X0247843Y0261496D01*
X0247901Y0262049D01*
X0247901Y0264608D01*
X0247843Y0265160D01*
X0247671Y0265688D01*
X0247393Y0266170D01*
X0247021Y0266582D01*
X0246572Y0266909D01*
X0246064Y0267135D01*
X0245521Y0267251D01*
X0244965Y0267251D01*
X0244422Y0267135D01*
X0243914Y0266909D01*
X0243465Y0266582D01*
X0243093Y0266170D01*
X0242815Y0265688D01*
X0242644Y0265160D01*
X0242586Y0264608D01*
X0242597Y0264718D02*
X0247889Y0264718D01*
X0247901Y0264326D02*
X0242586Y0264326D01*
X0242586Y0263933D02*
X0247901Y0263933D01*
X0247901Y0263541D02*
X0242586Y0263541D01*
X0242586Y0263149D02*
X0247901Y0263149D01*
X0247901Y0262757D02*
X0242586Y0262757D01*
X0242586Y0262365D02*
X0247901Y0262365D01*
X0247893Y0261972D02*
X0242594Y0261972D01*
X0242635Y0261580D02*
X0247851Y0261580D01*
X0247743Y0261188D02*
X0242744Y0261188D01*
X0242915Y0260796D02*
X0247572Y0260796D01*
X0247318Y0260404D02*
X0243168Y0260404D01*
X0243551Y0260011D02*
X0246936Y0260011D01*
X0246285Y0259619D02*
X0244202Y0259619D01*
X0242638Y0265110D02*
X0247848Y0265110D01*
X0247731Y0265502D02*
X0242755Y0265502D01*
X0242934Y0265895D02*
X0247552Y0265895D01*
X0247288Y0266287D02*
X0243199Y0266287D01*
X0243598Y0266679D02*
X0246889Y0266679D01*
X0246208Y0267071D02*
X0244279Y0267071D01*
X0244313Y0252680D02*
X0244992Y0252680D01*
X0245656Y0252539D01*
X0246277Y0252263D01*
X0246826Y0251864D01*
X0247280Y0251359D01*
X0247620Y0250771D01*
X0247830Y0250125D01*
X0247901Y0249450D01*
X0247901Y0247285D01*
X0247830Y0246609D01*
X0247620Y0245964D01*
X0247280Y0245376D01*
X0246826Y0244871D01*
X0246277Y0244472D01*
X0245656Y0244196D01*
X0244992Y0244055D01*
X0244313Y0244055D01*
X0243649Y0244196D01*
X0243029Y0244472D01*
X0242479Y0244871D01*
X0242025Y0245376D01*
X0241685Y0245964D01*
X0241476Y0246609D01*
X0241405Y0247285D01*
X0241405Y0249450D01*
X0241476Y0250125D01*
X0241685Y0250771D01*
X0242025Y0251359D01*
X0242479Y0251864D01*
X0243029Y0252263D01*
X0243649Y0252539D01*
X0244313Y0252680D01*
X0243744Y0252559D02*
X0245562Y0252559D01*
X0246409Y0252167D02*
X0242897Y0252167D01*
X0242399Y0251775D02*
X0246906Y0251775D01*
X0247259Y0251383D02*
X0242046Y0251383D01*
X0241812Y0250990D02*
X0247493Y0250990D01*
X0247676Y0250598D02*
X0241629Y0250598D01*
X0241502Y0250206D02*
X0247803Y0250206D01*
X0247862Y0249814D02*
X0241443Y0249814D01*
X0241405Y0249422D02*
X0247901Y0249422D01*
X0247901Y0249029D02*
X0241405Y0249029D01*
X0241405Y0248637D02*
X0247901Y0248637D01*
X0247901Y0248245D02*
X0241405Y0248245D01*
X0241405Y0247853D02*
X0247901Y0247853D01*
X0247901Y0247461D02*
X0241405Y0247461D01*
X0241427Y0247068D02*
X0247878Y0247068D01*
X0247837Y0246676D02*
X0241469Y0246676D01*
X0241581Y0246284D02*
X0247724Y0246284D01*
X0247578Y0245892D02*
X0241727Y0245892D01*
X0241953Y0245500D02*
X0247352Y0245500D01*
X0247039Y0245107D02*
X0242267Y0245107D01*
X0242694Y0244715D02*
X0246611Y0244715D01*
X0245942Y0244323D02*
X0243363Y0244323D01*
M02*
