M48
;GenerationSoftware,Autodesk,EAGLE,9.6.2*%
;CreationDate,2023-10-12T07:19:07Z*%
FMAT,2
ICI,OFF
METRIC,TZ,000.000
T7C0.350
T6C0.550
T5C0.800
T4C0.850
T3C1.000
T2C1.016
T1C1.300
%
G90
M71
T1
X65724Y6883
X70804Y6883
X75884Y6883
T2
X65260Y22312
X65260Y24852
X65260Y27392
X80689Y27430
X80689Y24890
X80689Y22350
T3
X2540Y34290
X2540Y31750
X2540Y26670
X2540Y24130
X2540Y21590
X2540Y19050
X2540Y16510
X2540Y13970
X2540Y11430
X2540Y8890
X17780Y44450
X17780Y41910
X17780Y39370
X2540Y29210
X17780Y31750
X17780Y29210
X17780Y26670
X17780Y24130
X17780Y21590
X17780Y19050
X17780Y16510
X17780Y13970
X17780Y11430
X17780Y8890
X2540Y41910
X17780Y36830
X2540Y44450
X17780Y34290
X2540Y39370
X2540Y36830
T4
X52067Y49344
X44617Y49344
T5
X45842Y50394
X50842Y50394
T6
X44467Y53144
X52217Y53144
T7
X29286Y4572
X19368Y14287
X19685Y15557
X32702Y28892
X32702Y26035
X48445Y38812
X6350Y22860
X30852Y25028
X30407Y50356
X71207Y47648
X73004Y37214
X24765Y48895
X43815Y23495
X47942Y19368
X30601Y38762
X24765Y36474
X8890Y7620
X6350Y7620
X24447Y31750
X19680Y34949
X61718Y24126
X31568Y45363
X44402Y45357
X23622Y41402
X20193Y41402
X59286Y27521
X45738Y41414
X64159Y14067
X62889Y14067
X61619Y14067
X60349Y14067
X66699Y14067
X65429Y14067
X43180Y15875
X43180Y7620
X27940Y7620
X25400Y16192
X30480Y31750
X30480Y36830
X19520Y8103
X19495Y9504
X26101Y14292
X30480Y21590
X39522Y9627
X15240Y8890
X44450Y6350
X10160Y45720
X19685Y12065
X5080Y30480
X5080Y35560
X5080Y45720
X5080Y40640
X10160Y35560
X12700Y16510
X39370Y30475
X15240Y40640
X15240Y45720
X10160Y40640
X31750Y16828
X34290Y15240
X10478Y26670
X10160Y12040
X10478Y21273
X8890Y24130
X13970Y24130
X41593Y30480
X37904Y38119
X36830Y24130
X37716Y22865
X30480Y40640
X20320Y20320
X20609Y21907
X32959Y38013
X41910Y38100
X23336Y31591
X33655Y30162
X30546Y13340
X31880Y7625
X24450Y33215
X26736Y40645
X17846Y48265
X64135Y15240
X62865Y15240
X73025Y45402
X61595Y15240
X60325Y15240
X66675Y15240
X65405Y15240
X35560Y52387
X30480Y27940
X21590Y33338
X14922Y19368
X14884Y13335
X12700Y13335
X83382Y15240
X82112Y15240
X80842Y15240
X79572Y15240
X85922Y15240
X78302Y15240
X84652Y15240
X83406Y14067
X82136Y14067
X80866Y14067
X15850Y17348
X85946Y14067
X78326Y14067
X84676Y14067
X20041Y17424
X13970Y21590
X41275Y22542
X20638Y23495
X15570Y11963
X12700Y11963
X45720Y22860
X48416Y44456
X46672Y22860
X51089Y43976
X15570Y11024
X13487Y11024
X20955Y30480
X43180Y22542
X29845Y8890
X37465Y19050
X11430Y40640
X11430Y17780
X27940Y21907
X11430Y11430
X13970Y29210
X45085Y11092
X11430Y30480
X31115Y12065
X23495Y44894
X30162Y44767
X24130Y29210
X27940Y27940
X9525Y27940
X9525Y15875
X40691Y15900
X35662Y4572
X73015Y34450
X24765Y47942
X30802Y47944
X22860Y29210
X16192Y35560
X42550Y11096
X28575Y25400
X24765Y26035
X11684Y6350
X7620Y36830
X7620Y25400
X36830Y11112
X79596Y14067
M30