G75*
%MOIN*%
%OFA0B0*%
%FSLAX25Y25*%
%IPPOS*%
%LPD*%
%AMOC8*
5,1,8,0,0,1.08239X$1,22.5*
%
%ADD10R,0.25591X0.33465*%
%ADD11C,0.07600*%
%ADD12C,0.07874*%
%ADD13C,0.11811*%
%ADD14C,0.02400*%
%ADD15OC8,0.05906*%
%ADD16C,0.05906*%
%ADD17C,0.00600*%
D10*
X0053465Y0176413D03*
X0053465Y0253184D03*
X0382206Y0253184D03*
X0382206Y0176413D03*
D11*
X0334824Y0049444D03*
X0319824Y0049444D03*
X0304824Y0049444D03*
X0289824Y0049444D03*
X0161595Y0049444D03*
X0146595Y0049444D03*
X0131595Y0049444D03*
X0116595Y0049444D03*
D12*
X0211856Y0051314D03*
X0231856Y0051314D03*
D13*
X0264489Y0049050D02*
X0289430Y0049050D01*
X0289824Y0049444D01*
X0304824Y0049444D02*
X0304824Y0120133D01*
X0272560Y0152397D01*
X0272560Y0210074D01*
X0203465Y0153578D02*
X0203465Y0110074D01*
X0264489Y0049050D01*
X0388308Y0101413D02*
X0404056Y0117161D01*
X0404056Y0170704D01*
X0398347Y0176413D01*
X0382206Y0176413D01*
X0405237Y0211255D02*
X0405631Y0211649D01*
X0405631Y0253775D01*
X0382796Y0253775D01*
X0382206Y0253184D01*
X0203465Y0153578D02*
X0146182Y0210861D01*
X0036733Y0210861D01*
X0032796Y0214798D01*
X0032796Y0254169D01*
X0052481Y0254169D01*
X0053465Y0253184D01*
X0053465Y0176413D02*
X0037717Y0176413D01*
X0032796Y0171491D01*
X0032796Y0083302D01*
X0067048Y0049050D01*
X0116202Y0049050D01*
X0116595Y0049444D01*
D14*
X0146595Y0049444D02*
X0146595Y0142731D01*
X0112717Y0176609D01*
X0053662Y0176609D01*
X0053465Y0176413D01*
X0052481Y0254169D02*
X0261536Y0254169D01*
X0319824Y0195881D01*
X0319824Y0049444D01*
X0334824Y0049444D02*
X0336930Y0051550D01*
X0336930Y0241767D01*
X0349331Y0254169D01*
X0381221Y0254169D01*
X0382206Y0253184D01*
X0382206Y0176413D02*
X0381221Y0175428D01*
X0355631Y0175428D01*
X0163505Y0145901D02*
X0161595Y0143991D01*
X0161595Y0049444D01*
D15*
X0163505Y0145901D03*
X0272560Y0210074D03*
X0405237Y0211255D03*
X0388308Y0101413D03*
D16*
X0355631Y0175428D03*
D17*
X0023254Y0326703D02*
X0023254Y0016280D01*
X0412417Y0016280D01*
X0412417Y0209204D01*
X0411739Y0207567D01*
X0409319Y0205147D01*
X0406670Y0204050D01*
X0403804Y0204050D01*
X0401155Y0205147D01*
X0399128Y0207174D01*
X0398031Y0209822D01*
X0398031Y0212688D01*
X0398425Y0213639D01*
X0398425Y0246569D01*
X0396301Y0246569D01*
X0396301Y0235913D01*
X0395539Y0235152D01*
X0368872Y0235152D01*
X0368110Y0235913D01*
X0368110Y0251669D01*
X0350367Y0251669D01*
X0339430Y0240731D01*
X0339430Y0051650D01*
X0339924Y0050459D01*
X0339924Y0048430D01*
X0339147Y0046555D01*
X0337713Y0045121D01*
X0335838Y0044344D01*
X0333809Y0044344D01*
X0331935Y0045121D01*
X0330500Y0046555D01*
X0329724Y0048430D01*
X0329724Y0050459D01*
X0330500Y0052333D01*
X0331935Y0053768D01*
X0333809Y0054544D01*
X0334430Y0054544D01*
X0334430Y0242264D01*
X0334811Y0243183D01*
X0335514Y0243886D01*
X0335514Y0243886D01*
X0347212Y0255585D01*
X0347212Y0255585D01*
X0347915Y0256288D01*
X0348834Y0256668D01*
X0368110Y0256668D01*
X0368110Y0270455D01*
X0368872Y0271217D01*
X0395539Y0271217D01*
X0396301Y0270455D01*
X0396301Y0260980D01*
X0407064Y0260980D01*
X0409712Y0259883D01*
X0411739Y0257856D01*
X0412417Y0256219D01*
X0412417Y0326703D01*
X0023254Y0326703D01*
X0023254Y0326434D02*
X0412417Y0326434D01*
X0412417Y0325835D02*
X0023254Y0325835D01*
X0023254Y0325237D02*
X0412417Y0325237D01*
X0412417Y0324638D02*
X0023254Y0324638D01*
X0023254Y0324040D02*
X0412417Y0324040D01*
X0412417Y0323441D02*
X0023254Y0323441D01*
X0023254Y0322843D02*
X0412417Y0322843D01*
X0412417Y0322244D02*
X0023254Y0322244D01*
X0023254Y0321646D02*
X0412417Y0321646D01*
X0412417Y0321047D02*
X0023254Y0321047D01*
X0023254Y0320449D02*
X0412417Y0320449D01*
X0412417Y0319850D02*
X0023254Y0319850D01*
X0023254Y0319252D02*
X0412417Y0319252D01*
X0412417Y0318653D02*
X0023254Y0318653D01*
X0023254Y0318055D02*
X0412417Y0318055D01*
X0412417Y0317456D02*
X0396637Y0317456D01*
X0396627Y0317461D02*
X0393375Y0317461D01*
X0390371Y0316216D01*
X0388071Y0313917D01*
X0386827Y0310913D01*
X0386827Y0307661D01*
X0388071Y0304656D01*
X0390371Y0302357D01*
X0393375Y0301113D01*
X0396627Y0301113D01*
X0399631Y0302357D01*
X0401930Y0304656D01*
X0403175Y0307661D01*
X0403175Y0310913D01*
X0401930Y0313917D01*
X0399631Y0316216D01*
X0396627Y0317461D01*
X0398082Y0316858D02*
X0412417Y0316858D01*
X0412417Y0316259D02*
X0399527Y0316259D01*
X0400186Y0315661D02*
X0412417Y0315661D01*
X0412417Y0315062D02*
X0400785Y0315062D01*
X0401383Y0314464D02*
X0412417Y0314464D01*
X0412417Y0313865D02*
X0401952Y0313865D01*
X0402200Y0313267D02*
X0412417Y0313267D01*
X0412417Y0312668D02*
X0402448Y0312668D01*
X0402695Y0312070D02*
X0412417Y0312070D01*
X0412417Y0311471D02*
X0402943Y0311471D01*
X0403175Y0310873D02*
X0412417Y0310873D01*
X0412417Y0310274D02*
X0403175Y0310274D01*
X0403175Y0309676D02*
X0412417Y0309676D01*
X0412417Y0309077D02*
X0403175Y0309077D01*
X0403175Y0308479D02*
X0412417Y0308479D01*
X0412417Y0307880D02*
X0403175Y0307880D01*
X0403018Y0307282D02*
X0412417Y0307282D01*
X0412417Y0306683D02*
X0402770Y0306683D01*
X0402522Y0306085D02*
X0412417Y0306085D01*
X0412417Y0305486D02*
X0402274Y0305486D01*
X0402026Y0304888D02*
X0412417Y0304888D01*
X0412417Y0304289D02*
X0401563Y0304289D01*
X0400964Y0303691D02*
X0412417Y0303691D01*
X0412417Y0303092D02*
X0400366Y0303092D01*
X0399767Y0302493D02*
X0412417Y0302493D01*
X0412417Y0301895D02*
X0398516Y0301895D01*
X0397071Y0301296D02*
X0412417Y0301296D01*
X0412417Y0300698D02*
X0023254Y0300698D01*
X0023254Y0301296D02*
X0038600Y0301296D01*
X0039044Y0301113D02*
X0042296Y0301113D01*
X0045300Y0302357D01*
X0047600Y0304656D01*
X0048844Y0307661D01*
X0048844Y0310913D01*
X0047600Y0313917D01*
X0045300Y0316216D01*
X0042296Y0317461D01*
X0039044Y0317461D01*
X0036040Y0316216D01*
X0033740Y0313917D01*
X0032496Y0310913D01*
X0032496Y0307661D01*
X0033740Y0304656D01*
X0036040Y0302357D01*
X0039044Y0301113D01*
X0037155Y0301895D02*
X0023254Y0301895D01*
X0023254Y0302493D02*
X0035903Y0302493D01*
X0035305Y0303092D02*
X0023254Y0303092D01*
X0023254Y0303691D02*
X0034706Y0303691D01*
X0034108Y0304289D02*
X0023254Y0304289D01*
X0023254Y0304888D02*
X0033645Y0304888D01*
X0033397Y0305486D02*
X0023254Y0305486D01*
X0023254Y0306085D02*
X0033149Y0306085D01*
X0032901Y0306683D02*
X0023254Y0306683D01*
X0023254Y0307282D02*
X0032653Y0307282D01*
X0032496Y0307880D02*
X0023254Y0307880D01*
X0023254Y0308479D02*
X0032496Y0308479D01*
X0032496Y0309077D02*
X0023254Y0309077D01*
X0023254Y0309676D02*
X0032496Y0309676D01*
X0032496Y0310274D02*
X0023254Y0310274D01*
X0023254Y0310873D02*
X0032496Y0310873D01*
X0032727Y0311471D02*
X0023254Y0311471D01*
X0023254Y0312070D02*
X0032975Y0312070D01*
X0033223Y0312668D02*
X0023254Y0312668D01*
X0023254Y0313267D02*
X0033471Y0313267D01*
X0033719Y0313865D02*
X0023254Y0313865D01*
X0023254Y0314464D02*
X0034287Y0314464D01*
X0034886Y0315062D02*
X0023254Y0315062D01*
X0023254Y0315661D02*
X0035484Y0315661D01*
X0036144Y0316259D02*
X0023254Y0316259D01*
X0023254Y0316858D02*
X0037589Y0316858D01*
X0039034Y0317456D02*
X0023254Y0317456D01*
X0042307Y0317456D02*
X0393364Y0317456D01*
X0391919Y0316858D02*
X0043751Y0316858D01*
X0045196Y0316259D02*
X0390474Y0316259D01*
X0389815Y0315661D02*
X0045856Y0315661D01*
X0046454Y0315062D02*
X0389217Y0315062D01*
X0388618Y0314464D02*
X0047053Y0314464D01*
X0047621Y0313865D02*
X0388050Y0313865D01*
X0387802Y0313267D02*
X0047869Y0313267D01*
X0048117Y0312668D02*
X0387554Y0312668D01*
X0387306Y0312070D02*
X0048365Y0312070D01*
X0048613Y0311471D02*
X0387058Y0311471D01*
X0386827Y0310873D02*
X0048844Y0310873D01*
X0048844Y0310274D02*
X0386827Y0310274D01*
X0386827Y0309676D02*
X0048844Y0309676D01*
X0048844Y0309077D02*
X0386827Y0309077D01*
X0386827Y0308479D02*
X0048844Y0308479D01*
X0048844Y0307880D02*
X0386827Y0307880D01*
X0386984Y0307282D02*
X0048687Y0307282D01*
X0048439Y0306683D02*
X0387232Y0306683D01*
X0387480Y0306085D02*
X0048191Y0306085D01*
X0047943Y0305486D02*
X0387728Y0305486D01*
X0387975Y0304888D02*
X0047695Y0304888D01*
X0047232Y0304289D02*
X0388439Y0304289D01*
X0389037Y0303691D02*
X0046634Y0303691D01*
X0046035Y0303092D02*
X0389636Y0303092D01*
X0390234Y0302493D02*
X0045437Y0302493D01*
X0044185Y0301895D02*
X0391486Y0301895D01*
X0392931Y0301296D02*
X0042740Y0301296D01*
X0023254Y0300099D02*
X0412417Y0300099D01*
X0412417Y0299501D02*
X0023254Y0299501D01*
X0023254Y0298902D02*
X0412417Y0298902D01*
X0412417Y0298304D02*
X0023254Y0298304D01*
X0023254Y0297705D02*
X0412417Y0297705D01*
X0412417Y0297107D02*
X0023254Y0297107D01*
X0023254Y0296508D02*
X0412417Y0296508D01*
X0412417Y0295910D02*
X0023254Y0295910D01*
X0023254Y0295311D02*
X0412417Y0295311D01*
X0412417Y0294713D02*
X0023254Y0294713D01*
X0023254Y0294114D02*
X0412417Y0294114D01*
X0412417Y0293516D02*
X0023254Y0293516D01*
X0023254Y0292917D02*
X0412417Y0292917D01*
X0412417Y0292319D02*
X0023254Y0292319D01*
X0023254Y0291720D02*
X0412417Y0291720D01*
X0412417Y0291122D02*
X0023254Y0291122D01*
X0023254Y0290523D02*
X0412417Y0290523D01*
X0412417Y0289925D02*
X0023254Y0289925D01*
X0023254Y0289326D02*
X0412417Y0289326D01*
X0412417Y0288728D02*
X0023254Y0288728D01*
X0023254Y0288129D02*
X0412417Y0288129D01*
X0412417Y0287531D02*
X0023254Y0287531D01*
X0023254Y0286932D02*
X0412417Y0286932D01*
X0412417Y0286334D02*
X0023254Y0286334D01*
X0023254Y0285735D02*
X0412417Y0285735D01*
X0412417Y0285137D02*
X0023254Y0285137D01*
X0023254Y0284538D02*
X0412417Y0284538D01*
X0412417Y0283940D02*
X0023254Y0283940D01*
X0023254Y0283341D02*
X0412417Y0283341D01*
X0412417Y0282743D02*
X0023254Y0282743D01*
X0023254Y0282144D02*
X0412417Y0282144D01*
X0412417Y0281546D02*
X0023254Y0281546D01*
X0023254Y0280947D02*
X0412417Y0280947D01*
X0412417Y0280349D02*
X0023254Y0280349D01*
X0023254Y0279750D02*
X0412417Y0279750D01*
X0412417Y0279152D02*
X0023254Y0279152D01*
X0023254Y0278553D02*
X0412417Y0278553D01*
X0412417Y0277955D02*
X0023254Y0277955D01*
X0023254Y0277356D02*
X0412417Y0277356D01*
X0412417Y0276757D02*
X0023254Y0276757D01*
X0023254Y0276159D02*
X0412417Y0276159D01*
X0412417Y0275560D02*
X0023254Y0275560D01*
X0023254Y0274962D02*
X0412417Y0274962D01*
X0412417Y0274363D02*
X0023254Y0274363D01*
X0023254Y0273765D02*
X0412417Y0273765D01*
X0412417Y0273166D02*
X0023254Y0273166D01*
X0023254Y0272568D02*
X0412417Y0272568D01*
X0412417Y0271969D02*
X0023254Y0271969D01*
X0023254Y0271371D02*
X0412417Y0271371D01*
X0412417Y0270772D02*
X0395983Y0270772D01*
X0396301Y0270174D02*
X0412417Y0270174D01*
X0412417Y0269575D02*
X0396301Y0269575D01*
X0396301Y0268977D02*
X0412417Y0268977D01*
X0412417Y0268378D02*
X0396301Y0268378D01*
X0396301Y0267780D02*
X0412417Y0267780D01*
X0412417Y0267181D02*
X0396301Y0267181D01*
X0396301Y0266583D02*
X0412417Y0266583D01*
X0412417Y0265984D02*
X0396301Y0265984D01*
X0396301Y0265386D02*
X0412417Y0265386D01*
X0412417Y0264787D02*
X0396301Y0264787D01*
X0396301Y0264189D02*
X0412417Y0264189D01*
X0412417Y0263590D02*
X0396301Y0263590D01*
X0396301Y0262992D02*
X0412417Y0262992D01*
X0412417Y0262393D02*
X0396301Y0262393D01*
X0396301Y0261795D02*
X0412417Y0261795D01*
X0412417Y0261196D02*
X0396301Y0261196D01*
X0407988Y0260598D02*
X0412417Y0260598D01*
X0412417Y0259999D02*
X0409433Y0259999D01*
X0410195Y0259401D02*
X0412417Y0259401D01*
X0412417Y0258802D02*
X0410793Y0258802D01*
X0411392Y0258204D02*
X0412417Y0258204D01*
X0412417Y0257605D02*
X0411843Y0257605D01*
X0412091Y0257007D02*
X0412417Y0257007D01*
X0412417Y0256408D02*
X0412339Y0256408D01*
X0398425Y0246233D02*
X0396301Y0246233D01*
X0396301Y0245635D02*
X0398425Y0245635D01*
X0398425Y0245036D02*
X0396301Y0245036D01*
X0396301Y0244438D02*
X0398425Y0244438D01*
X0398425Y0243839D02*
X0396301Y0243839D01*
X0396301Y0243241D02*
X0398425Y0243241D01*
X0398425Y0242642D02*
X0396301Y0242642D01*
X0396301Y0242044D02*
X0398425Y0242044D01*
X0398425Y0241445D02*
X0396301Y0241445D01*
X0396301Y0240847D02*
X0398425Y0240847D01*
X0398425Y0240248D02*
X0396301Y0240248D01*
X0396301Y0239650D02*
X0398425Y0239650D01*
X0398425Y0239051D02*
X0396301Y0239051D01*
X0396301Y0238453D02*
X0398425Y0238453D01*
X0398425Y0237854D02*
X0396301Y0237854D01*
X0396301Y0237256D02*
X0398425Y0237256D01*
X0398425Y0236657D02*
X0396301Y0236657D01*
X0396301Y0236059D02*
X0398425Y0236059D01*
X0398425Y0235460D02*
X0395848Y0235460D01*
X0398425Y0234862D02*
X0339430Y0234862D01*
X0339430Y0235460D02*
X0368564Y0235460D01*
X0368110Y0236059D02*
X0339430Y0236059D01*
X0339430Y0236657D02*
X0368110Y0236657D01*
X0368110Y0237256D02*
X0339430Y0237256D01*
X0339430Y0237854D02*
X0368110Y0237854D01*
X0368110Y0238453D02*
X0339430Y0238453D01*
X0339430Y0239051D02*
X0368110Y0239051D01*
X0368110Y0239650D02*
X0339430Y0239650D01*
X0339430Y0240248D02*
X0368110Y0240248D01*
X0368110Y0240847D02*
X0339545Y0240847D01*
X0340144Y0241445D02*
X0368110Y0241445D01*
X0368110Y0242044D02*
X0340742Y0242044D01*
X0341341Y0242642D02*
X0368110Y0242642D01*
X0368110Y0243241D02*
X0341939Y0243241D01*
X0342538Y0243839D02*
X0368110Y0243839D01*
X0368110Y0244438D02*
X0343136Y0244438D01*
X0343735Y0245036D02*
X0368110Y0245036D01*
X0368110Y0245635D02*
X0344333Y0245635D01*
X0344932Y0246233D02*
X0368110Y0246233D01*
X0368110Y0246832D02*
X0345530Y0246832D01*
X0346129Y0247430D02*
X0368110Y0247430D01*
X0368110Y0248029D02*
X0346727Y0248029D01*
X0347326Y0248627D02*
X0368110Y0248627D01*
X0368110Y0249226D02*
X0347924Y0249226D01*
X0348523Y0249824D02*
X0368110Y0249824D01*
X0368110Y0250423D02*
X0349122Y0250423D01*
X0349720Y0251022D02*
X0368110Y0251022D01*
X0368110Y0251620D02*
X0350319Y0251620D01*
X0346839Y0255211D02*
X0264029Y0255211D01*
X0263431Y0255810D02*
X0347437Y0255810D01*
X0348206Y0256408D02*
X0262662Y0256408D01*
X0262952Y0256288D02*
X0262034Y0256668D01*
X0067561Y0256668D01*
X0067561Y0270455D01*
X0066799Y0271217D01*
X0040132Y0271217D01*
X0039370Y0270455D01*
X0039370Y0261374D01*
X0031363Y0261374D01*
X0028714Y0260277D01*
X0026688Y0258250D01*
X0025591Y0255602D01*
X0025591Y0213365D01*
X0026688Y0210717D01*
X0030625Y0206780D01*
X0032651Y0204753D01*
X0035300Y0203656D01*
X0143197Y0203656D01*
X0196260Y0150593D01*
X0196260Y0108641D01*
X0197357Y0105992D01*
X0260407Y0042942D01*
X0263056Y0041845D01*
X0290863Y0041845D01*
X0293512Y0042942D01*
X0295932Y0045362D01*
X0297029Y0048011D01*
X0297029Y0050877D01*
X0295932Y0053526D01*
X0293905Y0055553D01*
X0291257Y0056650D01*
X0288390Y0056650D01*
X0287440Y0056256D01*
X0267474Y0056256D01*
X0210671Y0113059D01*
X0210671Y0155011D01*
X0209574Y0157660D01*
X0207547Y0159686D01*
X0150263Y0216970D01*
X0147615Y0218067D01*
X0040002Y0218067D01*
X0040002Y0235282D01*
X0040132Y0235152D01*
X0066799Y0235152D01*
X0067561Y0235913D01*
X0067561Y0251669D01*
X0260501Y0251669D01*
X0317324Y0194846D01*
X0317324Y0053929D01*
X0316935Y0053768D01*
X0315500Y0052333D01*
X0314724Y0050459D01*
X0314724Y0048430D01*
X0315500Y0046555D01*
X0316935Y0045121D01*
X0318809Y0044344D01*
X0320838Y0044344D01*
X0322713Y0045121D01*
X0324147Y0046555D01*
X0324924Y0048430D01*
X0324924Y0050459D01*
X0324147Y0052333D01*
X0322713Y0053768D01*
X0322324Y0053929D01*
X0322324Y0196378D01*
X0321943Y0197297D01*
X0262952Y0256288D01*
X0264628Y0254613D02*
X0346240Y0254613D01*
X0345642Y0254014D02*
X0265226Y0254014D01*
X0265825Y0253416D02*
X0345043Y0253416D01*
X0344445Y0252817D02*
X0266423Y0252817D01*
X0267022Y0252219D02*
X0343846Y0252219D01*
X0343247Y0251620D02*
X0267620Y0251620D01*
X0268219Y0251022D02*
X0342649Y0251022D01*
X0342050Y0250423D02*
X0268817Y0250423D01*
X0269416Y0249824D02*
X0341452Y0249824D01*
X0340853Y0249226D02*
X0270014Y0249226D01*
X0270613Y0248627D02*
X0340255Y0248627D01*
X0339656Y0248029D02*
X0271211Y0248029D01*
X0271810Y0247430D02*
X0339058Y0247430D01*
X0338459Y0246832D02*
X0272408Y0246832D01*
X0273007Y0246233D02*
X0337861Y0246233D01*
X0337262Y0245635D02*
X0273605Y0245635D01*
X0274204Y0245036D02*
X0336664Y0245036D01*
X0336065Y0244438D02*
X0274802Y0244438D01*
X0275401Y0243839D02*
X0335467Y0243839D01*
X0334868Y0243241D02*
X0275999Y0243241D01*
X0276598Y0242642D02*
X0334587Y0242642D01*
X0334430Y0242044D02*
X0277196Y0242044D01*
X0277795Y0241445D02*
X0334430Y0241445D01*
X0334430Y0240847D02*
X0278393Y0240847D01*
X0278992Y0240248D02*
X0334430Y0240248D01*
X0334430Y0239650D02*
X0279590Y0239650D01*
X0280189Y0239051D02*
X0334430Y0239051D01*
X0334430Y0238453D02*
X0280787Y0238453D01*
X0281386Y0237854D02*
X0334430Y0237854D01*
X0334430Y0237256D02*
X0281984Y0237256D01*
X0282583Y0236657D02*
X0334430Y0236657D01*
X0334430Y0236059D02*
X0283182Y0236059D01*
X0283780Y0235460D02*
X0334430Y0235460D01*
X0334430Y0234862D02*
X0284379Y0234862D01*
X0284977Y0234263D02*
X0334430Y0234263D01*
X0334430Y0233665D02*
X0285576Y0233665D01*
X0286174Y0233066D02*
X0334430Y0233066D01*
X0334430Y0232468D02*
X0286773Y0232468D01*
X0287371Y0231869D02*
X0334430Y0231869D01*
X0334430Y0231271D02*
X0287970Y0231271D01*
X0288568Y0230672D02*
X0334430Y0230672D01*
X0334430Y0230074D02*
X0289167Y0230074D01*
X0289765Y0229475D02*
X0334430Y0229475D01*
X0334430Y0228877D02*
X0290364Y0228877D01*
X0290962Y0228278D02*
X0334430Y0228278D01*
X0334430Y0227680D02*
X0291561Y0227680D01*
X0292159Y0227081D02*
X0334430Y0227081D01*
X0334430Y0226483D02*
X0292758Y0226483D01*
X0293356Y0225884D02*
X0334430Y0225884D01*
X0334430Y0225286D02*
X0293955Y0225286D01*
X0294553Y0224687D02*
X0334430Y0224687D01*
X0334430Y0224088D02*
X0295152Y0224088D01*
X0295750Y0223490D02*
X0334430Y0223490D01*
X0334430Y0222891D02*
X0296349Y0222891D01*
X0296947Y0222293D02*
X0334430Y0222293D01*
X0334430Y0221694D02*
X0297546Y0221694D01*
X0298144Y0221096D02*
X0334430Y0221096D01*
X0334430Y0220497D02*
X0298743Y0220497D01*
X0299341Y0219899D02*
X0334430Y0219899D01*
X0334430Y0219300D02*
X0299940Y0219300D01*
X0300538Y0218702D02*
X0334430Y0218702D01*
X0334430Y0218103D02*
X0301137Y0218103D01*
X0301735Y0217505D02*
X0334430Y0217505D01*
X0334430Y0216906D02*
X0302334Y0216906D01*
X0302932Y0216308D02*
X0334430Y0216308D01*
X0334430Y0215709D02*
X0303531Y0215709D01*
X0304129Y0215111D02*
X0334430Y0215111D01*
X0334430Y0214512D02*
X0304728Y0214512D01*
X0305326Y0213914D02*
X0334430Y0213914D01*
X0334430Y0213315D02*
X0305925Y0213315D01*
X0306523Y0212717D02*
X0334430Y0212717D01*
X0334430Y0212118D02*
X0307122Y0212118D01*
X0307720Y0211520D02*
X0334430Y0211520D01*
X0334430Y0210921D02*
X0308319Y0210921D01*
X0308918Y0210323D02*
X0334430Y0210323D01*
X0334430Y0209724D02*
X0309516Y0209724D01*
X0310115Y0209126D02*
X0334430Y0209126D01*
X0334430Y0208527D02*
X0310713Y0208527D01*
X0311312Y0207929D02*
X0334430Y0207929D01*
X0334430Y0207330D02*
X0311910Y0207330D01*
X0312509Y0206732D02*
X0334430Y0206732D01*
X0334430Y0206133D02*
X0313107Y0206133D01*
X0313706Y0205535D02*
X0334430Y0205535D01*
X0334430Y0204936D02*
X0314304Y0204936D01*
X0314903Y0204338D02*
X0334430Y0204338D01*
X0334430Y0203739D02*
X0315501Y0203739D01*
X0316100Y0203141D02*
X0334430Y0203141D01*
X0334430Y0202542D02*
X0316698Y0202542D01*
X0317297Y0201944D02*
X0334430Y0201944D01*
X0334430Y0201345D02*
X0317895Y0201345D01*
X0318494Y0200747D02*
X0334430Y0200747D01*
X0334430Y0200148D02*
X0319092Y0200148D01*
X0319691Y0199550D02*
X0334430Y0199550D01*
X0334430Y0198951D02*
X0320289Y0198951D01*
X0320888Y0198353D02*
X0334430Y0198353D01*
X0334430Y0197754D02*
X0321486Y0197754D01*
X0322002Y0197155D02*
X0334430Y0197155D01*
X0334430Y0196557D02*
X0322250Y0196557D01*
X0322324Y0195958D02*
X0334430Y0195958D01*
X0334430Y0195360D02*
X0322324Y0195360D01*
X0322324Y0194761D02*
X0334430Y0194761D01*
X0334430Y0194163D02*
X0322324Y0194163D01*
X0322324Y0193564D02*
X0334430Y0193564D01*
X0334430Y0192966D02*
X0322324Y0192966D01*
X0322324Y0192367D02*
X0334430Y0192367D01*
X0334430Y0191769D02*
X0322324Y0191769D01*
X0322324Y0191170D02*
X0334430Y0191170D01*
X0334430Y0190572D02*
X0322324Y0190572D01*
X0322324Y0189973D02*
X0334430Y0189973D01*
X0334430Y0189375D02*
X0322324Y0189375D01*
X0322324Y0188776D02*
X0334430Y0188776D01*
X0334430Y0188178D02*
X0322324Y0188178D01*
X0322324Y0187579D02*
X0334430Y0187579D01*
X0334430Y0186981D02*
X0322324Y0186981D01*
X0322324Y0186382D02*
X0334430Y0186382D01*
X0334430Y0185784D02*
X0322324Y0185784D01*
X0322324Y0185185D02*
X0334430Y0185185D01*
X0334430Y0184587D02*
X0322324Y0184587D01*
X0322324Y0183988D02*
X0334430Y0183988D01*
X0334430Y0183390D02*
X0322324Y0183390D01*
X0322324Y0182791D02*
X0334430Y0182791D01*
X0334430Y0182193D02*
X0322324Y0182193D01*
X0322324Y0181594D02*
X0334430Y0181594D01*
X0334430Y0180996D02*
X0322324Y0180996D01*
X0322324Y0180397D02*
X0334430Y0180397D01*
X0334430Y0179799D02*
X0322324Y0179799D01*
X0322324Y0179200D02*
X0334430Y0179200D01*
X0334430Y0178602D02*
X0322324Y0178602D01*
X0322324Y0178003D02*
X0334430Y0178003D01*
X0334430Y0177405D02*
X0322324Y0177405D01*
X0322324Y0176806D02*
X0334430Y0176806D01*
X0334430Y0176208D02*
X0322324Y0176208D01*
X0322324Y0175609D02*
X0334430Y0175609D01*
X0334430Y0175011D02*
X0322324Y0175011D01*
X0322324Y0174412D02*
X0334430Y0174412D01*
X0334430Y0173814D02*
X0322324Y0173814D01*
X0322324Y0173215D02*
X0334430Y0173215D01*
X0334430Y0172617D02*
X0322324Y0172617D01*
X0322324Y0172018D02*
X0334430Y0172018D01*
X0334430Y0171420D02*
X0322324Y0171420D01*
X0322324Y0170821D02*
X0334430Y0170821D01*
X0334430Y0170222D02*
X0322324Y0170222D01*
X0322324Y0169624D02*
X0334430Y0169624D01*
X0334430Y0169025D02*
X0322324Y0169025D01*
X0322324Y0168427D02*
X0334430Y0168427D01*
X0334430Y0167828D02*
X0322324Y0167828D01*
X0322324Y0167230D02*
X0334430Y0167230D01*
X0334430Y0166631D02*
X0322324Y0166631D01*
X0322324Y0166033D02*
X0334430Y0166033D01*
X0334430Y0165434D02*
X0322324Y0165434D01*
X0322324Y0164836D02*
X0334430Y0164836D01*
X0334430Y0164237D02*
X0322324Y0164237D01*
X0322324Y0163639D02*
X0334430Y0163639D01*
X0334430Y0163040D02*
X0322324Y0163040D01*
X0322324Y0162442D02*
X0334430Y0162442D01*
X0334430Y0161843D02*
X0322324Y0161843D01*
X0322324Y0161245D02*
X0334430Y0161245D01*
X0334430Y0160646D02*
X0322324Y0160646D01*
X0322324Y0160048D02*
X0334430Y0160048D01*
X0334430Y0159449D02*
X0322324Y0159449D01*
X0322324Y0158851D02*
X0334430Y0158851D01*
X0334430Y0158252D02*
X0322324Y0158252D01*
X0322324Y0157654D02*
X0334430Y0157654D01*
X0334430Y0157055D02*
X0322324Y0157055D01*
X0322324Y0156457D02*
X0334430Y0156457D01*
X0334430Y0155858D02*
X0322324Y0155858D01*
X0322324Y0155260D02*
X0334430Y0155260D01*
X0334430Y0154661D02*
X0322324Y0154661D01*
X0322324Y0154063D02*
X0334430Y0154063D01*
X0334430Y0153464D02*
X0322324Y0153464D01*
X0322324Y0152866D02*
X0334430Y0152866D01*
X0334430Y0152267D02*
X0322324Y0152267D01*
X0322324Y0151669D02*
X0334430Y0151669D01*
X0334430Y0151070D02*
X0322324Y0151070D01*
X0322324Y0150472D02*
X0334430Y0150472D01*
X0334430Y0149873D02*
X0322324Y0149873D01*
X0322324Y0149275D02*
X0334430Y0149275D01*
X0334430Y0148676D02*
X0322324Y0148676D01*
X0322324Y0148078D02*
X0334430Y0148078D01*
X0334430Y0147479D02*
X0322324Y0147479D01*
X0322324Y0146881D02*
X0334430Y0146881D01*
X0334430Y0146282D02*
X0322324Y0146282D01*
X0322324Y0145684D02*
X0334430Y0145684D01*
X0334430Y0145085D02*
X0322324Y0145085D01*
X0322324Y0144486D02*
X0334430Y0144486D01*
X0334430Y0143888D02*
X0322324Y0143888D01*
X0322324Y0143289D02*
X0334430Y0143289D01*
X0334430Y0142691D02*
X0322324Y0142691D01*
X0322324Y0142092D02*
X0334430Y0142092D01*
X0334430Y0141494D02*
X0322324Y0141494D01*
X0322324Y0140895D02*
X0334430Y0140895D01*
X0334430Y0140297D02*
X0322324Y0140297D01*
X0322324Y0139698D02*
X0334430Y0139698D01*
X0334430Y0139100D02*
X0322324Y0139100D01*
X0322324Y0138501D02*
X0334430Y0138501D01*
X0334430Y0137903D02*
X0322324Y0137903D01*
X0322324Y0137304D02*
X0334430Y0137304D01*
X0334430Y0136706D02*
X0322324Y0136706D01*
X0322324Y0136107D02*
X0334430Y0136107D01*
X0334430Y0135509D02*
X0322324Y0135509D01*
X0322324Y0134910D02*
X0334430Y0134910D01*
X0334430Y0134312D02*
X0322324Y0134312D01*
X0322324Y0133713D02*
X0334430Y0133713D01*
X0334430Y0133115D02*
X0322324Y0133115D01*
X0322324Y0132516D02*
X0334430Y0132516D01*
X0334430Y0131918D02*
X0322324Y0131918D01*
X0322324Y0131319D02*
X0334430Y0131319D01*
X0334430Y0130721D02*
X0322324Y0130721D01*
X0322324Y0130122D02*
X0334430Y0130122D01*
X0334430Y0129524D02*
X0322324Y0129524D01*
X0322324Y0128925D02*
X0334430Y0128925D01*
X0334430Y0128327D02*
X0322324Y0128327D01*
X0322324Y0127728D02*
X0334430Y0127728D01*
X0334430Y0127130D02*
X0322324Y0127130D01*
X0322324Y0126531D02*
X0334430Y0126531D01*
X0334430Y0125933D02*
X0322324Y0125933D01*
X0322324Y0125334D02*
X0334430Y0125334D01*
X0334430Y0124736D02*
X0322324Y0124736D01*
X0322324Y0124137D02*
X0334430Y0124137D01*
X0334430Y0123539D02*
X0322324Y0123539D01*
X0322324Y0122940D02*
X0334430Y0122940D01*
X0334430Y0122342D02*
X0322324Y0122342D01*
X0322324Y0121743D02*
X0334430Y0121743D01*
X0334430Y0121145D02*
X0322324Y0121145D01*
X0322324Y0120546D02*
X0334430Y0120546D01*
X0334430Y0119948D02*
X0322324Y0119948D01*
X0322324Y0119349D02*
X0334430Y0119349D01*
X0334430Y0118751D02*
X0322324Y0118751D01*
X0322324Y0118152D02*
X0334430Y0118152D01*
X0334430Y0117553D02*
X0322324Y0117553D01*
X0322324Y0116955D02*
X0334430Y0116955D01*
X0334430Y0116356D02*
X0322324Y0116356D01*
X0322324Y0115758D02*
X0334430Y0115758D01*
X0334430Y0115159D02*
X0322324Y0115159D01*
X0322324Y0114561D02*
X0334430Y0114561D01*
X0334430Y0113962D02*
X0322324Y0113962D01*
X0322324Y0113364D02*
X0334430Y0113364D01*
X0334430Y0112765D02*
X0322324Y0112765D01*
X0322324Y0112167D02*
X0334430Y0112167D01*
X0334430Y0111568D02*
X0322324Y0111568D01*
X0322324Y0110970D02*
X0334430Y0110970D01*
X0334430Y0110371D02*
X0322324Y0110371D01*
X0322324Y0109773D02*
X0334430Y0109773D01*
X0334430Y0109174D02*
X0322324Y0109174D01*
X0322324Y0108576D02*
X0334430Y0108576D01*
X0334430Y0107977D02*
X0322324Y0107977D01*
X0322324Y0107379D02*
X0334430Y0107379D01*
X0334430Y0106780D02*
X0322324Y0106780D01*
X0322324Y0106182D02*
X0334430Y0106182D01*
X0334430Y0105583D02*
X0322324Y0105583D01*
X0322324Y0104985D02*
X0334430Y0104985D01*
X0334430Y0104386D02*
X0322324Y0104386D01*
X0322324Y0103788D02*
X0334430Y0103788D01*
X0334430Y0103189D02*
X0322324Y0103189D01*
X0322324Y0102591D02*
X0334430Y0102591D01*
X0334430Y0101992D02*
X0322324Y0101992D01*
X0322324Y0101394D02*
X0334430Y0101394D01*
X0334430Y0100795D02*
X0322324Y0100795D01*
X0322324Y0100197D02*
X0334430Y0100197D01*
X0334430Y0099598D02*
X0322324Y0099598D01*
X0322324Y0099000D02*
X0334430Y0099000D01*
X0334430Y0098401D02*
X0322324Y0098401D01*
X0322324Y0097803D02*
X0334430Y0097803D01*
X0334430Y0097204D02*
X0322324Y0097204D01*
X0322324Y0096606D02*
X0334430Y0096606D01*
X0334430Y0096007D02*
X0322324Y0096007D01*
X0322324Y0095409D02*
X0334430Y0095409D01*
X0334430Y0094810D02*
X0322324Y0094810D01*
X0322324Y0094212D02*
X0334430Y0094212D01*
X0334430Y0093613D02*
X0322324Y0093613D01*
X0322324Y0093015D02*
X0334430Y0093015D01*
X0334430Y0092416D02*
X0322324Y0092416D01*
X0322324Y0091817D02*
X0334430Y0091817D01*
X0334430Y0091219D02*
X0322324Y0091219D01*
X0322324Y0090620D02*
X0334430Y0090620D01*
X0334430Y0090022D02*
X0322324Y0090022D01*
X0322324Y0089423D02*
X0334430Y0089423D01*
X0334430Y0088825D02*
X0322324Y0088825D01*
X0322324Y0088226D02*
X0334430Y0088226D01*
X0334430Y0087628D02*
X0322324Y0087628D01*
X0322324Y0087029D02*
X0334430Y0087029D01*
X0334430Y0086431D02*
X0322324Y0086431D01*
X0322324Y0085832D02*
X0334430Y0085832D01*
X0334430Y0085234D02*
X0322324Y0085234D01*
X0322324Y0084635D02*
X0334430Y0084635D01*
X0334430Y0084037D02*
X0322324Y0084037D01*
X0322324Y0083438D02*
X0334430Y0083438D01*
X0334430Y0082840D02*
X0322324Y0082840D01*
X0322324Y0082241D02*
X0334430Y0082241D01*
X0334430Y0081643D02*
X0322324Y0081643D01*
X0322324Y0081044D02*
X0334430Y0081044D01*
X0334430Y0080446D02*
X0322324Y0080446D01*
X0322324Y0079847D02*
X0334430Y0079847D01*
X0334430Y0079249D02*
X0322324Y0079249D01*
X0322324Y0078650D02*
X0334430Y0078650D01*
X0334430Y0078052D02*
X0322324Y0078052D01*
X0322324Y0077453D02*
X0334430Y0077453D01*
X0334430Y0076855D02*
X0322324Y0076855D01*
X0322324Y0076256D02*
X0334430Y0076256D01*
X0334430Y0075658D02*
X0322324Y0075658D01*
X0322324Y0075059D02*
X0334430Y0075059D01*
X0334430Y0074461D02*
X0322324Y0074461D01*
X0322324Y0073862D02*
X0334430Y0073862D01*
X0334430Y0073264D02*
X0322324Y0073264D01*
X0322324Y0072665D02*
X0334430Y0072665D01*
X0334430Y0072067D02*
X0322324Y0072067D01*
X0322324Y0071468D02*
X0334430Y0071468D01*
X0334430Y0070870D02*
X0322324Y0070870D01*
X0322324Y0070271D02*
X0334430Y0070271D01*
X0334430Y0069673D02*
X0322324Y0069673D01*
X0322324Y0069074D02*
X0334430Y0069074D01*
X0334430Y0068476D02*
X0322324Y0068476D01*
X0322324Y0067877D02*
X0334430Y0067877D01*
X0334430Y0067279D02*
X0322324Y0067279D01*
X0322324Y0066680D02*
X0334430Y0066680D01*
X0334430Y0066082D02*
X0322324Y0066082D01*
X0322324Y0065483D02*
X0334430Y0065483D01*
X0334430Y0064884D02*
X0322324Y0064884D01*
X0322324Y0064286D02*
X0334430Y0064286D01*
X0334430Y0063687D02*
X0322324Y0063687D01*
X0322324Y0063089D02*
X0334430Y0063089D01*
X0334430Y0062490D02*
X0322324Y0062490D01*
X0322324Y0061892D02*
X0334430Y0061892D01*
X0334430Y0061293D02*
X0322324Y0061293D01*
X0322324Y0060695D02*
X0334430Y0060695D01*
X0334430Y0060096D02*
X0322324Y0060096D01*
X0322324Y0059498D02*
X0334430Y0059498D01*
X0334430Y0058899D02*
X0322324Y0058899D01*
X0322324Y0058301D02*
X0334430Y0058301D01*
X0334430Y0057702D02*
X0322324Y0057702D01*
X0322324Y0057104D02*
X0334430Y0057104D01*
X0334430Y0056505D02*
X0322324Y0056505D01*
X0322324Y0055907D02*
X0334430Y0055907D01*
X0334430Y0055308D02*
X0322324Y0055308D01*
X0322324Y0054710D02*
X0334430Y0054710D01*
X0332764Y0054111D02*
X0322324Y0054111D01*
X0322967Y0053513D02*
X0331680Y0053513D01*
X0331081Y0052914D02*
X0323566Y0052914D01*
X0324154Y0052316D02*
X0330493Y0052316D01*
X0330245Y0051717D02*
X0324402Y0051717D01*
X0324650Y0051119D02*
X0329997Y0051119D01*
X0329749Y0050520D02*
X0324898Y0050520D01*
X0324924Y0049922D02*
X0329724Y0049922D01*
X0329724Y0049323D02*
X0324924Y0049323D01*
X0324924Y0048725D02*
X0329724Y0048725D01*
X0329849Y0048126D02*
X0324798Y0048126D01*
X0324550Y0047528D02*
X0330097Y0047528D01*
X0330345Y0046929D02*
X0324302Y0046929D01*
X0323923Y0046331D02*
X0330725Y0046331D01*
X0331323Y0045732D02*
X0323324Y0045732D01*
X0322726Y0045134D02*
X0331922Y0045134D01*
X0333348Y0044535D02*
X0321299Y0044535D01*
X0318348Y0044535D02*
X0310105Y0044535D01*
X0310703Y0045134D02*
X0316922Y0045134D01*
X0316323Y0045732D02*
X0311085Y0045732D01*
X0310932Y0045362D02*
X0312029Y0048011D01*
X0312029Y0121566D01*
X0310932Y0124215D01*
X0279765Y0155381D01*
X0279765Y0211507D01*
X0278668Y0214156D01*
X0276641Y0216183D01*
X0273993Y0217280D01*
X0271127Y0217280D01*
X0268478Y0216183D01*
X0266451Y0214156D01*
X0265354Y0211507D01*
X0265354Y0150964D01*
X0266451Y0148315D01*
X0297618Y0117148D01*
X0297618Y0048011D01*
X0298715Y0045362D01*
X0300742Y0043336D01*
X0303390Y0042239D01*
X0306257Y0042239D01*
X0308905Y0043336D01*
X0310932Y0045362D01*
X0311333Y0046331D02*
X0315725Y0046331D01*
X0315345Y0046929D02*
X0311581Y0046929D01*
X0311829Y0047528D02*
X0315097Y0047528D01*
X0314849Y0048126D02*
X0312029Y0048126D01*
X0312029Y0048725D02*
X0314724Y0048725D01*
X0314724Y0049323D02*
X0312029Y0049323D01*
X0312029Y0049922D02*
X0314724Y0049922D01*
X0314749Y0050520D02*
X0312029Y0050520D01*
X0312029Y0051119D02*
X0314997Y0051119D01*
X0315245Y0051717D02*
X0312029Y0051717D01*
X0312029Y0052316D02*
X0315493Y0052316D01*
X0316081Y0052914D02*
X0312029Y0052914D01*
X0312029Y0053513D02*
X0316680Y0053513D01*
X0317324Y0054111D02*
X0312029Y0054111D01*
X0312029Y0054710D02*
X0317324Y0054710D01*
X0317324Y0055308D02*
X0312029Y0055308D01*
X0312029Y0055907D02*
X0317324Y0055907D01*
X0317324Y0056505D02*
X0312029Y0056505D01*
X0312029Y0057104D02*
X0317324Y0057104D01*
X0317324Y0057702D02*
X0312029Y0057702D01*
X0312029Y0058301D02*
X0317324Y0058301D01*
X0317324Y0058899D02*
X0312029Y0058899D01*
X0312029Y0059498D02*
X0317324Y0059498D01*
X0317324Y0060096D02*
X0312029Y0060096D01*
X0312029Y0060695D02*
X0317324Y0060695D01*
X0317324Y0061293D02*
X0312029Y0061293D01*
X0312029Y0061892D02*
X0317324Y0061892D01*
X0317324Y0062490D02*
X0312029Y0062490D01*
X0312029Y0063089D02*
X0317324Y0063089D01*
X0317324Y0063687D02*
X0312029Y0063687D01*
X0312029Y0064286D02*
X0317324Y0064286D01*
X0317324Y0064884D02*
X0312029Y0064884D01*
X0312029Y0065483D02*
X0317324Y0065483D01*
X0317324Y0066082D02*
X0312029Y0066082D01*
X0312029Y0066680D02*
X0317324Y0066680D01*
X0317324Y0067279D02*
X0312029Y0067279D01*
X0312029Y0067877D02*
X0317324Y0067877D01*
X0317324Y0068476D02*
X0312029Y0068476D01*
X0312029Y0069074D02*
X0317324Y0069074D01*
X0317324Y0069673D02*
X0312029Y0069673D01*
X0312029Y0070271D02*
X0317324Y0070271D01*
X0317324Y0070870D02*
X0312029Y0070870D01*
X0312029Y0071468D02*
X0317324Y0071468D01*
X0317324Y0072067D02*
X0312029Y0072067D01*
X0312029Y0072665D02*
X0317324Y0072665D01*
X0317324Y0073264D02*
X0312029Y0073264D01*
X0312029Y0073862D02*
X0317324Y0073862D01*
X0317324Y0074461D02*
X0312029Y0074461D01*
X0312029Y0075059D02*
X0317324Y0075059D01*
X0317324Y0075658D02*
X0312029Y0075658D01*
X0312029Y0076256D02*
X0317324Y0076256D01*
X0317324Y0076855D02*
X0312029Y0076855D01*
X0312029Y0077453D02*
X0317324Y0077453D01*
X0317324Y0078052D02*
X0312029Y0078052D01*
X0312029Y0078650D02*
X0317324Y0078650D01*
X0317324Y0079249D02*
X0312029Y0079249D01*
X0312029Y0079847D02*
X0317324Y0079847D01*
X0317324Y0080446D02*
X0312029Y0080446D01*
X0312029Y0081044D02*
X0317324Y0081044D01*
X0317324Y0081643D02*
X0312029Y0081643D01*
X0312029Y0082241D02*
X0317324Y0082241D01*
X0317324Y0082840D02*
X0312029Y0082840D01*
X0312029Y0083438D02*
X0317324Y0083438D01*
X0317324Y0084037D02*
X0312029Y0084037D01*
X0312029Y0084635D02*
X0317324Y0084635D01*
X0317324Y0085234D02*
X0312029Y0085234D01*
X0312029Y0085832D02*
X0317324Y0085832D01*
X0317324Y0086431D02*
X0312029Y0086431D01*
X0312029Y0087029D02*
X0317324Y0087029D01*
X0317324Y0087628D02*
X0312029Y0087628D01*
X0312029Y0088226D02*
X0317324Y0088226D01*
X0317324Y0088825D02*
X0312029Y0088825D01*
X0312029Y0089423D02*
X0317324Y0089423D01*
X0317324Y0090022D02*
X0312029Y0090022D01*
X0312029Y0090620D02*
X0317324Y0090620D01*
X0317324Y0091219D02*
X0312029Y0091219D01*
X0312029Y0091817D02*
X0317324Y0091817D01*
X0317324Y0092416D02*
X0312029Y0092416D01*
X0312029Y0093015D02*
X0317324Y0093015D01*
X0317324Y0093613D02*
X0312029Y0093613D01*
X0312029Y0094212D02*
X0317324Y0094212D01*
X0317324Y0094810D02*
X0312029Y0094810D01*
X0312029Y0095409D02*
X0317324Y0095409D01*
X0317324Y0096007D02*
X0312029Y0096007D01*
X0312029Y0096606D02*
X0317324Y0096606D01*
X0317324Y0097204D02*
X0312029Y0097204D01*
X0312029Y0097803D02*
X0317324Y0097803D01*
X0317324Y0098401D02*
X0312029Y0098401D01*
X0312029Y0099000D02*
X0317324Y0099000D01*
X0317324Y0099598D02*
X0312029Y0099598D01*
X0312029Y0100197D02*
X0317324Y0100197D01*
X0317324Y0100795D02*
X0312029Y0100795D01*
X0312029Y0101394D02*
X0317324Y0101394D01*
X0317324Y0101992D02*
X0312029Y0101992D01*
X0312029Y0102591D02*
X0317324Y0102591D01*
X0317324Y0103189D02*
X0312029Y0103189D01*
X0312029Y0103788D02*
X0317324Y0103788D01*
X0317324Y0104386D02*
X0312029Y0104386D01*
X0312029Y0104985D02*
X0317324Y0104985D01*
X0317324Y0105583D02*
X0312029Y0105583D01*
X0312029Y0106182D02*
X0317324Y0106182D01*
X0317324Y0106780D02*
X0312029Y0106780D01*
X0312029Y0107379D02*
X0317324Y0107379D01*
X0317324Y0107977D02*
X0312029Y0107977D01*
X0312029Y0108576D02*
X0317324Y0108576D01*
X0317324Y0109174D02*
X0312029Y0109174D01*
X0312029Y0109773D02*
X0317324Y0109773D01*
X0317324Y0110371D02*
X0312029Y0110371D01*
X0312029Y0110970D02*
X0317324Y0110970D01*
X0317324Y0111568D02*
X0312029Y0111568D01*
X0312029Y0112167D02*
X0317324Y0112167D01*
X0317324Y0112765D02*
X0312029Y0112765D01*
X0312029Y0113364D02*
X0317324Y0113364D01*
X0317324Y0113962D02*
X0312029Y0113962D01*
X0312029Y0114561D02*
X0317324Y0114561D01*
X0317324Y0115159D02*
X0312029Y0115159D01*
X0312029Y0115758D02*
X0317324Y0115758D01*
X0317324Y0116356D02*
X0312029Y0116356D01*
X0312029Y0116955D02*
X0317324Y0116955D01*
X0317324Y0117553D02*
X0312029Y0117553D01*
X0312029Y0118152D02*
X0317324Y0118152D01*
X0317324Y0118751D02*
X0312029Y0118751D01*
X0312029Y0119349D02*
X0317324Y0119349D01*
X0317324Y0119948D02*
X0312029Y0119948D01*
X0312029Y0120546D02*
X0317324Y0120546D01*
X0317324Y0121145D02*
X0312029Y0121145D01*
X0311956Y0121743D02*
X0317324Y0121743D01*
X0317324Y0122342D02*
X0311708Y0122342D01*
X0311460Y0122940D02*
X0317324Y0122940D01*
X0317324Y0123539D02*
X0311212Y0123539D01*
X0310964Y0124137D02*
X0317324Y0124137D01*
X0317324Y0124736D02*
X0310411Y0124736D01*
X0309813Y0125334D02*
X0317324Y0125334D01*
X0317324Y0125933D02*
X0309214Y0125933D01*
X0308616Y0126531D02*
X0317324Y0126531D01*
X0317324Y0127130D02*
X0308017Y0127130D01*
X0307419Y0127728D02*
X0317324Y0127728D01*
X0317324Y0128327D02*
X0306820Y0128327D01*
X0306222Y0128925D02*
X0317324Y0128925D01*
X0317324Y0129524D02*
X0305623Y0129524D01*
X0305025Y0130122D02*
X0317324Y0130122D01*
X0317324Y0130721D02*
X0304426Y0130721D01*
X0303828Y0131319D02*
X0317324Y0131319D01*
X0317324Y0131918D02*
X0303229Y0131918D01*
X0302631Y0132516D02*
X0317324Y0132516D01*
X0317324Y0133115D02*
X0302032Y0133115D01*
X0301434Y0133713D02*
X0317324Y0133713D01*
X0317324Y0134312D02*
X0300835Y0134312D01*
X0300236Y0134910D02*
X0317324Y0134910D01*
X0317324Y0135509D02*
X0299638Y0135509D01*
X0299039Y0136107D02*
X0317324Y0136107D01*
X0317324Y0136706D02*
X0298441Y0136706D01*
X0297842Y0137304D02*
X0317324Y0137304D01*
X0317324Y0137903D02*
X0297244Y0137903D01*
X0296645Y0138501D02*
X0317324Y0138501D01*
X0317324Y0139100D02*
X0296047Y0139100D01*
X0295448Y0139698D02*
X0317324Y0139698D01*
X0317324Y0140297D02*
X0294850Y0140297D01*
X0294251Y0140895D02*
X0317324Y0140895D01*
X0317324Y0141494D02*
X0293653Y0141494D01*
X0293054Y0142092D02*
X0317324Y0142092D01*
X0317324Y0142691D02*
X0292456Y0142691D01*
X0291857Y0143289D02*
X0317324Y0143289D01*
X0317324Y0143888D02*
X0291259Y0143888D01*
X0290660Y0144486D02*
X0317324Y0144486D01*
X0317324Y0145085D02*
X0290062Y0145085D01*
X0289463Y0145684D02*
X0317324Y0145684D01*
X0317324Y0146282D02*
X0288865Y0146282D01*
X0288266Y0146881D02*
X0317324Y0146881D01*
X0317324Y0147479D02*
X0287668Y0147479D01*
X0287069Y0148078D02*
X0317324Y0148078D01*
X0317324Y0148676D02*
X0286471Y0148676D01*
X0285872Y0149275D02*
X0317324Y0149275D01*
X0317324Y0149873D02*
X0285274Y0149873D01*
X0284675Y0150472D02*
X0317324Y0150472D01*
X0317324Y0151070D02*
X0284077Y0151070D01*
X0283478Y0151669D02*
X0317324Y0151669D01*
X0317324Y0152267D02*
X0282880Y0152267D01*
X0282281Y0152866D02*
X0317324Y0152866D01*
X0317324Y0153464D02*
X0281683Y0153464D01*
X0281084Y0154063D02*
X0317324Y0154063D01*
X0317324Y0154661D02*
X0280486Y0154661D01*
X0279887Y0155260D02*
X0317324Y0155260D01*
X0317324Y0155858D02*
X0279765Y0155858D01*
X0279765Y0156457D02*
X0317324Y0156457D01*
X0317324Y0157055D02*
X0279765Y0157055D01*
X0279765Y0157654D02*
X0317324Y0157654D01*
X0317324Y0158252D02*
X0279765Y0158252D01*
X0279765Y0158851D02*
X0317324Y0158851D01*
X0317324Y0159449D02*
X0279765Y0159449D01*
X0279765Y0160048D02*
X0317324Y0160048D01*
X0317324Y0160646D02*
X0279765Y0160646D01*
X0279765Y0161245D02*
X0317324Y0161245D01*
X0317324Y0161843D02*
X0279765Y0161843D01*
X0279765Y0162442D02*
X0317324Y0162442D01*
X0317324Y0163040D02*
X0279765Y0163040D01*
X0279765Y0163639D02*
X0317324Y0163639D01*
X0317324Y0164237D02*
X0279765Y0164237D01*
X0279765Y0164836D02*
X0317324Y0164836D01*
X0317324Y0165434D02*
X0279765Y0165434D01*
X0279765Y0166033D02*
X0317324Y0166033D01*
X0317324Y0166631D02*
X0279765Y0166631D01*
X0279765Y0167230D02*
X0317324Y0167230D01*
X0317324Y0167828D02*
X0279765Y0167828D01*
X0279765Y0168427D02*
X0317324Y0168427D01*
X0317324Y0169025D02*
X0279765Y0169025D01*
X0279765Y0169624D02*
X0317324Y0169624D01*
X0317324Y0170222D02*
X0279765Y0170222D01*
X0279765Y0170821D02*
X0317324Y0170821D01*
X0317324Y0171420D02*
X0279765Y0171420D01*
X0279765Y0172018D02*
X0317324Y0172018D01*
X0317324Y0172617D02*
X0279765Y0172617D01*
X0279765Y0173215D02*
X0317324Y0173215D01*
X0317324Y0173814D02*
X0279765Y0173814D01*
X0279765Y0174412D02*
X0317324Y0174412D01*
X0317324Y0175011D02*
X0279765Y0175011D01*
X0279765Y0175609D02*
X0317324Y0175609D01*
X0317324Y0176208D02*
X0279765Y0176208D01*
X0279765Y0176806D02*
X0317324Y0176806D01*
X0317324Y0177405D02*
X0279765Y0177405D01*
X0279765Y0178003D02*
X0317324Y0178003D01*
X0317324Y0178602D02*
X0279765Y0178602D01*
X0279765Y0179200D02*
X0317324Y0179200D01*
X0317324Y0179799D02*
X0279765Y0179799D01*
X0279765Y0180397D02*
X0317324Y0180397D01*
X0317324Y0180996D02*
X0279765Y0180996D01*
X0279765Y0181594D02*
X0317324Y0181594D01*
X0317324Y0182193D02*
X0279765Y0182193D01*
X0279765Y0182791D02*
X0317324Y0182791D01*
X0317324Y0183390D02*
X0279765Y0183390D01*
X0279765Y0183988D02*
X0317324Y0183988D01*
X0317324Y0184587D02*
X0279765Y0184587D01*
X0279765Y0185185D02*
X0317324Y0185185D01*
X0317324Y0185784D02*
X0279765Y0185784D01*
X0279765Y0186382D02*
X0317324Y0186382D01*
X0317324Y0186981D02*
X0279765Y0186981D01*
X0279765Y0187579D02*
X0317324Y0187579D01*
X0317324Y0188178D02*
X0279765Y0188178D01*
X0279765Y0188776D02*
X0317324Y0188776D01*
X0317324Y0189375D02*
X0279765Y0189375D01*
X0279765Y0189973D02*
X0317324Y0189973D01*
X0317324Y0190572D02*
X0279765Y0190572D01*
X0279765Y0191170D02*
X0317324Y0191170D01*
X0317324Y0191769D02*
X0279765Y0191769D01*
X0279765Y0192367D02*
X0317324Y0192367D01*
X0317324Y0192966D02*
X0279765Y0192966D01*
X0279765Y0193564D02*
X0317324Y0193564D01*
X0317324Y0194163D02*
X0279765Y0194163D01*
X0279765Y0194761D02*
X0317324Y0194761D01*
X0316809Y0195360D02*
X0279765Y0195360D01*
X0279765Y0195958D02*
X0316211Y0195958D01*
X0315612Y0196557D02*
X0279765Y0196557D01*
X0279765Y0197155D02*
X0315014Y0197155D01*
X0314415Y0197754D02*
X0279765Y0197754D01*
X0279765Y0198353D02*
X0313817Y0198353D01*
X0313218Y0198951D02*
X0279765Y0198951D01*
X0279765Y0199550D02*
X0312620Y0199550D01*
X0312021Y0200148D02*
X0279765Y0200148D01*
X0279765Y0200747D02*
X0311423Y0200747D01*
X0310824Y0201345D02*
X0279765Y0201345D01*
X0279765Y0201944D02*
X0310226Y0201944D01*
X0309627Y0202542D02*
X0279765Y0202542D01*
X0279765Y0203141D02*
X0309029Y0203141D01*
X0308430Y0203739D02*
X0279765Y0203739D01*
X0279765Y0204338D02*
X0307832Y0204338D01*
X0307233Y0204936D02*
X0279765Y0204936D01*
X0279765Y0205535D02*
X0306635Y0205535D01*
X0306036Y0206133D02*
X0279765Y0206133D01*
X0279765Y0206732D02*
X0305438Y0206732D01*
X0304839Y0207330D02*
X0279765Y0207330D01*
X0279765Y0207929D02*
X0304240Y0207929D01*
X0303642Y0208527D02*
X0279765Y0208527D01*
X0279765Y0209126D02*
X0303043Y0209126D01*
X0302445Y0209724D02*
X0279765Y0209724D01*
X0279765Y0210323D02*
X0301846Y0210323D01*
X0301248Y0210921D02*
X0279765Y0210921D01*
X0279760Y0211520D02*
X0300649Y0211520D01*
X0300051Y0212118D02*
X0279512Y0212118D01*
X0279264Y0212717D02*
X0299452Y0212717D01*
X0298854Y0213315D02*
X0279016Y0213315D01*
X0278769Y0213914D02*
X0298255Y0213914D01*
X0297657Y0214512D02*
X0278312Y0214512D01*
X0277713Y0215111D02*
X0297058Y0215111D01*
X0296460Y0215709D02*
X0277115Y0215709D01*
X0276339Y0216308D02*
X0295861Y0216308D01*
X0295263Y0216906D02*
X0274894Y0216906D01*
X0270226Y0216906D02*
X0150327Y0216906D01*
X0150926Y0216308D02*
X0268781Y0216308D01*
X0268005Y0215709D02*
X0151524Y0215709D01*
X0152123Y0215111D02*
X0267407Y0215111D01*
X0266808Y0214512D02*
X0152721Y0214512D01*
X0153320Y0213914D02*
X0266351Y0213914D01*
X0266103Y0213315D02*
X0153918Y0213315D01*
X0154517Y0212717D02*
X0265855Y0212717D01*
X0265607Y0212118D02*
X0155115Y0212118D01*
X0155714Y0211520D02*
X0265360Y0211520D01*
X0265354Y0210921D02*
X0156312Y0210921D01*
X0156911Y0210323D02*
X0265354Y0210323D01*
X0265354Y0209724D02*
X0157509Y0209724D01*
X0158108Y0209126D02*
X0265354Y0209126D01*
X0265354Y0208527D02*
X0158706Y0208527D01*
X0159305Y0207929D02*
X0265354Y0207929D01*
X0265354Y0207330D02*
X0159903Y0207330D01*
X0160502Y0206732D02*
X0265354Y0206732D01*
X0265354Y0206133D02*
X0161100Y0206133D01*
X0161699Y0205535D02*
X0265354Y0205535D01*
X0265354Y0204936D02*
X0162297Y0204936D01*
X0162896Y0204338D02*
X0265354Y0204338D01*
X0265354Y0203739D02*
X0163494Y0203739D01*
X0164093Y0203141D02*
X0265354Y0203141D01*
X0265354Y0202542D02*
X0164691Y0202542D01*
X0165290Y0201944D02*
X0265354Y0201944D01*
X0265354Y0201345D02*
X0165888Y0201345D01*
X0166487Y0200747D02*
X0265354Y0200747D01*
X0265354Y0200148D02*
X0167085Y0200148D01*
X0167684Y0199550D02*
X0265354Y0199550D01*
X0265354Y0198951D02*
X0168282Y0198951D01*
X0168881Y0198353D02*
X0265354Y0198353D01*
X0265354Y0197754D02*
X0169479Y0197754D01*
X0170078Y0197155D02*
X0265354Y0197155D01*
X0265354Y0196557D02*
X0170676Y0196557D01*
X0171275Y0195958D02*
X0265354Y0195958D01*
X0265354Y0195360D02*
X0171873Y0195360D01*
X0172472Y0194761D02*
X0265354Y0194761D01*
X0265354Y0194163D02*
X0173070Y0194163D01*
X0173669Y0193564D02*
X0265354Y0193564D01*
X0265354Y0192966D02*
X0174268Y0192966D01*
X0174866Y0192367D02*
X0265354Y0192367D01*
X0265354Y0191769D02*
X0175465Y0191769D01*
X0176063Y0191170D02*
X0265354Y0191170D01*
X0265354Y0190572D02*
X0176662Y0190572D01*
X0177260Y0189973D02*
X0265354Y0189973D01*
X0265354Y0189375D02*
X0177859Y0189375D01*
X0178457Y0188776D02*
X0265354Y0188776D01*
X0265354Y0188178D02*
X0179056Y0188178D01*
X0179654Y0187579D02*
X0265354Y0187579D01*
X0265354Y0186981D02*
X0180253Y0186981D01*
X0180851Y0186382D02*
X0265354Y0186382D01*
X0265354Y0185784D02*
X0181450Y0185784D01*
X0182048Y0185185D02*
X0265354Y0185185D01*
X0265354Y0184587D02*
X0182647Y0184587D01*
X0183245Y0183988D02*
X0265354Y0183988D01*
X0265354Y0183390D02*
X0183844Y0183390D01*
X0184442Y0182791D02*
X0265354Y0182791D01*
X0265354Y0182193D02*
X0185041Y0182193D01*
X0185639Y0181594D02*
X0265354Y0181594D01*
X0265354Y0180996D02*
X0186238Y0180996D01*
X0186836Y0180397D02*
X0265354Y0180397D01*
X0265354Y0179799D02*
X0187435Y0179799D01*
X0188033Y0179200D02*
X0265354Y0179200D01*
X0265354Y0178602D02*
X0188632Y0178602D01*
X0189230Y0178003D02*
X0265354Y0178003D01*
X0265354Y0177405D02*
X0189829Y0177405D01*
X0190427Y0176806D02*
X0265354Y0176806D01*
X0265354Y0176208D02*
X0191026Y0176208D01*
X0191624Y0175609D02*
X0265354Y0175609D01*
X0265354Y0175011D02*
X0192223Y0175011D01*
X0192821Y0174412D02*
X0265354Y0174412D01*
X0265354Y0173814D02*
X0193420Y0173814D01*
X0194018Y0173215D02*
X0265354Y0173215D01*
X0265354Y0172617D02*
X0194617Y0172617D01*
X0195215Y0172018D02*
X0265354Y0172018D01*
X0265354Y0171420D02*
X0195814Y0171420D01*
X0196412Y0170821D02*
X0265354Y0170821D01*
X0265354Y0170222D02*
X0197011Y0170222D01*
X0197609Y0169624D02*
X0265354Y0169624D01*
X0265354Y0169025D02*
X0198208Y0169025D01*
X0198806Y0168427D02*
X0265354Y0168427D01*
X0265354Y0167828D02*
X0199405Y0167828D01*
X0200003Y0167230D02*
X0265354Y0167230D01*
X0265354Y0166631D02*
X0200602Y0166631D01*
X0201201Y0166033D02*
X0265354Y0166033D01*
X0265354Y0165434D02*
X0201799Y0165434D01*
X0202398Y0164836D02*
X0265354Y0164836D01*
X0265354Y0164237D02*
X0202996Y0164237D01*
X0203595Y0163639D02*
X0265354Y0163639D01*
X0265354Y0163040D02*
X0204193Y0163040D01*
X0204792Y0162442D02*
X0265354Y0162442D01*
X0265354Y0161843D02*
X0205390Y0161843D01*
X0205989Y0161245D02*
X0265354Y0161245D01*
X0265354Y0160646D02*
X0206587Y0160646D01*
X0207186Y0160048D02*
X0265354Y0160048D01*
X0265354Y0159449D02*
X0207784Y0159449D01*
X0208383Y0158851D02*
X0265354Y0158851D01*
X0265354Y0158252D02*
X0208981Y0158252D01*
X0209576Y0157654D02*
X0265354Y0157654D01*
X0265354Y0157055D02*
X0209824Y0157055D01*
X0210072Y0156457D02*
X0265354Y0156457D01*
X0265354Y0155858D02*
X0210320Y0155858D01*
X0210568Y0155260D02*
X0265354Y0155260D01*
X0265354Y0154661D02*
X0210671Y0154661D01*
X0210671Y0154063D02*
X0265354Y0154063D01*
X0265354Y0153464D02*
X0210671Y0153464D01*
X0210671Y0152866D02*
X0265354Y0152866D01*
X0265354Y0152267D02*
X0210671Y0152267D01*
X0210671Y0151669D02*
X0265354Y0151669D01*
X0265354Y0151070D02*
X0210671Y0151070D01*
X0210671Y0150472D02*
X0265558Y0150472D01*
X0265806Y0149873D02*
X0210671Y0149873D01*
X0210671Y0149275D02*
X0266054Y0149275D01*
X0266302Y0148676D02*
X0210671Y0148676D01*
X0210671Y0148078D02*
X0266689Y0148078D01*
X0267288Y0147479D02*
X0210671Y0147479D01*
X0210671Y0146881D02*
X0267886Y0146881D01*
X0268485Y0146282D02*
X0210671Y0146282D01*
X0210671Y0145684D02*
X0269083Y0145684D01*
X0269682Y0145085D02*
X0210671Y0145085D01*
X0210671Y0144486D02*
X0270280Y0144486D01*
X0270879Y0143888D02*
X0210671Y0143888D01*
X0210671Y0143289D02*
X0271477Y0143289D01*
X0272076Y0142691D02*
X0210671Y0142691D01*
X0210671Y0142092D02*
X0272674Y0142092D01*
X0273273Y0141494D02*
X0210671Y0141494D01*
X0210671Y0140895D02*
X0273871Y0140895D01*
X0274470Y0140297D02*
X0210671Y0140297D01*
X0210671Y0139698D02*
X0275068Y0139698D01*
X0275667Y0139100D02*
X0210671Y0139100D01*
X0210671Y0138501D02*
X0276265Y0138501D01*
X0276864Y0137903D02*
X0210671Y0137903D01*
X0210671Y0137304D02*
X0277462Y0137304D01*
X0278061Y0136706D02*
X0210671Y0136706D01*
X0210671Y0136107D02*
X0278659Y0136107D01*
X0279258Y0135509D02*
X0210671Y0135509D01*
X0210671Y0134910D02*
X0279856Y0134910D01*
X0280455Y0134312D02*
X0210671Y0134312D01*
X0210671Y0133713D02*
X0281053Y0133713D01*
X0281652Y0133115D02*
X0210671Y0133115D01*
X0210671Y0132516D02*
X0282250Y0132516D01*
X0282849Y0131918D02*
X0210671Y0131918D01*
X0210671Y0131319D02*
X0283447Y0131319D01*
X0284046Y0130721D02*
X0210671Y0130721D01*
X0210671Y0130122D02*
X0284644Y0130122D01*
X0285243Y0129524D02*
X0210671Y0129524D01*
X0210671Y0128925D02*
X0285841Y0128925D01*
X0286440Y0128327D02*
X0210671Y0128327D01*
X0210671Y0127728D02*
X0287038Y0127728D01*
X0287637Y0127130D02*
X0210671Y0127130D01*
X0210671Y0126531D02*
X0288235Y0126531D01*
X0288834Y0125933D02*
X0210671Y0125933D01*
X0210671Y0125334D02*
X0289432Y0125334D01*
X0290031Y0124736D02*
X0210671Y0124736D01*
X0210671Y0124137D02*
X0290629Y0124137D01*
X0291228Y0123539D02*
X0210671Y0123539D01*
X0210671Y0122940D02*
X0291826Y0122940D01*
X0292425Y0122342D02*
X0210671Y0122342D01*
X0210671Y0121743D02*
X0293023Y0121743D01*
X0293622Y0121145D02*
X0210671Y0121145D01*
X0210671Y0120546D02*
X0294221Y0120546D01*
X0294819Y0119948D02*
X0210671Y0119948D01*
X0210671Y0119349D02*
X0295418Y0119349D01*
X0296016Y0118751D02*
X0210671Y0118751D01*
X0210671Y0118152D02*
X0296615Y0118152D01*
X0297213Y0117553D02*
X0210671Y0117553D01*
X0210671Y0116955D02*
X0297618Y0116955D01*
X0297618Y0116356D02*
X0210671Y0116356D01*
X0210671Y0115758D02*
X0297618Y0115758D01*
X0297618Y0115159D02*
X0210671Y0115159D01*
X0210671Y0114561D02*
X0297618Y0114561D01*
X0297618Y0113962D02*
X0210671Y0113962D01*
X0210671Y0113364D02*
X0297618Y0113364D01*
X0297618Y0112765D02*
X0210964Y0112765D01*
X0211563Y0112167D02*
X0297618Y0112167D01*
X0297618Y0111568D02*
X0212161Y0111568D01*
X0212760Y0110970D02*
X0297618Y0110970D01*
X0297618Y0110371D02*
X0213358Y0110371D01*
X0213957Y0109773D02*
X0297618Y0109773D01*
X0297618Y0109174D02*
X0214555Y0109174D01*
X0215154Y0108576D02*
X0297618Y0108576D01*
X0297618Y0107977D02*
X0215752Y0107977D01*
X0216351Y0107379D02*
X0297618Y0107379D01*
X0297618Y0106780D02*
X0216949Y0106780D01*
X0217548Y0106182D02*
X0297618Y0106182D01*
X0297618Y0105583D02*
X0218146Y0105583D01*
X0218745Y0104985D02*
X0297618Y0104985D01*
X0297618Y0104386D02*
X0219343Y0104386D01*
X0219942Y0103788D02*
X0297618Y0103788D01*
X0297618Y0103189D02*
X0220540Y0103189D01*
X0221139Y0102591D02*
X0297618Y0102591D01*
X0297618Y0101992D02*
X0221737Y0101992D01*
X0222336Y0101394D02*
X0297618Y0101394D01*
X0297618Y0100795D02*
X0222934Y0100795D01*
X0223533Y0100197D02*
X0297618Y0100197D01*
X0297618Y0099598D02*
X0224131Y0099598D01*
X0224730Y0099000D02*
X0297618Y0099000D01*
X0297618Y0098401D02*
X0225328Y0098401D01*
X0225927Y0097803D02*
X0297618Y0097803D01*
X0297618Y0097204D02*
X0226525Y0097204D01*
X0227124Y0096606D02*
X0297618Y0096606D01*
X0297618Y0096007D02*
X0227722Y0096007D01*
X0228321Y0095409D02*
X0297618Y0095409D01*
X0297618Y0094810D02*
X0228919Y0094810D01*
X0229518Y0094212D02*
X0297618Y0094212D01*
X0297618Y0093613D02*
X0230116Y0093613D01*
X0230715Y0093015D02*
X0297618Y0093015D01*
X0297618Y0092416D02*
X0231313Y0092416D01*
X0231912Y0091817D02*
X0297618Y0091817D01*
X0297618Y0091219D02*
X0232510Y0091219D01*
X0233109Y0090620D02*
X0297618Y0090620D01*
X0297618Y0090022D02*
X0233708Y0090022D01*
X0234306Y0089423D02*
X0297618Y0089423D01*
X0297618Y0088825D02*
X0234905Y0088825D01*
X0235503Y0088226D02*
X0297618Y0088226D01*
X0297618Y0087628D02*
X0236102Y0087628D01*
X0236700Y0087029D02*
X0297618Y0087029D01*
X0297618Y0086431D02*
X0237299Y0086431D01*
X0237897Y0085832D02*
X0297618Y0085832D01*
X0297618Y0085234D02*
X0238496Y0085234D01*
X0239094Y0084635D02*
X0297618Y0084635D01*
X0297618Y0084037D02*
X0239693Y0084037D01*
X0240291Y0083438D02*
X0297618Y0083438D01*
X0297618Y0082840D02*
X0240890Y0082840D01*
X0241488Y0082241D02*
X0297618Y0082241D01*
X0297618Y0081643D02*
X0242087Y0081643D01*
X0242685Y0081044D02*
X0297618Y0081044D01*
X0297618Y0080446D02*
X0243284Y0080446D01*
X0243882Y0079847D02*
X0297618Y0079847D01*
X0297618Y0079249D02*
X0244481Y0079249D01*
X0245079Y0078650D02*
X0297618Y0078650D01*
X0297618Y0078052D02*
X0245678Y0078052D01*
X0246276Y0077453D02*
X0297618Y0077453D01*
X0297618Y0076855D02*
X0246875Y0076855D01*
X0247473Y0076256D02*
X0297618Y0076256D01*
X0297618Y0075658D02*
X0248072Y0075658D01*
X0248670Y0075059D02*
X0297618Y0075059D01*
X0297618Y0074461D02*
X0249269Y0074461D01*
X0249867Y0073862D02*
X0297618Y0073862D01*
X0297618Y0073264D02*
X0250466Y0073264D01*
X0251064Y0072665D02*
X0297618Y0072665D01*
X0297618Y0072067D02*
X0251663Y0072067D01*
X0252261Y0071468D02*
X0297618Y0071468D01*
X0297618Y0070870D02*
X0252860Y0070870D01*
X0253458Y0070271D02*
X0297618Y0070271D01*
X0297618Y0069673D02*
X0254057Y0069673D01*
X0254655Y0069074D02*
X0297618Y0069074D01*
X0297618Y0068476D02*
X0255254Y0068476D01*
X0255852Y0067877D02*
X0297618Y0067877D01*
X0297618Y0067279D02*
X0256451Y0067279D01*
X0257049Y0066680D02*
X0297618Y0066680D01*
X0297618Y0066082D02*
X0257648Y0066082D01*
X0258246Y0065483D02*
X0297618Y0065483D01*
X0297618Y0064884D02*
X0258845Y0064884D01*
X0259444Y0064286D02*
X0297618Y0064286D01*
X0297618Y0063687D02*
X0260042Y0063687D01*
X0260641Y0063089D02*
X0297618Y0063089D01*
X0297618Y0062490D02*
X0261239Y0062490D01*
X0261838Y0061892D02*
X0297618Y0061892D01*
X0297618Y0061293D02*
X0262436Y0061293D01*
X0263035Y0060695D02*
X0297618Y0060695D01*
X0297618Y0060096D02*
X0263633Y0060096D01*
X0264232Y0059498D02*
X0297618Y0059498D01*
X0297618Y0058899D02*
X0264830Y0058899D01*
X0265429Y0058301D02*
X0297618Y0058301D01*
X0297618Y0057702D02*
X0266027Y0057702D01*
X0266626Y0057104D02*
X0297618Y0057104D01*
X0297618Y0056505D02*
X0291605Y0056505D01*
X0293050Y0055907D02*
X0297618Y0055907D01*
X0297618Y0055308D02*
X0294150Y0055308D01*
X0294748Y0054710D02*
X0297618Y0054710D01*
X0297618Y0054111D02*
X0295347Y0054111D01*
X0295938Y0053513D02*
X0297618Y0053513D01*
X0297618Y0052914D02*
X0296185Y0052914D01*
X0296433Y0052316D02*
X0297618Y0052316D01*
X0297618Y0051717D02*
X0296681Y0051717D01*
X0296929Y0051119D02*
X0297618Y0051119D01*
X0297618Y0050520D02*
X0297029Y0050520D01*
X0297029Y0049922D02*
X0297618Y0049922D01*
X0297618Y0049323D02*
X0297029Y0049323D01*
X0297029Y0048725D02*
X0297618Y0048725D01*
X0297618Y0048126D02*
X0297029Y0048126D01*
X0296829Y0047528D02*
X0297818Y0047528D01*
X0298066Y0046929D02*
X0296581Y0046929D01*
X0296333Y0046331D02*
X0298314Y0046331D01*
X0298562Y0045732D02*
X0296085Y0045732D01*
X0295703Y0045134D02*
X0298944Y0045134D01*
X0299542Y0044535D02*
X0295105Y0044535D01*
X0294506Y0043937D02*
X0300141Y0043937D01*
X0300740Y0043338D02*
X0293908Y0043338D01*
X0293023Y0042740D02*
X0302181Y0042740D01*
X0307466Y0042740D02*
X0412417Y0042740D01*
X0412417Y0043338D02*
X0308908Y0043338D01*
X0309506Y0043937D02*
X0412417Y0043937D01*
X0412417Y0044535D02*
X0336299Y0044535D01*
X0337726Y0045134D02*
X0412417Y0045134D01*
X0412417Y0045732D02*
X0338324Y0045732D01*
X0338923Y0046331D02*
X0412417Y0046331D01*
X0412417Y0046929D02*
X0339302Y0046929D01*
X0339550Y0047528D02*
X0412417Y0047528D01*
X0412417Y0048126D02*
X0339798Y0048126D01*
X0339924Y0048725D02*
X0412417Y0048725D01*
X0412417Y0049323D02*
X0339924Y0049323D01*
X0339924Y0049922D02*
X0412417Y0049922D01*
X0412417Y0050520D02*
X0339898Y0050520D01*
X0339650Y0051119D02*
X0412417Y0051119D01*
X0412417Y0051717D02*
X0339430Y0051717D01*
X0339430Y0052316D02*
X0412417Y0052316D01*
X0412417Y0052914D02*
X0339430Y0052914D01*
X0339430Y0053513D02*
X0412417Y0053513D01*
X0412417Y0054111D02*
X0339430Y0054111D01*
X0339430Y0054710D02*
X0412417Y0054710D01*
X0412417Y0055308D02*
X0339430Y0055308D01*
X0339430Y0055907D02*
X0412417Y0055907D01*
X0412417Y0056505D02*
X0339430Y0056505D01*
X0339430Y0057104D02*
X0412417Y0057104D01*
X0412417Y0057702D02*
X0339430Y0057702D01*
X0339430Y0058301D02*
X0412417Y0058301D01*
X0412417Y0058899D02*
X0339430Y0058899D01*
X0339430Y0059498D02*
X0412417Y0059498D01*
X0412417Y0060096D02*
X0339430Y0060096D01*
X0339430Y0060695D02*
X0412417Y0060695D01*
X0412417Y0061293D02*
X0339430Y0061293D01*
X0339430Y0061892D02*
X0412417Y0061892D01*
X0412417Y0062490D02*
X0339430Y0062490D01*
X0339430Y0063089D02*
X0412417Y0063089D01*
X0412417Y0063687D02*
X0339430Y0063687D01*
X0339430Y0064286D02*
X0412417Y0064286D01*
X0412417Y0064884D02*
X0339430Y0064884D01*
X0339430Y0065483D02*
X0412417Y0065483D01*
X0412417Y0066082D02*
X0339430Y0066082D01*
X0339430Y0066680D02*
X0412417Y0066680D01*
X0412417Y0067279D02*
X0339430Y0067279D01*
X0339430Y0067877D02*
X0412417Y0067877D01*
X0412417Y0068476D02*
X0339430Y0068476D01*
X0339430Y0069074D02*
X0412417Y0069074D01*
X0412417Y0069673D02*
X0339430Y0069673D01*
X0339430Y0070271D02*
X0412417Y0070271D01*
X0412417Y0070870D02*
X0339430Y0070870D01*
X0339430Y0071468D02*
X0412417Y0071468D01*
X0412417Y0072067D02*
X0339430Y0072067D01*
X0339430Y0072665D02*
X0412417Y0072665D01*
X0412417Y0073264D02*
X0339430Y0073264D01*
X0339430Y0073862D02*
X0412417Y0073862D01*
X0412417Y0074461D02*
X0339430Y0074461D01*
X0339430Y0075059D02*
X0412417Y0075059D01*
X0412417Y0075658D02*
X0339430Y0075658D01*
X0339430Y0076256D02*
X0412417Y0076256D01*
X0412417Y0076855D02*
X0339430Y0076855D01*
X0339430Y0077453D02*
X0412417Y0077453D01*
X0412417Y0078052D02*
X0339430Y0078052D01*
X0339430Y0078650D02*
X0412417Y0078650D01*
X0412417Y0079249D02*
X0339430Y0079249D01*
X0339430Y0079847D02*
X0412417Y0079847D01*
X0412417Y0080446D02*
X0339430Y0080446D01*
X0339430Y0081044D02*
X0412417Y0081044D01*
X0412417Y0081643D02*
X0339430Y0081643D01*
X0339430Y0082241D02*
X0412417Y0082241D01*
X0412417Y0082840D02*
X0339430Y0082840D01*
X0339430Y0083438D02*
X0412417Y0083438D01*
X0412417Y0084037D02*
X0339430Y0084037D01*
X0339430Y0084635D02*
X0412417Y0084635D01*
X0412417Y0085234D02*
X0339430Y0085234D01*
X0339430Y0085832D02*
X0412417Y0085832D01*
X0412417Y0086431D02*
X0339430Y0086431D01*
X0339430Y0087029D02*
X0412417Y0087029D01*
X0412417Y0087628D02*
X0339430Y0087628D01*
X0339430Y0088226D02*
X0412417Y0088226D01*
X0412417Y0088825D02*
X0339430Y0088825D01*
X0339430Y0089423D02*
X0412417Y0089423D01*
X0412417Y0090022D02*
X0339430Y0090022D01*
X0339430Y0090620D02*
X0412417Y0090620D01*
X0412417Y0091219D02*
X0339430Y0091219D01*
X0339430Y0091817D02*
X0412417Y0091817D01*
X0412417Y0092416D02*
X0339430Y0092416D01*
X0339430Y0093015D02*
X0412417Y0093015D01*
X0412417Y0093613D02*
X0339430Y0093613D01*
X0339430Y0094212D02*
X0386864Y0094212D01*
X0386875Y0094207D02*
X0389741Y0094207D01*
X0392389Y0095304D01*
X0410164Y0113079D01*
X0411261Y0115727D01*
X0411261Y0172137D01*
X0410164Y0174786D01*
X0402429Y0182521D01*
X0399781Y0183618D01*
X0396301Y0183618D01*
X0396301Y0193683D01*
X0395539Y0194445D01*
X0368872Y0194445D01*
X0368110Y0193683D01*
X0368110Y0177928D01*
X0359145Y0177928D01*
X0358040Y0179034D01*
X0356477Y0179681D01*
X0354785Y0179681D01*
X0353222Y0179034D01*
X0352025Y0177837D01*
X0351378Y0176274D01*
X0351378Y0174582D01*
X0352025Y0173019D01*
X0353222Y0171823D01*
X0354785Y0171176D01*
X0356477Y0171176D01*
X0358040Y0171823D01*
X0359145Y0172928D01*
X0368110Y0172928D01*
X0368110Y0159142D01*
X0368872Y0158380D01*
X0395539Y0158380D01*
X0396301Y0159142D01*
X0396301Y0168269D01*
X0396850Y0167719D01*
X0396850Y0120145D01*
X0382199Y0105494D01*
X0381102Y0102846D01*
X0381102Y0099979D01*
X0382199Y0097331D01*
X0384226Y0095304D01*
X0386875Y0094207D01*
X0385419Y0094810D02*
X0339430Y0094810D01*
X0339430Y0095409D02*
X0384122Y0095409D01*
X0383523Y0096007D02*
X0339430Y0096007D01*
X0339430Y0096606D02*
X0382925Y0096606D01*
X0382326Y0097204D02*
X0339430Y0097204D01*
X0339430Y0097803D02*
X0382004Y0097803D01*
X0381756Y0098401D02*
X0339430Y0098401D01*
X0339430Y0099000D02*
X0381508Y0099000D01*
X0381260Y0099598D02*
X0339430Y0099598D01*
X0339430Y0100197D02*
X0381102Y0100197D01*
X0381102Y0100795D02*
X0339430Y0100795D01*
X0339430Y0101394D02*
X0381102Y0101394D01*
X0381102Y0101992D02*
X0339430Y0101992D01*
X0339430Y0102591D02*
X0381102Y0102591D01*
X0381245Y0103189D02*
X0339430Y0103189D01*
X0339430Y0103788D02*
X0381492Y0103788D01*
X0381740Y0104386D02*
X0339430Y0104386D01*
X0339430Y0104985D02*
X0381988Y0104985D01*
X0382288Y0105583D02*
X0339430Y0105583D01*
X0339430Y0106182D02*
X0382887Y0106182D01*
X0383485Y0106780D02*
X0339430Y0106780D01*
X0339430Y0107379D02*
X0384084Y0107379D01*
X0384682Y0107977D02*
X0339430Y0107977D01*
X0339430Y0108576D02*
X0385281Y0108576D01*
X0385879Y0109174D02*
X0339430Y0109174D01*
X0339430Y0109773D02*
X0386478Y0109773D01*
X0387077Y0110371D02*
X0339430Y0110371D01*
X0339430Y0110970D02*
X0387675Y0110970D01*
X0388274Y0111568D02*
X0339430Y0111568D01*
X0339430Y0112167D02*
X0388872Y0112167D01*
X0389471Y0112765D02*
X0339430Y0112765D01*
X0339430Y0113364D02*
X0390069Y0113364D01*
X0390668Y0113962D02*
X0339430Y0113962D01*
X0339430Y0114561D02*
X0391266Y0114561D01*
X0391865Y0115159D02*
X0339430Y0115159D01*
X0339430Y0115758D02*
X0392463Y0115758D01*
X0393062Y0116356D02*
X0339430Y0116356D01*
X0339430Y0116955D02*
X0393660Y0116955D01*
X0394259Y0117553D02*
X0339430Y0117553D01*
X0339430Y0118152D02*
X0394857Y0118152D01*
X0395456Y0118751D02*
X0339430Y0118751D01*
X0339430Y0119349D02*
X0396054Y0119349D01*
X0396653Y0119948D02*
X0339430Y0119948D01*
X0339430Y0120546D02*
X0396850Y0120546D01*
X0396850Y0121145D02*
X0339430Y0121145D01*
X0339430Y0121743D02*
X0396850Y0121743D01*
X0396850Y0122342D02*
X0339430Y0122342D01*
X0339430Y0122940D02*
X0396850Y0122940D01*
X0396850Y0123539D02*
X0339430Y0123539D01*
X0339430Y0124137D02*
X0396850Y0124137D01*
X0396850Y0124736D02*
X0339430Y0124736D01*
X0339430Y0125334D02*
X0396850Y0125334D01*
X0396850Y0125933D02*
X0339430Y0125933D01*
X0339430Y0126531D02*
X0396850Y0126531D01*
X0396850Y0127130D02*
X0339430Y0127130D01*
X0339430Y0127728D02*
X0396850Y0127728D01*
X0396850Y0128327D02*
X0339430Y0128327D01*
X0339430Y0128925D02*
X0396850Y0128925D01*
X0396850Y0129524D02*
X0339430Y0129524D01*
X0339430Y0130122D02*
X0396850Y0130122D01*
X0396850Y0130721D02*
X0339430Y0130721D01*
X0339430Y0131319D02*
X0396850Y0131319D01*
X0396850Y0131918D02*
X0339430Y0131918D01*
X0339430Y0132516D02*
X0396850Y0132516D01*
X0396850Y0133115D02*
X0339430Y0133115D01*
X0339430Y0133713D02*
X0396850Y0133713D01*
X0396850Y0134312D02*
X0339430Y0134312D01*
X0339430Y0134910D02*
X0396850Y0134910D01*
X0396850Y0135509D02*
X0339430Y0135509D01*
X0339430Y0136107D02*
X0396850Y0136107D01*
X0396850Y0136706D02*
X0339430Y0136706D01*
X0339430Y0137304D02*
X0396850Y0137304D01*
X0396850Y0137903D02*
X0339430Y0137903D01*
X0339430Y0138501D02*
X0396850Y0138501D01*
X0396850Y0139100D02*
X0339430Y0139100D01*
X0339430Y0139698D02*
X0396850Y0139698D01*
X0396850Y0140297D02*
X0339430Y0140297D01*
X0339430Y0140895D02*
X0396850Y0140895D01*
X0396850Y0141494D02*
X0339430Y0141494D01*
X0339430Y0142092D02*
X0396850Y0142092D01*
X0396850Y0142691D02*
X0339430Y0142691D01*
X0339430Y0143289D02*
X0396850Y0143289D01*
X0396850Y0143888D02*
X0339430Y0143888D01*
X0339430Y0144486D02*
X0396850Y0144486D01*
X0396850Y0145085D02*
X0339430Y0145085D01*
X0339430Y0145684D02*
X0396850Y0145684D01*
X0396850Y0146282D02*
X0339430Y0146282D01*
X0339430Y0146881D02*
X0396850Y0146881D01*
X0396850Y0147479D02*
X0339430Y0147479D01*
X0339430Y0148078D02*
X0396850Y0148078D01*
X0396850Y0148676D02*
X0339430Y0148676D01*
X0339430Y0149275D02*
X0396850Y0149275D01*
X0396850Y0149873D02*
X0339430Y0149873D01*
X0339430Y0150472D02*
X0396850Y0150472D01*
X0396850Y0151070D02*
X0339430Y0151070D01*
X0339430Y0151669D02*
X0396850Y0151669D01*
X0396850Y0152267D02*
X0339430Y0152267D01*
X0339430Y0152866D02*
X0396850Y0152866D01*
X0396850Y0153464D02*
X0339430Y0153464D01*
X0339430Y0154063D02*
X0396850Y0154063D01*
X0396850Y0154661D02*
X0339430Y0154661D01*
X0339430Y0155260D02*
X0396850Y0155260D01*
X0396850Y0155858D02*
X0339430Y0155858D01*
X0339430Y0156457D02*
X0396850Y0156457D01*
X0396850Y0157055D02*
X0339430Y0157055D01*
X0339430Y0157654D02*
X0396850Y0157654D01*
X0396850Y0158252D02*
X0339430Y0158252D01*
X0339430Y0158851D02*
X0368401Y0158851D01*
X0368110Y0159449D02*
X0339430Y0159449D01*
X0339430Y0160048D02*
X0368110Y0160048D01*
X0368110Y0160646D02*
X0339430Y0160646D01*
X0339430Y0161245D02*
X0368110Y0161245D01*
X0368110Y0161843D02*
X0339430Y0161843D01*
X0339430Y0162442D02*
X0368110Y0162442D01*
X0368110Y0163040D02*
X0339430Y0163040D01*
X0339430Y0163639D02*
X0368110Y0163639D01*
X0368110Y0164237D02*
X0339430Y0164237D01*
X0339430Y0164836D02*
X0368110Y0164836D01*
X0368110Y0165434D02*
X0339430Y0165434D01*
X0339430Y0166033D02*
X0368110Y0166033D01*
X0368110Y0166631D02*
X0339430Y0166631D01*
X0339430Y0167230D02*
X0368110Y0167230D01*
X0368110Y0167828D02*
X0339430Y0167828D01*
X0339430Y0168427D02*
X0368110Y0168427D01*
X0368110Y0169025D02*
X0339430Y0169025D01*
X0339430Y0169624D02*
X0368110Y0169624D01*
X0368110Y0170222D02*
X0339430Y0170222D01*
X0339430Y0170821D02*
X0368110Y0170821D01*
X0368110Y0171420D02*
X0357065Y0171420D01*
X0358235Y0172018D02*
X0368110Y0172018D01*
X0368110Y0172617D02*
X0358833Y0172617D01*
X0354196Y0171420D02*
X0339430Y0171420D01*
X0339430Y0172018D02*
X0353027Y0172018D01*
X0352428Y0172617D02*
X0339430Y0172617D01*
X0339430Y0173215D02*
X0351944Y0173215D01*
X0351696Y0173814D02*
X0339430Y0173814D01*
X0339430Y0174412D02*
X0351449Y0174412D01*
X0351378Y0175011D02*
X0339430Y0175011D01*
X0339430Y0175609D02*
X0351378Y0175609D01*
X0351378Y0176208D02*
X0339430Y0176208D01*
X0339430Y0176806D02*
X0351598Y0176806D01*
X0351846Y0177405D02*
X0339430Y0177405D01*
X0339430Y0178003D02*
X0352191Y0178003D01*
X0352790Y0178602D02*
X0339430Y0178602D01*
X0339430Y0179200D02*
X0353624Y0179200D01*
X0357638Y0179200D02*
X0368110Y0179200D01*
X0368110Y0178602D02*
X0358472Y0178602D01*
X0359070Y0178003D02*
X0368110Y0178003D01*
X0368110Y0179799D02*
X0339430Y0179799D01*
X0339430Y0180397D02*
X0368110Y0180397D01*
X0368110Y0180996D02*
X0339430Y0180996D01*
X0339430Y0181594D02*
X0368110Y0181594D01*
X0368110Y0182193D02*
X0339430Y0182193D01*
X0339430Y0182791D02*
X0368110Y0182791D01*
X0368110Y0183390D02*
X0339430Y0183390D01*
X0339430Y0183988D02*
X0368110Y0183988D01*
X0368110Y0184587D02*
X0339430Y0184587D01*
X0339430Y0185185D02*
X0368110Y0185185D01*
X0368110Y0185784D02*
X0339430Y0185784D01*
X0339430Y0186382D02*
X0368110Y0186382D01*
X0368110Y0186981D02*
X0339430Y0186981D01*
X0339430Y0187579D02*
X0368110Y0187579D01*
X0368110Y0188178D02*
X0339430Y0188178D01*
X0339430Y0188776D02*
X0368110Y0188776D01*
X0368110Y0189375D02*
X0339430Y0189375D01*
X0339430Y0189973D02*
X0368110Y0189973D01*
X0368110Y0190572D02*
X0339430Y0190572D01*
X0339430Y0191170D02*
X0368110Y0191170D01*
X0368110Y0191769D02*
X0339430Y0191769D01*
X0339430Y0192367D02*
X0368110Y0192367D01*
X0368110Y0192966D02*
X0339430Y0192966D01*
X0339430Y0193564D02*
X0368110Y0193564D01*
X0368590Y0194163D02*
X0339430Y0194163D01*
X0339430Y0194761D02*
X0412417Y0194761D01*
X0412417Y0194163D02*
X0395821Y0194163D01*
X0396301Y0193564D02*
X0412417Y0193564D01*
X0412417Y0192966D02*
X0396301Y0192966D01*
X0396301Y0192367D02*
X0412417Y0192367D01*
X0412417Y0191769D02*
X0396301Y0191769D01*
X0396301Y0191170D02*
X0412417Y0191170D01*
X0412417Y0190572D02*
X0396301Y0190572D01*
X0396301Y0189973D02*
X0412417Y0189973D01*
X0412417Y0189375D02*
X0396301Y0189375D01*
X0396301Y0188776D02*
X0412417Y0188776D01*
X0412417Y0188178D02*
X0396301Y0188178D01*
X0396301Y0187579D02*
X0412417Y0187579D01*
X0412417Y0186981D02*
X0396301Y0186981D01*
X0396301Y0186382D02*
X0412417Y0186382D01*
X0412417Y0185784D02*
X0396301Y0185784D01*
X0396301Y0185185D02*
X0412417Y0185185D01*
X0412417Y0184587D02*
X0396301Y0184587D01*
X0396301Y0183988D02*
X0412417Y0183988D01*
X0412417Y0183390D02*
X0400332Y0183390D01*
X0401777Y0182791D02*
X0412417Y0182791D01*
X0412417Y0182193D02*
X0402757Y0182193D01*
X0403356Y0181594D02*
X0412417Y0181594D01*
X0412417Y0180996D02*
X0403954Y0180996D01*
X0404553Y0180397D02*
X0412417Y0180397D01*
X0412417Y0179799D02*
X0405151Y0179799D01*
X0405750Y0179200D02*
X0412417Y0179200D01*
X0412417Y0178602D02*
X0406348Y0178602D01*
X0406947Y0178003D02*
X0412417Y0178003D01*
X0412417Y0177405D02*
X0407545Y0177405D01*
X0408144Y0176806D02*
X0412417Y0176806D01*
X0412417Y0176208D02*
X0408742Y0176208D01*
X0409341Y0175609D02*
X0412417Y0175609D01*
X0412417Y0175011D02*
X0409939Y0175011D01*
X0410319Y0174412D02*
X0412417Y0174412D01*
X0412417Y0173814D02*
X0410567Y0173814D01*
X0410815Y0173215D02*
X0412417Y0173215D01*
X0412417Y0172617D02*
X0411063Y0172617D01*
X0411261Y0172018D02*
X0412417Y0172018D01*
X0412417Y0171420D02*
X0411261Y0171420D01*
X0411261Y0170821D02*
X0412417Y0170821D01*
X0412417Y0170222D02*
X0411261Y0170222D01*
X0411261Y0169624D02*
X0412417Y0169624D01*
X0412417Y0169025D02*
X0411261Y0169025D01*
X0411261Y0168427D02*
X0412417Y0168427D01*
X0412417Y0167828D02*
X0411261Y0167828D01*
X0411261Y0167230D02*
X0412417Y0167230D01*
X0412417Y0166631D02*
X0411261Y0166631D01*
X0411261Y0166033D02*
X0412417Y0166033D01*
X0412417Y0165434D02*
X0411261Y0165434D01*
X0411261Y0164836D02*
X0412417Y0164836D01*
X0412417Y0164237D02*
X0411261Y0164237D01*
X0411261Y0163639D02*
X0412417Y0163639D01*
X0412417Y0163040D02*
X0411261Y0163040D01*
X0411261Y0162442D02*
X0412417Y0162442D01*
X0412417Y0161843D02*
X0411261Y0161843D01*
X0411261Y0161245D02*
X0412417Y0161245D01*
X0412417Y0160646D02*
X0411261Y0160646D01*
X0411261Y0160048D02*
X0412417Y0160048D01*
X0412417Y0159449D02*
X0411261Y0159449D01*
X0411261Y0158851D02*
X0412417Y0158851D01*
X0412417Y0158252D02*
X0411261Y0158252D01*
X0411261Y0157654D02*
X0412417Y0157654D01*
X0412417Y0157055D02*
X0411261Y0157055D01*
X0411261Y0156457D02*
X0412417Y0156457D01*
X0412417Y0155858D02*
X0411261Y0155858D01*
X0411261Y0155260D02*
X0412417Y0155260D01*
X0412417Y0154661D02*
X0411261Y0154661D01*
X0411261Y0154063D02*
X0412417Y0154063D01*
X0412417Y0153464D02*
X0411261Y0153464D01*
X0411261Y0152866D02*
X0412417Y0152866D01*
X0412417Y0152267D02*
X0411261Y0152267D01*
X0411261Y0151669D02*
X0412417Y0151669D01*
X0412417Y0151070D02*
X0411261Y0151070D01*
X0411261Y0150472D02*
X0412417Y0150472D01*
X0412417Y0149873D02*
X0411261Y0149873D01*
X0411261Y0149275D02*
X0412417Y0149275D01*
X0412417Y0148676D02*
X0411261Y0148676D01*
X0411261Y0148078D02*
X0412417Y0148078D01*
X0412417Y0147479D02*
X0411261Y0147479D01*
X0411261Y0146881D02*
X0412417Y0146881D01*
X0412417Y0146282D02*
X0411261Y0146282D01*
X0411261Y0145684D02*
X0412417Y0145684D01*
X0412417Y0145085D02*
X0411261Y0145085D01*
X0411261Y0144486D02*
X0412417Y0144486D01*
X0412417Y0143888D02*
X0411261Y0143888D01*
X0411261Y0143289D02*
X0412417Y0143289D01*
X0412417Y0142691D02*
X0411261Y0142691D01*
X0411261Y0142092D02*
X0412417Y0142092D01*
X0412417Y0141494D02*
X0411261Y0141494D01*
X0411261Y0140895D02*
X0412417Y0140895D01*
X0412417Y0140297D02*
X0411261Y0140297D01*
X0411261Y0139698D02*
X0412417Y0139698D01*
X0412417Y0139100D02*
X0411261Y0139100D01*
X0411261Y0138501D02*
X0412417Y0138501D01*
X0412417Y0137903D02*
X0411261Y0137903D01*
X0411261Y0137304D02*
X0412417Y0137304D01*
X0412417Y0136706D02*
X0411261Y0136706D01*
X0411261Y0136107D02*
X0412417Y0136107D01*
X0412417Y0135509D02*
X0411261Y0135509D01*
X0411261Y0134910D02*
X0412417Y0134910D01*
X0412417Y0134312D02*
X0411261Y0134312D01*
X0411261Y0133713D02*
X0412417Y0133713D01*
X0412417Y0133115D02*
X0411261Y0133115D01*
X0411261Y0132516D02*
X0412417Y0132516D01*
X0412417Y0131918D02*
X0411261Y0131918D01*
X0411261Y0131319D02*
X0412417Y0131319D01*
X0412417Y0130721D02*
X0411261Y0130721D01*
X0411261Y0130122D02*
X0412417Y0130122D01*
X0412417Y0129524D02*
X0411261Y0129524D01*
X0411261Y0128925D02*
X0412417Y0128925D01*
X0412417Y0128327D02*
X0411261Y0128327D01*
X0411261Y0127728D02*
X0412417Y0127728D01*
X0412417Y0127130D02*
X0411261Y0127130D01*
X0411261Y0126531D02*
X0412417Y0126531D01*
X0412417Y0125933D02*
X0411261Y0125933D01*
X0411261Y0125334D02*
X0412417Y0125334D01*
X0412417Y0124736D02*
X0411261Y0124736D01*
X0411261Y0124137D02*
X0412417Y0124137D01*
X0412417Y0123539D02*
X0411261Y0123539D01*
X0411261Y0122940D02*
X0412417Y0122940D01*
X0412417Y0122342D02*
X0411261Y0122342D01*
X0411261Y0121743D02*
X0412417Y0121743D01*
X0412417Y0121145D02*
X0411261Y0121145D01*
X0411261Y0120546D02*
X0412417Y0120546D01*
X0412417Y0119948D02*
X0411261Y0119948D01*
X0411261Y0119349D02*
X0412417Y0119349D01*
X0412417Y0118751D02*
X0411261Y0118751D01*
X0411261Y0118152D02*
X0412417Y0118152D01*
X0412417Y0117553D02*
X0411261Y0117553D01*
X0411261Y0116955D02*
X0412417Y0116955D01*
X0412417Y0116356D02*
X0411261Y0116356D01*
X0411261Y0115758D02*
X0412417Y0115758D01*
X0412417Y0115159D02*
X0411026Y0115159D01*
X0410778Y0114561D02*
X0412417Y0114561D01*
X0412417Y0113962D02*
X0410530Y0113962D01*
X0410282Y0113364D02*
X0412417Y0113364D01*
X0412417Y0112765D02*
X0409851Y0112765D01*
X0409252Y0112167D02*
X0412417Y0112167D01*
X0412417Y0111568D02*
X0408654Y0111568D01*
X0408055Y0110970D02*
X0412417Y0110970D01*
X0412417Y0110371D02*
X0407457Y0110371D01*
X0406858Y0109773D02*
X0412417Y0109773D01*
X0412417Y0109174D02*
X0406260Y0109174D01*
X0405661Y0108576D02*
X0412417Y0108576D01*
X0412417Y0107977D02*
X0405063Y0107977D01*
X0404464Y0107379D02*
X0412417Y0107379D01*
X0412417Y0106780D02*
X0403866Y0106780D01*
X0403267Y0106182D02*
X0412417Y0106182D01*
X0412417Y0105583D02*
X0402669Y0105583D01*
X0402070Y0104985D02*
X0412417Y0104985D01*
X0412417Y0104386D02*
X0401472Y0104386D01*
X0400873Y0103788D02*
X0412417Y0103788D01*
X0412417Y0103189D02*
X0400275Y0103189D01*
X0399676Y0102591D02*
X0412417Y0102591D01*
X0412417Y0101992D02*
X0399078Y0101992D01*
X0398479Y0101394D02*
X0412417Y0101394D01*
X0412417Y0100795D02*
X0397881Y0100795D01*
X0397282Y0100197D02*
X0412417Y0100197D01*
X0412417Y0099598D02*
X0396684Y0099598D01*
X0396085Y0099000D02*
X0412417Y0099000D01*
X0412417Y0098401D02*
X0395487Y0098401D01*
X0394888Y0097803D02*
X0412417Y0097803D01*
X0412417Y0097204D02*
X0394289Y0097204D01*
X0393691Y0096606D02*
X0412417Y0096606D01*
X0412417Y0096007D02*
X0393092Y0096007D01*
X0392494Y0095409D02*
X0412417Y0095409D01*
X0412417Y0094810D02*
X0391197Y0094810D01*
X0389752Y0094212D02*
X0412417Y0094212D01*
X0412417Y0042141D02*
X0291578Y0042141D01*
X0288042Y0056505D02*
X0267224Y0056505D01*
X0257019Y0046331D02*
X0233465Y0046331D01*
X0233082Y0046206D02*
X0233866Y0046461D01*
X0234600Y0046835D01*
X0235267Y0047320D01*
X0235850Y0047902D01*
X0236335Y0048569D01*
X0236709Y0049304D01*
X0236964Y0050088D01*
X0237093Y0050902D01*
X0237093Y0051014D01*
X0232156Y0051014D01*
X0232156Y0051614D01*
X0237093Y0051614D01*
X0237093Y0051726D01*
X0236964Y0052541D01*
X0236709Y0053324D01*
X0236335Y0054059D01*
X0235850Y0054726D01*
X0235267Y0055309D01*
X0234600Y0055793D01*
X0233866Y0056167D01*
X0233082Y0056422D01*
X0232268Y0056551D01*
X0232155Y0056551D01*
X0232155Y0051614D01*
X0231556Y0051614D01*
X0231556Y0056551D01*
X0231443Y0056551D01*
X0230629Y0056422D01*
X0229845Y0056167D01*
X0229111Y0055793D01*
X0228444Y0055309D01*
X0227861Y0054726D01*
X0227376Y0054059D01*
X0227002Y0053324D01*
X0226747Y0052541D01*
X0226619Y0051726D01*
X0226618Y0051614D01*
X0231555Y0051614D01*
X0231555Y0051014D01*
X0226619Y0051014D01*
X0226619Y0050902D01*
X0226747Y0050088D01*
X0227002Y0049304D01*
X0227376Y0048569D01*
X0227861Y0047902D01*
X0228444Y0047320D01*
X0229111Y0046835D01*
X0229845Y0046461D01*
X0230629Y0046206D01*
X0231443Y0046077D01*
X0231556Y0046077D01*
X0231556Y0051014D01*
X0232155Y0051014D01*
X0232155Y0046077D01*
X0232268Y0046077D01*
X0233082Y0046206D01*
X0232155Y0046331D02*
X0231556Y0046331D01*
X0231556Y0046929D02*
X0232155Y0046929D01*
X0232155Y0047528D02*
X0231556Y0047528D01*
X0231556Y0048126D02*
X0232155Y0048126D01*
X0232155Y0048725D02*
X0231556Y0048725D01*
X0231556Y0049323D02*
X0232155Y0049323D01*
X0232155Y0049922D02*
X0231556Y0049922D01*
X0231556Y0050520D02*
X0232155Y0050520D01*
X0232156Y0051119D02*
X0252231Y0051119D01*
X0252829Y0050520D02*
X0237032Y0050520D01*
X0236910Y0049922D02*
X0253428Y0049922D01*
X0254026Y0049323D02*
X0236715Y0049323D01*
X0236414Y0048725D02*
X0254625Y0048725D01*
X0255223Y0048126D02*
X0236013Y0048126D01*
X0235475Y0047528D02*
X0255822Y0047528D01*
X0256420Y0046929D02*
X0234730Y0046929D01*
X0230246Y0046331D02*
X0213465Y0046331D01*
X0213082Y0046206D02*
X0213866Y0046461D01*
X0214600Y0046835D01*
X0215267Y0047320D01*
X0215850Y0047902D01*
X0216335Y0048569D01*
X0216709Y0049304D01*
X0216964Y0050088D01*
X0217093Y0050902D01*
X0217093Y0051014D01*
X0212156Y0051014D01*
X0212156Y0051614D01*
X0217093Y0051614D01*
X0217093Y0051726D01*
X0216964Y0052541D01*
X0216709Y0053324D01*
X0216335Y0054059D01*
X0215850Y0054726D01*
X0215267Y0055309D01*
X0214600Y0055793D01*
X0213866Y0056167D01*
X0213082Y0056422D01*
X0212268Y0056551D01*
X0212155Y0056551D01*
X0212155Y0051614D01*
X0211556Y0051614D01*
X0211556Y0056551D01*
X0211443Y0056551D01*
X0210629Y0056422D01*
X0209845Y0056167D01*
X0209111Y0055793D01*
X0208444Y0055309D01*
X0207861Y0054726D01*
X0207376Y0054059D01*
X0207002Y0053324D01*
X0206747Y0052541D01*
X0206619Y0051726D01*
X0206618Y0051614D01*
X0211555Y0051614D01*
X0211555Y0051014D01*
X0206619Y0051014D01*
X0206619Y0050902D01*
X0206747Y0050088D01*
X0207002Y0049304D01*
X0207376Y0048569D01*
X0207861Y0047902D01*
X0208444Y0047320D01*
X0209111Y0046835D01*
X0209845Y0046461D01*
X0210629Y0046206D01*
X0211443Y0046077D01*
X0211556Y0046077D01*
X0211556Y0051014D01*
X0212155Y0051014D01*
X0212155Y0046077D01*
X0212268Y0046077D01*
X0213082Y0046206D01*
X0212155Y0046331D02*
X0211556Y0046331D01*
X0211556Y0046929D02*
X0212155Y0046929D01*
X0212155Y0047528D02*
X0211556Y0047528D01*
X0211556Y0048126D02*
X0212155Y0048126D01*
X0212155Y0048725D02*
X0211556Y0048725D01*
X0211556Y0049323D02*
X0212155Y0049323D01*
X0212155Y0049922D02*
X0211556Y0049922D01*
X0211556Y0050520D02*
X0212155Y0050520D01*
X0212156Y0051119D02*
X0231555Y0051119D01*
X0231556Y0051717D02*
X0232155Y0051717D01*
X0232155Y0052316D02*
X0231556Y0052316D01*
X0231556Y0052914D02*
X0232155Y0052914D01*
X0232155Y0053513D02*
X0231556Y0053513D01*
X0231556Y0054111D02*
X0232155Y0054111D01*
X0232155Y0054710D02*
X0231556Y0054710D01*
X0231556Y0055308D02*
X0232155Y0055308D01*
X0232155Y0055907D02*
X0231556Y0055907D01*
X0231556Y0056505D02*
X0232155Y0056505D01*
X0232557Y0056505D02*
X0246844Y0056505D01*
X0247442Y0055907D02*
X0234377Y0055907D01*
X0235268Y0055308D02*
X0248041Y0055308D01*
X0248639Y0054710D02*
X0235862Y0054710D01*
X0236297Y0054111D02*
X0249238Y0054111D01*
X0249836Y0053513D02*
X0236613Y0053513D01*
X0236842Y0052914D02*
X0250435Y0052914D01*
X0251033Y0052316D02*
X0236999Y0052316D01*
X0237093Y0051717D02*
X0251632Y0051717D01*
X0257617Y0045732D02*
X0165096Y0045732D01*
X0165694Y0046331D02*
X0210246Y0046331D01*
X0208981Y0046929D02*
X0166074Y0046929D01*
X0165919Y0046555D02*
X0166695Y0048430D01*
X0166695Y0050459D01*
X0165919Y0052333D01*
X0164484Y0053768D01*
X0164095Y0053929D01*
X0164095Y0141648D01*
X0165266Y0141648D01*
X0167757Y0144139D01*
X0167757Y0147662D01*
X0165266Y0150154D01*
X0161743Y0150154D01*
X0159252Y0147662D01*
X0159252Y0144867D01*
X0159095Y0144489D01*
X0159095Y0053929D01*
X0158706Y0053768D01*
X0157272Y0052333D01*
X0156495Y0050459D01*
X0156495Y0048430D01*
X0157272Y0046555D01*
X0158706Y0045121D01*
X0160581Y0044344D01*
X0162610Y0044344D01*
X0164484Y0045121D01*
X0165919Y0046555D01*
X0166322Y0047528D02*
X0208236Y0047528D01*
X0207698Y0048126D02*
X0166570Y0048126D01*
X0166695Y0048725D02*
X0207297Y0048725D01*
X0206996Y0049323D02*
X0166695Y0049323D01*
X0166695Y0049922D02*
X0206801Y0049922D01*
X0206679Y0050520D02*
X0166670Y0050520D01*
X0166422Y0051119D02*
X0211555Y0051119D01*
X0211556Y0051717D02*
X0212155Y0051717D01*
X0212155Y0052316D02*
X0211556Y0052316D01*
X0211556Y0052914D02*
X0212155Y0052914D01*
X0212155Y0053513D02*
X0211556Y0053513D01*
X0211556Y0054111D02*
X0212155Y0054111D01*
X0212155Y0054710D02*
X0211556Y0054710D01*
X0211556Y0055308D02*
X0212155Y0055308D01*
X0212155Y0055907D02*
X0211556Y0055907D01*
X0211556Y0056505D02*
X0212155Y0056505D01*
X0212557Y0056505D02*
X0231154Y0056505D01*
X0229334Y0055907D02*
X0214377Y0055907D01*
X0215268Y0055308D02*
X0228443Y0055308D01*
X0227849Y0054710D02*
X0215862Y0054710D01*
X0216297Y0054111D02*
X0227414Y0054111D01*
X0227098Y0053513D02*
X0216613Y0053513D01*
X0216842Y0052914D02*
X0226869Y0052914D01*
X0226712Y0052316D02*
X0216999Y0052316D01*
X0217093Y0051717D02*
X0226619Y0051717D01*
X0226679Y0050520D02*
X0217032Y0050520D01*
X0216910Y0049922D02*
X0226801Y0049922D01*
X0226996Y0049323D02*
X0216715Y0049323D01*
X0216414Y0048725D02*
X0227297Y0048725D01*
X0227698Y0048126D02*
X0216013Y0048126D01*
X0215475Y0047528D02*
X0228236Y0047528D01*
X0228981Y0046929D02*
X0214730Y0046929D01*
X0206619Y0051717D02*
X0166174Y0051717D01*
X0165926Y0052316D02*
X0206712Y0052316D01*
X0206869Y0052914D02*
X0165338Y0052914D01*
X0164739Y0053513D02*
X0207098Y0053513D01*
X0207414Y0054111D02*
X0164095Y0054111D01*
X0164095Y0054710D02*
X0207849Y0054710D01*
X0208443Y0055308D02*
X0164095Y0055308D01*
X0164095Y0055907D02*
X0209334Y0055907D01*
X0211154Y0056505D02*
X0164095Y0056505D01*
X0164095Y0057104D02*
X0246245Y0057104D01*
X0245647Y0057702D02*
X0164095Y0057702D01*
X0164095Y0058301D02*
X0245048Y0058301D01*
X0244450Y0058899D02*
X0164095Y0058899D01*
X0164095Y0059498D02*
X0243851Y0059498D01*
X0243253Y0060096D02*
X0164095Y0060096D01*
X0164095Y0060695D02*
X0242654Y0060695D01*
X0242056Y0061293D02*
X0164095Y0061293D01*
X0164095Y0061892D02*
X0241457Y0061892D01*
X0240859Y0062490D02*
X0164095Y0062490D01*
X0164095Y0063089D02*
X0240260Y0063089D01*
X0239662Y0063687D02*
X0164095Y0063687D01*
X0164095Y0064286D02*
X0239063Y0064286D01*
X0238465Y0064884D02*
X0164095Y0064884D01*
X0164095Y0065483D02*
X0237866Y0065483D01*
X0237268Y0066082D02*
X0164095Y0066082D01*
X0164095Y0066680D02*
X0236669Y0066680D01*
X0236071Y0067279D02*
X0164095Y0067279D01*
X0164095Y0067877D02*
X0235472Y0067877D01*
X0234874Y0068476D02*
X0164095Y0068476D01*
X0164095Y0069074D02*
X0234275Y0069074D01*
X0233677Y0069673D02*
X0164095Y0069673D01*
X0164095Y0070271D02*
X0233078Y0070271D01*
X0232480Y0070870D02*
X0164095Y0070870D01*
X0164095Y0071468D02*
X0231881Y0071468D01*
X0231283Y0072067D02*
X0164095Y0072067D01*
X0164095Y0072665D02*
X0230684Y0072665D01*
X0230086Y0073264D02*
X0164095Y0073264D01*
X0164095Y0073862D02*
X0229487Y0073862D01*
X0228889Y0074461D02*
X0164095Y0074461D01*
X0164095Y0075059D02*
X0228290Y0075059D01*
X0227692Y0075658D02*
X0164095Y0075658D01*
X0164095Y0076256D02*
X0227093Y0076256D01*
X0226495Y0076855D02*
X0164095Y0076855D01*
X0164095Y0077453D02*
X0225896Y0077453D01*
X0225298Y0078052D02*
X0164095Y0078052D01*
X0164095Y0078650D02*
X0224699Y0078650D01*
X0224100Y0079249D02*
X0164095Y0079249D01*
X0164095Y0079847D02*
X0223502Y0079847D01*
X0222903Y0080446D02*
X0164095Y0080446D01*
X0164095Y0081044D02*
X0222305Y0081044D01*
X0221706Y0081643D02*
X0164095Y0081643D01*
X0164095Y0082241D02*
X0221108Y0082241D01*
X0220509Y0082840D02*
X0164095Y0082840D01*
X0164095Y0083438D02*
X0219911Y0083438D01*
X0219312Y0084037D02*
X0164095Y0084037D01*
X0164095Y0084635D02*
X0218714Y0084635D01*
X0218115Y0085234D02*
X0164095Y0085234D01*
X0164095Y0085832D02*
X0217517Y0085832D01*
X0216918Y0086431D02*
X0164095Y0086431D01*
X0164095Y0087029D02*
X0216320Y0087029D01*
X0215721Y0087628D02*
X0164095Y0087628D01*
X0164095Y0088226D02*
X0215123Y0088226D01*
X0214524Y0088825D02*
X0164095Y0088825D01*
X0164095Y0089423D02*
X0213926Y0089423D01*
X0213327Y0090022D02*
X0164095Y0090022D01*
X0164095Y0090620D02*
X0212729Y0090620D01*
X0212130Y0091219D02*
X0164095Y0091219D01*
X0164095Y0091817D02*
X0211532Y0091817D01*
X0210933Y0092416D02*
X0164095Y0092416D01*
X0164095Y0093015D02*
X0210335Y0093015D01*
X0209736Y0093613D02*
X0164095Y0093613D01*
X0164095Y0094212D02*
X0209138Y0094212D01*
X0208539Y0094810D02*
X0164095Y0094810D01*
X0164095Y0095409D02*
X0207941Y0095409D01*
X0207342Y0096007D02*
X0164095Y0096007D01*
X0164095Y0096606D02*
X0206744Y0096606D01*
X0206145Y0097204D02*
X0164095Y0097204D01*
X0164095Y0097803D02*
X0205547Y0097803D01*
X0204948Y0098401D02*
X0164095Y0098401D01*
X0164095Y0099000D02*
X0204350Y0099000D01*
X0203751Y0099598D02*
X0164095Y0099598D01*
X0164095Y0100197D02*
X0203153Y0100197D01*
X0202554Y0100795D02*
X0164095Y0100795D01*
X0164095Y0101394D02*
X0201956Y0101394D01*
X0201357Y0101992D02*
X0164095Y0101992D01*
X0164095Y0102591D02*
X0200759Y0102591D01*
X0200160Y0103189D02*
X0164095Y0103189D01*
X0164095Y0103788D02*
X0199562Y0103788D01*
X0198963Y0104386D02*
X0164095Y0104386D01*
X0164095Y0104985D02*
X0198364Y0104985D01*
X0197766Y0105583D02*
X0164095Y0105583D01*
X0164095Y0106182D02*
X0197278Y0106182D01*
X0197030Y0106780D02*
X0164095Y0106780D01*
X0164095Y0107379D02*
X0196783Y0107379D01*
X0196535Y0107977D02*
X0164095Y0107977D01*
X0164095Y0108576D02*
X0196287Y0108576D01*
X0196260Y0109174D02*
X0164095Y0109174D01*
X0164095Y0109773D02*
X0196260Y0109773D01*
X0196260Y0110371D02*
X0164095Y0110371D01*
X0164095Y0110970D02*
X0196260Y0110970D01*
X0196260Y0111568D02*
X0164095Y0111568D01*
X0164095Y0112167D02*
X0196260Y0112167D01*
X0196260Y0112765D02*
X0164095Y0112765D01*
X0164095Y0113364D02*
X0196260Y0113364D01*
X0196260Y0113962D02*
X0164095Y0113962D01*
X0164095Y0114561D02*
X0196260Y0114561D01*
X0196260Y0115159D02*
X0164095Y0115159D01*
X0164095Y0115758D02*
X0196260Y0115758D01*
X0196260Y0116356D02*
X0164095Y0116356D01*
X0164095Y0116955D02*
X0196260Y0116955D01*
X0196260Y0117553D02*
X0164095Y0117553D01*
X0164095Y0118152D02*
X0196260Y0118152D01*
X0196260Y0118751D02*
X0164095Y0118751D01*
X0164095Y0119349D02*
X0196260Y0119349D01*
X0196260Y0119948D02*
X0164095Y0119948D01*
X0164095Y0120546D02*
X0196260Y0120546D01*
X0196260Y0121145D02*
X0164095Y0121145D01*
X0164095Y0121743D02*
X0196260Y0121743D01*
X0196260Y0122342D02*
X0164095Y0122342D01*
X0164095Y0122940D02*
X0196260Y0122940D01*
X0196260Y0123539D02*
X0164095Y0123539D01*
X0164095Y0124137D02*
X0196260Y0124137D01*
X0196260Y0124736D02*
X0164095Y0124736D01*
X0164095Y0125334D02*
X0196260Y0125334D01*
X0196260Y0125933D02*
X0164095Y0125933D01*
X0164095Y0126531D02*
X0196260Y0126531D01*
X0196260Y0127130D02*
X0164095Y0127130D01*
X0164095Y0127728D02*
X0196260Y0127728D01*
X0196260Y0128327D02*
X0164095Y0128327D01*
X0164095Y0128925D02*
X0196260Y0128925D01*
X0196260Y0129524D02*
X0164095Y0129524D01*
X0164095Y0130122D02*
X0196260Y0130122D01*
X0196260Y0130721D02*
X0164095Y0130721D01*
X0164095Y0131319D02*
X0196260Y0131319D01*
X0196260Y0131918D02*
X0164095Y0131918D01*
X0164095Y0132516D02*
X0196260Y0132516D01*
X0196260Y0133115D02*
X0164095Y0133115D01*
X0164095Y0133713D02*
X0196260Y0133713D01*
X0196260Y0134312D02*
X0164095Y0134312D01*
X0164095Y0134910D02*
X0196260Y0134910D01*
X0196260Y0135509D02*
X0164095Y0135509D01*
X0164095Y0136107D02*
X0196260Y0136107D01*
X0196260Y0136706D02*
X0164095Y0136706D01*
X0164095Y0137304D02*
X0196260Y0137304D01*
X0196260Y0137903D02*
X0164095Y0137903D01*
X0164095Y0138501D02*
X0196260Y0138501D01*
X0196260Y0139100D02*
X0164095Y0139100D01*
X0164095Y0139698D02*
X0196260Y0139698D01*
X0196260Y0140297D02*
X0164095Y0140297D01*
X0164095Y0140895D02*
X0196260Y0140895D01*
X0196260Y0141494D02*
X0164095Y0141494D01*
X0165711Y0142092D02*
X0196260Y0142092D01*
X0196260Y0142691D02*
X0166309Y0142691D01*
X0166908Y0143289D02*
X0196260Y0143289D01*
X0196260Y0143888D02*
X0167506Y0143888D01*
X0167757Y0144486D02*
X0196260Y0144486D01*
X0196260Y0145085D02*
X0167757Y0145085D01*
X0167757Y0145684D02*
X0196260Y0145684D01*
X0196260Y0146282D02*
X0167757Y0146282D01*
X0167757Y0146881D02*
X0196260Y0146881D01*
X0196260Y0147479D02*
X0167757Y0147479D01*
X0167342Y0148078D02*
X0196260Y0148078D01*
X0196260Y0148676D02*
X0166744Y0148676D01*
X0166145Y0149275D02*
X0196260Y0149275D01*
X0196260Y0149873D02*
X0165547Y0149873D01*
X0161463Y0149873D02*
X0142989Y0149873D01*
X0142391Y0150472D02*
X0196260Y0150472D01*
X0195783Y0151070D02*
X0141792Y0151070D01*
X0141194Y0151669D02*
X0195185Y0151669D01*
X0194586Y0152267D02*
X0140595Y0152267D01*
X0139997Y0152866D02*
X0193988Y0152866D01*
X0193389Y0153464D02*
X0139398Y0153464D01*
X0138800Y0154063D02*
X0192791Y0154063D01*
X0192192Y0154661D02*
X0138201Y0154661D01*
X0137603Y0155260D02*
X0191593Y0155260D01*
X0190995Y0155858D02*
X0137004Y0155858D01*
X0136406Y0156457D02*
X0190396Y0156457D01*
X0189798Y0157055D02*
X0135807Y0157055D01*
X0135209Y0157654D02*
X0189199Y0157654D01*
X0188601Y0158252D02*
X0134610Y0158252D01*
X0134012Y0158851D02*
X0188002Y0158851D01*
X0187404Y0159449D02*
X0133413Y0159449D01*
X0132815Y0160048D02*
X0186805Y0160048D01*
X0186207Y0160646D02*
X0132216Y0160646D01*
X0131617Y0161245D02*
X0185608Y0161245D01*
X0185010Y0161843D02*
X0131019Y0161843D01*
X0130420Y0162442D02*
X0184411Y0162442D01*
X0183813Y0163040D02*
X0129822Y0163040D01*
X0129223Y0163639D02*
X0183214Y0163639D01*
X0182616Y0164237D02*
X0128625Y0164237D01*
X0128026Y0164836D02*
X0182017Y0164836D01*
X0181419Y0165434D02*
X0127428Y0165434D01*
X0126829Y0166033D02*
X0180820Y0166033D01*
X0180222Y0166631D02*
X0126231Y0166631D01*
X0125632Y0167230D02*
X0179623Y0167230D01*
X0179025Y0167828D02*
X0125034Y0167828D01*
X0124435Y0168427D02*
X0178426Y0168427D01*
X0177828Y0169025D02*
X0123837Y0169025D01*
X0123238Y0169624D02*
X0177229Y0169624D01*
X0176631Y0170222D02*
X0122640Y0170222D01*
X0122041Y0170821D02*
X0176032Y0170821D01*
X0175434Y0171420D02*
X0121443Y0171420D01*
X0120844Y0172018D02*
X0174835Y0172018D01*
X0174237Y0172617D02*
X0120246Y0172617D01*
X0119647Y0173215D02*
X0173638Y0173215D01*
X0173040Y0173814D02*
X0119049Y0173814D01*
X0118450Y0174412D02*
X0172441Y0174412D01*
X0171843Y0175011D02*
X0117852Y0175011D01*
X0117253Y0175609D02*
X0171244Y0175609D01*
X0170646Y0176208D02*
X0116655Y0176208D01*
X0116056Y0176806D02*
X0170047Y0176806D01*
X0169449Y0177405D02*
X0115458Y0177405D01*
X0114859Y0178003D02*
X0168850Y0178003D01*
X0168252Y0178602D02*
X0114261Y0178602D01*
X0114133Y0178729D02*
X0113215Y0179109D01*
X0067561Y0179109D01*
X0067561Y0193683D01*
X0066799Y0194445D01*
X0040132Y0194445D01*
X0039370Y0193683D01*
X0039370Y0183618D01*
X0036284Y0183618D01*
X0033636Y0182521D01*
X0031609Y0180494D01*
X0026688Y0175573D01*
X0025591Y0172925D01*
X0025591Y0081869D01*
X0026688Y0079221D01*
X0060939Y0044969D01*
X0062966Y0042942D01*
X0065615Y0041845D01*
X0117635Y0041845D01*
X0120283Y0042942D01*
X0122704Y0045362D01*
X0123801Y0048011D01*
X0123801Y0050877D01*
X0122704Y0053526D01*
X0120677Y0055553D01*
X0118029Y0056650D01*
X0115162Y0056650D01*
X0114212Y0056256D01*
X0070033Y0056256D01*
X0040002Y0086287D01*
X0040002Y0158510D01*
X0040132Y0158380D01*
X0066799Y0158380D01*
X0067561Y0159142D01*
X0067561Y0174109D01*
X0111682Y0174109D01*
X0144095Y0141696D01*
X0144095Y0053929D01*
X0143706Y0053768D01*
X0142272Y0052333D01*
X0141495Y0050459D01*
X0141495Y0048430D01*
X0142272Y0046555D01*
X0143706Y0045121D01*
X0145581Y0044344D01*
X0147610Y0044344D01*
X0149484Y0045121D01*
X0150919Y0046555D01*
X0151695Y0048430D01*
X0151695Y0050459D01*
X0150919Y0052333D01*
X0149484Y0053768D01*
X0149095Y0053929D01*
X0149095Y0143229D01*
X0148715Y0144148D01*
X0114133Y0178729D01*
X0111978Y0173814D02*
X0067561Y0173814D01*
X0067561Y0173215D02*
X0112576Y0173215D01*
X0113175Y0172617D02*
X0067561Y0172617D01*
X0067561Y0172018D02*
X0113773Y0172018D01*
X0114372Y0171420D02*
X0067561Y0171420D01*
X0067561Y0170821D02*
X0114970Y0170821D01*
X0115569Y0170222D02*
X0067561Y0170222D01*
X0067561Y0169624D02*
X0116167Y0169624D01*
X0116766Y0169025D02*
X0067561Y0169025D01*
X0067561Y0168427D02*
X0117364Y0168427D01*
X0117963Y0167828D02*
X0067561Y0167828D01*
X0067561Y0167230D02*
X0118561Y0167230D01*
X0119160Y0166631D02*
X0067561Y0166631D01*
X0067561Y0166033D02*
X0119758Y0166033D01*
X0120357Y0165434D02*
X0067561Y0165434D01*
X0067561Y0164836D02*
X0120955Y0164836D01*
X0121554Y0164237D02*
X0067561Y0164237D01*
X0067561Y0163639D02*
X0122152Y0163639D01*
X0122751Y0163040D02*
X0067561Y0163040D01*
X0067561Y0162442D02*
X0123349Y0162442D01*
X0123948Y0161843D02*
X0067561Y0161843D01*
X0067561Y0161245D02*
X0124546Y0161245D01*
X0125145Y0160646D02*
X0067561Y0160646D01*
X0067561Y0160048D02*
X0125743Y0160048D01*
X0126342Y0159449D02*
X0067561Y0159449D01*
X0067270Y0158851D02*
X0126940Y0158851D01*
X0127539Y0158252D02*
X0040002Y0158252D01*
X0040002Y0157654D02*
X0128137Y0157654D01*
X0128736Y0157055D02*
X0040002Y0157055D01*
X0040002Y0156457D02*
X0129335Y0156457D01*
X0129933Y0155858D02*
X0040002Y0155858D01*
X0040002Y0155260D02*
X0130532Y0155260D01*
X0131130Y0154661D02*
X0040002Y0154661D01*
X0040002Y0154063D02*
X0131729Y0154063D01*
X0132327Y0153464D02*
X0040002Y0153464D01*
X0040002Y0152866D02*
X0132926Y0152866D01*
X0133524Y0152267D02*
X0040002Y0152267D01*
X0040002Y0151669D02*
X0134123Y0151669D01*
X0134721Y0151070D02*
X0040002Y0151070D01*
X0040002Y0150472D02*
X0135320Y0150472D01*
X0135918Y0149873D02*
X0040002Y0149873D01*
X0040002Y0149275D02*
X0136517Y0149275D01*
X0137115Y0148676D02*
X0040002Y0148676D01*
X0040002Y0148078D02*
X0137714Y0148078D01*
X0138312Y0147479D02*
X0040002Y0147479D01*
X0040002Y0146881D02*
X0138911Y0146881D01*
X0139509Y0146282D02*
X0040002Y0146282D01*
X0040002Y0145684D02*
X0140108Y0145684D01*
X0140706Y0145085D02*
X0040002Y0145085D01*
X0040002Y0144486D02*
X0141305Y0144486D01*
X0141903Y0143888D02*
X0040002Y0143888D01*
X0040002Y0143289D02*
X0142502Y0143289D01*
X0143100Y0142691D02*
X0040002Y0142691D01*
X0040002Y0142092D02*
X0143699Y0142092D01*
X0144095Y0141494D02*
X0040002Y0141494D01*
X0040002Y0140895D02*
X0144095Y0140895D01*
X0144095Y0140297D02*
X0040002Y0140297D01*
X0040002Y0139698D02*
X0144095Y0139698D01*
X0144095Y0139100D02*
X0040002Y0139100D01*
X0040002Y0138501D02*
X0144095Y0138501D01*
X0144095Y0137903D02*
X0040002Y0137903D01*
X0040002Y0137304D02*
X0144095Y0137304D01*
X0144095Y0136706D02*
X0040002Y0136706D01*
X0040002Y0136107D02*
X0144095Y0136107D01*
X0144095Y0135509D02*
X0040002Y0135509D01*
X0040002Y0134910D02*
X0144095Y0134910D01*
X0144095Y0134312D02*
X0040002Y0134312D01*
X0040002Y0133713D02*
X0144095Y0133713D01*
X0144095Y0133115D02*
X0040002Y0133115D01*
X0040002Y0132516D02*
X0144095Y0132516D01*
X0144095Y0131918D02*
X0040002Y0131918D01*
X0040002Y0131319D02*
X0144095Y0131319D01*
X0144095Y0130721D02*
X0040002Y0130721D01*
X0040002Y0130122D02*
X0144095Y0130122D01*
X0144095Y0129524D02*
X0040002Y0129524D01*
X0040002Y0128925D02*
X0144095Y0128925D01*
X0144095Y0128327D02*
X0040002Y0128327D01*
X0040002Y0127728D02*
X0144095Y0127728D01*
X0144095Y0127130D02*
X0040002Y0127130D01*
X0040002Y0126531D02*
X0144095Y0126531D01*
X0144095Y0125933D02*
X0040002Y0125933D01*
X0040002Y0125334D02*
X0144095Y0125334D01*
X0144095Y0124736D02*
X0040002Y0124736D01*
X0040002Y0124137D02*
X0144095Y0124137D01*
X0144095Y0123539D02*
X0040002Y0123539D01*
X0040002Y0122940D02*
X0144095Y0122940D01*
X0144095Y0122342D02*
X0040002Y0122342D01*
X0040002Y0121743D02*
X0144095Y0121743D01*
X0144095Y0121145D02*
X0040002Y0121145D01*
X0040002Y0120546D02*
X0144095Y0120546D01*
X0144095Y0119948D02*
X0040002Y0119948D01*
X0040002Y0119349D02*
X0144095Y0119349D01*
X0144095Y0118751D02*
X0040002Y0118751D01*
X0040002Y0118152D02*
X0144095Y0118152D01*
X0144095Y0117553D02*
X0040002Y0117553D01*
X0040002Y0116955D02*
X0144095Y0116955D01*
X0144095Y0116356D02*
X0040002Y0116356D01*
X0040002Y0115758D02*
X0144095Y0115758D01*
X0144095Y0115159D02*
X0040002Y0115159D01*
X0040002Y0114561D02*
X0144095Y0114561D01*
X0144095Y0113962D02*
X0040002Y0113962D01*
X0040002Y0113364D02*
X0144095Y0113364D01*
X0144095Y0112765D02*
X0040002Y0112765D01*
X0040002Y0112167D02*
X0144095Y0112167D01*
X0144095Y0111568D02*
X0040002Y0111568D01*
X0040002Y0110970D02*
X0144095Y0110970D01*
X0144095Y0110371D02*
X0040002Y0110371D01*
X0040002Y0109773D02*
X0144095Y0109773D01*
X0144095Y0109174D02*
X0040002Y0109174D01*
X0040002Y0108576D02*
X0144095Y0108576D01*
X0144095Y0107977D02*
X0040002Y0107977D01*
X0040002Y0107379D02*
X0144095Y0107379D01*
X0144095Y0106780D02*
X0040002Y0106780D01*
X0040002Y0106182D02*
X0144095Y0106182D01*
X0144095Y0105583D02*
X0040002Y0105583D01*
X0040002Y0104985D02*
X0144095Y0104985D01*
X0144095Y0104386D02*
X0040002Y0104386D01*
X0040002Y0103788D02*
X0144095Y0103788D01*
X0144095Y0103189D02*
X0040002Y0103189D01*
X0040002Y0102591D02*
X0144095Y0102591D01*
X0144095Y0101992D02*
X0040002Y0101992D01*
X0040002Y0101394D02*
X0144095Y0101394D01*
X0144095Y0100795D02*
X0040002Y0100795D01*
X0040002Y0100197D02*
X0144095Y0100197D01*
X0144095Y0099598D02*
X0040002Y0099598D01*
X0040002Y0099000D02*
X0144095Y0099000D01*
X0144095Y0098401D02*
X0040002Y0098401D01*
X0040002Y0097803D02*
X0144095Y0097803D01*
X0144095Y0097204D02*
X0040002Y0097204D01*
X0040002Y0096606D02*
X0144095Y0096606D01*
X0144095Y0096007D02*
X0040002Y0096007D01*
X0040002Y0095409D02*
X0144095Y0095409D01*
X0144095Y0094810D02*
X0040002Y0094810D01*
X0040002Y0094212D02*
X0144095Y0094212D01*
X0144095Y0093613D02*
X0040002Y0093613D01*
X0040002Y0093015D02*
X0144095Y0093015D01*
X0144095Y0092416D02*
X0040002Y0092416D01*
X0040002Y0091817D02*
X0144095Y0091817D01*
X0144095Y0091219D02*
X0040002Y0091219D01*
X0040002Y0090620D02*
X0144095Y0090620D01*
X0144095Y0090022D02*
X0040002Y0090022D01*
X0040002Y0089423D02*
X0144095Y0089423D01*
X0144095Y0088825D02*
X0040002Y0088825D01*
X0040002Y0088226D02*
X0144095Y0088226D01*
X0144095Y0087628D02*
X0040002Y0087628D01*
X0040002Y0087029D02*
X0144095Y0087029D01*
X0144095Y0086431D02*
X0040002Y0086431D01*
X0040456Y0085832D02*
X0144095Y0085832D01*
X0144095Y0085234D02*
X0041055Y0085234D01*
X0041653Y0084635D02*
X0144095Y0084635D01*
X0144095Y0084037D02*
X0042252Y0084037D01*
X0042850Y0083438D02*
X0144095Y0083438D01*
X0144095Y0082840D02*
X0043449Y0082840D01*
X0044047Y0082241D02*
X0144095Y0082241D01*
X0144095Y0081643D02*
X0044646Y0081643D01*
X0045244Y0081044D02*
X0144095Y0081044D01*
X0144095Y0080446D02*
X0045843Y0080446D01*
X0046441Y0079847D02*
X0144095Y0079847D01*
X0144095Y0079249D02*
X0047040Y0079249D01*
X0047638Y0078650D02*
X0144095Y0078650D01*
X0144095Y0078052D02*
X0048237Y0078052D01*
X0048835Y0077453D02*
X0144095Y0077453D01*
X0144095Y0076855D02*
X0049434Y0076855D01*
X0050032Y0076256D02*
X0144095Y0076256D01*
X0144095Y0075658D02*
X0050631Y0075658D01*
X0051229Y0075059D02*
X0144095Y0075059D01*
X0144095Y0074461D02*
X0051828Y0074461D01*
X0052426Y0073862D02*
X0144095Y0073862D01*
X0144095Y0073264D02*
X0053025Y0073264D01*
X0053623Y0072665D02*
X0144095Y0072665D01*
X0144095Y0072067D02*
X0054222Y0072067D01*
X0054820Y0071468D02*
X0144095Y0071468D01*
X0144095Y0070870D02*
X0055419Y0070870D01*
X0056017Y0070271D02*
X0144095Y0070271D01*
X0144095Y0069673D02*
X0056616Y0069673D01*
X0057214Y0069074D02*
X0144095Y0069074D01*
X0144095Y0068476D02*
X0057813Y0068476D01*
X0058411Y0067877D02*
X0144095Y0067877D01*
X0144095Y0067279D02*
X0059010Y0067279D01*
X0059609Y0066680D02*
X0144095Y0066680D01*
X0144095Y0066082D02*
X0060207Y0066082D01*
X0060806Y0065483D02*
X0144095Y0065483D01*
X0144095Y0064884D02*
X0061404Y0064884D01*
X0062003Y0064286D02*
X0144095Y0064286D01*
X0144095Y0063687D02*
X0062601Y0063687D01*
X0063200Y0063089D02*
X0144095Y0063089D01*
X0144095Y0062490D02*
X0063798Y0062490D01*
X0064397Y0061892D02*
X0144095Y0061892D01*
X0144095Y0061293D02*
X0064995Y0061293D01*
X0065594Y0060695D02*
X0144095Y0060695D01*
X0144095Y0060096D02*
X0066192Y0060096D01*
X0066791Y0059498D02*
X0144095Y0059498D01*
X0144095Y0058899D02*
X0067389Y0058899D01*
X0067988Y0058301D02*
X0144095Y0058301D01*
X0144095Y0057702D02*
X0068586Y0057702D01*
X0069185Y0057104D02*
X0144095Y0057104D01*
X0144095Y0056505D02*
X0118377Y0056505D01*
X0119822Y0055907D02*
X0144095Y0055907D01*
X0144095Y0055308D02*
X0120921Y0055308D01*
X0121520Y0054710D02*
X0144095Y0054710D01*
X0144095Y0054111D02*
X0133655Y0054111D01*
X0134484Y0053768D02*
X0132610Y0054544D01*
X0130581Y0054544D01*
X0128706Y0053768D01*
X0127272Y0052333D01*
X0126495Y0050459D01*
X0126495Y0048430D01*
X0127272Y0046555D01*
X0128706Y0045121D01*
X0130581Y0044344D01*
X0132610Y0044344D01*
X0134484Y0045121D01*
X0135919Y0046555D01*
X0136695Y0048430D01*
X0136695Y0050459D01*
X0135919Y0052333D01*
X0134484Y0053768D01*
X0134739Y0053513D02*
X0143451Y0053513D01*
X0142853Y0052914D02*
X0135338Y0052914D01*
X0135926Y0052316D02*
X0142265Y0052316D01*
X0142017Y0051717D02*
X0136174Y0051717D01*
X0136422Y0051119D02*
X0141769Y0051119D01*
X0141521Y0050520D02*
X0136670Y0050520D01*
X0136695Y0049922D02*
X0141495Y0049922D01*
X0141495Y0049323D02*
X0136695Y0049323D01*
X0136695Y0048725D02*
X0141495Y0048725D01*
X0141621Y0048126D02*
X0136570Y0048126D01*
X0136322Y0047528D02*
X0141869Y0047528D01*
X0142117Y0046929D02*
X0136074Y0046929D01*
X0135694Y0046331D02*
X0142496Y0046331D01*
X0143095Y0045732D02*
X0135096Y0045732D01*
X0134497Y0045134D02*
X0143693Y0045134D01*
X0145120Y0044535D02*
X0133071Y0044535D01*
X0130120Y0044535D02*
X0121876Y0044535D01*
X0121278Y0043937D02*
X0259413Y0043937D01*
X0258814Y0044535D02*
X0163071Y0044535D01*
X0164497Y0045134D02*
X0258216Y0045134D01*
X0260011Y0043338D02*
X0120679Y0043338D01*
X0119795Y0042740D02*
X0260896Y0042740D01*
X0262341Y0042141D02*
X0118350Y0042141D01*
X0122475Y0045134D02*
X0128693Y0045134D01*
X0128095Y0045732D02*
X0122857Y0045732D01*
X0123105Y0046331D02*
X0127496Y0046331D01*
X0127117Y0046929D02*
X0123353Y0046929D01*
X0123601Y0047528D02*
X0126869Y0047528D01*
X0126621Y0048126D02*
X0123801Y0048126D01*
X0123801Y0048725D02*
X0126495Y0048725D01*
X0126495Y0049323D02*
X0123801Y0049323D01*
X0123801Y0049922D02*
X0126495Y0049922D01*
X0126521Y0050520D02*
X0123801Y0050520D01*
X0123701Y0051119D02*
X0126769Y0051119D01*
X0127017Y0051717D02*
X0123453Y0051717D01*
X0123205Y0052316D02*
X0127265Y0052316D01*
X0127853Y0052914D02*
X0122957Y0052914D01*
X0122709Y0053513D02*
X0128451Y0053513D01*
X0129536Y0054111D02*
X0122118Y0054111D01*
X0114814Y0056505D02*
X0069783Y0056505D01*
X0059578Y0046331D02*
X0023254Y0046331D01*
X0023254Y0046929D02*
X0058979Y0046929D01*
X0058381Y0047528D02*
X0023254Y0047528D01*
X0023254Y0048126D02*
X0057782Y0048126D01*
X0057184Y0048725D02*
X0023254Y0048725D01*
X0023254Y0049323D02*
X0056585Y0049323D01*
X0055987Y0049922D02*
X0023254Y0049922D01*
X0023254Y0050520D02*
X0055388Y0050520D01*
X0054790Y0051119D02*
X0023254Y0051119D01*
X0023254Y0051717D02*
X0054191Y0051717D01*
X0053593Y0052316D02*
X0023254Y0052316D01*
X0023254Y0052914D02*
X0052994Y0052914D01*
X0052396Y0053513D02*
X0023254Y0053513D01*
X0023254Y0054111D02*
X0051797Y0054111D01*
X0051198Y0054710D02*
X0023254Y0054710D01*
X0023254Y0055308D02*
X0050600Y0055308D01*
X0050001Y0055907D02*
X0023254Y0055907D01*
X0023254Y0056505D02*
X0049403Y0056505D01*
X0048804Y0057104D02*
X0023254Y0057104D01*
X0023254Y0057702D02*
X0048206Y0057702D01*
X0047607Y0058301D02*
X0023254Y0058301D01*
X0023254Y0058899D02*
X0047009Y0058899D01*
X0046410Y0059498D02*
X0023254Y0059498D01*
X0023254Y0060096D02*
X0045812Y0060096D01*
X0045213Y0060695D02*
X0023254Y0060695D01*
X0023254Y0061293D02*
X0044615Y0061293D01*
X0044016Y0061892D02*
X0023254Y0061892D01*
X0023254Y0062490D02*
X0043418Y0062490D01*
X0042819Y0063089D02*
X0023254Y0063089D01*
X0023254Y0063687D02*
X0042221Y0063687D01*
X0041622Y0064286D02*
X0023254Y0064286D01*
X0023254Y0064884D02*
X0041024Y0064884D01*
X0040425Y0065483D02*
X0023254Y0065483D01*
X0023254Y0066082D02*
X0039827Y0066082D01*
X0039228Y0066680D02*
X0023254Y0066680D01*
X0023254Y0067279D02*
X0038630Y0067279D01*
X0038031Y0067877D02*
X0023254Y0067877D01*
X0023254Y0068476D02*
X0037433Y0068476D01*
X0036834Y0069074D02*
X0023254Y0069074D01*
X0023254Y0069673D02*
X0036236Y0069673D01*
X0035637Y0070271D02*
X0023254Y0070271D01*
X0023254Y0070870D02*
X0035039Y0070870D01*
X0034440Y0071468D02*
X0023254Y0071468D01*
X0023254Y0072067D02*
X0033842Y0072067D01*
X0033243Y0072665D02*
X0023254Y0072665D01*
X0023254Y0073264D02*
X0032645Y0073264D01*
X0032046Y0073862D02*
X0023254Y0073862D01*
X0023254Y0074461D02*
X0031448Y0074461D01*
X0030849Y0075059D02*
X0023254Y0075059D01*
X0023254Y0075658D02*
X0030251Y0075658D01*
X0029652Y0076256D02*
X0023254Y0076256D01*
X0023254Y0076855D02*
X0029054Y0076855D01*
X0028455Y0077453D02*
X0023254Y0077453D01*
X0023254Y0078052D02*
X0027857Y0078052D01*
X0027258Y0078650D02*
X0023254Y0078650D01*
X0023254Y0079249D02*
X0026676Y0079249D01*
X0026428Y0079847D02*
X0023254Y0079847D01*
X0023254Y0080446D02*
X0026180Y0080446D01*
X0025932Y0081044D02*
X0023254Y0081044D01*
X0023254Y0081643D02*
X0025684Y0081643D01*
X0025591Y0082241D02*
X0023254Y0082241D01*
X0023254Y0082840D02*
X0025591Y0082840D01*
X0025591Y0083438D02*
X0023254Y0083438D01*
X0023254Y0084037D02*
X0025591Y0084037D01*
X0025591Y0084635D02*
X0023254Y0084635D01*
X0023254Y0085234D02*
X0025591Y0085234D01*
X0025591Y0085832D02*
X0023254Y0085832D01*
X0023254Y0086431D02*
X0025591Y0086431D01*
X0025591Y0087029D02*
X0023254Y0087029D01*
X0023254Y0087628D02*
X0025591Y0087628D01*
X0025591Y0088226D02*
X0023254Y0088226D01*
X0023254Y0088825D02*
X0025591Y0088825D01*
X0025591Y0089423D02*
X0023254Y0089423D01*
X0023254Y0090022D02*
X0025591Y0090022D01*
X0025591Y0090620D02*
X0023254Y0090620D01*
X0023254Y0091219D02*
X0025591Y0091219D01*
X0025591Y0091817D02*
X0023254Y0091817D01*
X0023254Y0092416D02*
X0025591Y0092416D01*
X0025591Y0093015D02*
X0023254Y0093015D01*
X0023254Y0093613D02*
X0025591Y0093613D01*
X0025591Y0094212D02*
X0023254Y0094212D01*
X0023254Y0094810D02*
X0025591Y0094810D01*
X0025591Y0095409D02*
X0023254Y0095409D01*
X0023254Y0096007D02*
X0025591Y0096007D01*
X0025591Y0096606D02*
X0023254Y0096606D01*
X0023254Y0097204D02*
X0025591Y0097204D01*
X0025591Y0097803D02*
X0023254Y0097803D01*
X0023254Y0098401D02*
X0025591Y0098401D01*
X0025591Y0099000D02*
X0023254Y0099000D01*
X0023254Y0099598D02*
X0025591Y0099598D01*
X0025591Y0100197D02*
X0023254Y0100197D01*
X0023254Y0100795D02*
X0025591Y0100795D01*
X0025591Y0101394D02*
X0023254Y0101394D01*
X0023254Y0101992D02*
X0025591Y0101992D01*
X0025591Y0102591D02*
X0023254Y0102591D01*
X0023254Y0103189D02*
X0025591Y0103189D01*
X0025591Y0103788D02*
X0023254Y0103788D01*
X0023254Y0104386D02*
X0025591Y0104386D01*
X0025591Y0104985D02*
X0023254Y0104985D01*
X0023254Y0105583D02*
X0025591Y0105583D01*
X0025591Y0106182D02*
X0023254Y0106182D01*
X0023254Y0106780D02*
X0025591Y0106780D01*
X0025591Y0107379D02*
X0023254Y0107379D01*
X0023254Y0107977D02*
X0025591Y0107977D01*
X0025591Y0108576D02*
X0023254Y0108576D01*
X0023254Y0109174D02*
X0025591Y0109174D01*
X0025591Y0109773D02*
X0023254Y0109773D01*
X0023254Y0110371D02*
X0025591Y0110371D01*
X0025591Y0110970D02*
X0023254Y0110970D01*
X0023254Y0111568D02*
X0025591Y0111568D01*
X0025591Y0112167D02*
X0023254Y0112167D01*
X0023254Y0112765D02*
X0025591Y0112765D01*
X0025591Y0113364D02*
X0023254Y0113364D01*
X0023254Y0113962D02*
X0025591Y0113962D01*
X0025591Y0114561D02*
X0023254Y0114561D01*
X0023254Y0115159D02*
X0025591Y0115159D01*
X0025591Y0115758D02*
X0023254Y0115758D01*
X0023254Y0116356D02*
X0025591Y0116356D01*
X0025591Y0116955D02*
X0023254Y0116955D01*
X0023254Y0117553D02*
X0025591Y0117553D01*
X0025591Y0118152D02*
X0023254Y0118152D01*
X0023254Y0118751D02*
X0025591Y0118751D01*
X0025591Y0119349D02*
X0023254Y0119349D01*
X0023254Y0119948D02*
X0025591Y0119948D01*
X0025591Y0120546D02*
X0023254Y0120546D01*
X0023254Y0121145D02*
X0025591Y0121145D01*
X0025591Y0121743D02*
X0023254Y0121743D01*
X0023254Y0122342D02*
X0025591Y0122342D01*
X0025591Y0122940D02*
X0023254Y0122940D01*
X0023254Y0123539D02*
X0025591Y0123539D01*
X0025591Y0124137D02*
X0023254Y0124137D01*
X0023254Y0124736D02*
X0025591Y0124736D01*
X0025591Y0125334D02*
X0023254Y0125334D01*
X0023254Y0125933D02*
X0025591Y0125933D01*
X0025591Y0126531D02*
X0023254Y0126531D01*
X0023254Y0127130D02*
X0025591Y0127130D01*
X0025591Y0127728D02*
X0023254Y0127728D01*
X0023254Y0128327D02*
X0025591Y0128327D01*
X0025591Y0128925D02*
X0023254Y0128925D01*
X0023254Y0129524D02*
X0025591Y0129524D01*
X0025591Y0130122D02*
X0023254Y0130122D01*
X0023254Y0130721D02*
X0025591Y0130721D01*
X0025591Y0131319D02*
X0023254Y0131319D01*
X0023254Y0131918D02*
X0025591Y0131918D01*
X0025591Y0132516D02*
X0023254Y0132516D01*
X0023254Y0133115D02*
X0025591Y0133115D01*
X0025591Y0133713D02*
X0023254Y0133713D01*
X0023254Y0134312D02*
X0025591Y0134312D01*
X0025591Y0134910D02*
X0023254Y0134910D01*
X0023254Y0135509D02*
X0025591Y0135509D01*
X0025591Y0136107D02*
X0023254Y0136107D01*
X0023254Y0136706D02*
X0025591Y0136706D01*
X0025591Y0137304D02*
X0023254Y0137304D01*
X0023254Y0137903D02*
X0025591Y0137903D01*
X0025591Y0138501D02*
X0023254Y0138501D01*
X0023254Y0139100D02*
X0025591Y0139100D01*
X0025591Y0139698D02*
X0023254Y0139698D01*
X0023254Y0140297D02*
X0025591Y0140297D01*
X0025591Y0140895D02*
X0023254Y0140895D01*
X0023254Y0141494D02*
X0025591Y0141494D01*
X0025591Y0142092D02*
X0023254Y0142092D01*
X0023254Y0142691D02*
X0025591Y0142691D01*
X0025591Y0143289D02*
X0023254Y0143289D01*
X0023254Y0143888D02*
X0025591Y0143888D01*
X0025591Y0144486D02*
X0023254Y0144486D01*
X0023254Y0145085D02*
X0025591Y0145085D01*
X0025591Y0145684D02*
X0023254Y0145684D01*
X0023254Y0146282D02*
X0025591Y0146282D01*
X0025591Y0146881D02*
X0023254Y0146881D01*
X0023254Y0147479D02*
X0025591Y0147479D01*
X0025591Y0148078D02*
X0023254Y0148078D01*
X0023254Y0148676D02*
X0025591Y0148676D01*
X0025591Y0149275D02*
X0023254Y0149275D01*
X0023254Y0149873D02*
X0025591Y0149873D01*
X0025591Y0150472D02*
X0023254Y0150472D01*
X0023254Y0151070D02*
X0025591Y0151070D01*
X0025591Y0151669D02*
X0023254Y0151669D01*
X0023254Y0152267D02*
X0025591Y0152267D01*
X0025591Y0152866D02*
X0023254Y0152866D01*
X0023254Y0153464D02*
X0025591Y0153464D01*
X0025591Y0154063D02*
X0023254Y0154063D01*
X0023254Y0154661D02*
X0025591Y0154661D01*
X0025591Y0155260D02*
X0023254Y0155260D01*
X0023254Y0155858D02*
X0025591Y0155858D01*
X0025591Y0156457D02*
X0023254Y0156457D01*
X0023254Y0157055D02*
X0025591Y0157055D01*
X0025591Y0157654D02*
X0023254Y0157654D01*
X0023254Y0158252D02*
X0025591Y0158252D01*
X0025591Y0158851D02*
X0023254Y0158851D01*
X0023254Y0159449D02*
X0025591Y0159449D01*
X0025591Y0160048D02*
X0023254Y0160048D01*
X0023254Y0160646D02*
X0025591Y0160646D01*
X0025591Y0161245D02*
X0023254Y0161245D01*
X0023254Y0161843D02*
X0025591Y0161843D01*
X0025591Y0162442D02*
X0023254Y0162442D01*
X0023254Y0163040D02*
X0025591Y0163040D01*
X0025591Y0163639D02*
X0023254Y0163639D01*
X0023254Y0164237D02*
X0025591Y0164237D01*
X0025591Y0164836D02*
X0023254Y0164836D01*
X0023254Y0165434D02*
X0025591Y0165434D01*
X0025591Y0166033D02*
X0023254Y0166033D01*
X0023254Y0166631D02*
X0025591Y0166631D01*
X0025591Y0167230D02*
X0023254Y0167230D01*
X0023254Y0167828D02*
X0025591Y0167828D01*
X0025591Y0168427D02*
X0023254Y0168427D01*
X0023254Y0169025D02*
X0025591Y0169025D01*
X0025591Y0169624D02*
X0023254Y0169624D01*
X0023254Y0170222D02*
X0025591Y0170222D01*
X0025591Y0170821D02*
X0023254Y0170821D01*
X0023254Y0171420D02*
X0025591Y0171420D01*
X0025591Y0172018D02*
X0023254Y0172018D01*
X0023254Y0172617D02*
X0025591Y0172617D01*
X0025711Y0173215D02*
X0023254Y0173215D01*
X0023254Y0173814D02*
X0025959Y0173814D01*
X0026207Y0174412D02*
X0023254Y0174412D01*
X0023254Y0175011D02*
X0026455Y0175011D01*
X0026724Y0175609D02*
X0023254Y0175609D01*
X0023254Y0176208D02*
X0027322Y0176208D01*
X0027921Y0176806D02*
X0023254Y0176806D01*
X0023254Y0177405D02*
X0028519Y0177405D01*
X0029118Y0178003D02*
X0023254Y0178003D01*
X0023254Y0178602D02*
X0029716Y0178602D01*
X0030315Y0179200D02*
X0023254Y0179200D01*
X0023254Y0179799D02*
X0030913Y0179799D01*
X0031512Y0180397D02*
X0023254Y0180397D01*
X0023254Y0180996D02*
X0032110Y0180996D01*
X0032709Y0181594D02*
X0023254Y0181594D01*
X0023254Y0182193D02*
X0033307Y0182193D01*
X0034288Y0182791D02*
X0023254Y0182791D01*
X0023254Y0183390D02*
X0035733Y0183390D01*
X0039370Y0183988D02*
X0023254Y0183988D01*
X0023254Y0184587D02*
X0039370Y0184587D01*
X0039370Y0185185D02*
X0023254Y0185185D01*
X0023254Y0185784D02*
X0039370Y0185784D01*
X0039370Y0186382D02*
X0023254Y0186382D01*
X0023254Y0186981D02*
X0039370Y0186981D01*
X0039370Y0187579D02*
X0023254Y0187579D01*
X0023254Y0188178D02*
X0039370Y0188178D01*
X0039370Y0188776D02*
X0023254Y0188776D01*
X0023254Y0189375D02*
X0039370Y0189375D01*
X0039370Y0189973D02*
X0023254Y0189973D01*
X0023254Y0190572D02*
X0039370Y0190572D01*
X0039370Y0191170D02*
X0023254Y0191170D01*
X0023254Y0191769D02*
X0039370Y0191769D01*
X0039370Y0192367D02*
X0023254Y0192367D01*
X0023254Y0192966D02*
X0039370Y0192966D01*
X0039370Y0193564D02*
X0023254Y0193564D01*
X0023254Y0194163D02*
X0039850Y0194163D01*
X0035099Y0203739D02*
X0023254Y0203739D01*
X0023254Y0203141D02*
X0143713Y0203141D01*
X0144311Y0202542D02*
X0023254Y0202542D01*
X0023254Y0201944D02*
X0144910Y0201944D01*
X0145508Y0201345D02*
X0023254Y0201345D01*
X0023254Y0200747D02*
X0146107Y0200747D01*
X0146705Y0200148D02*
X0023254Y0200148D01*
X0023254Y0199550D02*
X0147304Y0199550D01*
X0147902Y0198951D02*
X0023254Y0198951D01*
X0023254Y0198353D02*
X0148501Y0198353D01*
X0149099Y0197754D02*
X0023254Y0197754D01*
X0023254Y0197155D02*
X0149698Y0197155D01*
X0150296Y0196557D02*
X0023254Y0196557D01*
X0023254Y0195958D02*
X0150895Y0195958D01*
X0151493Y0195360D02*
X0023254Y0195360D01*
X0023254Y0194761D02*
X0152092Y0194761D01*
X0152690Y0194163D02*
X0067081Y0194163D01*
X0067561Y0193564D02*
X0153289Y0193564D01*
X0153887Y0192966D02*
X0067561Y0192966D01*
X0067561Y0192367D02*
X0154486Y0192367D01*
X0155084Y0191769D02*
X0067561Y0191769D01*
X0067561Y0191170D02*
X0155683Y0191170D01*
X0156281Y0190572D02*
X0067561Y0190572D01*
X0067561Y0189973D02*
X0156880Y0189973D01*
X0157478Y0189375D02*
X0067561Y0189375D01*
X0067561Y0188776D02*
X0158077Y0188776D01*
X0158675Y0188178D02*
X0067561Y0188178D01*
X0067561Y0187579D02*
X0159274Y0187579D01*
X0159872Y0186981D02*
X0067561Y0186981D01*
X0067561Y0186382D02*
X0160471Y0186382D01*
X0161069Y0185784D02*
X0067561Y0185784D01*
X0067561Y0185185D02*
X0161668Y0185185D01*
X0162266Y0184587D02*
X0067561Y0184587D01*
X0067561Y0183988D02*
X0162865Y0183988D01*
X0163463Y0183390D02*
X0067561Y0183390D01*
X0067561Y0182791D02*
X0164062Y0182791D01*
X0164660Y0182193D02*
X0067561Y0182193D01*
X0067561Y0181594D02*
X0165259Y0181594D01*
X0165857Y0180996D02*
X0067561Y0180996D01*
X0067561Y0180397D02*
X0166456Y0180397D01*
X0167055Y0179799D02*
X0067561Y0179799D01*
X0067561Y0179200D02*
X0167653Y0179200D01*
X0160864Y0149275D02*
X0143588Y0149275D01*
X0144186Y0148676D02*
X0160266Y0148676D01*
X0159667Y0148078D02*
X0144785Y0148078D01*
X0145383Y0147479D02*
X0159252Y0147479D01*
X0159252Y0146881D02*
X0145982Y0146881D01*
X0146580Y0146282D02*
X0159252Y0146282D01*
X0159252Y0145684D02*
X0147179Y0145684D01*
X0147777Y0145085D02*
X0159252Y0145085D01*
X0159095Y0144486D02*
X0148376Y0144486D01*
X0148822Y0143888D02*
X0159095Y0143888D01*
X0159095Y0143289D02*
X0149070Y0143289D01*
X0149095Y0142691D02*
X0159095Y0142691D01*
X0159095Y0142092D02*
X0149095Y0142092D01*
X0149095Y0141494D02*
X0159095Y0141494D01*
X0159095Y0140895D02*
X0149095Y0140895D01*
X0149095Y0140297D02*
X0159095Y0140297D01*
X0159095Y0139698D02*
X0149095Y0139698D01*
X0149095Y0139100D02*
X0159095Y0139100D01*
X0159095Y0138501D02*
X0149095Y0138501D01*
X0149095Y0137903D02*
X0159095Y0137903D01*
X0159095Y0137304D02*
X0149095Y0137304D01*
X0149095Y0136706D02*
X0159095Y0136706D01*
X0159095Y0136107D02*
X0149095Y0136107D01*
X0149095Y0135509D02*
X0159095Y0135509D01*
X0159095Y0134910D02*
X0149095Y0134910D01*
X0149095Y0134312D02*
X0159095Y0134312D01*
X0159095Y0133713D02*
X0149095Y0133713D01*
X0149095Y0133115D02*
X0159095Y0133115D01*
X0159095Y0132516D02*
X0149095Y0132516D01*
X0149095Y0131918D02*
X0159095Y0131918D01*
X0159095Y0131319D02*
X0149095Y0131319D01*
X0149095Y0130721D02*
X0159095Y0130721D01*
X0159095Y0130122D02*
X0149095Y0130122D01*
X0149095Y0129524D02*
X0159095Y0129524D01*
X0159095Y0128925D02*
X0149095Y0128925D01*
X0149095Y0128327D02*
X0159095Y0128327D01*
X0159095Y0127728D02*
X0149095Y0127728D01*
X0149095Y0127130D02*
X0159095Y0127130D01*
X0159095Y0126531D02*
X0149095Y0126531D01*
X0149095Y0125933D02*
X0159095Y0125933D01*
X0159095Y0125334D02*
X0149095Y0125334D01*
X0149095Y0124736D02*
X0159095Y0124736D01*
X0159095Y0124137D02*
X0149095Y0124137D01*
X0149095Y0123539D02*
X0159095Y0123539D01*
X0159095Y0122940D02*
X0149095Y0122940D01*
X0149095Y0122342D02*
X0159095Y0122342D01*
X0159095Y0121743D02*
X0149095Y0121743D01*
X0149095Y0121145D02*
X0159095Y0121145D01*
X0159095Y0120546D02*
X0149095Y0120546D01*
X0149095Y0119948D02*
X0159095Y0119948D01*
X0159095Y0119349D02*
X0149095Y0119349D01*
X0149095Y0118751D02*
X0159095Y0118751D01*
X0159095Y0118152D02*
X0149095Y0118152D01*
X0149095Y0117553D02*
X0159095Y0117553D01*
X0159095Y0116955D02*
X0149095Y0116955D01*
X0149095Y0116356D02*
X0159095Y0116356D01*
X0159095Y0115758D02*
X0149095Y0115758D01*
X0149095Y0115159D02*
X0159095Y0115159D01*
X0159095Y0114561D02*
X0149095Y0114561D01*
X0149095Y0113962D02*
X0159095Y0113962D01*
X0159095Y0113364D02*
X0149095Y0113364D01*
X0149095Y0112765D02*
X0159095Y0112765D01*
X0159095Y0112167D02*
X0149095Y0112167D01*
X0149095Y0111568D02*
X0159095Y0111568D01*
X0159095Y0110970D02*
X0149095Y0110970D01*
X0149095Y0110371D02*
X0159095Y0110371D01*
X0159095Y0109773D02*
X0149095Y0109773D01*
X0149095Y0109174D02*
X0159095Y0109174D01*
X0159095Y0108576D02*
X0149095Y0108576D01*
X0149095Y0107977D02*
X0159095Y0107977D01*
X0159095Y0107379D02*
X0149095Y0107379D01*
X0149095Y0106780D02*
X0159095Y0106780D01*
X0159095Y0106182D02*
X0149095Y0106182D01*
X0149095Y0105583D02*
X0159095Y0105583D01*
X0159095Y0104985D02*
X0149095Y0104985D01*
X0149095Y0104386D02*
X0159095Y0104386D01*
X0159095Y0103788D02*
X0149095Y0103788D01*
X0149095Y0103189D02*
X0159095Y0103189D01*
X0159095Y0102591D02*
X0149095Y0102591D01*
X0149095Y0101992D02*
X0159095Y0101992D01*
X0159095Y0101394D02*
X0149095Y0101394D01*
X0149095Y0100795D02*
X0159095Y0100795D01*
X0159095Y0100197D02*
X0149095Y0100197D01*
X0149095Y0099598D02*
X0159095Y0099598D01*
X0159095Y0099000D02*
X0149095Y0099000D01*
X0149095Y0098401D02*
X0159095Y0098401D01*
X0159095Y0097803D02*
X0149095Y0097803D01*
X0149095Y0097204D02*
X0159095Y0097204D01*
X0159095Y0096606D02*
X0149095Y0096606D01*
X0149095Y0096007D02*
X0159095Y0096007D01*
X0159095Y0095409D02*
X0149095Y0095409D01*
X0149095Y0094810D02*
X0159095Y0094810D01*
X0159095Y0094212D02*
X0149095Y0094212D01*
X0149095Y0093613D02*
X0159095Y0093613D01*
X0159095Y0093015D02*
X0149095Y0093015D01*
X0149095Y0092416D02*
X0159095Y0092416D01*
X0159095Y0091817D02*
X0149095Y0091817D01*
X0149095Y0091219D02*
X0159095Y0091219D01*
X0159095Y0090620D02*
X0149095Y0090620D01*
X0149095Y0090022D02*
X0159095Y0090022D01*
X0159095Y0089423D02*
X0149095Y0089423D01*
X0149095Y0088825D02*
X0159095Y0088825D01*
X0159095Y0088226D02*
X0149095Y0088226D01*
X0149095Y0087628D02*
X0159095Y0087628D01*
X0159095Y0087029D02*
X0149095Y0087029D01*
X0149095Y0086431D02*
X0159095Y0086431D01*
X0159095Y0085832D02*
X0149095Y0085832D01*
X0149095Y0085234D02*
X0159095Y0085234D01*
X0159095Y0084635D02*
X0149095Y0084635D01*
X0149095Y0084037D02*
X0159095Y0084037D01*
X0159095Y0083438D02*
X0149095Y0083438D01*
X0149095Y0082840D02*
X0159095Y0082840D01*
X0159095Y0082241D02*
X0149095Y0082241D01*
X0149095Y0081643D02*
X0159095Y0081643D01*
X0159095Y0081044D02*
X0149095Y0081044D01*
X0149095Y0080446D02*
X0159095Y0080446D01*
X0159095Y0079847D02*
X0149095Y0079847D01*
X0149095Y0079249D02*
X0159095Y0079249D01*
X0159095Y0078650D02*
X0149095Y0078650D01*
X0149095Y0078052D02*
X0159095Y0078052D01*
X0159095Y0077453D02*
X0149095Y0077453D01*
X0149095Y0076855D02*
X0159095Y0076855D01*
X0159095Y0076256D02*
X0149095Y0076256D01*
X0149095Y0075658D02*
X0159095Y0075658D01*
X0159095Y0075059D02*
X0149095Y0075059D01*
X0149095Y0074461D02*
X0159095Y0074461D01*
X0159095Y0073862D02*
X0149095Y0073862D01*
X0149095Y0073264D02*
X0159095Y0073264D01*
X0159095Y0072665D02*
X0149095Y0072665D01*
X0149095Y0072067D02*
X0159095Y0072067D01*
X0159095Y0071468D02*
X0149095Y0071468D01*
X0149095Y0070870D02*
X0159095Y0070870D01*
X0159095Y0070271D02*
X0149095Y0070271D01*
X0149095Y0069673D02*
X0159095Y0069673D01*
X0159095Y0069074D02*
X0149095Y0069074D01*
X0149095Y0068476D02*
X0159095Y0068476D01*
X0159095Y0067877D02*
X0149095Y0067877D01*
X0149095Y0067279D02*
X0159095Y0067279D01*
X0159095Y0066680D02*
X0149095Y0066680D01*
X0149095Y0066082D02*
X0159095Y0066082D01*
X0159095Y0065483D02*
X0149095Y0065483D01*
X0149095Y0064884D02*
X0159095Y0064884D01*
X0159095Y0064286D02*
X0149095Y0064286D01*
X0149095Y0063687D02*
X0159095Y0063687D01*
X0159095Y0063089D02*
X0149095Y0063089D01*
X0149095Y0062490D02*
X0159095Y0062490D01*
X0159095Y0061892D02*
X0149095Y0061892D01*
X0149095Y0061293D02*
X0159095Y0061293D01*
X0159095Y0060695D02*
X0149095Y0060695D01*
X0149095Y0060096D02*
X0159095Y0060096D01*
X0159095Y0059498D02*
X0149095Y0059498D01*
X0149095Y0058899D02*
X0159095Y0058899D01*
X0159095Y0058301D02*
X0149095Y0058301D01*
X0149095Y0057702D02*
X0159095Y0057702D01*
X0159095Y0057104D02*
X0149095Y0057104D01*
X0149095Y0056505D02*
X0159095Y0056505D01*
X0159095Y0055907D02*
X0149095Y0055907D01*
X0149095Y0055308D02*
X0159095Y0055308D01*
X0159095Y0054710D02*
X0149095Y0054710D01*
X0149095Y0054111D02*
X0159095Y0054111D01*
X0158451Y0053513D02*
X0149739Y0053513D01*
X0150338Y0052914D02*
X0157853Y0052914D01*
X0157265Y0052316D02*
X0150926Y0052316D01*
X0151174Y0051717D02*
X0157017Y0051717D01*
X0156769Y0051119D02*
X0151422Y0051119D01*
X0151670Y0050520D02*
X0156521Y0050520D01*
X0156495Y0049922D02*
X0151695Y0049922D01*
X0151695Y0049323D02*
X0156495Y0049323D01*
X0156495Y0048725D02*
X0151695Y0048725D01*
X0151570Y0048126D02*
X0156621Y0048126D01*
X0156869Y0047528D02*
X0151322Y0047528D01*
X0151074Y0046929D02*
X0157117Y0046929D01*
X0157496Y0046331D02*
X0150694Y0046331D01*
X0150096Y0045732D02*
X0158095Y0045732D01*
X0158693Y0045134D02*
X0149497Y0045134D01*
X0148071Y0044535D02*
X0160120Y0044535D01*
X0064900Y0042141D02*
X0023254Y0042141D01*
X0023254Y0041543D02*
X0038253Y0041543D01*
X0039044Y0041870D02*
X0036040Y0040626D01*
X0033740Y0038326D01*
X0032496Y0035322D01*
X0032496Y0032070D01*
X0033740Y0029066D01*
X0036040Y0026766D01*
X0039044Y0025522D01*
X0042296Y0025522D01*
X0045300Y0026766D01*
X0047600Y0029066D01*
X0048844Y0032070D01*
X0048844Y0035322D01*
X0047600Y0038326D01*
X0045300Y0040626D01*
X0042296Y0041870D01*
X0039044Y0041870D01*
X0036809Y0040944D02*
X0023254Y0040944D01*
X0023254Y0040346D02*
X0035760Y0040346D01*
X0035161Y0039747D02*
X0023254Y0039747D01*
X0023254Y0039148D02*
X0034563Y0039148D01*
X0033964Y0038550D02*
X0023254Y0038550D01*
X0023254Y0037951D02*
X0033585Y0037951D01*
X0033337Y0037353D02*
X0023254Y0037353D01*
X0023254Y0036754D02*
X0033089Y0036754D01*
X0032842Y0036156D02*
X0023254Y0036156D01*
X0023254Y0035557D02*
X0032594Y0035557D01*
X0032496Y0034959D02*
X0023254Y0034959D01*
X0023254Y0034360D02*
X0032496Y0034360D01*
X0032496Y0033762D02*
X0023254Y0033762D01*
X0023254Y0033163D02*
X0032496Y0033163D01*
X0032496Y0032565D02*
X0023254Y0032565D01*
X0023254Y0031966D02*
X0032539Y0031966D01*
X0032787Y0031368D02*
X0023254Y0031368D01*
X0023254Y0030769D02*
X0033035Y0030769D01*
X0033283Y0030171D02*
X0023254Y0030171D01*
X0023254Y0029572D02*
X0033531Y0029572D01*
X0033833Y0028974D02*
X0023254Y0028974D01*
X0023254Y0028375D02*
X0034431Y0028375D01*
X0035030Y0027777D02*
X0023254Y0027777D01*
X0023254Y0027178D02*
X0035628Y0027178D01*
X0036491Y0026580D02*
X0023254Y0026580D01*
X0023254Y0025981D02*
X0037936Y0025981D01*
X0043405Y0025981D02*
X0392266Y0025981D01*
X0393375Y0025522D02*
X0396627Y0025522D01*
X0399631Y0026766D01*
X0401930Y0029066D01*
X0403175Y0032070D01*
X0403175Y0035322D01*
X0401930Y0038326D01*
X0399631Y0040626D01*
X0396627Y0041870D01*
X0393375Y0041870D01*
X0390371Y0040626D01*
X0388071Y0038326D01*
X0386827Y0035322D01*
X0386827Y0032070D01*
X0388071Y0029066D01*
X0390371Y0026766D01*
X0393375Y0025522D01*
X0390821Y0026580D02*
X0044850Y0026580D01*
X0045712Y0027178D02*
X0389959Y0027178D01*
X0389360Y0027777D02*
X0046311Y0027777D01*
X0046909Y0028375D02*
X0388762Y0028375D01*
X0388163Y0028974D02*
X0047508Y0028974D01*
X0047809Y0029572D02*
X0387861Y0029572D01*
X0387613Y0030171D02*
X0048057Y0030171D01*
X0048305Y0030769D02*
X0387366Y0030769D01*
X0387118Y0031368D02*
X0048553Y0031368D01*
X0048801Y0031966D02*
X0386870Y0031966D01*
X0386827Y0032565D02*
X0048844Y0032565D01*
X0048844Y0033163D02*
X0386827Y0033163D01*
X0386827Y0033762D02*
X0048844Y0033762D01*
X0048844Y0034360D02*
X0386827Y0034360D01*
X0386827Y0034959D02*
X0048844Y0034959D01*
X0048747Y0035557D02*
X0386924Y0035557D01*
X0387172Y0036156D02*
X0048499Y0036156D01*
X0048251Y0036754D02*
X0387420Y0036754D01*
X0387668Y0037353D02*
X0048003Y0037353D01*
X0047755Y0037951D02*
X0387916Y0037951D01*
X0388295Y0038550D02*
X0047376Y0038550D01*
X0046777Y0039148D02*
X0388893Y0039148D01*
X0389492Y0039747D02*
X0046179Y0039747D01*
X0045580Y0040346D02*
X0390090Y0040346D01*
X0391139Y0040944D02*
X0044532Y0040944D01*
X0043087Y0041543D02*
X0392584Y0041543D01*
X0397417Y0041543D02*
X0412417Y0041543D01*
X0412417Y0040944D02*
X0398862Y0040944D01*
X0399911Y0040346D02*
X0412417Y0040346D01*
X0412417Y0039747D02*
X0400510Y0039747D01*
X0401108Y0039148D02*
X0412417Y0039148D01*
X0412417Y0038550D02*
X0401707Y0038550D01*
X0402086Y0037951D02*
X0412417Y0037951D01*
X0412417Y0037353D02*
X0402334Y0037353D01*
X0402581Y0036754D02*
X0412417Y0036754D01*
X0412417Y0036156D02*
X0402829Y0036156D01*
X0403077Y0035557D02*
X0412417Y0035557D01*
X0412417Y0034959D02*
X0403175Y0034959D01*
X0403175Y0034360D02*
X0412417Y0034360D01*
X0412417Y0033762D02*
X0403175Y0033762D01*
X0403175Y0033163D02*
X0412417Y0033163D01*
X0412417Y0032565D02*
X0403175Y0032565D01*
X0403132Y0031966D02*
X0412417Y0031966D01*
X0412417Y0031368D02*
X0402884Y0031368D01*
X0402636Y0030769D02*
X0412417Y0030769D01*
X0412417Y0030171D02*
X0402388Y0030171D01*
X0402140Y0029572D02*
X0412417Y0029572D01*
X0412417Y0028974D02*
X0401838Y0028974D01*
X0401240Y0028375D02*
X0412417Y0028375D01*
X0412417Y0027777D02*
X0400641Y0027777D01*
X0400043Y0027178D02*
X0412417Y0027178D01*
X0412417Y0026580D02*
X0399180Y0026580D01*
X0397735Y0025981D02*
X0412417Y0025981D01*
X0412417Y0025383D02*
X0023254Y0025383D01*
X0023254Y0024784D02*
X0412417Y0024784D01*
X0412417Y0024186D02*
X0023254Y0024186D01*
X0023254Y0023587D02*
X0412417Y0023587D01*
X0412417Y0022989D02*
X0023254Y0022989D01*
X0023254Y0022390D02*
X0412417Y0022390D01*
X0412417Y0021792D02*
X0023254Y0021792D01*
X0023254Y0021193D02*
X0412417Y0021193D01*
X0412417Y0020595D02*
X0023254Y0020595D01*
X0023254Y0019996D02*
X0412417Y0019996D01*
X0412417Y0019398D02*
X0023254Y0019398D01*
X0023254Y0018799D02*
X0412417Y0018799D01*
X0412417Y0018201D02*
X0023254Y0018201D01*
X0023254Y0017602D02*
X0412417Y0017602D01*
X0412417Y0017004D02*
X0023254Y0017004D01*
X0023254Y0016405D02*
X0412417Y0016405D01*
X0396850Y0158851D02*
X0396010Y0158851D01*
X0396301Y0159449D02*
X0396850Y0159449D01*
X0396850Y0160048D02*
X0396301Y0160048D01*
X0396301Y0160646D02*
X0396850Y0160646D01*
X0396850Y0161245D02*
X0396301Y0161245D01*
X0396301Y0161843D02*
X0396850Y0161843D01*
X0396850Y0162442D02*
X0396301Y0162442D01*
X0396301Y0163040D02*
X0396850Y0163040D01*
X0396850Y0163639D02*
X0396301Y0163639D01*
X0396301Y0164237D02*
X0396850Y0164237D01*
X0396850Y0164836D02*
X0396301Y0164836D01*
X0396301Y0165434D02*
X0396850Y0165434D01*
X0396850Y0166033D02*
X0396301Y0166033D01*
X0396301Y0166631D02*
X0396850Y0166631D01*
X0396850Y0167230D02*
X0396301Y0167230D01*
X0396301Y0167828D02*
X0396741Y0167828D01*
X0412417Y0195360D02*
X0339430Y0195360D01*
X0339430Y0195958D02*
X0412417Y0195958D01*
X0412417Y0196557D02*
X0339430Y0196557D01*
X0339430Y0197155D02*
X0412417Y0197155D01*
X0412417Y0197754D02*
X0339430Y0197754D01*
X0339430Y0198353D02*
X0412417Y0198353D01*
X0412417Y0198951D02*
X0339430Y0198951D01*
X0339430Y0199550D02*
X0412417Y0199550D01*
X0412417Y0200148D02*
X0339430Y0200148D01*
X0339430Y0200747D02*
X0412417Y0200747D01*
X0412417Y0201345D02*
X0339430Y0201345D01*
X0339430Y0201944D02*
X0412417Y0201944D01*
X0412417Y0202542D02*
X0339430Y0202542D01*
X0339430Y0203141D02*
X0412417Y0203141D01*
X0412417Y0203739D02*
X0339430Y0203739D01*
X0339430Y0204338D02*
X0403108Y0204338D01*
X0401663Y0204936D02*
X0339430Y0204936D01*
X0339430Y0205535D02*
X0400767Y0205535D01*
X0400169Y0206133D02*
X0339430Y0206133D01*
X0339430Y0206732D02*
X0399570Y0206732D01*
X0399064Y0207330D02*
X0339430Y0207330D01*
X0339430Y0207929D02*
X0398816Y0207929D01*
X0398568Y0208527D02*
X0339430Y0208527D01*
X0339430Y0209126D02*
X0398320Y0209126D01*
X0398072Y0209724D02*
X0339430Y0209724D01*
X0339430Y0210323D02*
X0398031Y0210323D01*
X0398031Y0210921D02*
X0339430Y0210921D01*
X0339430Y0211520D02*
X0398031Y0211520D01*
X0398031Y0212118D02*
X0339430Y0212118D01*
X0339430Y0212717D02*
X0398043Y0212717D01*
X0398291Y0213315D02*
X0339430Y0213315D01*
X0339430Y0213914D02*
X0398425Y0213914D01*
X0398425Y0214512D02*
X0339430Y0214512D01*
X0339430Y0215111D02*
X0398425Y0215111D01*
X0398425Y0215709D02*
X0339430Y0215709D01*
X0339430Y0216308D02*
X0398425Y0216308D01*
X0398425Y0216906D02*
X0339430Y0216906D01*
X0339430Y0217505D02*
X0398425Y0217505D01*
X0398425Y0218103D02*
X0339430Y0218103D01*
X0339430Y0218702D02*
X0398425Y0218702D01*
X0398425Y0219300D02*
X0339430Y0219300D01*
X0339430Y0219899D02*
X0398425Y0219899D01*
X0398425Y0220497D02*
X0339430Y0220497D01*
X0339430Y0221096D02*
X0398425Y0221096D01*
X0398425Y0221694D02*
X0339430Y0221694D01*
X0339430Y0222293D02*
X0398425Y0222293D01*
X0398425Y0222891D02*
X0339430Y0222891D01*
X0339430Y0223490D02*
X0398425Y0223490D01*
X0398425Y0224088D02*
X0339430Y0224088D01*
X0339430Y0224687D02*
X0398425Y0224687D01*
X0398425Y0225286D02*
X0339430Y0225286D01*
X0339430Y0225884D02*
X0398425Y0225884D01*
X0398425Y0226483D02*
X0339430Y0226483D01*
X0339430Y0227081D02*
X0398425Y0227081D01*
X0398425Y0227680D02*
X0339430Y0227680D01*
X0339430Y0228278D02*
X0398425Y0228278D01*
X0398425Y0228877D02*
X0339430Y0228877D01*
X0339430Y0229475D02*
X0398425Y0229475D01*
X0398425Y0230074D02*
X0339430Y0230074D01*
X0339430Y0230672D02*
X0398425Y0230672D01*
X0398425Y0231271D02*
X0339430Y0231271D01*
X0339430Y0231869D02*
X0398425Y0231869D01*
X0398425Y0232468D02*
X0339430Y0232468D01*
X0339430Y0233066D02*
X0398425Y0233066D01*
X0398425Y0233665D02*
X0339430Y0233665D01*
X0339430Y0234263D02*
X0398425Y0234263D01*
X0412385Y0209126D02*
X0412417Y0209126D01*
X0412417Y0208527D02*
X0412137Y0208527D01*
X0411889Y0207929D02*
X0412417Y0207929D01*
X0412417Y0207330D02*
X0411502Y0207330D01*
X0410904Y0206732D02*
X0412417Y0206732D01*
X0412417Y0206133D02*
X0410305Y0206133D01*
X0409707Y0205535D02*
X0412417Y0205535D01*
X0412417Y0204936D02*
X0408811Y0204936D01*
X0407366Y0204338D02*
X0412417Y0204338D01*
X0368110Y0257007D02*
X0067561Y0257007D01*
X0067561Y0257605D02*
X0368110Y0257605D01*
X0368110Y0258204D02*
X0067561Y0258204D01*
X0067561Y0258802D02*
X0368110Y0258802D01*
X0368110Y0259401D02*
X0067561Y0259401D01*
X0067561Y0259999D02*
X0368110Y0259999D01*
X0368110Y0260598D02*
X0067561Y0260598D01*
X0067561Y0261196D02*
X0368110Y0261196D01*
X0368110Y0261795D02*
X0067561Y0261795D01*
X0067561Y0262393D02*
X0368110Y0262393D01*
X0368110Y0262992D02*
X0067561Y0262992D01*
X0067561Y0263590D02*
X0368110Y0263590D01*
X0368110Y0264189D02*
X0067561Y0264189D01*
X0067561Y0264787D02*
X0368110Y0264787D01*
X0368110Y0265386D02*
X0067561Y0265386D01*
X0067561Y0265984D02*
X0368110Y0265984D01*
X0368110Y0266583D02*
X0067561Y0266583D01*
X0067561Y0267181D02*
X0368110Y0267181D01*
X0368110Y0267780D02*
X0067561Y0267780D01*
X0067561Y0268378D02*
X0368110Y0268378D01*
X0368110Y0268977D02*
X0067561Y0268977D01*
X0067561Y0269575D02*
X0368110Y0269575D01*
X0368110Y0270174D02*
X0067561Y0270174D01*
X0067243Y0270772D02*
X0368428Y0270772D01*
X0294664Y0217505D02*
X0148972Y0217505D01*
X0067561Y0236059D02*
X0276110Y0236059D01*
X0275512Y0236657D02*
X0067561Y0236657D01*
X0067561Y0237256D02*
X0274913Y0237256D01*
X0274315Y0237854D02*
X0067561Y0237854D01*
X0067561Y0238453D02*
X0273716Y0238453D01*
X0273118Y0239051D02*
X0067561Y0239051D01*
X0067561Y0239650D02*
X0272519Y0239650D01*
X0271921Y0240248D02*
X0067561Y0240248D01*
X0067561Y0240847D02*
X0271322Y0240847D01*
X0270724Y0241445D02*
X0067561Y0241445D01*
X0067561Y0242044D02*
X0270125Y0242044D01*
X0269527Y0242642D02*
X0067561Y0242642D01*
X0067561Y0243241D02*
X0268928Y0243241D01*
X0268330Y0243839D02*
X0067561Y0243839D01*
X0067561Y0244438D02*
X0267731Y0244438D01*
X0267133Y0245036D02*
X0067561Y0245036D01*
X0067561Y0245635D02*
X0266534Y0245635D01*
X0265936Y0246233D02*
X0067561Y0246233D01*
X0067561Y0246832D02*
X0265337Y0246832D01*
X0264739Y0247430D02*
X0067561Y0247430D01*
X0067561Y0248029D02*
X0264140Y0248029D01*
X0263542Y0248627D02*
X0067561Y0248627D01*
X0067561Y0249226D02*
X0262943Y0249226D01*
X0262345Y0249824D02*
X0067561Y0249824D01*
X0067561Y0250423D02*
X0261746Y0250423D01*
X0261148Y0251022D02*
X0067561Y0251022D01*
X0067561Y0251620D02*
X0260549Y0251620D01*
X0276709Y0235460D02*
X0067107Y0235460D01*
X0040002Y0234862D02*
X0277307Y0234862D01*
X0277906Y0234263D02*
X0040002Y0234263D01*
X0040002Y0233665D02*
X0278505Y0233665D01*
X0279103Y0233066D02*
X0040002Y0233066D01*
X0040002Y0232468D02*
X0279702Y0232468D01*
X0280300Y0231869D02*
X0040002Y0231869D01*
X0040002Y0231271D02*
X0280899Y0231271D01*
X0281497Y0230672D02*
X0040002Y0230672D01*
X0040002Y0230074D02*
X0282096Y0230074D01*
X0282694Y0229475D02*
X0040002Y0229475D01*
X0040002Y0228877D02*
X0283293Y0228877D01*
X0283891Y0228278D02*
X0040002Y0228278D01*
X0040002Y0227680D02*
X0284490Y0227680D01*
X0285088Y0227081D02*
X0040002Y0227081D01*
X0040002Y0226483D02*
X0285687Y0226483D01*
X0286285Y0225884D02*
X0040002Y0225884D01*
X0040002Y0225286D02*
X0286884Y0225286D01*
X0287482Y0224687D02*
X0040002Y0224687D01*
X0040002Y0224088D02*
X0288081Y0224088D01*
X0288679Y0223490D02*
X0040002Y0223490D01*
X0040002Y0222891D02*
X0289278Y0222891D01*
X0289876Y0222293D02*
X0040002Y0222293D01*
X0040002Y0221694D02*
X0290475Y0221694D01*
X0291073Y0221096D02*
X0040002Y0221096D01*
X0040002Y0220497D02*
X0291672Y0220497D01*
X0292270Y0219899D02*
X0040002Y0219899D01*
X0040002Y0219300D02*
X0292869Y0219300D01*
X0293467Y0218702D02*
X0040002Y0218702D01*
X0040002Y0218103D02*
X0294066Y0218103D01*
X0063455Y0042740D02*
X0023254Y0042740D01*
X0023254Y0043338D02*
X0062570Y0043338D01*
X0061972Y0043937D02*
X0023254Y0043937D01*
X0023254Y0044535D02*
X0061373Y0044535D01*
X0060775Y0045134D02*
X0023254Y0045134D01*
X0023254Y0045732D02*
X0060176Y0045732D01*
X0033654Y0204338D02*
X0023254Y0204338D01*
X0023254Y0204936D02*
X0032468Y0204936D01*
X0031870Y0205535D02*
X0023254Y0205535D01*
X0023254Y0206133D02*
X0031271Y0206133D01*
X0030673Y0206732D02*
X0023254Y0206732D01*
X0023254Y0207330D02*
X0030074Y0207330D01*
X0029476Y0207929D02*
X0023254Y0207929D01*
X0023254Y0208527D02*
X0028877Y0208527D01*
X0028279Y0209126D02*
X0023254Y0209126D01*
X0023254Y0209724D02*
X0027680Y0209724D01*
X0027082Y0210323D02*
X0023254Y0210323D01*
X0023254Y0210921D02*
X0026603Y0210921D01*
X0026355Y0211520D02*
X0023254Y0211520D01*
X0023254Y0212118D02*
X0026107Y0212118D01*
X0025859Y0212717D02*
X0023254Y0212717D01*
X0023254Y0213315D02*
X0025611Y0213315D01*
X0025591Y0213914D02*
X0023254Y0213914D01*
X0023254Y0214512D02*
X0025591Y0214512D01*
X0025591Y0215111D02*
X0023254Y0215111D01*
X0023254Y0215709D02*
X0025591Y0215709D01*
X0025591Y0216308D02*
X0023254Y0216308D01*
X0023254Y0216906D02*
X0025591Y0216906D01*
X0025591Y0217505D02*
X0023254Y0217505D01*
X0023254Y0218103D02*
X0025591Y0218103D01*
X0025591Y0218702D02*
X0023254Y0218702D01*
X0023254Y0219300D02*
X0025591Y0219300D01*
X0025591Y0219899D02*
X0023254Y0219899D01*
X0023254Y0220497D02*
X0025591Y0220497D01*
X0025591Y0221096D02*
X0023254Y0221096D01*
X0023254Y0221694D02*
X0025591Y0221694D01*
X0025591Y0222293D02*
X0023254Y0222293D01*
X0023254Y0222891D02*
X0025591Y0222891D01*
X0025591Y0223490D02*
X0023254Y0223490D01*
X0023254Y0224088D02*
X0025591Y0224088D01*
X0025591Y0224687D02*
X0023254Y0224687D01*
X0023254Y0225286D02*
X0025591Y0225286D01*
X0025591Y0225884D02*
X0023254Y0225884D01*
X0023254Y0226483D02*
X0025591Y0226483D01*
X0025591Y0227081D02*
X0023254Y0227081D01*
X0023254Y0227680D02*
X0025591Y0227680D01*
X0025591Y0228278D02*
X0023254Y0228278D01*
X0023254Y0228877D02*
X0025591Y0228877D01*
X0025591Y0229475D02*
X0023254Y0229475D01*
X0023254Y0230074D02*
X0025591Y0230074D01*
X0025591Y0230672D02*
X0023254Y0230672D01*
X0023254Y0231271D02*
X0025591Y0231271D01*
X0025591Y0231869D02*
X0023254Y0231869D01*
X0023254Y0232468D02*
X0025591Y0232468D01*
X0025591Y0233066D02*
X0023254Y0233066D01*
X0023254Y0233665D02*
X0025591Y0233665D01*
X0025591Y0234263D02*
X0023254Y0234263D01*
X0023254Y0234862D02*
X0025591Y0234862D01*
X0025591Y0235460D02*
X0023254Y0235460D01*
X0023254Y0236059D02*
X0025591Y0236059D01*
X0025591Y0236657D02*
X0023254Y0236657D01*
X0023254Y0237256D02*
X0025591Y0237256D01*
X0025591Y0237854D02*
X0023254Y0237854D01*
X0023254Y0238453D02*
X0025591Y0238453D01*
X0025591Y0239051D02*
X0023254Y0239051D01*
X0023254Y0239650D02*
X0025591Y0239650D01*
X0025591Y0240248D02*
X0023254Y0240248D01*
X0023254Y0240847D02*
X0025591Y0240847D01*
X0025591Y0241445D02*
X0023254Y0241445D01*
X0023254Y0242044D02*
X0025591Y0242044D01*
X0025591Y0242642D02*
X0023254Y0242642D01*
X0023254Y0243241D02*
X0025591Y0243241D01*
X0025591Y0243839D02*
X0023254Y0243839D01*
X0023254Y0244438D02*
X0025591Y0244438D01*
X0025591Y0245036D02*
X0023254Y0245036D01*
X0023254Y0245635D02*
X0025591Y0245635D01*
X0025591Y0246233D02*
X0023254Y0246233D01*
X0023254Y0246832D02*
X0025591Y0246832D01*
X0025591Y0247430D02*
X0023254Y0247430D01*
X0023254Y0248029D02*
X0025591Y0248029D01*
X0025591Y0248627D02*
X0023254Y0248627D01*
X0023254Y0249226D02*
X0025591Y0249226D01*
X0025591Y0249824D02*
X0023254Y0249824D01*
X0023254Y0250423D02*
X0025591Y0250423D01*
X0025591Y0251022D02*
X0023254Y0251022D01*
X0023254Y0251620D02*
X0025591Y0251620D01*
X0025591Y0252219D02*
X0023254Y0252219D01*
X0023254Y0252817D02*
X0025591Y0252817D01*
X0025591Y0253416D02*
X0023254Y0253416D01*
X0023254Y0254014D02*
X0025591Y0254014D01*
X0025591Y0254613D02*
X0023254Y0254613D01*
X0023254Y0255211D02*
X0025591Y0255211D01*
X0025677Y0255810D02*
X0023254Y0255810D01*
X0023254Y0256408D02*
X0025925Y0256408D01*
X0026172Y0257007D02*
X0023254Y0257007D01*
X0023254Y0257605D02*
X0026420Y0257605D01*
X0026668Y0258204D02*
X0023254Y0258204D01*
X0023254Y0258802D02*
X0027240Y0258802D01*
X0027838Y0259401D02*
X0023254Y0259401D01*
X0023254Y0259999D02*
X0028437Y0259999D01*
X0029489Y0260598D02*
X0023254Y0260598D01*
X0023254Y0261196D02*
X0030934Y0261196D01*
X0023254Y0261795D02*
X0039370Y0261795D01*
X0039370Y0262393D02*
X0023254Y0262393D01*
X0023254Y0262992D02*
X0039370Y0262992D01*
X0039370Y0263590D02*
X0023254Y0263590D01*
X0023254Y0264189D02*
X0039370Y0264189D01*
X0039370Y0264787D02*
X0023254Y0264787D01*
X0023254Y0265386D02*
X0039370Y0265386D01*
X0039370Y0265984D02*
X0023254Y0265984D01*
X0023254Y0266583D02*
X0039370Y0266583D01*
X0039370Y0267181D02*
X0023254Y0267181D01*
X0023254Y0267780D02*
X0039370Y0267780D01*
X0039370Y0268378D02*
X0023254Y0268378D01*
X0023254Y0268977D02*
X0039370Y0268977D01*
X0039370Y0269575D02*
X0023254Y0269575D01*
X0023254Y0270174D02*
X0039370Y0270174D01*
X0039687Y0270772D02*
X0023254Y0270772D01*
M02*
