G75*
%MOIN*%
%OFA0B0*%
%FSLAX25Y25*%
%IPPOS*%
%LPD*%
%AMOC8*
5,1,8,0,0,1.08239X$1,22.5*
%
%ADD10C,0.01600*%
%ADD11C,0.00600*%
%ADD12C,0.00500*%
%ADD13C,0.00800*%
D10*
X0137907Y0105528D02*
X0139952Y0105528D01*
X0146085Y0123928D01*
X0137907Y0123928D02*
X0141996Y0111661D01*
X0134523Y0121884D02*
X0134523Y0123928D01*
X0128389Y0123928D01*
X0128389Y0111661D01*
X0123085Y0111661D02*
X0117974Y0111661D01*
X0117865Y0111663D01*
X0117755Y0111669D01*
X0117646Y0111679D01*
X0117538Y0111692D01*
X0117429Y0111710D01*
X0117322Y0111731D01*
X0117216Y0111756D01*
X0117110Y0111785D01*
X0117005Y0111818D01*
X0116902Y0111854D01*
X0116800Y0111894D01*
X0116700Y0111938D01*
X0116601Y0111985D01*
X0116504Y0112036D01*
X0116409Y0112090D01*
X0116316Y0112148D01*
X0116225Y0112209D01*
X0116136Y0112273D01*
X0116050Y0112340D01*
X0115966Y0112410D01*
X0115884Y0112483D01*
X0115805Y0112559D01*
X0115729Y0112638D01*
X0115656Y0112720D01*
X0115586Y0112804D01*
X0115519Y0112890D01*
X0115455Y0112979D01*
X0115394Y0113070D01*
X0115336Y0113163D01*
X0115282Y0113258D01*
X0115231Y0113355D01*
X0115184Y0113454D01*
X0115140Y0113554D01*
X0115100Y0113656D01*
X0115064Y0113759D01*
X0115031Y0113864D01*
X0115002Y0113970D01*
X0114977Y0114076D01*
X0114956Y0114183D01*
X0114938Y0114292D01*
X0114925Y0114400D01*
X0114915Y0114509D01*
X0114909Y0114619D01*
X0114907Y0114728D01*
X0114907Y0119839D01*
X0114907Y0117795D02*
X0123085Y0117795D01*
X0123085Y0119839D01*
X0123083Y0119966D01*
X0123077Y0120093D01*
X0123067Y0120220D01*
X0123053Y0120346D01*
X0123036Y0120472D01*
X0123014Y0120598D01*
X0122988Y0120722D01*
X0122959Y0120846D01*
X0122926Y0120969D01*
X0122889Y0121090D01*
X0122848Y0121211D01*
X0122803Y0121330D01*
X0122755Y0121448D01*
X0122703Y0121564D01*
X0122648Y0121678D01*
X0122589Y0121791D01*
X0122527Y0121902D01*
X0122461Y0122011D01*
X0122391Y0122117D01*
X0122319Y0122222D01*
X0122243Y0122324D01*
X0122164Y0122424D01*
X0122082Y0122521D01*
X0121998Y0122616D01*
X0121910Y0122708D01*
X0121819Y0122797D01*
X0121726Y0122883D01*
X0121630Y0122967D01*
X0121531Y0123047D01*
X0121430Y0123124D01*
X0121327Y0123199D01*
X0121221Y0123269D01*
X0121113Y0123337D01*
X0121004Y0123401D01*
X0120892Y0123462D01*
X0120778Y0123519D01*
X0120663Y0123573D01*
X0120546Y0123623D01*
X0120428Y0123669D01*
X0120308Y0123712D01*
X0120187Y0123751D01*
X0120065Y0123786D01*
X0119941Y0123817D01*
X0119817Y0123845D01*
X0119692Y0123868D01*
X0119566Y0123888D01*
X0119440Y0123904D01*
X0119314Y0123916D01*
X0119187Y0123924D01*
X0119060Y0123928D01*
X0118932Y0123928D01*
X0118805Y0123924D01*
X0118678Y0123916D01*
X0118552Y0123904D01*
X0118426Y0123888D01*
X0118300Y0123868D01*
X0118175Y0123845D01*
X0118051Y0123817D01*
X0117927Y0123786D01*
X0117805Y0123751D01*
X0117684Y0123712D01*
X0117564Y0123669D01*
X0117446Y0123623D01*
X0117329Y0123573D01*
X0117214Y0123519D01*
X0117100Y0123462D01*
X0116988Y0123401D01*
X0116879Y0123337D01*
X0116771Y0123269D01*
X0116665Y0123199D01*
X0116562Y0123124D01*
X0116461Y0123047D01*
X0116362Y0122967D01*
X0116266Y0122883D01*
X0116173Y0122797D01*
X0116082Y0122708D01*
X0115994Y0122616D01*
X0115910Y0122521D01*
X0115828Y0122424D01*
X0115749Y0122324D01*
X0115673Y0122222D01*
X0115601Y0122117D01*
X0115531Y0122011D01*
X0115465Y0121902D01*
X0115403Y0121791D01*
X0115344Y0121678D01*
X0115289Y0121564D01*
X0115237Y0121448D01*
X0115189Y0121330D01*
X0115144Y0121211D01*
X0115103Y0121090D01*
X0115066Y0120969D01*
X0115033Y0120846D01*
X0115004Y0120722D01*
X0114978Y0120598D01*
X0114956Y0120472D01*
X0114939Y0120346D01*
X0114925Y0120220D01*
X0114915Y0120093D01*
X0114909Y0119966D01*
X0114907Y0119839D01*
X0110585Y0123928D02*
X0104452Y0123928D01*
X0101085Y0123928D02*
X0094952Y0123928D01*
X0090598Y0120861D02*
X0090598Y0111661D01*
X0085998Y0111661D01*
X0085880Y0111663D01*
X0085762Y0111669D01*
X0085644Y0111679D01*
X0085526Y0111692D01*
X0085409Y0111710D01*
X0085293Y0111731D01*
X0085177Y0111756D01*
X0085062Y0111785D01*
X0084949Y0111818D01*
X0084836Y0111855D01*
X0084725Y0111895D01*
X0084615Y0111939D01*
X0084507Y0111987D01*
X0084400Y0112038D01*
X0084295Y0112092D01*
X0084192Y0112150D01*
X0084091Y0112212D01*
X0083992Y0112276D01*
X0083895Y0112344D01*
X0083800Y0112415D01*
X0083708Y0112490D01*
X0083619Y0112567D01*
X0083531Y0112647D01*
X0083447Y0112730D01*
X0083366Y0112816D01*
X0083287Y0112904D01*
X0083211Y0112995D01*
X0083139Y0113088D01*
X0083069Y0113184D01*
X0083003Y0113282D01*
X0082940Y0113382D01*
X0082880Y0113484D01*
X0082824Y0113588D01*
X0082771Y0113694D01*
X0082721Y0113802D01*
X0082676Y0113911D01*
X0082634Y0114021D01*
X0082595Y0114133D01*
X0082560Y0114246D01*
X0082529Y0114361D01*
X0082502Y0114476D01*
X0082479Y0114592D01*
X0082460Y0114709D01*
X0082444Y0114826D01*
X0082432Y0114944D01*
X0082424Y0115062D01*
X0082420Y0115180D01*
X0082420Y0115298D01*
X0082424Y0115416D01*
X0082432Y0115534D01*
X0082444Y0115652D01*
X0082460Y0115769D01*
X0082479Y0115886D01*
X0082502Y0116002D01*
X0082529Y0116117D01*
X0082560Y0116232D01*
X0082595Y0116345D01*
X0082634Y0116457D01*
X0082676Y0116567D01*
X0082721Y0116676D01*
X0082771Y0116784D01*
X0082824Y0116890D01*
X0082880Y0116994D01*
X0082940Y0117096D01*
X0083003Y0117196D01*
X0083069Y0117294D01*
X0083139Y0117390D01*
X0083211Y0117483D01*
X0083287Y0117574D01*
X0083366Y0117662D01*
X0083447Y0117748D01*
X0083531Y0117831D01*
X0083619Y0117911D01*
X0083708Y0117988D01*
X0083800Y0118063D01*
X0083895Y0118134D01*
X0083992Y0118202D01*
X0084091Y0118266D01*
X0084192Y0118328D01*
X0084295Y0118386D01*
X0084400Y0118440D01*
X0084507Y0118491D01*
X0084615Y0118539D01*
X0084725Y0118583D01*
X0084836Y0118623D01*
X0084949Y0118660D01*
X0085062Y0118693D01*
X0085177Y0118722D01*
X0085293Y0118747D01*
X0085409Y0118768D01*
X0085526Y0118786D01*
X0085644Y0118799D01*
X0085762Y0118809D01*
X0085880Y0118815D01*
X0085998Y0118817D01*
X0090598Y0118817D01*
X0090598Y0120861D02*
X0090596Y0120970D01*
X0090590Y0121080D01*
X0090580Y0121189D01*
X0090567Y0121297D01*
X0090549Y0121406D01*
X0090528Y0121513D01*
X0090503Y0121619D01*
X0090474Y0121725D01*
X0090441Y0121830D01*
X0090405Y0121933D01*
X0090365Y0122035D01*
X0090321Y0122135D01*
X0090274Y0122234D01*
X0090223Y0122331D01*
X0090169Y0122426D01*
X0090111Y0122519D01*
X0090050Y0122610D01*
X0089986Y0122699D01*
X0089919Y0122785D01*
X0089849Y0122869D01*
X0089776Y0122951D01*
X0089700Y0123030D01*
X0089621Y0123106D01*
X0089539Y0123179D01*
X0089455Y0123249D01*
X0089369Y0123316D01*
X0089280Y0123380D01*
X0089189Y0123441D01*
X0089096Y0123499D01*
X0089001Y0123553D01*
X0088904Y0123604D01*
X0088805Y0123651D01*
X0088705Y0123695D01*
X0088603Y0123735D01*
X0088500Y0123771D01*
X0088395Y0123804D01*
X0088289Y0123833D01*
X0088183Y0123858D01*
X0088076Y0123879D01*
X0087967Y0123897D01*
X0087859Y0123910D01*
X0087750Y0123920D01*
X0087640Y0123926D01*
X0087531Y0123928D01*
X0083442Y0123928D01*
X0072959Y0121884D02*
X0067848Y0121884D01*
X0072959Y0121884D02*
X0073086Y0121886D01*
X0073213Y0121892D01*
X0073340Y0121902D01*
X0073466Y0121916D01*
X0073592Y0121933D01*
X0073718Y0121955D01*
X0073842Y0121981D01*
X0073966Y0122010D01*
X0074089Y0122043D01*
X0074210Y0122080D01*
X0074331Y0122121D01*
X0074450Y0122166D01*
X0074568Y0122214D01*
X0074684Y0122266D01*
X0074798Y0122321D01*
X0074911Y0122380D01*
X0075022Y0122442D01*
X0075131Y0122508D01*
X0075237Y0122578D01*
X0075342Y0122650D01*
X0075444Y0122726D01*
X0075544Y0122805D01*
X0075641Y0122887D01*
X0075736Y0122971D01*
X0075828Y0123059D01*
X0075917Y0123150D01*
X0076003Y0123243D01*
X0076087Y0123339D01*
X0076167Y0123438D01*
X0076244Y0123539D01*
X0076319Y0123642D01*
X0076389Y0123748D01*
X0076457Y0123856D01*
X0076521Y0123965D01*
X0076582Y0124077D01*
X0076639Y0124191D01*
X0076693Y0124306D01*
X0076743Y0124423D01*
X0076789Y0124541D01*
X0076832Y0124661D01*
X0076871Y0124782D01*
X0076906Y0124904D01*
X0076937Y0125028D01*
X0076965Y0125152D01*
X0076988Y0125277D01*
X0077008Y0125403D01*
X0077024Y0125529D01*
X0077036Y0125655D01*
X0077044Y0125782D01*
X0077048Y0125909D01*
X0077048Y0126037D01*
X0077044Y0126164D01*
X0077036Y0126291D01*
X0077024Y0126417D01*
X0077008Y0126543D01*
X0076988Y0126669D01*
X0076965Y0126794D01*
X0076937Y0126918D01*
X0076906Y0127042D01*
X0076871Y0127164D01*
X0076832Y0127285D01*
X0076789Y0127405D01*
X0076743Y0127523D01*
X0076693Y0127640D01*
X0076639Y0127755D01*
X0076582Y0127869D01*
X0076521Y0127981D01*
X0076457Y0128090D01*
X0076389Y0128198D01*
X0076319Y0128304D01*
X0076244Y0128407D01*
X0076167Y0128508D01*
X0076087Y0128607D01*
X0076003Y0128703D01*
X0075917Y0128796D01*
X0075828Y0128887D01*
X0075736Y0128975D01*
X0075641Y0129059D01*
X0075544Y0129141D01*
X0075444Y0129220D01*
X0075342Y0129296D01*
X0075237Y0129368D01*
X0075131Y0129438D01*
X0075022Y0129504D01*
X0074911Y0129566D01*
X0074798Y0129625D01*
X0074684Y0129680D01*
X0074568Y0129732D01*
X0074450Y0129780D01*
X0074331Y0129825D01*
X0074210Y0129866D01*
X0074089Y0129903D01*
X0073966Y0129936D01*
X0073842Y0129965D01*
X0073718Y0129991D01*
X0073592Y0130013D01*
X0073466Y0130030D01*
X0073340Y0130044D01*
X0073213Y0130054D01*
X0073086Y0130060D01*
X0072959Y0130062D01*
X0072959Y0130061D02*
X0067848Y0130061D01*
X0067848Y0111661D01*
X0072959Y0111661D01*
X0072959Y0111662D02*
X0073101Y0111664D01*
X0073243Y0111670D01*
X0073385Y0111680D01*
X0073526Y0111694D01*
X0073667Y0111711D01*
X0073808Y0111733D01*
X0073947Y0111758D01*
X0074086Y0111788D01*
X0074225Y0111821D01*
X0074362Y0111858D01*
X0074498Y0111899D01*
X0074633Y0111944D01*
X0074766Y0111992D01*
X0074898Y0112044D01*
X0075029Y0112100D01*
X0075158Y0112159D01*
X0075286Y0112222D01*
X0075411Y0112289D01*
X0075535Y0112359D01*
X0075657Y0112432D01*
X0075776Y0112509D01*
X0075894Y0112589D01*
X0076009Y0112672D01*
X0076122Y0112758D01*
X0076232Y0112848D01*
X0076340Y0112940D01*
X0076445Y0113036D01*
X0076548Y0113134D01*
X0076648Y0113235D01*
X0076745Y0113339D01*
X0076839Y0113446D01*
X0076930Y0113555D01*
X0077017Y0113666D01*
X0077102Y0113780D01*
X0077184Y0113897D01*
X0077262Y0114015D01*
X0077337Y0114136D01*
X0077409Y0114259D01*
X0077477Y0114383D01*
X0077542Y0114510D01*
X0077603Y0114638D01*
X0077660Y0114768D01*
X0077714Y0114899D01*
X0077764Y0115032D01*
X0077811Y0115167D01*
X0077854Y0115302D01*
X0077893Y0115439D01*
X0077928Y0115576D01*
X0077959Y0115715D01*
X0077987Y0115854D01*
X0078010Y0115995D01*
X0078030Y0116135D01*
X0078046Y0116276D01*
X0078058Y0116418D01*
X0078066Y0116560D01*
X0078070Y0116702D01*
X0078070Y0116844D01*
X0078066Y0116986D01*
X0078058Y0117128D01*
X0078046Y0117270D01*
X0078030Y0117411D01*
X0078010Y0117551D01*
X0077987Y0117692D01*
X0077959Y0117831D01*
X0077928Y0117970D01*
X0077893Y0118107D01*
X0077854Y0118244D01*
X0077811Y0118379D01*
X0077764Y0118514D01*
X0077714Y0118647D01*
X0077660Y0118778D01*
X0077603Y0118908D01*
X0077542Y0119036D01*
X0077477Y0119163D01*
X0077409Y0119287D01*
X0077337Y0119410D01*
X0077262Y0119531D01*
X0077184Y0119649D01*
X0077102Y0119766D01*
X0077017Y0119880D01*
X0076930Y0119991D01*
X0076839Y0120100D01*
X0076745Y0120207D01*
X0076648Y0120311D01*
X0076548Y0120412D01*
X0076445Y0120510D01*
X0076340Y0120606D01*
X0076232Y0120698D01*
X0076122Y0120788D01*
X0076009Y0120874D01*
X0075894Y0120957D01*
X0075776Y0121037D01*
X0075657Y0121114D01*
X0075535Y0121187D01*
X0075411Y0121257D01*
X0075286Y0121324D01*
X0075158Y0121387D01*
X0075029Y0121446D01*
X0074898Y0121502D01*
X0074766Y0121554D01*
X0074633Y0121602D01*
X0074498Y0121647D01*
X0074362Y0121688D01*
X0074225Y0121725D01*
X0074086Y0121758D01*
X0073947Y0121788D01*
X0073808Y0121813D01*
X0073667Y0121835D01*
X0073526Y0121852D01*
X0073385Y0121866D01*
X0073243Y0121876D01*
X0073101Y0121882D01*
X0072959Y0121884D01*
X0096996Y0114728D02*
X0096996Y0130061D01*
X0106496Y0130061D02*
X0106496Y0114728D01*
X0106498Y0114619D01*
X0106504Y0114509D01*
X0106514Y0114400D01*
X0106527Y0114292D01*
X0106545Y0114183D01*
X0106566Y0114076D01*
X0106591Y0113970D01*
X0106620Y0113864D01*
X0106653Y0113759D01*
X0106689Y0113656D01*
X0106729Y0113554D01*
X0106773Y0113454D01*
X0106820Y0113355D01*
X0106871Y0113258D01*
X0106925Y0113163D01*
X0106983Y0113070D01*
X0107044Y0112979D01*
X0107108Y0112890D01*
X0107175Y0112804D01*
X0107245Y0112720D01*
X0107318Y0112638D01*
X0107394Y0112559D01*
X0107473Y0112483D01*
X0107555Y0112410D01*
X0107639Y0112340D01*
X0107725Y0112273D01*
X0107814Y0112209D01*
X0107905Y0112148D01*
X0107998Y0112090D01*
X0108093Y0112036D01*
X0108190Y0111985D01*
X0108289Y0111938D01*
X0108389Y0111894D01*
X0108491Y0111854D01*
X0108594Y0111818D01*
X0108699Y0111785D01*
X0108805Y0111756D01*
X0108911Y0111731D01*
X0109018Y0111710D01*
X0109127Y0111692D01*
X0109235Y0111679D01*
X0109344Y0111669D01*
X0109454Y0111663D01*
X0109563Y0111661D01*
X0110585Y0111661D01*
X0101085Y0111661D02*
X0100063Y0111661D01*
X0099954Y0111663D01*
X0099844Y0111669D01*
X0099735Y0111679D01*
X0099627Y0111692D01*
X0099518Y0111710D01*
X0099411Y0111731D01*
X0099305Y0111756D01*
X0099199Y0111785D01*
X0099094Y0111818D01*
X0098991Y0111854D01*
X0098889Y0111894D01*
X0098789Y0111938D01*
X0098690Y0111985D01*
X0098593Y0112036D01*
X0098498Y0112090D01*
X0098405Y0112148D01*
X0098314Y0112209D01*
X0098225Y0112273D01*
X0098139Y0112340D01*
X0098055Y0112410D01*
X0097973Y0112483D01*
X0097894Y0112559D01*
X0097818Y0112638D01*
X0097745Y0112720D01*
X0097675Y0112804D01*
X0097608Y0112890D01*
X0097544Y0112979D01*
X0097483Y0113070D01*
X0097425Y0113163D01*
X0097371Y0113258D01*
X0097320Y0113355D01*
X0097273Y0113454D01*
X0097229Y0113554D01*
X0097189Y0113656D01*
X0097153Y0113759D01*
X0097120Y0113864D01*
X0097091Y0113970D01*
X0097066Y0114076D01*
X0097045Y0114183D01*
X0097027Y0114292D01*
X0097014Y0114400D01*
X0097004Y0114509D01*
X0096998Y0114619D01*
X0096996Y0114728D01*
X0157363Y0111661D02*
X0163496Y0130061D01*
X0169629Y0111661D01*
X0168096Y0116261D02*
X0158896Y0116261D01*
X0139558Y0294898D02*
X0145691Y0313298D01*
X0137514Y0313298D02*
X0141602Y0301031D01*
X0139558Y0294898D02*
X0137514Y0294898D01*
X0127996Y0301031D02*
X0127996Y0313298D01*
X0134129Y0313298D01*
X0134129Y0311254D01*
X0122691Y0309209D02*
X0122691Y0307165D01*
X0114514Y0307165D01*
X0114514Y0309209D02*
X0114514Y0304098D01*
X0114513Y0304098D02*
X0114515Y0303989D01*
X0114521Y0303879D01*
X0114531Y0303770D01*
X0114544Y0303662D01*
X0114562Y0303553D01*
X0114583Y0303446D01*
X0114608Y0303340D01*
X0114637Y0303234D01*
X0114670Y0303129D01*
X0114706Y0303026D01*
X0114746Y0302924D01*
X0114790Y0302824D01*
X0114837Y0302725D01*
X0114888Y0302628D01*
X0114942Y0302533D01*
X0115000Y0302440D01*
X0115061Y0302349D01*
X0115125Y0302260D01*
X0115192Y0302174D01*
X0115262Y0302090D01*
X0115335Y0302008D01*
X0115411Y0301929D01*
X0115490Y0301853D01*
X0115572Y0301780D01*
X0115656Y0301710D01*
X0115742Y0301643D01*
X0115831Y0301579D01*
X0115922Y0301518D01*
X0116015Y0301460D01*
X0116110Y0301406D01*
X0116207Y0301355D01*
X0116306Y0301308D01*
X0116406Y0301264D01*
X0116508Y0301224D01*
X0116611Y0301188D01*
X0116716Y0301155D01*
X0116822Y0301126D01*
X0116928Y0301101D01*
X0117035Y0301080D01*
X0117144Y0301062D01*
X0117252Y0301049D01*
X0117361Y0301039D01*
X0117471Y0301033D01*
X0117580Y0301031D01*
X0122691Y0301031D01*
X0110191Y0301031D02*
X0109169Y0301031D01*
X0109060Y0301033D01*
X0108950Y0301039D01*
X0108841Y0301049D01*
X0108733Y0301062D01*
X0108624Y0301080D01*
X0108517Y0301101D01*
X0108411Y0301126D01*
X0108305Y0301155D01*
X0108200Y0301188D01*
X0108097Y0301224D01*
X0107995Y0301264D01*
X0107895Y0301308D01*
X0107796Y0301355D01*
X0107699Y0301406D01*
X0107604Y0301460D01*
X0107511Y0301518D01*
X0107420Y0301579D01*
X0107331Y0301643D01*
X0107245Y0301710D01*
X0107161Y0301780D01*
X0107079Y0301853D01*
X0107000Y0301929D01*
X0106924Y0302008D01*
X0106851Y0302090D01*
X0106781Y0302174D01*
X0106714Y0302260D01*
X0106650Y0302349D01*
X0106589Y0302440D01*
X0106531Y0302533D01*
X0106477Y0302628D01*
X0106426Y0302725D01*
X0106379Y0302824D01*
X0106335Y0302924D01*
X0106295Y0303026D01*
X0106259Y0303129D01*
X0106226Y0303234D01*
X0106197Y0303340D01*
X0106172Y0303446D01*
X0106151Y0303553D01*
X0106133Y0303662D01*
X0106120Y0303770D01*
X0106110Y0303879D01*
X0106104Y0303989D01*
X0106102Y0304098D01*
X0106102Y0319431D01*
X0104058Y0313298D02*
X0110191Y0313298D01*
X0114513Y0309209D02*
X0114515Y0309336D01*
X0114521Y0309463D01*
X0114531Y0309590D01*
X0114545Y0309716D01*
X0114562Y0309842D01*
X0114584Y0309968D01*
X0114610Y0310092D01*
X0114639Y0310216D01*
X0114672Y0310339D01*
X0114709Y0310460D01*
X0114750Y0310581D01*
X0114795Y0310700D01*
X0114843Y0310818D01*
X0114895Y0310934D01*
X0114950Y0311048D01*
X0115009Y0311161D01*
X0115071Y0311272D01*
X0115137Y0311381D01*
X0115207Y0311487D01*
X0115279Y0311592D01*
X0115355Y0311694D01*
X0115434Y0311794D01*
X0115516Y0311891D01*
X0115600Y0311986D01*
X0115688Y0312078D01*
X0115779Y0312167D01*
X0115872Y0312253D01*
X0115968Y0312337D01*
X0116067Y0312417D01*
X0116168Y0312494D01*
X0116271Y0312569D01*
X0116377Y0312639D01*
X0116485Y0312707D01*
X0116594Y0312771D01*
X0116706Y0312832D01*
X0116820Y0312889D01*
X0116935Y0312943D01*
X0117052Y0312993D01*
X0117170Y0313039D01*
X0117290Y0313082D01*
X0117411Y0313121D01*
X0117533Y0313156D01*
X0117657Y0313187D01*
X0117781Y0313215D01*
X0117906Y0313238D01*
X0118032Y0313258D01*
X0118158Y0313274D01*
X0118284Y0313286D01*
X0118411Y0313294D01*
X0118538Y0313298D01*
X0118666Y0313298D01*
X0118793Y0313294D01*
X0118920Y0313286D01*
X0119046Y0313274D01*
X0119172Y0313258D01*
X0119298Y0313238D01*
X0119423Y0313215D01*
X0119547Y0313187D01*
X0119671Y0313156D01*
X0119793Y0313121D01*
X0119914Y0313082D01*
X0120034Y0313039D01*
X0120152Y0312993D01*
X0120269Y0312943D01*
X0120384Y0312889D01*
X0120498Y0312832D01*
X0120610Y0312771D01*
X0120719Y0312707D01*
X0120827Y0312639D01*
X0120933Y0312569D01*
X0121036Y0312494D01*
X0121137Y0312417D01*
X0121236Y0312337D01*
X0121332Y0312253D01*
X0121425Y0312167D01*
X0121516Y0312078D01*
X0121604Y0311986D01*
X0121688Y0311891D01*
X0121770Y0311794D01*
X0121849Y0311694D01*
X0121925Y0311592D01*
X0121997Y0311487D01*
X0122067Y0311381D01*
X0122133Y0311272D01*
X0122195Y0311161D01*
X0122254Y0311048D01*
X0122309Y0310934D01*
X0122361Y0310818D01*
X0122409Y0310700D01*
X0122454Y0310581D01*
X0122495Y0310460D01*
X0122532Y0310339D01*
X0122565Y0310216D01*
X0122594Y0310092D01*
X0122620Y0309968D01*
X0122642Y0309842D01*
X0122659Y0309716D01*
X0122673Y0309590D01*
X0122683Y0309463D01*
X0122689Y0309336D01*
X0122691Y0309209D01*
X0100691Y0313298D02*
X0094558Y0313298D01*
X0090204Y0310231D02*
X0090204Y0301031D01*
X0085604Y0301031D01*
X0085486Y0301033D01*
X0085368Y0301039D01*
X0085250Y0301049D01*
X0085132Y0301062D01*
X0085015Y0301080D01*
X0084899Y0301101D01*
X0084783Y0301126D01*
X0084668Y0301155D01*
X0084555Y0301188D01*
X0084442Y0301225D01*
X0084331Y0301265D01*
X0084221Y0301309D01*
X0084113Y0301357D01*
X0084006Y0301408D01*
X0083901Y0301462D01*
X0083798Y0301520D01*
X0083697Y0301582D01*
X0083598Y0301646D01*
X0083501Y0301714D01*
X0083406Y0301785D01*
X0083314Y0301860D01*
X0083225Y0301937D01*
X0083137Y0302017D01*
X0083053Y0302100D01*
X0082972Y0302186D01*
X0082893Y0302274D01*
X0082817Y0302365D01*
X0082745Y0302458D01*
X0082675Y0302554D01*
X0082609Y0302652D01*
X0082546Y0302752D01*
X0082486Y0302854D01*
X0082430Y0302958D01*
X0082377Y0303064D01*
X0082327Y0303172D01*
X0082282Y0303281D01*
X0082240Y0303391D01*
X0082201Y0303503D01*
X0082166Y0303616D01*
X0082135Y0303731D01*
X0082108Y0303846D01*
X0082085Y0303962D01*
X0082066Y0304079D01*
X0082050Y0304196D01*
X0082038Y0304314D01*
X0082030Y0304432D01*
X0082026Y0304550D01*
X0082026Y0304668D01*
X0082030Y0304786D01*
X0082038Y0304904D01*
X0082050Y0305022D01*
X0082066Y0305139D01*
X0082085Y0305256D01*
X0082108Y0305372D01*
X0082135Y0305487D01*
X0082166Y0305602D01*
X0082201Y0305715D01*
X0082240Y0305827D01*
X0082282Y0305937D01*
X0082327Y0306046D01*
X0082377Y0306154D01*
X0082430Y0306260D01*
X0082486Y0306364D01*
X0082546Y0306466D01*
X0082609Y0306566D01*
X0082675Y0306664D01*
X0082745Y0306760D01*
X0082817Y0306853D01*
X0082893Y0306944D01*
X0082972Y0307032D01*
X0083053Y0307118D01*
X0083137Y0307201D01*
X0083225Y0307281D01*
X0083314Y0307358D01*
X0083406Y0307433D01*
X0083501Y0307504D01*
X0083598Y0307572D01*
X0083697Y0307636D01*
X0083798Y0307698D01*
X0083901Y0307756D01*
X0084006Y0307810D01*
X0084113Y0307861D01*
X0084221Y0307909D01*
X0084331Y0307953D01*
X0084442Y0307993D01*
X0084555Y0308030D01*
X0084668Y0308063D01*
X0084783Y0308092D01*
X0084899Y0308117D01*
X0085015Y0308138D01*
X0085132Y0308156D01*
X0085250Y0308169D01*
X0085368Y0308179D01*
X0085486Y0308185D01*
X0085604Y0308187D01*
X0090204Y0308187D01*
X0090204Y0310231D02*
X0090202Y0310340D01*
X0090196Y0310450D01*
X0090186Y0310559D01*
X0090173Y0310667D01*
X0090155Y0310776D01*
X0090134Y0310883D01*
X0090109Y0310989D01*
X0090080Y0311095D01*
X0090047Y0311200D01*
X0090011Y0311303D01*
X0089971Y0311405D01*
X0089927Y0311505D01*
X0089880Y0311604D01*
X0089829Y0311701D01*
X0089775Y0311796D01*
X0089717Y0311889D01*
X0089656Y0311980D01*
X0089592Y0312069D01*
X0089525Y0312155D01*
X0089455Y0312239D01*
X0089382Y0312321D01*
X0089306Y0312400D01*
X0089227Y0312476D01*
X0089145Y0312549D01*
X0089061Y0312619D01*
X0088975Y0312686D01*
X0088886Y0312750D01*
X0088795Y0312811D01*
X0088702Y0312869D01*
X0088607Y0312923D01*
X0088510Y0312974D01*
X0088411Y0313021D01*
X0088311Y0313065D01*
X0088209Y0313105D01*
X0088106Y0313141D01*
X0088001Y0313174D01*
X0087895Y0313203D01*
X0087789Y0313228D01*
X0087682Y0313249D01*
X0087573Y0313267D01*
X0087465Y0313280D01*
X0087356Y0313290D01*
X0087246Y0313296D01*
X0087137Y0313298D01*
X0083048Y0313298D01*
X0072565Y0311254D02*
X0067454Y0311254D01*
X0072565Y0311254D02*
X0072707Y0311252D01*
X0072849Y0311246D01*
X0072991Y0311236D01*
X0073132Y0311222D01*
X0073273Y0311205D01*
X0073414Y0311183D01*
X0073553Y0311158D01*
X0073692Y0311128D01*
X0073831Y0311095D01*
X0073968Y0311058D01*
X0074104Y0311017D01*
X0074239Y0310972D01*
X0074372Y0310924D01*
X0074504Y0310872D01*
X0074635Y0310816D01*
X0074764Y0310757D01*
X0074892Y0310694D01*
X0075017Y0310627D01*
X0075141Y0310557D01*
X0075263Y0310484D01*
X0075382Y0310407D01*
X0075500Y0310327D01*
X0075615Y0310244D01*
X0075728Y0310158D01*
X0075838Y0310068D01*
X0075946Y0309976D01*
X0076051Y0309880D01*
X0076154Y0309782D01*
X0076254Y0309681D01*
X0076351Y0309577D01*
X0076445Y0309470D01*
X0076536Y0309361D01*
X0076623Y0309250D01*
X0076708Y0309136D01*
X0076790Y0309019D01*
X0076868Y0308901D01*
X0076943Y0308780D01*
X0077015Y0308657D01*
X0077083Y0308533D01*
X0077148Y0308406D01*
X0077209Y0308278D01*
X0077266Y0308148D01*
X0077320Y0308017D01*
X0077370Y0307884D01*
X0077417Y0307749D01*
X0077460Y0307614D01*
X0077499Y0307477D01*
X0077534Y0307340D01*
X0077565Y0307201D01*
X0077593Y0307062D01*
X0077616Y0306921D01*
X0077636Y0306781D01*
X0077652Y0306640D01*
X0077664Y0306498D01*
X0077672Y0306356D01*
X0077676Y0306214D01*
X0077676Y0306072D01*
X0077672Y0305930D01*
X0077664Y0305788D01*
X0077652Y0305646D01*
X0077636Y0305505D01*
X0077616Y0305365D01*
X0077593Y0305224D01*
X0077565Y0305085D01*
X0077534Y0304946D01*
X0077499Y0304809D01*
X0077460Y0304672D01*
X0077417Y0304537D01*
X0077370Y0304402D01*
X0077320Y0304269D01*
X0077266Y0304138D01*
X0077209Y0304008D01*
X0077148Y0303880D01*
X0077083Y0303753D01*
X0077015Y0303629D01*
X0076943Y0303506D01*
X0076868Y0303385D01*
X0076790Y0303267D01*
X0076708Y0303150D01*
X0076623Y0303036D01*
X0076536Y0302925D01*
X0076445Y0302816D01*
X0076351Y0302709D01*
X0076254Y0302605D01*
X0076154Y0302504D01*
X0076051Y0302406D01*
X0075946Y0302310D01*
X0075838Y0302218D01*
X0075728Y0302128D01*
X0075615Y0302042D01*
X0075500Y0301959D01*
X0075382Y0301879D01*
X0075263Y0301802D01*
X0075141Y0301729D01*
X0075017Y0301659D01*
X0074892Y0301592D01*
X0074764Y0301529D01*
X0074635Y0301470D01*
X0074504Y0301414D01*
X0074372Y0301362D01*
X0074239Y0301314D01*
X0074104Y0301269D01*
X0073968Y0301228D01*
X0073831Y0301191D01*
X0073692Y0301158D01*
X0073553Y0301128D01*
X0073414Y0301103D01*
X0073273Y0301081D01*
X0073132Y0301064D01*
X0072991Y0301050D01*
X0072849Y0301040D01*
X0072707Y0301034D01*
X0072565Y0301032D01*
X0072565Y0301031D02*
X0067454Y0301031D01*
X0067454Y0319431D01*
X0072565Y0319431D01*
X0072565Y0319432D02*
X0072692Y0319430D01*
X0072819Y0319424D01*
X0072946Y0319414D01*
X0073072Y0319400D01*
X0073198Y0319383D01*
X0073324Y0319361D01*
X0073448Y0319335D01*
X0073572Y0319306D01*
X0073695Y0319273D01*
X0073816Y0319236D01*
X0073937Y0319195D01*
X0074056Y0319150D01*
X0074174Y0319102D01*
X0074290Y0319050D01*
X0074404Y0318995D01*
X0074517Y0318936D01*
X0074628Y0318874D01*
X0074737Y0318808D01*
X0074843Y0318738D01*
X0074948Y0318666D01*
X0075050Y0318590D01*
X0075150Y0318511D01*
X0075247Y0318429D01*
X0075342Y0318345D01*
X0075434Y0318257D01*
X0075523Y0318166D01*
X0075609Y0318073D01*
X0075693Y0317977D01*
X0075773Y0317878D01*
X0075850Y0317777D01*
X0075925Y0317674D01*
X0075995Y0317568D01*
X0076063Y0317460D01*
X0076127Y0317351D01*
X0076188Y0317239D01*
X0076245Y0317125D01*
X0076299Y0317010D01*
X0076349Y0316893D01*
X0076395Y0316775D01*
X0076438Y0316655D01*
X0076477Y0316534D01*
X0076512Y0316412D01*
X0076543Y0316288D01*
X0076571Y0316164D01*
X0076594Y0316039D01*
X0076614Y0315913D01*
X0076630Y0315787D01*
X0076642Y0315661D01*
X0076650Y0315534D01*
X0076654Y0315407D01*
X0076654Y0315279D01*
X0076650Y0315152D01*
X0076642Y0315025D01*
X0076630Y0314899D01*
X0076614Y0314773D01*
X0076594Y0314647D01*
X0076571Y0314522D01*
X0076543Y0314398D01*
X0076512Y0314274D01*
X0076477Y0314152D01*
X0076438Y0314031D01*
X0076395Y0313911D01*
X0076349Y0313793D01*
X0076299Y0313676D01*
X0076245Y0313561D01*
X0076188Y0313447D01*
X0076127Y0313335D01*
X0076063Y0313226D01*
X0075995Y0313118D01*
X0075925Y0313012D01*
X0075850Y0312909D01*
X0075773Y0312808D01*
X0075693Y0312709D01*
X0075609Y0312613D01*
X0075523Y0312520D01*
X0075434Y0312429D01*
X0075342Y0312341D01*
X0075247Y0312257D01*
X0075150Y0312175D01*
X0075050Y0312096D01*
X0074948Y0312020D01*
X0074843Y0311948D01*
X0074737Y0311878D01*
X0074628Y0311812D01*
X0074517Y0311750D01*
X0074404Y0311691D01*
X0074290Y0311636D01*
X0074174Y0311584D01*
X0074056Y0311536D01*
X0073937Y0311491D01*
X0073816Y0311450D01*
X0073695Y0311413D01*
X0073572Y0311380D01*
X0073448Y0311351D01*
X0073324Y0311325D01*
X0073198Y0311303D01*
X0073072Y0311286D01*
X0072946Y0311272D01*
X0072819Y0311262D01*
X0072692Y0311256D01*
X0072565Y0311254D01*
X0096602Y0304098D02*
X0096602Y0319431D01*
X0096602Y0304098D02*
X0096604Y0303989D01*
X0096610Y0303879D01*
X0096620Y0303770D01*
X0096633Y0303662D01*
X0096651Y0303553D01*
X0096672Y0303446D01*
X0096697Y0303340D01*
X0096726Y0303234D01*
X0096759Y0303129D01*
X0096795Y0303026D01*
X0096835Y0302924D01*
X0096879Y0302824D01*
X0096926Y0302725D01*
X0096977Y0302628D01*
X0097031Y0302533D01*
X0097089Y0302440D01*
X0097150Y0302349D01*
X0097214Y0302260D01*
X0097281Y0302174D01*
X0097351Y0302090D01*
X0097424Y0302008D01*
X0097500Y0301929D01*
X0097579Y0301853D01*
X0097661Y0301780D01*
X0097745Y0301710D01*
X0097831Y0301643D01*
X0097920Y0301579D01*
X0098011Y0301518D01*
X0098104Y0301460D01*
X0098199Y0301406D01*
X0098296Y0301355D01*
X0098395Y0301308D01*
X0098495Y0301264D01*
X0098597Y0301224D01*
X0098700Y0301188D01*
X0098805Y0301155D01*
X0098911Y0301126D01*
X0099017Y0301101D01*
X0099124Y0301080D01*
X0099233Y0301062D01*
X0099341Y0301049D01*
X0099450Y0301039D01*
X0099560Y0301033D01*
X0099669Y0301031D01*
X0100691Y0301031D01*
X0158454Y0301031D02*
X0158454Y0319431D01*
X0163565Y0319431D01*
X0163565Y0319432D02*
X0163692Y0319430D01*
X0163819Y0319424D01*
X0163946Y0319414D01*
X0164072Y0319400D01*
X0164198Y0319383D01*
X0164324Y0319361D01*
X0164448Y0319335D01*
X0164572Y0319306D01*
X0164695Y0319273D01*
X0164816Y0319236D01*
X0164937Y0319195D01*
X0165056Y0319150D01*
X0165174Y0319102D01*
X0165290Y0319050D01*
X0165404Y0318995D01*
X0165517Y0318936D01*
X0165628Y0318874D01*
X0165737Y0318808D01*
X0165843Y0318738D01*
X0165948Y0318666D01*
X0166050Y0318590D01*
X0166150Y0318511D01*
X0166247Y0318429D01*
X0166342Y0318345D01*
X0166434Y0318257D01*
X0166523Y0318166D01*
X0166609Y0318073D01*
X0166693Y0317977D01*
X0166773Y0317878D01*
X0166850Y0317777D01*
X0166925Y0317674D01*
X0166995Y0317568D01*
X0167063Y0317460D01*
X0167127Y0317351D01*
X0167188Y0317239D01*
X0167245Y0317125D01*
X0167299Y0317010D01*
X0167349Y0316893D01*
X0167395Y0316775D01*
X0167438Y0316655D01*
X0167477Y0316534D01*
X0167512Y0316412D01*
X0167543Y0316288D01*
X0167571Y0316164D01*
X0167594Y0316039D01*
X0167614Y0315913D01*
X0167630Y0315787D01*
X0167642Y0315661D01*
X0167650Y0315534D01*
X0167654Y0315407D01*
X0167654Y0315279D01*
X0167650Y0315152D01*
X0167642Y0315025D01*
X0167630Y0314899D01*
X0167614Y0314773D01*
X0167594Y0314647D01*
X0167571Y0314522D01*
X0167543Y0314398D01*
X0167512Y0314274D01*
X0167477Y0314152D01*
X0167438Y0314031D01*
X0167395Y0313911D01*
X0167349Y0313793D01*
X0167299Y0313676D01*
X0167245Y0313561D01*
X0167188Y0313447D01*
X0167127Y0313335D01*
X0167063Y0313226D01*
X0166995Y0313118D01*
X0166925Y0313012D01*
X0166850Y0312909D01*
X0166773Y0312808D01*
X0166693Y0312709D01*
X0166609Y0312613D01*
X0166523Y0312520D01*
X0166434Y0312429D01*
X0166342Y0312341D01*
X0166247Y0312257D01*
X0166150Y0312175D01*
X0166050Y0312096D01*
X0165948Y0312020D01*
X0165843Y0311948D01*
X0165737Y0311878D01*
X0165628Y0311812D01*
X0165517Y0311750D01*
X0165404Y0311691D01*
X0165290Y0311636D01*
X0165174Y0311584D01*
X0165056Y0311536D01*
X0164937Y0311491D01*
X0164816Y0311450D01*
X0164695Y0311413D01*
X0164572Y0311380D01*
X0164448Y0311351D01*
X0164324Y0311325D01*
X0164198Y0311303D01*
X0164072Y0311286D01*
X0163946Y0311272D01*
X0163819Y0311262D01*
X0163692Y0311256D01*
X0163565Y0311254D01*
X0158454Y0311254D01*
X0163565Y0311254D02*
X0163707Y0311252D01*
X0163849Y0311246D01*
X0163991Y0311236D01*
X0164132Y0311222D01*
X0164273Y0311205D01*
X0164414Y0311183D01*
X0164553Y0311158D01*
X0164692Y0311128D01*
X0164831Y0311095D01*
X0164968Y0311058D01*
X0165104Y0311017D01*
X0165239Y0310972D01*
X0165372Y0310924D01*
X0165504Y0310872D01*
X0165635Y0310816D01*
X0165764Y0310757D01*
X0165892Y0310694D01*
X0166017Y0310627D01*
X0166141Y0310557D01*
X0166263Y0310484D01*
X0166382Y0310407D01*
X0166500Y0310327D01*
X0166615Y0310244D01*
X0166728Y0310158D01*
X0166838Y0310068D01*
X0166946Y0309976D01*
X0167051Y0309880D01*
X0167154Y0309782D01*
X0167254Y0309681D01*
X0167351Y0309577D01*
X0167445Y0309470D01*
X0167536Y0309361D01*
X0167623Y0309250D01*
X0167708Y0309136D01*
X0167790Y0309019D01*
X0167868Y0308901D01*
X0167943Y0308780D01*
X0168015Y0308657D01*
X0168083Y0308533D01*
X0168148Y0308406D01*
X0168209Y0308278D01*
X0168266Y0308148D01*
X0168320Y0308017D01*
X0168370Y0307884D01*
X0168417Y0307749D01*
X0168460Y0307614D01*
X0168499Y0307477D01*
X0168534Y0307340D01*
X0168565Y0307201D01*
X0168593Y0307062D01*
X0168616Y0306921D01*
X0168636Y0306781D01*
X0168652Y0306640D01*
X0168664Y0306498D01*
X0168672Y0306356D01*
X0168676Y0306214D01*
X0168676Y0306072D01*
X0168672Y0305930D01*
X0168664Y0305788D01*
X0168652Y0305646D01*
X0168636Y0305505D01*
X0168616Y0305365D01*
X0168593Y0305224D01*
X0168565Y0305085D01*
X0168534Y0304946D01*
X0168499Y0304809D01*
X0168460Y0304672D01*
X0168417Y0304537D01*
X0168370Y0304402D01*
X0168320Y0304269D01*
X0168266Y0304138D01*
X0168209Y0304008D01*
X0168148Y0303880D01*
X0168083Y0303753D01*
X0168015Y0303629D01*
X0167943Y0303506D01*
X0167868Y0303385D01*
X0167790Y0303267D01*
X0167708Y0303150D01*
X0167623Y0303036D01*
X0167536Y0302925D01*
X0167445Y0302816D01*
X0167351Y0302709D01*
X0167254Y0302605D01*
X0167154Y0302504D01*
X0167051Y0302406D01*
X0166946Y0302310D01*
X0166838Y0302218D01*
X0166728Y0302128D01*
X0166615Y0302042D01*
X0166500Y0301959D01*
X0166382Y0301879D01*
X0166263Y0301802D01*
X0166141Y0301729D01*
X0166017Y0301659D01*
X0165892Y0301592D01*
X0165764Y0301529D01*
X0165635Y0301470D01*
X0165504Y0301414D01*
X0165372Y0301362D01*
X0165239Y0301314D01*
X0165104Y0301269D01*
X0164968Y0301228D01*
X0164831Y0301191D01*
X0164692Y0301158D01*
X0164553Y0301128D01*
X0164414Y0301103D01*
X0164273Y0301081D01*
X0164132Y0301064D01*
X0163991Y0301050D01*
X0163849Y0301040D01*
X0163707Y0301034D01*
X0163565Y0301032D01*
X0163565Y0301031D02*
X0158454Y0301031D01*
D11*
X0261443Y0312050D02*
X0264998Y0312050D01*
X0263220Y0312050D02*
X0263220Y0305650D01*
X0267391Y0307427D02*
X0267391Y0312050D01*
X0270947Y0312050D02*
X0270947Y0307427D01*
X0270945Y0307344D01*
X0270939Y0307261D01*
X0270929Y0307178D01*
X0270916Y0307095D01*
X0270898Y0307014D01*
X0270877Y0306933D01*
X0270852Y0306854D01*
X0270823Y0306776D01*
X0270791Y0306699D01*
X0270755Y0306624D01*
X0270716Y0306550D01*
X0270673Y0306479D01*
X0270627Y0306409D01*
X0270577Y0306342D01*
X0270525Y0306277D01*
X0270470Y0306215D01*
X0270411Y0306155D01*
X0270350Y0306098D01*
X0270287Y0306044D01*
X0270221Y0305993D01*
X0270152Y0305946D01*
X0270082Y0305901D01*
X0270009Y0305860D01*
X0269935Y0305823D01*
X0269859Y0305788D01*
X0269781Y0305758D01*
X0269703Y0305731D01*
X0269622Y0305708D01*
X0269541Y0305688D01*
X0269459Y0305673D01*
X0269377Y0305661D01*
X0269294Y0305653D01*
X0269211Y0305649D01*
X0269127Y0305649D01*
X0269044Y0305653D01*
X0268961Y0305661D01*
X0268879Y0305673D01*
X0268797Y0305688D01*
X0268716Y0305708D01*
X0268635Y0305731D01*
X0268557Y0305758D01*
X0268479Y0305788D01*
X0268403Y0305823D01*
X0268329Y0305860D01*
X0268256Y0305901D01*
X0268186Y0305946D01*
X0268117Y0305993D01*
X0268051Y0306044D01*
X0267988Y0306098D01*
X0267927Y0306155D01*
X0267868Y0306215D01*
X0267813Y0306277D01*
X0267761Y0306342D01*
X0267711Y0306409D01*
X0267665Y0306479D01*
X0267622Y0306550D01*
X0267583Y0306624D01*
X0267547Y0306699D01*
X0267515Y0306776D01*
X0267486Y0306854D01*
X0267461Y0306933D01*
X0267440Y0307014D01*
X0267422Y0307095D01*
X0267409Y0307178D01*
X0267399Y0307261D01*
X0267393Y0307344D01*
X0267391Y0307427D01*
X0274434Y0309383D02*
X0276390Y0308316D01*
X0275679Y0305650D02*
X0275571Y0305652D01*
X0275464Y0305658D01*
X0275356Y0305667D01*
X0275249Y0305681D01*
X0275143Y0305698D01*
X0275037Y0305719D01*
X0274932Y0305744D01*
X0274828Y0305773D01*
X0274725Y0305805D01*
X0274624Y0305841D01*
X0274524Y0305881D01*
X0274425Y0305924D01*
X0274328Y0305971D01*
X0274232Y0306021D01*
X0274139Y0306075D01*
X0274047Y0306132D01*
X0273958Y0306192D01*
X0273871Y0306255D01*
X0273786Y0306322D01*
X0273703Y0306391D01*
X0273623Y0306464D01*
X0273546Y0306539D01*
X0276390Y0308316D02*
X0276454Y0308276D01*
X0276515Y0308233D01*
X0276574Y0308187D01*
X0276631Y0308138D01*
X0276685Y0308086D01*
X0276736Y0308032D01*
X0276784Y0307974D01*
X0276830Y0307915D01*
X0276872Y0307853D01*
X0276911Y0307788D01*
X0276946Y0307722D01*
X0276978Y0307655D01*
X0277007Y0307585D01*
X0277032Y0307515D01*
X0277053Y0307443D01*
X0277070Y0307370D01*
X0277084Y0307296D01*
X0277093Y0307222D01*
X0277099Y0307147D01*
X0277101Y0307072D01*
X0277099Y0306998D01*
X0277093Y0306923D01*
X0277083Y0306850D01*
X0277070Y0306776D01*
X0277053Y0306704D01*
X0277031Y0306633D01*
X0277007Y0306562D01*
X0276978Y0306494D01*
X0276946Y0306426D01*
X0276910Y0306361D01*
X0276872Y0306298D01*
X0276829Y0306236D01*
X0276784Y0306177D01*
X0276736Y0306120D01*
X0276685Y0306066D01*
X0276631Y0306015D01*
X0276574Y0305967D01*
X0276515Y0305922D01*
X0276453Y0305879D01*
X0276390Y0305841D01*
X0276325Y0305805D01*
X0276257Y0305773D01*
X0276189Y0305744D01*
X0276118Y0305720D01*
X0276047Y0305698D01*
X0275975Y0305681D01*
X0275901Y0305668D01*
X0275828Y0305658D01*
X0275753Y0305652D01*
X0275679Y0305650D01*
X0276745Y0311517D02*
X0276663Y0311576D01*
X0276579Y0311632D01*
X0276493Y0311684D01*
X0276405Y0311734D01*
X0276315Y0311780D01*
X0276224Y0311822D01*
X0276131Y0311861D01*
X0276036Y0311897D01*
X0275940Y0311929D01*
X0275843Y0311957D01*
X0275746Y0311982D01*
X0275647Y0312002D01*
X0275547Y0312019D01*
X0275447Y0312033D01*
X0275347Y0312042D01*
X0275246Y0312048D01*
X0275145Y0312050D01*
X0275145Y0312049D02*
X0275071Y0312047D01*
X0274996Y0312041D01*
X0274923Y0312031D01*
X0274849Y0312018D01*
X0274777Y0312001D01*
X0274706Y0311979D01*
X0274635Y0311955D01*
X0274567Y0311926D01*
X0274499Y0311894D01*
X0274434Y0311858D01*
X0274371Y0311820D01*
X0274309Y0311777D01*
X0274250Y0311732D01*
X0274194Y0311684D01*
X0274139Y0311633D01*
X0274088Y0311579D01*
X0274040Y0311522D01*
X0273995Y0311463D01*
X0273952Y0311401D01*
X0273914Y0311338D01*
X0273878Y0311273D01*
X0273846Y0311205D01*
X0273817Y0311137D01*
X0273793Y0311066D01*
X0273771Y0310995D01*
X0273754Y0310923D01*
X0273741Y0310849D01*
X0273731Y0310776D01*
X0273725Y0310701D01*
X0273723Y0310627D01*
X0273724Y0310627D02*
X0273726Y0310552D01*
X0273732Y0310477D01*
X0273741Y0310403D01*
X0273755Y0310329D01*
X0273772Y0310256D01*
X0273793Y0310184D01*
X0273818Y0310114D01*
X0273847Y0310044D01*
X0273879Y0309977D01*
X0273914Y0309911D01*
X0273953Y0309846D01*
X0273995Y0309784D01*
X0274041Y0309725D01*
X0274089Y0309667D01*
X0274140Y0309613D01*
X0274194Y0309561D01*
X0274251Y0309512D01*
X0274310Y0309466D01*
X0274371Y0309423D01*
X0274435Y0309383D01*
X0283065Y0309205D02*
X0284842Y0309205D01*
X0284916Y0309207D01*
X0284991Y0309213D01*
X0285064Y0309223D01*
X0285138Y0309236D01*
X0285210Y0309253D01*
X0285281Y0309275D01*
X0285352Y0309299D01*
X0285420Y0309328D01*
X0285488Y0309360D01*
X0285553Y0309396D01*
X0285616Y0309434D01*
X0285678Y0309477D01*
X0285737Y0309522D01*
X0285794Y0309570D01*
X0285848Y0309621D01*
X0285899Y0309675D01*
X0285947Y0309732D01*
X0285992Y0309791D01*
X0286035Y0309853D01*
X0286073Y0309916D01*
X0286109Y0309981D01*
X0286141Y0310049D01*
X0286170Y0310117D01*
X0286194Y0310188D01*
X0286216Y0310259D01*
X0286233Y0310331D01*
X0286246Y0310405D01*
X0286256Y0310478D01*
X0286262Y0310553D01*
X0286264Y0310627D01*
X0286262Y0310701D01*
X0286256Y0310776D01*
X0286246Y0310849D01*
X0286233Y0310923D01*
X0286216Y0310995D01*
X0286194Y0311066D01*
X0286170Y0311137D01*
X0286141Y0311205D01*
X0286109Y0311273D01*
X0286073Y0311338D01*
X0286035Y0311401D01*
X0285992Y0311463D01*
X0285947Y0311522D01*
X0285899Y0311579D01*
X0285848Y0311633D01*
X0285794Y0311684D01*
X0285737Y0311732D01*
X0285678Y0311777D01*
X0285616Y0311820D01*
X0285553Y0311858D01*
X0285488Y0311894D01*
X0285420Y0311926D01*
X0285352Y0311955D01*
X0285281Y0311979D01*
X0285210Y0312001D01*
X0285138Y0312018D01*
X0285064Y0312031D01*
X0284991Y0312041D01*
X0284916Y0312047D01*
X0284842Y0312049D01*
X0284842Y0312050D02*
X0283065Y0312050D01*
X0283065Y0305650D01*
X0284842Y0305650D01*
X0284842Y0305649D02*
X0284925Y0305651D01*
X0285008Y0305657D01*
X0285091Y0305667D01*
X0285174Y0305680D01*
X0285255Y0305698D01*
X0285336Y0305719D01*
X0285415Y0305744D01*
X0285493Y0305773D01*
X0285570Y0305805D01*
X0285645Y0305841D01*
X0285719Y0305880D01*
X0285790Y0305923D01*
X0285860Y0305969D01*
X0285927Y0306019D01*
X0285992Y0306071D01*
X0286054Y0306126D01*
X0286114Y0306185D01*
X0286171Y0306246D01*
X0286225Y0306309D01*
X0286276Y0306375D01*
X0286323Y0306444D01*
X0286368Y0306514D01*
X0286409Y0306587D01*
X0286446Y0306661D01*
X0286481Y0306737D01*
X0286511Y0306815D01*
X0286538Y0306893D01*
X0286561Y0306974D01*
X0286581Y0307055D01*
X0286596Y0307137D01*
X0286608Y0307219D01*
X0286616Y0307302D01*
X0286620Y0307385D01*
X0286620Y0307469D01*
X0286616Y0307552D01*
X0286608Y0307635D01*
X0286596Y0307717D01*
X0286581Y0307799D01*
X0286561Y0307880D01*
X0286538Y0307961D01*
X0286511Y0308039D01*
X0286481Y0308117D01*
X0286446Y0308193D01*
X0286409Y0308267D01*
X0286368Y0308340D01*
X0286323Y0308410D01*
X0286276Y0308479D01*
X0286225Y0308545D01*
X0286171Y0308608D01*
X0286114Y0308669D01*
X0286054Y0308728D01*
X0285992Y0308783D01*
X0285927Y0308835D01*
X0285860Y0308885D01*
X0285790Y0308931D01*
X0285719Y0308974D01*
X0285645Y0309013D01*
X0285570Y0309049D01*
X0285493Y0309081D01*
X0285415Y0309110D01*
X0285336Y0309135D01*
X0285255Y0309156D01*
X0285174Y0309174D01*
X0285091Y0309187D01*
X0285008Y0309197D01*
X0284925Y0309203D01*
X0284842Y0309205D01*
X0289203Y0309916D02*
X0290625Y0309916D01*
X0290625Y0309917D02*
X0290689Y0309915D01*
X0290754Y0309909D01*
X0290817Y0309900D01*
X0290880Y0309886D01*
X0290942Y0309869D01*
X0291003Y0309848D01*
X0291063Y0309823D01*
X0291121Y0309795D01*
X0291177Y0309763D01*
X0291231Y0309728D01*
X0291283Y0309690D01*
X0291333Y0309649D01*
X0291379Y0309604D01*
X0291424Y0309558D01*
X0291465Y0309508D01*
X0291503Y0309456D01*
X0291538Y0309402D01*
X0291570Y0309346D01*
X0291598Y0309288D01*
X0291623Y0309228D01*
X0291644Y0309167D01*
X0291661Y0309105D01*
X0291675Y0309042D01*
X0291684Y0308979D01*
X0291690Y0308914D01*
X0291692Y0308850D01*
X0291691Y0308850D02*
X0291691Y0305650D01*
X0290091Y0305650D01*
X0290021Y0305652D01*
X0289952Y0305658D01*
X0289883Y0305668D01*
X0289814Y0305681D01*
X0289747Y0305699D01*
X0289680Y0305720D01*
X0289615Y0305745D01*
X0289551Y0305773D01*
X0289489Y0305805D01*
X0289429Y0305841D01*
X0289371Y0305879D01*
X0289315Y0305921D01*
X0289262Y0305966D01*
X0289211Y0306014D01*
X0289163Y0306065D01*
X0289118Y0306118D01*
X0289076Y0306174D01*
X0289038Y0306232D01*
X0289002Y0306292D01*
X0288970Y0306354D01*
X0288942Y0306418D01*
X0288917Y0306483D01*
X0288896Y0306550D01*
X0288878Y0306617D01*
X0288865Y0306686D01*
X0288855Y0306755D01*
X0288849Y0306824D01*
X0288847Y0306894D01*
X0288849Y0306964D01*
X0288855Y0307033D01*
X0288865Y0307102D01*
X0288878Y0307171D01*
X0288896Y0307238D01*
X0288917Y0307305D01*
X0288942Y0307370D01*
X0288970Y0307434D01*
X0289002Y0307496D01*
X0289038Y0307556D01*
X0289076Y0307614D01*
X0289118Y0307670D01*
X0289163Y0307723D01*
X0289211Y0307774D01*
X0289262Y0307822D01*
X0289315Y0307867D01*
X0289371Y0307909D01*
X0289429Y0307947D01*
X0289489Y0307983D01*
X0289551Y0308015D01*
X0289615Y0308043D01*
X0289680Y0308068D01*
X0289747Y0308089D01*
X0289814Y0308107D01*
X0289883Y0308120D01*
X0289952Y0308130D01*
X0290021Y0308136D01*
X0290091Y0308138D01*
X0291691Y0308138D01*
X0293904Y0309916D02*
X0296037Y0309916D01*
X0297801Y0309916D02*
X0299935Y0309916D01*
X0298512Y0312050D02*
X0298512Y0306716D01*
X0298514Y0306652D01*
X0298520Y0306587D01*
X0298529Y0306524D01*
X0298543Y0306461D01*
X0298560Y0306399D01*
X0298581Y0306338D01*
X0298606Y0306278D01*
X0298634Y0306220D01*
X0298666Y0306164D01*
X0298701Y0306110D01*
X0298739Y0306058D01*
X0298780Y0306008D01*
X0298825Y0305962D01*
X0298871Y0305917D01*
X0298921Y0305876D01*
X0298973Y0305838D01*
X0299027Y0305803D01*
X0299083Y0305771D01*
X0299141Y0305743D01*
X0299201Y0305718D01*
X0299262Y0305697D01*
X0299324Y0305680D01*
X0299387Y0305666D01*
X0299450Y0305657D01*
X0299515Y0305651D01*
X0299579Y0305649D01*
X0299579Y0305650D02*
X0299935Y0305650D01*
X0302210Y0306716D02*
X0302210Y0308494D01*
X0302210Y0307783D02*
X0305054Y0307783D01*
X0305054Y0308494D01*
X0305052Y0308568D01*
X0305046Y0308643D01*
X0305036Y0308716D01*
X0305023Y0308790D01*
X0305006Y0308862D01*
X0304984Y0308933D01*
X0304960Y0309004D01*
X0304931Y0309072D01*
X0304899Y0309140D01*
X0304863Y0309205D01*
X0304825Y0309268D01*
X0304782Y0309330D01*
X0304737Y0309389D01*
X0304689Y0309446D01*
X0304638Y0309500D01*
X0304584Y0309551D01*
X0304527Y0309599D01*
X0304468Y0309644D01*
X0304406Y0309687D01*
X0304343Y0309725D01*
X0304278Y0309761D01*
X0304210Y0309793D01*
X0304142Y0309822D01*
X0304071Y0309846D01*
X0304000Y0309868D01*
X0303928Y0309885D01*
X0303854Y0309898D01*
X0303781Y0309908D01*
X0303706Y0309914D01*
X0303632Y0309916D01*
X0303558Y0309914D01*
X0303483Y0309908D01*
X0303410Y0309898D01*
X0303336Y0309885D01*
X0303264Y0309868D01*
X0303193Y0309846D01*
X0303122Y0309822D01*
X0303054Y0309793D01*
X0302986Y0309761D01*
X0302921Y0309725D01*
X0302858Y0309687D01*
X0302796Y0309644D01*
X0302737Y0309599D01*
X0302680Y0309551D01*
X0302626Y0309500D01*
X0302575Y0309446D01*
X0302527Y0309389D01*
X0302482Y0309330D01*
X0302439Y0309268D01*
X0302401Y0309205D01*
X0302365Y0309140D01*
X0302333Y0309072D01*
X0302304Y0309004D01*
X0302280Y0308933D01*
X0302258Y0308862D01*
X0302241Y0308790D01*
X0302228Y0308716D01*
X0302218Y0308643D01*
X0302212Y0308568D01*
X0302210Y0308494D01*
X0302209Y0306716D02*
X0302211Y0306652D01*
X0302217Y0306587D01*
X0302226Y0306524D01*
X0302240Y0306461D01*
X0302257Y0306399D01*
X0302278Y0306338D01*
X0302303Y0306278D01*
X0302331Y0306220D01*
X0302363Y0306164D01*
X0302398Y0306110D01*
X0302436Y0306058D01*
X0302477Y0306008D01*
X0302522Y0305962D01*
X0302568Y0305917D01*
X0302618Y0305876D01*
X0302670Y0305838D01*
X0302724Y0305803D01*
X0302780Y0305771D01*
X0302838Y0305743D01*
X0302898Y0305718D01*
X0302959Y0305697D01*
X0303021Y0305680D01*
X0303084Y0305666D01*
X0303147Y0305657D01*
X0303212Y0305651D01*
X0303276Y0305649D01*
X0303276Y0305650D02*
X0305054Y0305650D01*
X0307782Y0305650D02*
X0307782Y0309916D01*
X0309915Y0309916D01*
X0309915Y0309205D01*
X0311646Y0309916D02*
X0313068Y0305650D01*
X0312357Y0303516D02*
X0314490Y0309916D01*
X0320261Y0309916D02*
X0322039Y0309916D01*
X0322039Y0309917D02*
X0322103Y0309915D01*
X0322168Y0309909D01*
X0322231Y0309900D01*
X0322294Y0309886D01*
X0322356Y0309869D01*
X0322417Y0309848D01*
X0322477Y0309823D01*
X0322535Y0309795D01*
X0322591Y0309763D01*
X0322645Y0309728D01*
X0322697Y0309690D01*
X0322747Y0309649D01*
X0322793Y0309604D01*
X0322838Y0309558D01*
X0322879Y0309508D01*
X0322917Y0309456D01*
X0322952Y0309402D01*
X0322984Y0309346D01*
X0323012Y0309288D01*
X0323037Y0309228D01*
X0323058Y0309167D01*
X0323075Y0309105D01*
X0323089Y0309042D01*
X0323098Y0308979D01*
X0323104Y0308914D01*
X0323106Y0308850D01*
X0323106Y0305650D01*
X0320261Y0305650D02*
X0320261Y0312050D01*
X0325800Y0308494D02*
X0325800Y0307072D01*
X0325802Y0306998D01*
X0325808Y0306923D01*
X0325818Y0306850D01*
X0325831Y0306776D01*
X0325848Y0306704D01*
X0325870Y0306633D01*
X0325894Y0306562D01*
X0325923Y0306494D01*
X0325955Y0306426D01*
X0325991Y0306361D01*
X0326029Y0306298D01*
X0326072Y0306236D01*
X0326117Y0306177D01*
X0326165Y0306120D01*
X0326216Y0306066D01*
X0326270Y0306015D01*
X0326327Y0305967D01*
X0326386Y0305922D01*
X0326448Y0305879D01*
X0326511Y0305841D01*
X0326576Y0305805D01*
X0326644Y0305773D01*
X0326712Y0305744D01*
X0326783Y0305720D01*
X0326854Y0305698D01*
X0326926Y0305681D01*
X0327000Y0305668D01*
X0327073Y0305658D01*
X0327148Y0305652D01*
X0327222Y0305650D01*
X0327296Y0305652D01*
X0327371Y0305658D01*
X0327444Y0305668D01*
X0327518Y0305681D01*
X0327590Y0305698D01*
X0327661Y0305720D01*
X0327732Y0305744D01*
X0327800Y0305773D01*
X0327868Y0305805D01*
X0327933Y0305841D01*
X0327996Y0305879D01*
X0328058Y0305922D01*
X0328117Y0305967D01*
X0328174Y0306015D01*
X0328228Y0306066D01*
X0328279Y0306120D01*
X0328327Y0306177D01*
X0328372Y0306236D01*
X0328415Y0306298D01*
X0328453Y0306361D01*
X0328489Y0306426D01*
X0328521Y0306494D01*
X0328550Y0306562D01*
X0328574Y0306633D01*
X0328596Y0306704D01*
X0328613Y0306776D01*
X0328626Y0306850D01*
X0328636Y0306923D01*
X0328642Y0306998D01*
X0328644Y0307072D01*
X0328644Y0308494D01*
X0328642Y0308568D01*
X0328636Y0308643D01*
X0328626Y0308716D01*
X0328613Y0308790D01*
X0328596Y0308862D01*
X0328574Y0308933D01*
X0328550Y0309004D01*
X0328521Y0309072D01*
X0328489Y0309140D01*
X0328453Y0309205D01*
X0328415Y0309268D01*
X0328372Y0309330D01*
X0328327Y0309389D01*
X0328279Y0309446D01*
X0328228Y0309500D01*
X0328174Y0309551D01*
X0328117Y0309599D01*
X0328058Y0309644D01*
X0327996Y0309687D01*
X0327933Y0309725D01*
X0327868Y0309761D01*
X0327800Y0309793D01*
X0327732Y0309822D01*
X0327661Y0309846D01*
X0327590Y0309868D01*
X0327518Y0309885D01*
X0327444Y0309898D01*
X0327371Y0309908D01*
X0327296Y0309914D01*
X0327222Y0309916D01*
X0327148Y0309914D01*
X0327073Y0309908D01*
X0327000Y0309898D01*
X0326926Y0309885D01*
X0326854Y0309868D01*
X0326783Y0309846D01*
X0326712Y0309822D01*
X0326644Y0309793D01*
X0326576Y0309761D01*
X0326511Y0309725D01*
X0326448Y0309687D01*
X0326386Y0309644D01*
X0326327Y0309599D01*
X0326270Y0309551D01*
X0326216Y0309500D01*
X0326165Y0309446D01*
X0326117Y0309389D01*
X0326072Y0309330D01*
X0326029Y0309268D01*
X0325991Y0309205D01*
X0325955Y0309140D01*
X0325923Y0309072D01*
X0325894Y0309004D01*
X0325870Y0308933D01*
X0325848Y0308862D01*
X0325831Y0308790D01*
X0325818Y0308716D01*
X0325808Y0308643D01*
X0325802Y0308568D01*
X0325800Y0308494D01*
X0331227Y0306716D02*
X0331227Y0312050D01*
X0334387Y0308850D02*
X0334387Y0306716D01*
X0334386Y0306716D02*
X0334388Y0306652D01*
X0334394Y0306587D01*
X0334403Y0306524D01*
X0334417Y0306461D01*
X0334434Y0306399D01*
X0334455Y0306338D01*
X0334480Y0306278D01*
X0334508Y0306220D01*
X0334540Y0306164D01*
X0334575Y0306110D01*
X0334613Y0306058D01*
X0334654Y0306008D01*
X0334699Y0305962D01*
X0334745Y0305917D01*
X0334795Y0305876D01*
X0334847Y0305838D01*
X0334901Y0305803D01*
X0334957Y0305771D01*
X0335015Y0305743D01*
X0335075Y0305718D01*
X0335136Y0305697D01*
X0335198Y0305680D01*
X0335261Y0305666D01*
X0335324Y0305657D01*
X0335389Y0305651D01*
X0335453Y0305649D01*
X0335453Y0305650D02*
X0337231Y0305650D01*
X0337231Y0312050D01*
X0337231Y0309916D02*
X0335453Y0309916D01*
X0335453Y0309917D02*
X0335389Y0309915D01*
X0335324Y0309909D01*
X0335261Y0309900D01*
X0335198Y0309886D01*
X0335136Y0309869D01*
X0335075Y0309848D01*
X0335015Y0309823D01*
X0334957Y0309795D01*
X0334901Y0309763D01*
X0334847Y0309728D01*
X0334795Y0309690D01*
X0334745Y0309649D01*
X0334699Y0309604D01*
X0334654Y0309558D01*
X0334613Y0309508D01*
X0334575Y0309456D01*
X0334540Y0309402D01*
X0334508Y0309346D01*
X0334480Y0309288D01*
X0334455Y0309228D01*
X0334434Y0309167D01*
X0334417Y0309105D01*
X0334403Y0309042D01*
X0334394Y0308979D01*
X0334388Y0308914D01*
X0334386Y0308850D01*
X0331226Y0306716D02*
X0331228Y0306652D01*
X0331234Y0306587D01*
X0331243Y0306524D01*
X0331257Y0306461D01*
X0331274Y0306399D01*
X0331295Y0306338D01*
X0331320Y0306278D01*
X0331348Y0306220D01*
X0331380Y0306164D01*
X0331415Y0306110D01*
X0331453Y0306058D01*
X0331494Y0306008D01*
X0331539Y0305962D01*
X0331585Y0305917D01*
X0331635Y0305876D01*
X0331687Y0305838D01*
X0331741Y0305803D01*
X0331797Y0305771D01*
X0331855Y0305743D01*
X0331915Y0305718D01*
X0331976Y0305697D01*
X0332038Y0305680D01*
X0332101Y0305666D01*
X0332164Y0305657D01*
X0332229Y0305651D01*
X0332293Y0305649D01*
X0339954Y0306716D02*
X0339954Y0308494D01*
X0339954Y0307783D02*
X0342799Y0307783D01*
X0342799Y0308494D01*
X0342798Y0308494D02*
X0342796Y0308568D01*
X0342790Y0308643D01*
X0342780Y0308716D01*
X0342767Y0308790D01*
X0342750Y0308862D01*
X0342728Y0308933D01*
X0342704Y0309004D01*
X0342675Y0309072D01*
X0342643Y0309140D01*
X0342607Y0309205D01*
X0342569Y0309268D01*
X0342526Y0309330D01*
X0342481Y0309389D01*
X0342433Y0309446D01*
X0342382Y0309500D01*
X0342328Y0309551D01*
X0342271Y0309599D01*
X0342212Y0309644D01*
X0342150Y0309687D01*
X0342087Y0309725D01*
X0342022Y0309761D01*
X0341954Y0309793D01*
X0341886Y0309822D01*
X0341815Y0309846D01*
X0341744Y0309868D01*
X0341672Y0309885D01*
X0341598Y0309898D01*
X0341525Y0309908D01*
X0341450Y0309914D01*
X0341376Y0309916D01*
X0341302Y0309914D01*
X0341227Y0309908D01*
X0341154Y0309898D01*
X0341080Y0309885D01*
X0341008Y0309868D01*
X0340937Y0309846D01*
X0340866Y0309822D01*
X0340798Y0309793D01*
X0340730Y0309761D01*
X0340665Y0309725D01*
X0340602Y0309687D01*
X0340540Y0309644D01*
X0340481Y0309599D01*
X0340424Y0309551D01*
X0340370Y0309500D01*
X0340319Y0309446D01*
X0340271Y0309389D01*
X0340226Y0309330D01*
X0340183Y0309268D01*
X0340145Y0309205D01*
X0340109Y0309140D01*
X0340077Y0309072D01*
X0340048Y0309004D01*
X0340024Y0308933D01*
X0340002Y0308862D01*
X0339985Y0308790D01*
X0339972Y0308716D01*
X0339962Y0308643D01*
X0339956Y0308568D01*
X0339954Y0308494D01*
X0339954Y0306716D02*
X0339956Y0306652D01*
X0339962Y0306587D01*
X0339971Y0306524D01*
X0339985Y0306461D01*
X0340002Y0306399D01*
X0340023Y0306338D01*
X0340048Y0306278D01*
X0340076Y0306220D01*
X0340108Y0306164D01*
X0340143Y0306110D01*
X0340181Y0306058D01*
X0340222Y0306008D01*
X0340267Y0305962D01*
X0340313Y0305917D01*
X0340363Y0305876D01*
X0340415Y0305838D01*
X0340469Y0305803D01*
X0340525Y0305771D01*
X0340583Y0305743D01*
X0340643Y0305718D01*
X0340704Y0305697D01*
X0340766Y0305680D01*
X0340829Y0305666D01*
X0340892Y0305657D01*
X0340957Y0305651D01*
X0341021Y0305649D01*
X0341021Y0305650D02*
X0342799Y0305650D01*
X0345526Y0305650D02*
X0345526Y0309916D01*
X0347660Y0309916D01*
X0347660Y0309205D01*
X0352672Y0309916D02*
X0354095Y0305650D01*
X0355517Y0309916D01*
X0357856Y0310627D02*
X0359633Y0312050D01*
X0359633Y0305650D01*
X0357856Y0305650D02*
X0361411Y0305650D01*
X0363763Y0305650D02*
X0364119Y0305650D01*
X0364119Y0306005D01*
X0363763Y0306005D01*
X0363763Y0305650D01*
X0369494Y0306539D02*
X0369554Y0306666D01*
X0369610Y0306795D01*
X0369663Y0306925D01*
X0369713Y0307057D01*
X0369759Y0307190D01*
X0369801Y0307324D01*
X0369840Y0307459D01*
X0369876Y0307596D01*
X0369907Y0307733D01*
X0369935Y0307871D01*
X0369960Y0308009D01*
X0369980Y0308148D01*
X0369997Y0308288D01*
X0370010Y0308428D01*
X0370019Y0308569D01*
X0370025Y0308709D01*
X0370027Y0308850D01*
X0366471Y0308850D02*
X0366473Y0308991D01*
X0366479Y0309131D01*
X0366488Y0309272D01*
X0366501Y0309412D01*
X0366518Y0309552D01*
X0366538Y0309691D01*
X0366563Y0309829D01*
X0366591Y0309967D01*
X0366622Y0310104D01*
X0366658Y0310241D01*
X0366697Y0310376D01*
X0366739Y0310510D01*
X0366785Y0310643D01*
X0366835Y0310775D01*
X0366888Y0310905D01*
X0366944Y0311034D01*
X0367004Y0311161D01*
X0368249Y0312050D02*
X0368320Y0312048D01*
X0368391Y0312042D01*
X0368461Y0312033D01*
X0368531Y0312019D01*
X0368600Y0312002D01*
X0368667Y0311982D01*
X0368734Y0311957D01*
X0368799Y0311929D01*
X0368863Y0311898D01*
X0368925Y0311863D01*
X0368985Y0311825D01*
X0369043Y0311784D01*
X0369098Y0311740D01*
X0369151Y0311692D01*
X0369201Y0311642D01*
X0369249Y0311590D01*
X0369294Y0311535D01*
X0369335Y0311477D01*
X0369374Y0311417D01*
X0369409Y0311356D01*
X0369441Y0311292D01*
X0369469Y0311227D01*
X0369494Y0311161D01*
X0369671Y0310627D02*
X0366827Y0307072D01*
X0368249Y0305649D02*
X0368320Y0305651D01*
X0368391Y0305657D01*
X0368461Y0305666D01*
X0368531Y0305680D01*
X0368600Y0305697D01*
X0368667Y0305717D01*
X0368734Y0305742D01*
X0368799Y0305770D01*
X0368863Y0305801D01*
X0368925Y0305836D01*
X0368985Y0305874D01*
X0369042Y0305915D01*
X0369098Y0305959D01*
X0369151Y0306007D01*
X0369201Y0306057D01*
X0369249Y0306109D01*
X0369294Y0306164D01*
X0369335Y0306222D01*
X0369374Y0306282D01*
X0369409Y0306343D01*
X0369441Y0306407D01*
X0369469Y0306472D01*
X0369494Y0306538D01*
X0368249Y0305649D02*
X0368178Y0305651D01*
X0368107Y0305657D01*
X0368037Y0305666D01*
X0367967Y0305680D01*
X0367898Y0305697D01*
X0367831Y0305717D01*
X0367764Y0305742D01*
X0367699Y0305770D01*
X0367635Y0305801D01*
X0367573Y0305836D01*
X0367513Y0305874D01*
X0367455Y0305915D01*
X0367400Y0305959D01*
X0367347Y0306007D01*
X0367297Y0306057D01*
X0367249Y0306109D01*
X0367204Y0306164D01*
X0367163Y0306222D01*
X0367124Y0306282D01*
X0367089Y0306343D01*
X0367057Y0306407D01*
X0367029Y0306472D01*
X0367004Y0306538D01*
X0370027Y0308850D02*
X0370025Y0308991D01*
X0370019Y0309131D01*
X0370010Y0309272D01*
X0369997Y0309412D01*
X0369980Y0309552D01*
X0369960Y0309691D01*
X0369935Y0309829D01*
X0369907Y0309967D01*
X0369876Y0310104D01*
X0369840Y0310241D01*
X0369801Y0310376D01*
X0369759Y0310510D01*
X0369713Y0310643D01*
X0369663Y0310775D01*
X0369610Y0310905D01*
X0369554Y0311034D01*
X0369494Y0311161D01*
X0368249Y0312050D02*
X0368178Y0312048D01*
X0368107Y0312042D01*
X0368037Y0312033D01*
X0367967Y0312019D01*
X0367898Y0312002D01*
X0367831Y0311982D01*
X0367764Y0311957D01*
X0367699Y0311929D01*
X0367635Y0311898D01*
X0367573Y0311863D01*
X0367513Y0311825D01*
X0367455Y0311784D01*
X0367400Y0311740D01*
X0367347Y0311692D01*
X0367297Y0311642D01*
X0367249Y0311590D01*
X0367204Y0311535D01*
X0367163Y0311477D01*
X0367124Y0311417D01*
X0367089Y0311356D01*
X0367057Y0311292D01*
X0367029Y0311227D01*
X0367004Y0311161D01*
X0366471Y0308850D02*
X0366473Y0308709D01*
X0366479Y0308569D01*
X0366488Y0308428D01*
X0366501Y0308288D01*
X0366518Y0308148D01*
X0366538Y0308009D01*
X0366563Y0307871D01*
X0366591Y0307733D01*
X0366622Y0307596D01*
X0366658Y0307459D01*
X0366697Y0307324D01*
X0366739Y0307190D01*
X0366785Y0307057D01*
X0366835Y0306925D01*
X0366888Y0306795D01*
X0366944Y0306666D01*
X0367004Y0306539D01*
X0312357Y0303516D02*
X0311646Y0303516D01*
X0296037Y0305650D02*
X0295681Y0305650D01*
X0295681Y0305649D02*
X0295617Y0305651D01*
X0295552Y0305657D01*
X0295489Y0305666D01*
X0295426Y0305680D01*
X0295364Y0305697D01*
X0295303Y0305718D01*
X0295243Y0305743D01*
X0295185Y0305771D01*
X0295129Y0305803D01*
X0295075Y0305838D01*
X0295023Y0305876D01*
X0294973Y0305917D01*
X0294927Y0305962D01*
X0294882Y0306008D01*
X0294841Y0306058D01*
X0294803Y0306110D01*
X0294768Y0306164D01*
X0294736Y0306220D01*
X0294708Y0306278D01*
X0294683Y0306338D01*
X0294662Y0306399D01*
X0294645Y0306461D01*
X0294631Y0306524D01*
X0294622Y0306587D01*
X0294616Y0306652D01*
X0294614Y0306716D01*
X0294615Y0306716D02*
X0294615Y0312050D01*
X0298844Y0072492D02*
X0300400Y0072492D01*
X0299622Y0072492D02*
X0299622Y0065492D01*
X0298844Y0065492D02*
X0300400Y0065492D01*
X0303004Y0068214D02*
X0307671Y0068214D01*
X0310655Y0072492D02*
X0312988Y0065492D01*
X0315322Y0072492D01*
X0317689Y0068214D02*
X0322356Y0068214D01*
X0320023Y0065881D02*
X0320023Y0070548D01*
X0326403Y0072492D02*
X0328736Y0065492D01*
X0331070Y0072492D01*
X0333437Y0068214D02*
X0338104Y0068214D01*
X0335847Y0059976D02*
X0333977Y0059976D01*
X0334863Y0058302D01*
X0335847Y0059976D01*
X0335566Y0059498D02*
X0334230Y0059498D01*
X0334547Y0058899D02*
X0335214Y0058899D01*
X0328114Y0032522D02*
X0326336Y0032522D01*
X0326336Y0026122D01*
X0328114Y0026122D01*
X0328197Y0026124D01*
X0328280Y0026130D01*
X0328363Y0026140D01*
X0328446Y0026153D01*
X0328527Y0026171D01*
X0328608Y0026192D01*
X0328687Y0026217D01*
X0328765Y0026246D01*
X0328842Y0026278D01*
X0328917Y0026314D01*
X0328991Y0026353D01*
X0329062Y0026396D01*
X0329132Y0026442D01*
X0329199Y0026492D01*
X0329264Y0026544D01*
X0329326Y0026599D01*
X0329386Y0026658D01*
X0329443Y0026719D01*
X0329497Y0026782D01*
X0329548Y0026848D01*
X0329595Y0026917D01*
X0329640Y0026987D01*
X0329681Y0027060D01*
X0329718Y0027134D01*
X0329753Y0027210D01*
X0329783Y0027288D01*
X0329810Y0027366D01*
X0329833Y0027447D01*
X0329853Y0027528D01*
X0329868Y0027610D01*
X0329880Y0027692D01*
X0329888Y0027775D01*
X0329892Y0027858D01*
X0329892Y0027942D01*
X0329888Y0028025D01*
X0329880Y0028108D01*
X0329868Y0028190D01*
X0329853Y0028272D01*
X0329833Y0028353D01*
X0329810Y0028434D01*
X0329783Y0028512D01*
X0329753Y0028590D01*
X0329718Y0028666D01*
X0329681Y0028740D01*
X0329640Y0028813D01*
X0329595Y0028883D01*
X0329548Y0028952D01*
X0329497Y0029018D01*
X0329443Y0029081D01*
X0329386Y0029142D01*
X0329326Y0029201D01*
X0329264Y0029256D01*
X0329199Y0029308D01*
X0329132Y0029358D01*
X0329062Y0029404D01*
X0328991Y0029447D01*
X0328917Y0029486D01*
X0328842Y0029522D01*
X0328765Y0029554D01*
X0328687Y0029583D01*
X0328608Y0029608D01*
X0328527Y0029629D01*
X0328446Y0029647D01*
X0328363Y0029660D01*
X0328280Y0029670D01*
X0328197Y0029676D01*
X0328114Y0029678D01*
X0326336Y0029678D01*
X0328114Y0029678D02*
X0328188Y0029680D01*
X0328263Y0029686D01*
X0328336Y0029696D01*
X0328410Y0029709D01*
X0328482Y0029726D01*
X0328553Y0029748D01*
X0328624Y0029772D01*
X0328692Y0029801D01*
X0328760Y0029833D01*
X0328825Y0029869D01*
X0328888Y0029907D01*
X0328950Y0029950D01*
X0329009Y0029995D01*
X0329066Y0030043D01*
X0329120Y0030094D01*
X0329171Y0030148D01*
X0329219Y0030205D01*
X0329264Y0030264D01*
X0329307Y0030326D01*
X0329345Y0030389D01*
X0329381Y0030454D01*
X0329413Y0030522D01*
X0329442Y0030590D01*
X0329466Y0030661D01*
X0329488Y0030732D01*
X0329505Y0030804D01*
X0329518Y0030878D01*
X0329528Y0030951D01*
X0329534Y0031026D01*
X0329536Y0031100D01*
X0329534Y0031174D01*
X0329528Y0031249D01*
X0329518Y0031322D01*
X0329505Y0031396D01*
X0329488Y0031468D01*
X0329466Y0031539D01*
X0329442Y0031610D01*
X0329413Y0031678D01*
X0329381Y0031746D01*
X0329345Y0031811D01*
X0329307Y0031874D01*
X0329264Y0031936D01*
X0329219Y0031995D01*
X0329171Y0032052D01*
X0329120Y0032106D01*
X0329066Y0032157D01*
X0329009Y0032205D01*
X0328950Y0032250D01*
X0328888Y0032293D01*
X0328825Y0032331D01*
X0328760Y0032367D01*
X0328692Y0032399D01*
X0328624Y0032428D01*
X0328553Y0032452D01*
X0328482Y0032474D01*
X0328410Y0032491D01*
X0328336Y0032504D01*
X0328263Y0032514D01*
X0328188Y0032520D01*
X0328114Y0032522D01*
X0320427Y0030389D02*
X0318294Y0023989D01*
X0317583Y0023989D01*
X0319005Y0026122D02*
X0317583Y0030389D01*
X0315852Y0030389D02*
X0315852Y0029678D01*
X0315852Y0030389D02*
X0313718Y0030389D01*
X0313718Y0026122D01*
X0310991Y0026122D02*
X0309213Y0026122D01*
X0309149Y0026124D01*
X0309084Y0026130D01*
X0309021Y0026139D01*
X0308958Y0026153D01*
X0308896Y0026170D01*
X0308835Y0026191D01*
X0308775Y0026216D01*
X0308717Y0026244D01*
X0308661Y0026276D01*
X0308607Y0026311D01*
X0308555Y0026349D01*
X0308505Y0026390D01*
X0308459Y0026435D01*
X0308414Y0026481D01*
X0308373Y0026531D01*
X0308335Y0026583D01*
X0308300Y0026637D01*
X0308268Y0026693D01*
X0308240Y0026751D01*
X0308215Y0026811D01*
X0308194Y0026872D01*
X0308177Y0026934D01*
X0308163Y0026997D01*
X0308154Y0027060D01*
X0308148Y0027125D01*
X0308146Y0027189D01*
X0308146Y0028966D01*
X0308146Y0028255D02*
X0310991Y0028255D01*
X0310991Y0028966D01*
X0310989Y0029040D01*
X0310983Y0029115D01*
X0310973Y0029188D01*
X0310960Y0029262D01*
X0310943Y0029334D01*
X0310921Y0029405D01*
X0310897Y0029476D01*
X0310868Y0029544D01*
X0310836Y0029612D01*
X0310800Y0029677D01*
X0310762Y0029740D01*
X0310719Y0029802D01*
X0310674Y0029861D01*
X0310626Y0029918D01*
X0310575Y0029972D01*
X0310521Y0030023D01*
X0310464Y0030071D01*
X0310405Y0030116D01*
X0310343Y0030159D01*
X0310280Y0030197D01*
X0310215Y0030233D01*
X0310147Y0030265D01*
X0310079Y0030294D01*
X0310008Y0030318D01*
X0309937Y0030340D01*
X0309865Y0030357D01*
X0309791Y0030370D01*
X0309718Y0030380D01*
X0309643Y0030386D01*
X0309569Y0030388D01*
X0309495Y0030386D01*
X0309420Y0030380D01*
X0309347Y0030370D01*
X0309273Y0030357D01*
X0309201Y0030340D01*
X0309130Y0030318D01*
X0309059Y0030294D01*
X0308991Y0030265D01*
X0308923Y0030233D01*
X0308858Y0030197D01*
X0308795Y0030159D01*
X0308733Y0030116D01*
X0308674Y0030071D01*
X0308617Y0030023D01*
X0308563Y0029972D01*
X0308512Y0029918D01*
X0308464Y0029861D01*
X0308419Y0029802D01*
X0308376Y0029740D01*
X0308338Y0029677D01*
X0308302Y0029612D01*
X0308270Y0029544D01*
X0308241Y0029476D01*
X0308217Y0029405D01*
X0308195Y0029334D01*
X0308178Y0029262D01*
X0308165Y0029188D01*
X0308155Y0029115D01*
X0308149Y0029040D01*
X0308147Y0028966D01*
X0305871Y0030389D02*
X0303738Y0030389D01*
X0301974Y0030389D02*
X0299841Y0030389D01*
X0300552Y0032522D02*
X0300552Y0027189D01*
X0300551Y0027189D02*
X0300553Y0027125D01*
X0300559Y0027060D01*
X0300568Y0026997D01*
X0300582Y0026934D01*
X0300599Y0026872D01*
X0300620Y0026811D01*
X0300645Y0026751D01*
X0300673Y0026693D01*
X0300705Y0026637D01*
X0300740Y0026583D01*
X0300778Y0026531D01*
X0300819Y0026481D01*
X0300864Y0026435D01*
X0300910Y0026390D01*
X0300960Y0026349D01*
X0301012Y0026311D01*
X0301066Y0026276D01*
X0301122Y0026244D01*
X0301180Y0026216D01*
X0301240Y0026191D01*
X0301301Y0026170D01*
X0301363Y0026153D01*
X0301426Y0026139D01*
X0301489Y0026130D01*
X0301554Y0026124D01*
X0301618Y0026122D01*
X0301974Y0026122D01*
X0304449Y0027189D02*
X0304449Y0032522D01*
X0304449Y0027189D02*
X0304451Y0027125D01*
X0304457Y0027060D01*
X0304466Y0026997D01*
X0304480Y0026934D01*
X0304497Y0026872D01*
X0304518Y0026811D01*
X0304543Y0026751D01*
X0304571Y0026693D01*
X0304603Y0026637D01*
X0304638Y0026583D01*
X0304676Y0026531D01*
X0304717Y0026481D01*
X0304762Y0026435D01*
X0304808Y0026390D01*
X0304858Y0026349D01*
X0304910Y0026311D01*
X0304964Y0026276D01*
X0305020Y0026244D01*
X0305078Y0026216D01*
X0305138Y0026191D01*
X0305199Y0026170D01*
X0305261Y0026153D01*
X0305324Y0026139D01*
X0305387Y0026130D01*
X0305452Y0026124D01*
X0305516Y0026122D01*
X0305871Y0026122D01*
X0297628Y0026122D02*
X0297628Y0029322D01*
X0297628Y0028611D02*
X0296028Y0028611D01*
X0297629Y0029322D02*
X0297627Y0029386D01*
X0297621Y0029451D01*
X0297612Y0029514D01*
X0297598Y0029577D01*
X0297581Y0029639D01*
X0297560Y0029700D01*
X0297535Y0029760D01*
X0297507Y0029818D01*
X0297475Y0029874D01*
X0297440Y0029928D01*
X0297402Y0029980D01*
X0297361Y0030030D01*
X0297316Y0030076D01*
X0297270Y0030121D01*
X0297220Y0030162D01*
X0297168Y0030200D01*
X0297114Y0030235D01*
X0297058Y0030267D01*
X0297000Y0030295D01*
X0296940Y0030320D01*
X0296879Y0030341D01*
X0296817Y0030358D01*
X0296754Y0030372D01*
X0296691Y0030381D01*
X0296626Y0030387D01*
X0296562Y0030389D01*
X0295139Y0030389D01*
X0296028Y0028610D02*
X0295958Y0028608D01*
X0295889Y0028602D01*
X0295820Y0028592D01*
X0295751Y0028579D01*
X0295684Y0028561D01*
X0295617Y0028540D01*
X0295552Y0028515D01*
X0295488Y0028487D01*
X0295426Y0028455D01*
X0295366Y0028419D01*
X0295308Y0028381D01*
X0295252Y0028339D01*
X0295199Y0028294D01*
X0295148Y0028246D01*
X0295100Y0028195D01*
X0295055Y0028142D01*
X0295013Y0028086D01*
X0294975Y0028028D01*
X0294939Y0027968D01*
X0294907Y0027906D01*
X0294879Y0027842D01*
X0294854Y0027777D01*
X0294833Y0027710D01*
X0294815Y0027643D01*
X0294802Y0027574D01*
X0294792Y0027505D01*
X0294786Y0027436D01*
X0294784Y0027366D01*
X0294786Y0027296D01*
X0294792Y0027227D01*
X0294802Y0027158D01*
X0294815Y0027089D01*
X0294833Y0027022D01*
X0294854Y0026955D01*
X0294879Y0026890D01*
X0294907Y0026826D01*
X0294939Y0026764D01*
X0294975Y0026704D01*
X0295013Y0026646D01*
X0295055Y0026590D01*
X0295100Y0026537D01*
X0295148Y0026486D01*
X0295199Y0026438D01*
X0295252Y0026393D01*
X0295308Y0026351D01*
X0295366Y0026313D01*
X0295426Y0026277D01*
X0295488Y0026245D01*
X0295552Y0026217D01*
X0295617Y0026192D01*
X0295684Y0026171D01*
X0295751Y0026153D01*
X0295820Y0026140D01*
X0295889Y0026130D01*
X0295958Y0026124D01*
X0296028Y0026122D01*
X0297628Y0026122D01*
X0290779Y0026122D02*
X0289002Y0026122D01*
X0289002Y0032522D01*
X0290779Y0032522D01*
X0290853Y0032520D01*
X0290928Y0032514D01*
X0291001Y0032504D01*
X0291075Y0032491D01*
X0291147Y0032474D01*
X0291218Y0032452D01*
X0291289Y0032428D01*
X0291357Y0032399D01*
X0291425Y0032367D01*
X0291490Y0032331D01*
X0291553Y0032293D01*
X0291615Y0032250D01*
X0291674Y0032205D01*
X0291731Y0032157D01*
X0291785Y0032106D01*
X0291836Y0032052D01*
X0291884Y0031995D01*
X0291929Y0031936D01*
X0291972Y0031874D01*
X0292010Y0031811D01*
X0292046Y0031746D01*
X0292078Y0031678D01*
X0292107Y0031610D01*
X0292131Y0031539D01*
X0292153Y0031468D01*
X0292170Y0031396D01*
X0292183Y0031322D01*
X0292193Y0031249D01*
X0292199Y0031174D01*
X0292201Y0031100D01*
X0292199Y0031026D01*
X0292193Y0030951D01*
X0292183Y0030878D01*
X0292170Y0030804D01*
X0292153Y0030732D01*
X0292131Y0030661D01*
X0292107Y0030590D01*
X0292078Y0030522D01*
X0292046Y0030454D01*
X0292010Y0030389D01*
X0291972Y0030326D01*
X0291929Y0030264D01*
X0291884Y0030205D01*
X0291836Y0030148D01*
X0291785Y0030094D01*
X0291731Y0030043D01*
X0291674Y0029995D01*
X0291615Y0029950D01*
X0291553Y0029907D01*
X0291490Y0029869D01*
X0291425Y0029833D01*
X0291357Y0029801D01*
X0291289Y0029772D01*
X0291218Y0029748D01*
X0291147Y0029726D01*
X0291075Y0029709D01*
X0291001Y0029696D01*
X0290928Y0029686D01*
X0290853Y0029680D01*
X0290779Y0029678D01*
X0289002Y0029678D01*
X0290779Y0029678D02*
X0290862Y0029676D01*
X0290945Y0029670D01*
X0291028Y0029660D01*
X0291111Y0029647D01*
X0291192Y0029629D01*
X0291273Y0029608D01*
X0291352Y0029583D01*
X0291430Y0029554D01*
X0291507Y0029522D01*
X0291582Y0029486D01*
X0291656Y0029447D01*
X0291727Y0029404D01*
X0291797Y0029358D01*
X0291864Y0029308D01*
X0291929Y0029256D01*
X0291991Y0029201D01*
X0292051Y0029142D01*
X0292108Y0029081D01*
X0292162Y0029018D01*
X0292213Y0028952D01*
X0292260Y0028883D01*
X0292305Y0028813D01*
X0292346Y0028740D01*
X0292383Y0028666D01*
X0292418Y0028590D01*
X0292448Y0028512D01*
X0292475Y0028434D01*
X0292498Y0028353D01*
X0292518Y0028272D01*
X0292533Y0028190D01*
X0292545Y0028108D01*
X0292553Y0028025D01*
X0292557Y0027942D01*
X0292557Y0027858D01*
X0292553Y0027775D01*
X0292545Y0027692D01*
X0292533Y0027610D01*
X0292518Y0027528D01*
X0292498Y0027447D01*
X0292475Y0027366D01*
X0292448Y0027288D01*
X0292418Y0027210D01*
X0292383Y0027134D01*
X0292346Y0027060D01*
X0292305Y0026987D01*
X0292260Y0026917D01*
X0292213Y0026848D01*
X0292162Y0026782D01*
X0292108Y0026719D01*
X0292051Y0026658D01*
X0291991Y0026599D01*
X0291929Y0026544D01*
X0291864Y0026492D01*
X0291797Y0026442D01*
X0291727Y0026396D01*
X0291656Y0026353D01*
X0291582Y0026314D01*
X0291507Y0026278D01*
X0291430Y0026246D01*
X0291352Y0026217D01*
X0291273Y0026192D01*
X0291192Y0026171D01*
X0291111Y0026153D01*
X0291028Y0026140D01*
X0290945Y0026130D01*
X0290862Y0026124D01*
X0290779Y0026122D01*
X0286620Y0065492D02*
X0285065Y0065492D01*
X0285842Y0065492D02*
X0285842Y0072492D01*
X0285065Y0072492D02*
X0286620Y0072492D01*
X0289224Y0068214D02*
X0293891Y0068214D01*
X0291558Y0065881D02*
X0291558Y0070548D01*
X0226946Y0030744D02*
X0226946Y0027900D01*
X0226944Y0027818D01*
X0226938Y0027736D01*
X0226929Y0027654D01*
X0226916Y0027573D01*
X0226899Y0027493D01*
X0226878Y0027413D01*
X0226854Y0027335D01*
X0226826Y0027258D01*
X0226795Y0027182D01*
X0226760Y0027107D01*
X0226721Y0027035D01*
X0226680Y0026964D01*
X0226635Y0026895D01*
X0226587Y0026829D01*
X0226536Y0026764D01*
X0226482Y0026702D01*
X0226425Y0026643D01*
X0226366Y0026586D01*
X0226304Y0026532D01*
X0226239Y0026481D01*
X0226173Y0026433D01*
X0226104Y0026388D01*
X0226033Y0026347D01*
X0225961Y0026308D01*
X0225886Y0026273D01*
X0225810Y0026242D01*
X0225733Y0026214D01*
X0225655Y0026190D01*
X0225575Y0026169D01*
X0225495Y0026152D01*
X0225414Y0026139D01*
X0225332Y0026130D01*
X0225250Y0026124D01*
X0225168Y0026122D01*
X0223390Y0026122D01*
X0223390Y0032522D01*
X0225168Y0032522D01*
X0225250Y0032520D01*
X0225332Y0032514D01*
X0225414Y0032505D01*
X0225495Y0032492D01*
X0225575Y0032475D01*
X0225655Y0032454D01*
X0225733Y0032430D01*
X0225810Y0032402D01*
X0225886Y0032371D01*
X0225961Y0032336D01*
X0226033Y0032297D01*
X0226104Y0032256D01*
X0226173Y0032211D01*
X0226239Y0032163D01*
X0226304Y0032112D01*
X0226366Y0032058D01*
X0226425Y0032001D01*
X0226482Y0031942D01*
X0226536Y0031880D01*
X0226587Y0031815D01*
X0226635Y0031749D01*
X0226680Y0031680D01*
X0226721Y0031609D01*
X0226760Y0031537D01*
X0226795Y0031462D01*
X0226826Y0031386D01*
X0226854Y0031309D01*
X0226878Y0031231D01*
X0226899Y0031151D01*
X0226916Y0031071D01*
X0226929Y0030990D01*
X0226938Y0030908D01*
X0226944Y0030826D01*
X0226946Y0030744D01*
X0220381Y0032522D02*
X0220381Y0026122D01*
X0216826Y0032522D01*
X0216826Y0026122D01*
X0213817Y0026122D02*
X0213817Y0029678D01*
X0212750Y0029678D01*
X0210262Y0031100D02*
X0210264Y0031174D01*
X0210270Y0031249D01*
X0210280Y0031322D01*
X0210293Y0031396D01*
X0210310Y0031468D01*
X0210332Y0031539D01*
X0210356Y0031610D01*
X0210385Y0031678D01*
X0210417Y0031746D01*
X0210453Y0031811D01*
X0210491Y0031874D01*
X0210534Y0031936D01*
X0210579Y0031995D01*
X0210627Y0032051D01*
X0210678Y0032106D01*
X0210732Y0032157D01*
X0210789Y0032205D01*
X0210848Y0032250D01*
X0210910Y0032293D01*
X0210973Y0032331D01*
X0211038Y0032367D01*
X0211106Y0032399D01*
X0211174Y0032428D01*
X0211245Y0032452D01*
X0211316Y0032474D01*
X0211388Y0032491D01*
X0211462Y0032504D01*
X0211535Y0032514D01*
X0211610Y0032520D01*
X0211684Y0032522D01*
X0213817Y0032522D01*
X0210261Y0031100D02*
X0210261Y0027544D01*
X0210262Y0027544D02*
X0210264Y0027470D01*
X0210270Y0027395D01*
X0210280Y0027322D01*
X0210293Y0027248D01*
X0210310Y0027176D01*
X0210332Y0027105D01*
X0210356Y0027034D01*
X0210385Y0026966D01*
X0210417Y0026898D01*
X0210453Y0026833D01*
X0210491Y0026770D01*
X0210534Y0026708D01*
X0210579Y0026649D01*
X0210627Y0026592D01*
X0210678Y0026538D01*
X0210732Y0026487D01*
X0210789Y0026439D01*
X0210848Y0026394D01*
X0210910Y0026351D01*
X0210973Y0026313D01*
X0211038Y0026277D01*
X0211106Y0026245D01*
X0211174Y0026216D01*
X0211245Y0026192D01*
X0211316Y0026170D01*
X0211388Y0026153D01*
X0211462Y0026140D01*
X0211535Y0026130D01*
X0211610Y0026124D01*
X0211684Y0026122D01*
X0213817Y0026122D01*
X0160668Y0026122D02*
X0158534Y0032522D01*
X0156401Y0026122D01*
X0156934Y0027722D02*
X0160134Y0027722D01*
X0151136Y0030389D02*
X0149002Y0023989D01*
X0148291Y0023989D01*
X0149713Y0026122D02*
X0148291Y0030389D01*
X0146560Y0030389D02*
X0146560Y0029678D01*
X0146560Y0030389D02*
X0144427Y0030389D01*
X0144427Y0026122D01*
X0141699Y0026122D02*
X0139922Y0026122D01*
X0139858Y0026124D01*
X0139793Y0026130D01*
X0139730Y0026139D01*
X0139667Y0026153D01*
X0139605Y0026170D01*
X0139544Y0026191D01*
X0139484Y0026216D01*
X0139426Y0026244D01*
X0139370Y0026276D01*
X0139316Y0026311D01*
X0139264Y0026349D01*
X0139214Y0026390D01*
X0139168Y0026435D01*
X0139123Y0026481D01*
X0139082Y0026531D01*
X0139044Y0026583D01*
X0139009Y0026637D01*
X0138977Y0026693D01*
X0138949Y0026751D01*
X0138924Y0026811D01*
X0138903Y0026872D01*
X0138886Y0026934D01*
X0138872Y0026997D01*
X0138863Y0027060D01*
X0138857Y0027125D01*
X0138855Y0027189D01*
X0138855Y0028966D01*
X0138855Y0028255D02*
X0141699Y0028255D01*
X0141699Y0028966D01*
X0141697Y0029040D01*
X0141691Y0029115D01*
X0141681Y0029188D01*
X0141668Y0029262D01*
X0141651Y0029334D01*
X0141629Y0029405D01*
X0141605Y0029476D01*
X0141576Y0029544D01*
X0141544Y0029612D01*
X0141508Y0029677D01*
X0141470Y0029740D01*
X0141427Y0029802D01*
X0141382Y0029861D01*
X0141334Y0029918D01*
X0141283Y0029972D01*
X0141229Y0030023D01*
X0141172Y0030071D01*
X0141113Y0030116D01*
X0141051Y0030159D01*
X0140988Y0030197D01*
X0140923Y0030233D01*
X0140855Y0030265D01*
X0140787Y0030294D01*
X0140716Y0030318D01*
X0140645Y0030340D01*
X0140573Y0030357D01*
X0140499Y0030370D01*
X0140426Y0030380D01*
X0140351Y0030386D01*
X0140277Y0030388D01*
X0140203Y0030386D01*
X0140128Y0030380D01*
X0140055Y0030370D01*
X0139981Y0030357D01*
X0139909Y0030340D01*
X0139838Y0030318D01*
X0139767Y0030294D01*
X0139699Y0030265D01*
X0139631Y0030233D01*
X0139566Y0030197D01*
X0139503Y0030159D01*
X0139441Y0030116D01*
X0139382Y0030071D01*
X0139325Y0030023D01*
X0139271Y0029972D01*
X0139220Y0029918D01*
X0139172Y0029861D01*
X0139127Y0029802D01*
X0139084Y0029740D01*
X0139046Y0029677D01*
X0139010Y0029612D01*
X0138978Y0029544D01*
X0138949Y0029476D01*
X0138925Y0029405D01*
X0138903Y0029334D01*
X0138886Y0029262D01*
X0138873Y0029188D01*
X0138863Y0029115D01*
X0138857Y0029040D01*
X0138855Y0028966D01*
X0136580Y0030389D02*
X0134447Y0030389D01*
X0132683Y0030389D02*
X0130549Y0030389D01*
X0131260Y0032522D02*
X0131260Y0027189D01*
X0131262Y0027125D01*
X0131268Y0027060D01*
X0131277Y0026997D01*
X0131291Y0026934D01*
X0131308Y0026872D01*
X0131329Y0026811D01*
X0131354Y0026751D01*
X0131382Y0026693D01*
X0131414Y0026637D01*
X0131449Y0026583D01*
X0131487Y0026531D01*
X0131528Y0026481D01*
X0131573Y0026435D01*
X0131619Y0026390D01*
X0131669Y0026349D01*
X0131721Y0026311D01*
X0131775Y0026276D01*
X0131831Y0026244D01*
X0131889Y0026216D01*
X0131949Y0026191D01*
X0132010Y0026170D01*
X0132072Y0026153D01*
X0132135Y0026139D01*
X0132198Y0026130D01*
X0132263Y0026124D01*
X0132327Y0026122D01*
X0132683Y0026122D01*
X0135158Y0027189D02*
X0135158Y0032522D01*
X0128337Y0029322D02*
X0128337Y0026122D01*
X0126737Y0026122D01*
X0126667Y0026124D01*
X0126598Y0026130D01*
X0126529Y0026140D01*
X0126460Y0026153D01*
X0126393Y0026171D01*
X0126326Y0026192D01*
X0126261Y0026217D01*
X0126197Y0026245D01*
X0126135Y0026277D01*
X0126075Y0026313D01*
X0126017Y0026351D01*
X0125961Y0026393D01*
X0125908Y0026438D01*
X0125857Y0026486D01*
X0125809Y0026537D01*
X0125764Y0026590D01*
X0125722Y0026646D01*
X0125684Y0026704D01*
X0125648Y0026764D01*
X0125616Y0026826D01*
X0125588Y0026890D01*
X0125563Y0026955D01*
X0125542Y0027022D01*
X0125524Y0027089D01*
X0125511Y0027158D01*
X0125501Y0027227D01*
X0125495Y0027296D01*
X0125493Y0027366D01*
X0125495Y0027436D01*
X0125501Y0027505D01*
X0125511Y0027574D01*
X0125524Y0027643D01*
X0125542Y0027710D01*
X0125563Y0027777D01*
X0125588Y0027842D01*
X0125616Y0027906D01*
X0125648Y0027968D01*
X0125684Y0028028D01*
X0125722Y0028086D01*
X0125764Y0028142D01*
X0125809Y0028195D01*
X0125857Y0028246D01*
X0125908Y0028294D01*
X0125961Y0028339D01*
X0126017Y0028381D01*
X0126075Y0028419D01*
X0126135Y0028455D01*
X0126197Y0028487D01*
X0126261Y0028515D01*
X0126326Y0028540D01*
X0126393Y0028561D01*
X0126460Y0028579D01*
X0126529Y0028592D01*
X0126598Y0028602D01*
X0126667Y0028608D01*
X0126737Y0028610D01*
X0126737Y0028611D02*
X0128337Y0028611D01*
X0128337Y0029322D02*
X0128335Y0029386D01*
X0128329Y0029451D01*
X0128320Y0029514D01*
X0128306Y0029577D01*
X0128289Y0029639D01*
X0128268Y0029700D01*
X0128243Y0029760D01*
X0128215Y0029818D01*
X0128183Y0029874D01*
X0128148Y0029928D01*
X0128110Y0029980D01*
X0128069Y0030030D01*
X0128024Y0030076D01*
X0127978Y0030121D01*
X0127928Y0030162D01*
X0127876Y0030200D01*
X0127822Y0030235D01*
X0127766Y0030267D01*
X0127708Y0030295D01*
X0127648Y0030320D01*
X0127587Y0030341D01*
X0127525Y0030358D01*
X0127462Y0030372D01*
X0127399Y0030381D01*
X0127334Y0030387D01*
X0127270Y0030389D01*
X0125848Y0030389D01*
X0121488Y0029678D02*
X0121562Y0029680D01*
X0121637Y0029686D01*
X0121710Y0029696D01*
X0121784Y0029709D01*
X0121856Y0029726D01*
X0121927Y0029748D01*
X0121998Y0029772D01*
X0122066Y0029801D01*
X0122134Y0029833D01*
X0122199Y0029869D01*
X0122262Y0029907D01*
X0122324Y0029950D01*
X0122383Y0029995D01*
X0122440Y0030043D01*
X0122494Y0030094D01*
X0122545Y0030148D01*
X0122593Y0030205D01*
X0122638Y0030264D01*
X0122681Y0030326D01*
X0122719Y0030389D01*
X0122755Y0030454D01*
X0122787Y0030522D01*
X0122816Y0030590D01*
X0122840Y0030661D01*
X0122862Y0030732D01*
X0122879Y0030804D01*
X0122892Y0030878D01*
X0122902Y0030951D01*
X0122908Y0031026D01*
X0122910Y0031100D01*
X0122908Y0031174D01*
X0122902Y0031249D01*
X0122892Y0031322D01*
X0122879Y0031396D01*
X0122862Y0031468D01*
X0122840Y0031539D01*
X0122816Y0031610D01*
X0122787Y0031678D01*
X0122755Y0031746D01*
X0122719Y0031811D01*
X0122681Y0031874D01*
X0122638Y0031936D01*
X0122593Y0031995D01*
X0122545Y0032052D01*
X0122494Y0032106D01*
X0122440Y0032157D01*
X0122383Y0032205D01*
X0122324Y0032250D01*
X0122262Y0032293D01*
X0122199Y0032331D01*
X0122134Y0032367D01*
X0122066Y0032399D01*
X0121998Y0032428D01*
X0121927Y0032452D01*
X0121856Y0032474D01*
X0121784Y0032491D01*
X0121710Y0032504D01*
X0121637Y0032514D01*
X0121562Y0032520D01*
X0121488Y0032522D01*
X0119710Y0032522D01*
X0119710Y0026122D01*
X0121488Y0026122D01*
X0121571Y0026124D01*
X0121654Y0026130D01*
X0121737Y0026140D01*
X0121820Y0026153D01*
X0121901Y0026171D01*
X0121982Y0026192D01*
X0122061Y0026217D01*
X0122139Y0026246D01*
X0122216Y0026278D01*
X0122291Y0026314D01*
X0122365Y0026353D01*
X0122436Y0026396D01*
X0122506Y0026442D01*
X0122573Y0026492D01*
X0122638Y0026544D01*
X0122700Y0026599D01*
X0122760Y0026658D01*
X0122817Y0026719D01*
X0122871Y0026782D01*
X0122922Y0026848D01*
X0122969Y0026917D01*
X0123014Y0026987D01*
X0123055Y0027060D01*
X0123092Y0027134D01*
X0123127Y0027210D01*
X0123157Y0027288D01*
X0123184Y0027366D01*
X0123207Y0027447D01*
X0123227Y0027528D01*
X0123242Y0027610D01*
X0123254Y0027692D01*
X0123262Y0027775D01*
X0123266Y0027858D01*
X0123266Y0027942D01*
X0123262Y0028025D01*
X0123254Y0028108D01*
X0123242Y0028190D01*
X0123227Y0028272D01*
X0123207Y0028353D01*
X0123184Y0028434D01*
X0123157Y0028512D01*
X0123127Y0028590D01*
X0123092Y0028666D01*
X0123055Y0028740D01*
X0123014Y0028813D01*
X0122969Y0028883D01*
X0122922Y0028952D01*
X0122871Y0029018D01*
X0122817Y0029081D01*
X0122760Y0029142D01*
X0122700Y0029201D01*
X0122638Y0029256D01*
X0122573Y0029308D01*
X0122506Y0029358D01*
X0122436Y0029404D01*
X0122365Y0029447D01*
X0122291Y0029486D01*
X0122216Y0029522D01*
X0122139Y0029554D01*
X0122061Y0029583D01*
X0121982Y0029608D01*
X0121901Y0029629D01*
X0121820Y0029647D01*
X0121737Y0029660D01*
X0121654Y0029670D01*
X0121571Y0029676D01*
X0121488Y0029678D01*
X0119710Y0029678D01*
X0135158Y0027189D02*
X0135160Y0027125D01*
X0135166Y0027060D01*
X0135175Y0026997D01*
X0135189Y0026934D01*
X0135206Y0026872D01*
X0135227Y0026811D01*
X0135252Y0026751D01*
X0135280Y0026693D01*
X0135312Y0026637D01*
X0135347Y0026583D01*
X0135385Y0026531D01*
X0135426Y0026481D01*
X0135471Y0026435D01*
X0135517Y0026390D01*
X0135567Y0026349D01*
X0135619Y0026311D01*
X0135673Y0026276D01*
X0135729Y0026244D01*
X0135787Y0026216D01*
X0135847Y0026191D01*
X0135908Y0026170D01*
X0135970Y0026153D01*
X0136033Y0026139D01*
X0136096Y0026130D01*
X0136161Y0026124D01*
X0136225Y0026122D01*
X0136580Y0026122D01*
X0161635Y0058302D02*
X0160749Y0059976D01*
X0162619Y0059976D01*
X0161635Y0058302D01*
X0161319Y0058899D02*
X0161986Y0058899D01*
X0162338Y0059498D02*
X0161002Y0059498D01*
X0157477Y0065492D02*
X0159810Y0072492D01*
X0155143Y0072492D02*
X0157477Y0065492D01*
X0162178Y0068214D02*
X0166844Y0068214D01*
X0151096Y0068214D02*
X0146430Y0068214D01*
X0148763Y0065881D02*
X0148763Y0070548D01*
X0144062Y0072492D02*
X0141729Y0065492D01*
X0139395Y0072492D01*
X0136411Y0068214D02*
X0131744Y0068214D01*
X0129140Y0065492D02*
X0127584Y0065492D01*
X0128362Y0065492D02*
X0128362Y0072492D01*
X0127584Y0072492D02*
X0129140Y0072492D01*
X0122631Y0068214D02*
X0117965Y0068214D01*
X0120298Y0065881D02*
X0120298Y0070548D01*
X0115360Y0072492D02*
X0113805Y0072492D01*
X0114582Y0072492D02*
X0114582Y0065492D01*
X0113805Y0065492D02*
X0115360Y0065492D01*
D12*
X0066261Y0136058D02*
X0369410Y0136058D01*
X0369410Y0293539D01*
X0066261Y0293539D01*
X0066261Y0136058D01*
D13*
X0109495Y0035474D02*
X0168695Y0035474D01*
X0168695Y0041915D01*
X0162785Y0041915D01*
X0162767Y0042074D02*
X0162741Y0042132D01*
X0162713Y0042180D01*
X0162643Y0042276D02*
X0162603Y0042320D01*
X0162550Y0042373D01*
X0162440Y0042466D02*
X0162364Y0042520D01*
X0162224Y0042601D02*
X0162138Y0042642D01*
X0161875Y0042725D02*
X0161736Y0042747D01*
X0161595Y0042754D01*
X0161053Y0042642D02*
X0160987Y0042611D01*
X0160826Y0042520D02*
X0160727Y0042448D01*
X0160640Y0042373D01*
X0160548Y0042276D02*
X0160510Y0042228D01*
X0160478Y0042180D01*
X0160435Y0042102D02*
X0160424Y0042074D01*
X0160406Y0041915D02*
X0147785Y0041915D01*
X0147786Y0041982D02*
X0147777Y0042043D01*
X0147713Y0042180D02*
X0147684Y0042222D01*
X0147643Y0042276D01*
X0147550Y0042373D02*
X0147465Y0042447D01*
X0147257Y0042584D02*
X0147138Y0042642D01*
X0146875Y0042725D02*
X0146792Y0042740D01*
X0146595Y0042754D02*
X0146454Y0042746D01*
X0146182Y0042690D02*
X0146053Y0042642D01*
X0145640Y0042373D02*
X0145592Y0042324D01*
X0145548Y0042276D01*
X0145478Y0042180D02*
X0145439Y0042110D01*
X0145406Y0041915D02*
X0132785Y0041915D01*
X0132752Y0042110D02*
X0132713Y0042180D01*
X0132614Y0042308D02*
X0132550Y0042373D01*
X0132417Y0042483D02*
X0132364Y0042520D01*
X0132224Y0042601D02*
X0132138Y0042642D01*
X0131875Y0042725D02*
X0131773Y0042742D01*
X0131595Y0042754D02*
X0131454Y0042746D01*
X0131182Y0042690D02*
X0131053Y0042642D01*
X0130640Y0042373D02*
X0130592Y0042324D01*
X0130548Y0042276D01*
X0130478Y0042180D02*
X0130446Y0042126D01*
X0130424Y0042074D01*
X0130406Y0041915D02*
X0117785Y0041915D01*
X0117786Y0041982D02*
X0117781Y0042027D01*
X0117767Y0042074D01*
X0117738Y0042137D02*
X0117713Y0042180D01*
X0117643Y0042276D02*
X0117599Y0042324D01*
X0117550Y0042373D01*
X0117138Y0042642D02*
X0117010Y0042689D01*
X0116875Y0042725D01*
X0116679Y0042751D02*
X0116595Y0042754D01*
X0116053Y0042642D02*
X0115987Y0042611D01*
X0115826Y0042520D02*
X0115751Y0042466D01*
X0115640Y0042373D02*
X0115577Y0042308D01*
X0115478Y0042180D02*
X0115439Y0042110D01*
X0115405Y0041982D02*
X0115407Y0041895D01*
X0115406Y0041915D02*
X0109495Y0041915D01*
X0109495Y0035474D01*
X0109495Y0041915D02*
X0109495Y0043788D01*
X0109495Y0055807D01*
X0109495Y0057709D01*
X0109495Y0060905D01*
X0109495Y0062633D01*
X0109495Y0063414D01*
X0168695Y0063414D01*
X0168695Y0062633D01*
X0168695Y0060905D01*
X0109495Y0060905D01*
X0109495Y0062633D02*
X0168695Y0062633D01*
X0168695Y0060905D02*
X0168695Y0057709D01*
X0109495Y0057709D01*
X0109495Y0055807D02*
X0168695Y0055807D01*
X0168695Y0057709D01*
X0168695Y0055807D02*
X0168695Y0043788D01*
X0109495Y0043788D01*
X0115457Y0041626D02*
X0115484Y0041545D01*
X0115546Y0041410D02*
X0115576Y0041357D01*
X0115757Y0041128D02*
X0115819Y0041071D01*
X0115935Y0040983D02*
X0115986Y0040950D01*
X0116249Y0040834D02*
X0116363Y0040806D01*
X0116828Y0040806D02*
X0116941Y0040834D01*
X0117204Y0040950D02*
X0117285Y0041003D01*
X0117433Y0041128D02*
X0117476Y0041172D01*
X0117568Y0041286D02*
X0117614Y0041357D01*
X0117734Y0041626D02*
X0117749Y0041680D01*
X0117766Y0042074D02*
X0117753Y0042106D01*
X0117738Y0042137D01*
X0117713Y0042179D02*
X0117679Y0042228D01*
X0117642Y0042275D01*
X0115650Y0041249D02*
X0115612Y0041302D01*
X0115576Y0041357D01*
X0115405Y0041983D02*
X0115408Y0042016D01*
X0115415Y0042048D01*
X0115425Y0042080D01*
X0115439Y0042111D01*
X0115478Y0042180D02*
X0115508Y0042225D01*
X0115541Y0042267D01*
X0115577Y0042308D01*
X0117614Y0041357D02*
X0117646Y0041414D01*
X0117676Y0041473D01*
X0115987Y0042612D02*
X0115932Y0042583D01*
X0115879Y0042553D01*
X0115826Y0042520D01*
X0116942Y0040835D02*
X0117003Y0040855D01*
X0117062Y0040879D01*
X0117366Y0042518D02*
X0117311Y0042553D01*
X0117255Y0042585D01*
X0117197Y0042615D01*
X0117138Y0042642D01*
X0115651Y0041249D02*
X0115685Y0041207D01*
X0115720Y0041166D01*
X0115758Y0041127D01*
X0115641Y0042373D02*
X0115676Y0042406D01*
X0115713Y0042437D01*
X0115751Y0042467D01*
X0117775Y0041815D02*
X0117764Y0041747D01*
X0117749Y0041680D01*
X0116875Y0042725D02*
X0116810Y0042738D01*
X0116745Y0042746D01*
X0116679Y0042752D01*
X0117205Y0040950D02*
X0117158Y0040924D01*
X0117111Y0040900D01*
X0117063Y0040878D01*
X0117550Y0042373D02*
X0117506Y0042412D01*
X0117461Y0042450D01*
X0117414Y0042485D01*
X0117366Y0042518D01*
X0116827Y0040805D02*
X0116770Y0040795D01*
X0116712Y0040788D01*
X0116653Y0040783D01*
X0116595Y0040782D01*
X0116053Y0042641D02*
X0116117Y0042667D01*
X0116182Y0042689D01*
X0116249Y0042708D01*
X0116316Y0042724D01*
X0117569Y0041286D02*
X0117539Y0041246D01*
X0117509Y0041208D01*
X0117476Y0041171D01*
X0116595Y0042754D02*
X0116525Y0042752D01*
X0116455Y0042747D01*
X0116385Y0042738D01*
X0116316Y0042725D01*
X0117734Y0041626D02*
X0117717Y0041574D01*
X0117697Y0041523D01*
X0117675Y0041473D01*
X0116249Y0040834D02*
X0116188Y0040854D01*
X0116128Y0040878D01*
X0115935Y0040983D02*
X0115895Y0041010D01*
X0115856Y0041040D01*
X0115819Y0041071D01*
X0115457Y0041626D02*
X0115441Y0041684D01*
X0115427Y0041743D01*
X0115484Y0041545D02*
X0115503Y0041499D01*
X0115524Y0041454D01*
X0115546Y0041410D01*
X0115427Y0041742D02*
X0115418Y0041793D01*
X0115411Y0041843D01*
X0115407Y0041894D01*
X0117775Y0041815D02*
X0117781Y0041870D01*
X0117785Y0041926D01*
X0117786Y0041982D01*
X0117433Y0041127D02*
X0117386Y0041083D01*
X0117336Y0041042D01*
X0117285Y0041003D01*
X0116128Y0040878D02*
X0116079Y0040899D01*
X0116032Y0040923D01*
X0115986Y0040950D01*
X0116363Y0040805D02*
X0116420Y0040795D01*
X0116478Y0040788D01*
X0116537Y0040783D01*
X0116595Y0040782D01*
X0110886Y0049838D02*
X0110888Y0049989D01*
X0110894Y0050139D01*
X0110904Y0050290D01*
X0110918Y0050440D01*
X0110936Y0050589D01*
X0110957Y0050739D01*
X0110983Y0050887D01*
X0111013Y0051035D01*
X0111046Y0051182D01*
X0111084Y0051328D01*
X0111125Y0051473D01*
X0111170Y0051617D01*
X0111219Y0051759D01*
X0111272Y0051900D01*
X0111328Y0052040D01*
X0111388Y0052178D01*
X0111451Y0052315D01*
X0111519Y0052450D01*
X0111589Y0052583D01*
X0111663Y0052714D01*
X0111741Y0052843D01*
X0111822Y0052970D01*
X0111906Y0053095D01*
X0111994Y0053218D01*
X0112085Y0053338D01*
X0112179Y0053456D01*
X0112276Y0053571D01*
X0112376Y0053684D01*
X0112479Y0053794D01*
X0112585Y0053901D01*
X0112694Y0054006D01*
X0112805Y0054107D01*
X0112919Y0054206D01*
X0113035Y0054301D01*
X0113155Y0054394D01*
X0113276Y0054483D01*
X0113400Y0054569D01*
X0113526Y0054652D01*
X0113654Y0054731D01*
X0113784Y0054807D01*
X0113916Y0054880D01*
X0114050Y0054948D01*
X0114186Y0055014D01*
X0114324Y0055076D01*
X0114463Y0055134D01*
X0114603Y0055188D01*
X0114745Y0055239D01*
X0114888Y0055286D01*
X0115033Y0055329D01*
X0115178Y0055368D01*
X0115325Y0055404D01*
X0115472Y0055435D01*
X0115620Y0055463D01*
X0115769Y0055487D01*
X0115918Y0055507D01*
X0116068Y0055523D01*
X0116218Y0055535D01*
X0116369Y0055543D01*
X0116520Y0055547D01*
X0116670Y0055547D01*
X0116821Y0055543D01*
X0116972Y0055535D01*
X0117122Y0055523D01*
X0117272Y0055507D01*
X0117421Y0055487D01*
X0117570Y0055463D01*
X0117718Y0055435D01*
X0117865Y0055404D01*
X0118012Y0055368D01*
X0118157Y0055329D01*
X0118302Y0055286D01*
X0118445Y0055239D01*
X0118587Y0055188D01*
X0118727Y0055134D01*
X0118866Y0055076D01*
X0119004Y0055014D01*
X0119140Y0054948D01*
X0119274Y0054880D01*
X0119406Y0054807D01*
X0119536Y0054731D01*
X0119664Y0054652D01*
X0119790Y0054569D01*
X0119914Y0054483D01*
X0120035Y0054394D01*
X0120155Y0054301D01*
X0120271Y0054206D01*
X0120385Y0054107D01*
X0120496Y0054006D01*
X0120605Y0053901D01*
X0120711Y0053794D01*
X0120814Y0053684D01*
X0120914Y0053571D01*
X0121011Y0053456D01*
X0121105Y0053338D01*
X0121196Y0053218D01*
X0121284Y0053095D01*
X0121368Y0052970D01*
X0121449Y0052843D01*
X0121527Y0052714D01*
X0121601Y0052583D01*
X0121671Y0052450D01*
X0121739Y0052315D01*
X0121802Y0052178D01*
X0121862Y0052040D01*
X0121918Y0051900D01*
X0121971Y0051759D01*
X0122020Y0051617D01*
X0122065Y0051473D01*
X0122106Y0051328D01*
X0122144Y0051182D01*
X0122177Y0051035D01*
X0122207Y0050887D01*
X0122233Y0050739D01*
X0122254Y0050589D01*
X0122272Y0050440D01*
X0122286Y0050290D01*
X0122296Y0050139D01*
X0122302Y0049989D01*
X0122304Y0049838D01*
X0122302Y0049687D01*
X0122296Y0049537D01*
X0122286Y0049386D01*
X0122272Y0049236D01*
X0122254Y0049087D01*
X0122233Y0048937D01*
X0122207Y0048789D01*
X0122177Y0048641D01*
X0122144Y0048494D01*
X0122106Y0048348D01*
X0122065Y0048203D01*
X0122020Y0048059D01*
X0121971Y0047917D01*
X0121918Y0047776D01*
X0121862Y0047636D01*
X0121802Y0047498D01*
X0121739Y0047361D01*
X0121671Y0047226D01*
X0121601Y0047093D01*
X0121527Y0046962D01*
X0121449Y0046833D01*
X0121368Y0046706D01*
X0121284Y0046581D01*
X0121196Y0046458D01*
X0121105Y0046338D01*
X0121011Y0046220D01*
X0120914Y0046105D01*
X0120814Y0045992D01*
X0120711Y0045882D01*
X0120605Y0045775D01*
X0120496Y0045670D01*
X0120385Y0045569D01*
X0120271Y0045470D01*
X0120155Y0045375D01*
X0120035Y0045282D01*
X0119914Y0045193D01*
X0119790Y0045107D01*
X0119664Y0045024D01*
X0119536Y0044945D01*
X0119406Y0044869D01*
X0119274Y0044796D01*
X0119140Y0044728D01*
X0119004Y0044662D01*
X0118866Y0044600D01*
X0118727Y0044542D01*
X0118587Y0044488D01*
X0118445Y0044437D01*
X0118302Y0044390D01*
X0118157Y0044347D01*
X0118012Y0044308D01*
X0117865Y0044272D01*
X0117718Y0044241D01*
X0117570Y0044213D01*
X0117421Y0044189D01*
X0117272Y0044169D01*
X0117122Y0044153D01*
X0116972Y0044141D01*
X0116821Y0044133D01*
X0116670Y0044129D01*
X0116520Y0044129D01*
X0116369Y0044133D01*
X0116218Y0044141D01*
X0116068Y0044153D01*
X0115918Y0044169D01*
X0115769Y0044189D01*
X0115620Y0044213D01*
X0115472Y0044241D01*
X0115325Y0044272D01*
X0115178Y0044308D01*
X0115033Y0044347D01*
X0114888Y0044390D01*
X0114745Y0044437D01*
X0114603Y0044488D01*
X0114463Y0044542D01*
X0114324Y0044600D01*
X0114186Y0044662D01*
X0114050Y0044728D01*
X0113916Y0044796D01*
X0113784Y0044869D01*
X0113654Y0044945D01*
X0113526Y0045024D01*
X0113400Y0045107D01*
X0113276Y0045193D01*
X0113155Y0045282D01*
X0113035Y0045375D01*
X0112919Y0045470D01*
X0112805Y0045569D01*
X0112694Y0045670D01*
X0112585Y0045775D01*
X0112479Y0045882D01*
X0112376Y0045992D01*
X0112276Y0046105D01*
X0112179Y0046220D01*
X0112085Y0046338D01*
X0111994Y0046458D01*
X0111906Y0046581D01*
X0111822Y0046706D01*
X0111741Y0046833D01*
X0111663Y0046962D01*
X0111589Y0047093D01*
X0111519Y0047226D01*
X0111451Y0047361D01*
X0111388Y0047498D01*
X0111328Y0047636D01*
X0111272Y0047776D01*
X0111219Y0047917D01*
X0111170Y0048059D01*
X0111125Y0048203D01*
X0111084Y0048348D01*
X0111046Y0048494D01*
X0111013Y0048641D01*
X0110983Y0048789D01*
X0110957Y0048937D01*
X0110936Y0049087D01*
X0110918Y0049236D01*
X0110904Y0049386D01*
X0110894Y0049537D01*
X0110888Y0049687D01*
X0110886Y0049838D01*
X0125886Y0049838D02*
X0125888Y0049989D01*
X0125894Y0050139D01*
X0125904Y0050290D01*
X0125918Y0050440D01*
X0125936Y0050589D01*
X0125957Y0050739D01*
X0125983Y0050887D01*
X0126013Y0051035D01*
X0126046Y0051182D01*
X0126084Y0051328D01*
X0126125Y0051473D01*
X0126170Y0051617D01*
X0126219Y0051759D01*
X0126272Y0051900D01*
X0126328Y0052040D01*
X0126388Y0052178D01*
X0126451Y0052315D01*
X0126519Y0052450D01*
X0126589Y0052583D01*
X0126663Y0052714D01*
X0126741Y0052843D01*
X0126822Y0052970D01*
X0126906Y0053095D01*
X0126994Y0053218D01*
X0127085Y0053338D01*
X0127179Y0053456D01*
X0127276Y0053571D01*
X0127376Y0053684D01*
X0127479Y0053794D01*
X0127585Y0053901D01*
X0127694Y0054006D01*
X0127805Y0054107D01*
X0127919Y0054206D01*
X0128035Y0054301D01*
X0128155Y0054394D01*
X0128276Y0054483D01*
X0128400Y0054569D01*
X0128526Y0054652D01*
X0128654Y0054731D01*
X0128784Y0054807D01*
X0128916Y0054880D01*
X0129050Y0054948D01*
X0129186Y0055014D01*
X0129324Y0055076D01*
X0129463Y0055134D01*
X0129603Y0055188D01*
X0129745Y0055239D01*
X0129888Y0055286D01*
X0130033Y0055329D01*
X0130178Y0055368D01*
X0130325Y0055404D01*
X0130472Y0055435D01*
X0130620Y0055463D01*
X0130769Y0055487D01*
X0130918Y0055507D01*
X0131068Y0055523D01*
X0131218Y0055535D01*
X0131369Y0055543D01*
X0131520Y0055547D01*
X0131670Y0055547D01*
X0131821Y0055543D01*
X0131972Y0055535D01*
X0132122Y0055523D01*
X0132272Y0055507D01*
X0132421Y0055487D01*
X0132570Y0055463D01*
X0132718Y0055435D01*
X0132865Y0055404D01*
X0133012Y0055368D01*
X0133157Y0055329D01*
X0133302Y0055286D01*
X0133445Y0055239D01*
X0133587Y0055188D01*
X0133727Y0055134D01*
X0133866Y0055076D01*
X0134004Y0055014D01*
X0134140Y0054948D01*
X0134274Y0054880D01*
X0134406Y0054807D01*
X0134536Y0054731D01*
X0134664Y0054652D01*
X0134790Y0054569D01*
X0134914Y0054483D01*
X0135035Y0054394D01*
X0135155Y0054301D01*
X0135271Y0054206D01*
X0135385Y0054107D01*
X0135496Y0054006D01*
X0135605Y0053901D01*
X0135711Y0053794D01*
X0135814Y0053684D01*
X0135914Y0053571D01*
X0136011Y0053456D01*
X0136105Y0053338D01*
X0136196Y0053218D01*
X0136284Y0053095D01*
X0136368Y0052970D01*
X0136449Y0052843D01*
X0136527Y0052714D01*
X0136601Y0052583D01*
X0136671Y0052450D01*
X0136739Y0052315D01*
X0136802Y0052178D01*
X0136862Y0052040D01*
X0136918Y0051900D01*
X0136971Y0051759D01*
X0137020Y0051617D01*
X0137065Y0051473D01*
X0137106Y0051328D01*
X0137144Y0051182D01*
X0137177Y0051035D01*
X0137207Y0050887D01*
X0137233Y0050739D01*
X0137254Y0050589D01*
X0137272Y0050440D01*
X0137286Y0050290D01*
X0137296Y0050139D01*
X0137302Y0049989D01*
X0137304Y0049838D01*
X0137302Y0049687D01*
X0137296Y0049537D01*
X0137286Y0049386D01*
X0137272Y0049236D01*
X0137254Y0049087D01*
X0137233Y0048937D01*
X0137207Y0048789D01*
X0137177Y0048641D01*
X0137144Y0048494D01*
X0137106Y0048348D01*
X0137065Y0048203D01*
X0137020Y0048059D01*
X0136971Y0047917D01*
X0136918Y0047776D01*
X0136862Y0047636D01*
X0136802Y0047498D01*
X0136739Y0047361D01*
X0136671Y0047226D01*
X0136601Y0047093D01*
X0136527Y0046962D01*
X0136449Y0046833D01*
X0136368Y0046706D01*
X0136284Y0046581D01*
X0136196Y0046458D01*
X0136105Y0046338D01*
X0136011Y0046220D01*
X0135914Y0046105D01*
X0135814Y0045992D01*
X0135711Y0045882D01*
X0135605Y0045775D01*
X0135496Y0045670D01*
X0135385Y0045569D01*
X0135271Y0045470D01*
X0135155Y0045375D01*
X0135035Y0045282D01*
X0134914Y0045193D01*
X0134790Y0045107D01*
X0134664Y0045024D01*
X0134536Y0044945D01*
X0134406Y0044869D01*
X0134274Y0044796D01*
X0134140Y0044728D01*
X0134004Y0044662D01*
X0133866Y0044600D01*
X0133727Y0044542D01*
X0133587Y0044488D01*
X0133445Y0044437D01*
X0133302Y0044390D01*
X0133157Y0044347D01*
X0133012Y0044308D01*
X0132865Y0044272D01*
X0132718Y0044241D01*
X0132570Y0044213D01*
X0132421Y0044189D01*
X0132272Y0044169D01*
X0132122Y0044153D01*
X0131972Y0044141D01*
X0131821Y0044133D01*
X0131670Y0044129D01*
X0131520Y0044129D01*
X0131369Y0044133D01*
X0131218Y0044141D01*
X0131068Y0044153D01*
X0130918Y0044169D01*
X0130769Y0044189D01*
X0130620Y0044213D01*
X0130472Y0044241D01*
X0130325Y0044272D01*
X0130178Y0044308D01*
X0130033Y0044347D01*
X0129888Y0044390D01*
X0129745Y0044437D01*
X0129603Y0044488D01*
X0129463Y0044542D01*
X0129324Y0044600D01*
X0129186Y0044662D01*
X0129050Y0044728D01*
X0128916Y0044796D01*
X0128784Y0044869D01*
X0128654Y0044945D01*
X0128526Y0045024D01*
X0128400Y0045107D01*
X0128276Y0045193D01*
X0128155Y0045282D01*
X0128035Y0045375D01*
X0127919Y0045470D01*
X0127805Y0045569D01*
X0127694Y0045670D01*
X0127585Y0045775D01*
X0127479Y0045882D01*
X0127376Y0045992D01*
X0127276Y0046105D01*
X0127179Y0046220D01*
X0127085Y0046338D01*
X0126994Y0046458D01*
X0126906Y0046581D01*
X0126822Y0046706D01*
X0126741Y0046833D01*
X0126663Y0046962D01*
X0126589Y0047093D01*
X0126519Y0047226D01*
X0126451Y0047361D01*
X0126388Y0047498D01*
X0126328Y0047636D01*
X0126272Y0047776D01*
X0126219Y0047917D01*
X0126170Y0048059D01*
X0126125Y0048203D01*
X0126084Y0048348D01*
X0126046Y0048494D01*
X0126013Y0048641D01*
X0125983Y0048789D01*
X0125957Y0048937D01*
X0125936Y0049087D01*
X0125918Y0049236D01*
X0125904Y0049386D01*
X0125894Y0049537D01*
X0125888Y0049687D01*
X0125886Y0049838D01*
X0130423Y0042074D02*
X0130413Y0042044D01*
X0130407Y0042013D01*
X0130404Y0041982D01*
X0130434Y0041710D02*
X0130457Y0041626D01*
X0130529Y0041443D02*
X0130576Y0041357D01*
X0130691Y0041199D02*
X0130757Y0041128D01*
X0130986Y0040950D02*
X0131070Y0040904D01*
X0131249Y0040834D02*
X0131331Y0040812D01*
X0132364Y0042520D02*
X0132319Y0042548D01*
X0132272Y0042575D01*
X0132225Y0042601D01*
X0132752Y0042110D02*
X0132765Y0042080D01*
X0132776Y0042048D01*
X0132782Y0042016D01*
X0132786Y0041983D01*
X0132749Y0041680D02*
X0132734Y0041626D01*
X0132661Y0041443D02*
X0132614Y0041357D01*
X0132500Y0041199D02*
X0132433Y0041128D01*
X0132285Y0041003D02*
X0132204Y0040950D01*
X0131941Y0040834D02*
X0131828Y0040806D01*
X0130824Y0042518D02*
X0130879Y0042553D01*
X0130936Y0042585D01*
X0130994Y0042615D01*
X0131053Y0042641D01*
X0132775Y0041815D02*
X0132764Y0041747D01*
X0132749Y0041680D01*
X0132713Y0042179D02*
X0132682Y0042224D01*
X0132649Y0042267D01*
X0132614Y0042308D01*
X0130405Y0041982D02*
X0130406Y0041922D01*
X0130410Y0041861D01*
X0130478Y0042180D02*
X0130512Y0042229D01*
X0130548Y0042275D01*
X0132786Y0041982D02*
X0132785Y0041926D01*
X0132781Y0041870D01*
X0132775Y0041815D01*
X0130435Y0041711D02*
X0130425Y0041761D01*
X0130417Y0041811D01*
X0130411Y0041862D01*
X0130879Y0041023D02*
X0130932Y0040985D01*
X0130986Y0040950D01*
X0131874Y0042725D02*
X0131942Y0042709D01*
X0132008Y0042690D01*
X0132073Y0042668D01*
X0132138Y0042642D01*
X0131249Y0040835D02*
X0131188Y0040855D01*
X0131129Y0040878D01*
X0131070Y0040905D01*
X0130640Y0042373D02*
X0130683Y0042412D01*
X0130728Y0042450D01*
X0130775Y0042485D01*
X0130824Y0042518D01*
X0130757Y0041128D02*
X0130796Y0041091D01*
X0130836Y0041056D01*
X0130878Y0041022D01*
X0131182Y0042690D02*
X0131248Y0042710D01*
X0131316Y0042726D01*
X0131385Y0042738D01*
X0131454Y0042747D01*
X0131595Y0040782D02*
X0131653Y0040783D01*
X0131712Y0040788D01*
X0131770Y0040795D01*
X0131827Y0040805D01*
X0132551Y0042373D02*
X0132508Y0042412D01*
X0132463Y0042449D01*
X0132417Y0042484D01*
X0132433Y0041127D02*
X0132386Y0041083D01*
X0132336Y0041042D01*
X0132285Y0041003D01*
X0131773Y0042742D02*
X0131714Y0042749D01*
X0131655Y0042753D01*
X0131595Y0042754D01*
X0132614Y0041358D02*
X0132579Y0041303D01*
X0132540Y0041250D01*
X0132500Y0041200D01*
X0132204Y0040950D02*
X0132148Y0040919D01*
X0132091Y0040890D01*
X0131595Y0040783D02*
X0131536Y0040784D01*
X0131478Y0040789D01*
X0131477Y0040789D02*
X0131428Y0040795D01*
X0131379Y0040803D01*
X0131331Y0040813D01*
X0131941Y0040835D02*
X0131991Y0040851D01*
X0132041Y0040870D01*
X0132090Y0040891D01*
X0130529Y0041443D02*
X0130502Y0041503D01*
X0130478Y0041564D01*
X0130457Y0041626D01*
X0132662Y0041443D02*
X0132689Y0041503D01*
X0132713Y0041563D01*
X0132734Y0041625D01*
X0130691Y0041199D02*
X0130650Y0041250D01*
X0130612Y0041303D01*
X0130577Y0041357D01*
X0145434Y0041710D02*
X0145457Y0041626D01*
X0145576Y0041357D02*
X0145630Y0041276D01*
X0145757Y0041128D02*
X0145843Y0041050D01*
X0146249Y0040834D02*
X0146331Y0040812D01*
X0146595Y0040783D02*
X0146650Y0040784D01*
X0146941Y0040834D02*
X0147020Y0040861D01*
X0147152Y0040921D02*
X0147204Y0040950D01*
X0147433Y0041128D02*
X0147513Y0041215D01*
X0147734Y0041626D02*
X0147749Y0041680D01*
X0147777Y0042044D02*
X0147764Y0042079D01*
X0147750Y0042114D01*
X0147733Y0042148D01*
X0147713Y0042180D01*
X0145404Y0041982D02*
X0145405Y0041922D01*
X0145409Y0041861D01*
X0145405Y0041983D02*
X0145408Y0042016D01*
X0145415Y0042048D01*
X0145425Y0042080D01*
X0145439Y0042111D01*
X0145478Y0042180D02*
X0145500Y0042213D01*
X0145523Y0042244D01*
X0145548Y0042275D01*
X0147775Y0041815D02*
X0147764Y0041747D01*
X0147749Y0041680D01*
X0147643Y0042276D02*
X0147614Y0042310D01*
X0147583Y0042342D01*
X0147551Y0042374D01*
X0145410Y0041862D02*
X0145416Y0041811D01*
X0145424Y0041760D01*
X0145434Y0041710D01*
X0145515Y0041473D02*
X0145544Y0041414D01*
X0145577Y0041357D01*
X0147258Y0042584D02*
X0147312Y0042553D01*
X0147364Y0042520D01*
X0147415Y0042485D01*
X0147465Y0042447D01*
X0146783Y0040797D02*
X0146717Y0040789D01*
X0146650Y0040784D01*
X0146792Y0042739D02*
X0146727Y0042747D01*
X0146661Y0042752D01*
X0146595Y0042754D01*
X0147312Y0041023D02*
X0147259Y0040985D01*
X0147204Y0040950D01*
X0146052Y0042641D02*
X0145993Y0042614D01*
X0145935Y0042585D01*
X0145879Y0042553D01*
X0145824Y0042518D01*
X0147313Y0041023D02*
X0147355Y0041056D01*
X0147395Y0041091D01*
X0147434Y0041128D01*
X0146454Y0042747D02*
X0146385Y0042738D01*
X0146316Y0042726D01*
X0146248Y0042710D01*
X0146182Y0042690D01*
X0146783Y0040797D02*
X0146837Y0040807D01*
X0146889Y0040819D01*
X0146942Y0040834D01*
X0147138Y0042642D02*
X0147073Y0042668D01*
X0147008Y0042690D01*
X0146942Y0042709D01*
X0146874Y0042725D01*
X0146035Y0040923D02*
X0146087Y0040897D01*
X0146140Y0040873D01*
X0146194Y0040852D01*
X0146249Y0040834D01*
X0145640Y0042373D02*
X0145683Y0042412D01*
X0145728Y0042450D01*
X0145775Y0042485D01*
X0145824Y0042518D01*
X0147786Y0041982D02*
X0147785Y0041926D01*
X0147781Y0041870D01*
X0147775Y0041815D01*
X0147152Y0040921D02*
X0147109Y0040899D01*
X0147065Y0040879D01*
X0147020Y0040861D01*
X0146595Y0040783D02*
X0146536Y0040784D01*
X0146478Y0040789D01*
X0146478Y0040788D02*
X0146428Y0040794D01*
X0146380Y0040802D01*
X0146331Y0040812D01*
X0145515Y0041473D02*
X0145493Y0041523D01*
X0145473Y0041574D01*
X0145456Y0041626D01*
X0147644Y0041409D02*
X0147670Y0041461D01*
X0147694Y0041515D01*
X0147716Y0041570D01*
X0147734Y0041626D01*
X0145757Y0041128D02*
X0145712Y0041175D01*
X0145670Y0041225D01*
X0145630Y0041276D01*
X0147512Y0041215D02*
X0147549Y0041261D01*
X0147583Y0041309D01*
X0147614Y0041358D01*
X0147643Y0041409D01*
X0146035Y0040922D02*
X0145985Y0040950D01*
X0145936Y0040981D01*
X0145888Y0041014D01*
X0145843Y0041049D01*
X0140886Y0049838D02*
X0140888Y0049989D01*
X0140894Y0050139D01*
X0140904Y0050290D01*
X0140918Y0050440D01*
X0140936Y0050589D01*
X0140957Y0050739D01*
X0140983Y0050887D01*
X0141013Y0051035D01*
X0141046Y0051182D01*
X0141084Y0051328D01*
X0141125Y0051473D01*
X0141170Y0051617D01*
X0141219Y0051759D01*
X0141272Y0051900D01*
X0141328Y0052040D01*
X0141388Y0052178D01*
X0141451Y0052315D01*
X0141519Y0052450D01*
X0141589Y0052583D01*
X0141663Y0052714D01*
X0141741Y0052843D01*
X0141822Y0052970D01*
X0141906Y0053095D01*
X0141994Y0053218D01*
X0142085Y0053338D01*
X0142179Y0053456D01*
X0142276Y0053571D01*
X0142376Y0053684D01*
X0142479Y0053794D01*
X0142585Y0053901D01*
X0142694Y0054006D01*
X0142805Y0054107D01*
X0142919Y0054206D01*
X0143035Y0054301D01*
X0143155Y0054394D01*
X0143276Y0054483D01*
X0143400Y0054569D01*
X0143526Y0054652D01*
X0143654Y0054731D01*
X0143784Y0054807D01*
X0143916Y0054880D01*
X0144050Y0054948D01*
X0144186Y0055014D01*
X0144324Y0055076D01*
X0144463Y0055134D01*
X0144603Y0055188D01*
X0144745Y0055239D01*
X0144888Y0055286D01*
X0145033Y0055329D01*
X0145178Y0055368D01*
X0145325Y0055404D01*
X0145472Y0055435D01*
X0145620Y0055463D01*
X0145769Y0055487D01*
X0145918Y0055507D01*
X0146068Y0055523D01*
X0146218Y0055535D01*
X0146369Y0055543D01*
X0146520Y0055547D01*
X0146670Y0055547D01*
X0146821Y0055543D01*
X0146972Y0055535D01*
X0147122Y0055523D01*
X0147272Y0055507D01*
X0147421Y0055487D01*
X0147570Y0055463D01*
X0147718Y0055435D01*
X0147865Y0055404D01*
X0148012Y0055368D01*
X0148157Y0055329D01*
X0148302Y0055286D01*
X0148445Y0055239D01*
X0148587Y0055188D01*
X0148727Y0055134D01*
X0148866Y0055076D01*
X0149004Y0055014D01*
X0149140Y0054948D01*
X0149274Y0054880D01*
X0149406Y0054807D01*
X0149536Y0054731D01*
X0149664Y0054652D01*
X0149790Y0054569D01*
X0149914Y0054483D01*
X0150035Y0054394D01*
X0150155Y0054301D01*
X0150271Y0054206D01*
X0150385Y0054107D01*
X0150496Y0054006D01*
X0150605Y0053901D01*
X0150711Y0053794D01*
X0150814Y0053684D01*
X0150914Y0053571D01*
X0151011Y0053456D01*
X0151105Y0053338D01*
X0151196Y0053218D01*
X0151284Y0053095D01*
X0151368Y0052970D01*
X0151449Y0052843D01*
X0151527Y0052714D01*
X0151601Y0052583D01*
X0151671Y0052450D01*
X0151739Y0052315D01*
X0151802Y0052178D01*
X0151862Y0052040D01*
X0151918Y0051900D01*
X0151971Y0051759D01*
X0152020Y0051617D01*
X0152065Y0051473D01*
X0152106Y0051328D01*
X0152144Y0051182D01*
X0152177Y0051035D01*
X0152207Y0050887D01*
X0152233Y0050739D01*
X0152254Y0050589D01*
X0152272Y0050440D01*
X0152286Y0050290D01*
X0152296Y0050139D01*
X0152302Y0049989D01*
X0152304Y0049838D01*
X0152302Y0049687D01*
X0152296Y0049537D01*
X0152286Y0049386D01*
X0152272Y0049236D01*
X0152254Y0049087D01*
X0152233Y0048937D01*
X0152207Y0048789D01*
X0152177Y0048641D01*
X0152144Y0048494D01*
X0152106Y0048348D01*
X0152065Y0048203D01*
X0152020Y0048059D01*
X0151971Y0047917D01*
X0151918Y0047776D01*
X0151862Y0047636D01*
X0151802Y0047498D01*
X0151739Y0047361D01*
X0151671Y0047226D01*
X0151601Y0047093D01*
X0151527Y0046962D01*
X0151449Y0046833D01*
X0151368Y0046706D01*
X0151284Y0046581D01*
X0151196Y0046458D01*
X0151105Y0046338D01*
X0151011Y0046220D01*
X0150914Y0046105D01*
X0150814Y0045992D01*
X0150711Y0045882D01*
X0150605Y0045775D01*
X0150496Y0045670D01*
X0150385Y0045569D01*
X0150271Y0045470D01*
X0150155Y0045375D01*
X0150035Y0045282D01*
X0149914Y0045193D01*
X0149790Y0045107D01*
X0149664Y0045024D01*
X0149536Y0044945D01*
X0149406Y0044869D01*
X0149274Y0044796D01*
X0149140Y0044728D01*
X0149004Y0044662D01*
X0148866Y0044600D01*
X0148727Y0044542D01*
X0148587Y0044488D01*
X0148445Y0044437D01*
X0148302Y0044390D01*
X0148157Y0044347D01*
X0148012Y0044308D01*
X0147865Y0044272D01*
X0147718Y0044241D01*
X0147570Y0044213D01*
X0147421Y0044189D01*
X0147272Y0044169D01*
X0147122Y0044153D01*
X0146972Y0044141D01*
X0146821Y0044133D01*
X0146670Y0044129D01*
X0146520Y0044129D01*
X0146369Y0044133D01*
X0146218Y0044141D01*
X0146068Y0044153D01*
X0145918Y0044169D01*
X0145769Y0044189D01*
X0145620Y0044213D01*
X0145472Y0044241D01*
X0145325Y0044272D01*
X0145178Y0044308D01*
X0145033Y0044347D01*
X0144888Y0044390D01*
X0144745Y0044437D01*
X0144603Y0044488D01*
X0144463Y0044542D01*
X0144324Y0044600D01*
X0144186Y0044662D01*
X0144050Y0044728D01*
X0143916Y0044796D01*
X0143784Y0044869D01*
X0143654Y0044945D01*
X0143526Y0045024D01*
X0143400Y0045107D01*
X0143276Y0045193D01*
X0143155Y0045282D01*
X0143035Y0045375D01*
X0142919Y0045470D01*
X0142805Y0045569D01*
X0142694Y0045670D01*
X0142585Y0045775D01*
X0142479Y0045882D01*
X0142376Y0045992D01*
X0142276Y0046105D01*
X0142179Y0046220D01*
X0142085Y0046338D01*
X0141994Y0046458D01*
X0141906Y0046581D01*
X0141822Y0046706D01*
X0141741Y0046833D01*
X0141663Y0046962D01*
X0141589Y0047093D01*
X0141519Y0047226D01*
X0141451Y0047361D01*
X0141388Y0047498D01*
X0141328Y0047636D01*
X0141272Y0047776D01*
X0141219Y0047917D01*
X0141170Y0048059D01*
X0141125Y0048203D01*
X0141084Y0048348D01*
X0141046Y0048494D01*
X0141013Y0048641D01*
X0140983Y0048789D01*
X0140957Y0048937D01*
X0140936Y0049087D01*
X0140918Y0049236D01*
X0140904Y0049386D01*
X0140894Y0049537D01*
X0140888Y0049687D01*
X0140886Y0049838D01*
X0155886Y0049838D02*
X0155888Y0049989D01*
X0155894Y0050139D01*
X0155904Y0050290D01*
X0155918Y0050440D01*
X0155936Y0050589D01*
X0155957Y0050739D01*
X0155983Y0050887D01*
X0156013Y0051035D01*
X0156046Y0051182D01*
X0156084Y0051328D01*
X0156125Y0051473D01*
X0156170Y0051617D01*
X0156219Y0051759D01*
X0156272Y0051900D01*
X0156328Y0052040D01*
X0156388Y0052178D01*
X0156451Y0052315D01*
X0156519Y0052450D01*
X0156589Y0052583D01*
X0156663Y0052714D01*
X0156741Y0052843D01*
X0156822Y0052970D01*
X0156906Y0053095D01*
X0156994Y0053218D01*
X0157085Y0053338D01*
X0157179Y0053456D01*
X0157276Y0053571D01*
X0157376Y0053684D01*
X0157479Y0053794D01*
X0157585Y0053901D01*
X0157694Y0054006D01*
X0157805Y0054107D01*
X0157919Y0054206D01*
X0158035Y0054301D01*
X0158155Y0054394D01*
X0158276Y0054483D01*
X0158400Y0054569D01*
X0158526Y0054652D01*
X0158654Y0054731D01*
X0158784Y0054807D01*
X0158916Y0054880D01*
X0159050Y0054948D01*
X0159186Y0055014D01*
X0159324Y0055076D01*
X0159463Y0055134D01*
X0159603Y0055188D01*
X0159745Y0055239D01*
X0159888Y0055286D01*
X0160033Y0055329D01*
X0160178Y0055368D01*
X0160325Y0055404D01*
X0160472Y0055435D01*
X0160620Y0055463D01*
X0160769Y0055487D01*
X0160918Y0055507D01*
X0161068Y0055523D01*
X0161218Y0055535D01*
X0161369Y0055543D01*
X0161520Y0055547D01*
X0161670Y0055547D01*
X0161821Y0055543D01*
X0161972Y0055535D01*
X0162122Y0055523D01*
X0162272Y0055507D01*
X0162421Y0055487D01*
X0162570Y0055463D01*
X0162718Y0055435D01*
X0162865Y0055404D01*
X0163012Y0055368D01*
X0163157Y0055329D01*
X0163302Y0055286D01*
X0163445Y0055239D01*
X0163587Y0055188D01*
X0163727Y0055134D01*
X0163866Y0055076D01*
X0164004Y0055014D01*
X0164140Y0054948D01*
X0164274Y0054880D01*
X0164406Y0054807D01*
X0164536Y0054731D01*
X0164664Y0054652D01*
X0164790Y0054569D01*
X0164914Y0054483D01*
X0165035Y0054394D01*
X0165155Y0054301D01*
X0165271Y0054206D01*
X0165385Y0054107D01*
X0165496Y0054006D01*
X0165605Y0053901D01*
X0165711Y0053794D01*
X0165814Y0053684D01*
X0165914Y0053571D01*
X0166011Y0053456D01*
X0166105Y0053338D01*
X0166196Y0053218D01*
X0166284Y0053095D01*
X0166368Y0052970D01*
X0166449Y0052843D01*
X0166527Y0052714D01*
X0166601Y0052583D01*
X0166671Y0052450D01*
X0166739Y0052315D01*
X0166802Y0052178D01*
X0166862Y0052040D01*
X0166918Y0051900D01*
X0166971Y0051759D01*
X0167020Y0051617D01*
X0167065Y0051473D01*
X0167106Y0051328D01*
X0167144Y0051182D01*
X0167177Y0051035D01*
X0167207Y0050887D01*
X0167233Y0050739D01*
X0167254Y0050589D01*
X0167272Y0050440D01*
X0167286Y0050290D01*
X0167296Y0050139D01*
X0167302Y0049989D01*
X0167304Y0049838D01*
X0167302Y0049687D01*
X0167296Y0049537D01*
X0167286Y0049386D01*
X0167272Y0049236D01*
X0167254Y0049087D01*
X0167233Y0048937D01*
X0167207Y0048789D01*
X0167177Y0048641D01*
X0167144Y0048494D01*
X0167106Y0048348D01*
X0167065Y0048203D01*
X0167020Y0048059D01*
X0166971Y0047917D01*
X0166918Y0047776D01*
X0166862Y0047636D01*
X0166802Y0047498D01*
X0166739Y0047361D01*
X0166671Y0047226D01*
X0166601Y0047093D01*
X0166527Y0046962D01*
X0166449Y0046833D01*
X0166368Y0046706D01*
X0166284Y0046581D01*
X0166196Y0046458D01*
X0166105Y0046338D01*
X0166011Y0046220D01*
X0165914Y0046105D01*
X0165814Y0045992D01*
X0165711Y0045882D01*
X0165605Y0045775D01*
X0165496Y0045670D01*
X0165385Y0045569D01*
X0165271Y0045470D01*
X0165155Y0045375D01*
X0165035Y0045282D01*
X0164914Y0045193D01*
X0164790Y0045107D01*
X0164664Y0045024D01*
X0164536Y0044945D01*
X0164406Y0044869D01*
X0164274Y0044796D01*
X0164140Y0044728D01*
X0164004Y0044662D01*
X0163866Y0044600D01*
X0163727Y0044542D01*
X0163587Y0044488D01*
X0163445Y0044437D01*
X0163302Y0044390D01*
X0163157Y0044347D01*
X0163012Y0044308D01*
X0162865Y0044272D01*
X0162718Y0044241D01*
X0162570Y0044213D01*
X0162421Y0044189D01*
X0162272Y0044169D01*
X0162122Y0044153D01*
X0161972Y0044141D01*
X0161821Y0044133D01*
X0161670Y0044129D01*
X0161520Y0044129D01*
X0161369Y0044133D01*
X0161218Y0044141D01*
X0161068Y0044153D01*
X0160918Y0044169D01*
X0160769Y0044189D01*
X0160620Y0044213D01*
X0160472Y0044241D01*
X0160325Y0044272D01*
X0160178Y0044308D01*
X0160033Y0044347D01*
X0159888Y0044390D01*
X0159745Y0044437D01*
X0159603Y0044488D01*
X0159463Y0044542D01*
X0159324Y0044600D01*
X0159186Y0044662D01*
X0159050Y0044728D01*
X0158916Y0044796D01*
X0158784Y0044869D01*
X0158654Y0044945D01*
X0158526Y0045024D01*
X0158400Y0045107D01*
X0158276Y0045193D01*
X0158155Y0045282D01*
X0158035Y0045375D01*
X0157919Y0045470D01*
X0157805Y0045569D01*
X0157694Y0045670D01*
X0157585Y0045775D01*
X0157479Y0045882D01*
X0157376Y0045992D01*
X0157276Y0046105D01*
X0157179Y0046220D01*
X0157085Y0046338D01*
X0156994Y0046458D01*
X0156906Y0046581D01*
X0156822Y0046706D01*
X0156741Y0046833D01*
X0156663Y0046962D01*
X0156589Y0047093D01*
X0156519Y0047226D01*
X0156451Y0047361D01*
X0156388Y0047498D01*
X0156328Y0047636D01*
X0156272Y0047776D01*
X0156219Y0047917D01*
X0156170Y0048059D01*
X0156125Y0048203D01*
X0156084Y0048348D01*
X0156046Y0048494D01*
X0156013Y0048641D01*
X0155983Y0048789D01*
X0155957Y0048937D01*
X0155936Y0049087D01*
X0155918Y0049236D01*
X0155904Y0049386D01*
X0155894Y0049537D01*
X0155888Y0049687D01*
X0155886Y0049838D01*
X0160423Y0042074D02*
X0160413Y0042044D01*
X0160407Y0042013D01*
X0160404Y0041982D01*
X0160441Y0041680D02*
X0160457Y0041626D01*
X0160576Y0041357D02*
X0160623Y0041286D01*
X0160715Y0041172D02*
X0160757Y0041128D01*
X0160905Y0041003D02*
X0160986Y0040950D01*
X0161249Y0040834D02*
X0161302Y0040819D01*
X0161595Y0040783D02*
X0161650Y0040784D01*
X0161941Y0040834D02*
X0162032Y0040866D01*
X0162204Y0040950D02*
X0162285Y0041003D01*
X0162433Y0041128D02*
X0162513Y0041215D01*
X0162734Y0041626D02*
X0162756Y0041710D01*
X0162785Y0041983D02*
X0162782Y0042014D01*
X0162776Y0042044D01*
X0162767Y0042074D01*
X0162714Y0042180D02*
X0162680Y0042229D01*
X0162643Y0042276D01*
X0160501Y0041502D02*
X0160477Y0041563D01*
X0160456Y0041625D01*
X0160435Y0042101D02*
X0160455Y0042142D01*
X0160478Y0042180D01*
X0160548Y0042276D02*
X0160577Y0042309D01*
X0160608Y0042342D01*
X0160640Y0042373D01*
X0160416Y0041815D02*
X0160423Y0041770D01*
X0160431Y0041724D01*
X0160442Y0041680D01*
X0160623Y0041287D02*
X0160652Y0041247D01*
X0160683Y0041209D01*
X0160715Y0041172D01*
X0162225Y0042601D02*
X0162272Y0042575D01*
X0162319Y0042548D01*
X0162364Y0042520D01*
X0162786Y0041983D02*
X0162785Y0041922D01*
X0162781Y0041862D01*
X0162776Y0041811D01*
X0162768Y0041761D01*
X0162757Y0041711D01*
X0160576Y0041357D02*
X0160549Y0041405D01*
X0160524Y0041453D01*
X0160501Y0041503D01*
X0162440Y0042467D02*
X0162497Y0042422D01*
X0162551Y0042374D01*
X0161434Y0040793D02*
X0161368Y0040804D01*
X0161303Y0040819D01*
X0160826Y0042520D02*
X0160879Y0042553D01*
X0160932Y0042583D01*
X0160987Y0042612D01*
X0161650Y0040784D02*
X0161717Y0040789D01*
X0161783Y0040797D01*
X0162138Y0042642D02*
X0162073Y0042668D01*
X0162008Y0042690D01*
X0161942Y0042709D01*
X0161874Y0042725D01*
X0161596Y0040783D02*
X0161542Y0040784D01*
X0161488Y0040788D01*
X0161434Y0040794D01*
X0161053Y0042641D02*
X0161117Y0042667D01*
X0161182Y0042689D01*
X0161248Y0042708D01*
X0161315Y0042724D01*
X0161783Y0040797D02*
X0161837Y0040807D01*
X0161889Y0040819D01*
X0161942Y0040834D01*
X0161595Y0042754D02*
X0161525Y0042752D01*
X0161455Y0042747D01*
X0161385Y0042738D01*
X0161316Y0042725D01*
X0160404Y0041982D02*
X0160405Y0041926D01*
X0160408Y0041871D01*
X0160415Y0041815D01*
X0161128Y0040878D02*
X0161188Y0040854D01*
X0161249Y0040834D01*
X0161128Y0040878D02*
X0161079Y0040899D01*
X0161032Y0040923D01*
X0160986Y0040950D01*
X0162644Y0041409D02*
X0162670Y0041461D01*
X0162694Y0041515D01*
X0162716Y0041570D01*
X0162734Y0041626D01*
X0162433Y0041127D02*
X0162386Y0041083D01*
X0162336Y0041042D01*
X0162285Y0041003D01*
X0162512Y0041215D02*
X0162549Y0041261D01*
X0162583Y0041309D01*
X0162614Y0041358D01*
X0162643Y0041409D01*
X0160905Y0041003D02*
X0160854Y0041042D01*
X0160804Y0041083D01*
X0160757Y0041127D01*
X0162031Y0040866D02*
X0162090Y0040891D01*
X0162148Y0040919D01*
X0162204Y0040951D01*
X0168695Y0041915D02*
X0168695Y0043788D01*
X0201856Y0043376D02*
X0201856Y0041474D01*
X0201856Y0035468D01*
X0241856Y0035468D01*
X0241856Y0041474D01*
X0241856Y0043376D01*
X0241856Y0059111D01*
X0241856Y0061050D01*
X0201856Y0061050D01*
X0201856Y0063727D01*
X0201856Y0066176D01*
X0201856Y0067357D01*
X0241856Y0067357D01*
X0241856Y0066176D01*
X0201856Y0066176D01*
X0201856Y0063727D02*
X0241856Y0063727D01*
X0241856Y0064511D01*
X0241856Y0066176D01*
X0243064Y0065102D02*
X0242362Y0064511D01*
X0241856Y0064511D01*
X0241856Y0063727D02*
X0241856Y0062881D01*
X0241856Y0061050D01*
X0243064Y0062291D02*
X0242362Y0062881D01*
X0241856Y0062881D01*
X0243064Y0062291D02*
X0244100Y0062291D01*
X0244100Y0065102D01*
X0243064Y0065102D01*
X0224317Y0051314D02*
X0224319Y0051499D01*
X0224326Y0051684D01*
X0224337Y0051869D01*
X0224353Y0052053D01*
X0224374Y0052237D01*
X0224399Y0052420D01*
X0224428Y0052603D01*
X0224462Y0052785D01*
X0224500Y0052966D01*
X0224543Y0053146D01*
X0224590Y0053325D01*
X0224642Y0053502D01*
X0224698Y0053679D01*
X0224758Y0053854D01*
X0224822Y0054027D01*
X0224891Y0054199D01*
X0224964Y0054369D01*
X0225041Y0054537D01*
X0225122Y0054704D01*
X0225207Y0054868D01*
X0225296Y0055030D01*
X0225390Y0055190D01*
X0225487Y0055347D01*
X0225588Y0055502D01*
X0225692Y0055655D01*
X0225801Y0055805D01*
X0225913Y0055952D01*
X0226028Y0056097D01*
X0226147Y0056238D01*
X0226270Y0056377D01*
X0226396Y0056512D01*
X0226525Y0056645D01*
X0226658Y0056774D01*
X0226793Y0056900D01*
X0226932Y0057023D01*
X0227073Y0057142D01*
X0227218Y0057257D01*
X0227365Y0057369D01*
X0227515Y0057478D01*
X0227668Y0057582D01*
X0227823Y0057683D01*
X0227980Y0057780D01*
X0228140Y0057874D01*
X0228302Y0057963D01*
X0228466Y0058048D01*
X0228633Y0058129D01*
X0228801Y0058206D01*
X0228971Y0058279D01*
X0229143Y0058348D01*
X0229316Y0058412D01*
X0229491Y0058472D01*
X0229668Y0058528D01*
X0229845Y0058580D01*
X0230024Y0058627D01*
X0230204Y0058670D01*
X0230385Y0058708D01*
X0230567Y0058742D01*
X0230750Y0058771D01*
X0230933Y0058796D01*
X0231117Y0058817D01*
X0231301Y0058833D01*
X0231486Y0058844D01*
X0231671Y0058851D01*
X0231856Y0058853D01*
X0232041Y0058851D01*
X0232226Y0058844D01*
X0232411Y0058833D01*
X0232595Y0058817D01*
X0232779Y0058796D01*
X0232962Y0058771D01*
X0233145Y0058742D01*
X0233327Y0058708D01*
X0233508Y0058670D01*
X0233688Y0058627D01*
X0233867Y0058580D01*
X0234044Y0058528D01*
X0234221Y0058472D01*
X0234396Y0058412D01*
X0234569Y0058348D01*
X0234741Y0058279D01*
X0234911Y0058206D01*
X0235079Y0058129D01*
X0235246Y0058048D01*
X0235410Y0057963D01*
X0235572Y0057874D01*
X0235732Y0057780D01*
X0235889Y0057683D01*
X0236044Y0057582D01*
X0236197Y0057478D01*
X0236347Y0057369D01*
X0236494Y0057257D01*
X0236639Y0057142D01*
X0236780Y0057023D01*
X0236919Y0056900D01*
X0237054Y0056774D01*
X0237187Y0056645D01*
X0237316Y0056512D01*
X0237442Y0056377D01*
X0237565Y0056238D01*
X0237684Y0056097D01*
X0237799Y0055952D01*
X0237911Y0055805D01*
X0238020Y0055655D01*
X0238124Y0055502D01*
X0238225Y0055347D01*
X0238322Y0055190D01*
X0238416Y0055030D01*
X0238505Y0054868D01*
X0238590Y0054704D01*
X0238671Y0054537D01*
X0238748Y0054369D01*
X0238821Y0054199D01*
X0238890Y0054027D01*
X0238954Y0053854D01*
X0239014Y0053679D01*
X0239070Y0053502D01*
X0239122Y0053325D01*
X0239169Y0053146D01*
X0239212Y0052966D01*
X0239250Y0052785D01*
X0239284Y0052603D01*
X0239313Y0052420D01*
X0239338Y0052237D01*
X0239359Y0052053D01*
X0239375Y0051869D01*
X0239386Y0051684D01*
X0239393Y0051499D01*
X0239395Y0051314D01*
X0239393Y0051129D01*
X0239386Y0050944D01*
X0239375Y0050759D01*
X0239359Y0050575D01*
X0239338Y0050391D01*
X0239313Y0050208D01*
X0239284Y0050025D01*
X0239250Y0049843D01*
X0239212Y0049662D01*
X0239169Y0049482D01*
X0239122Y0049303D01*
X0239070Y0049126D01*
X0239014Y0048949D01*
X0238954Y0048774D01*
X0238890Y0048601D01*
X0238821Y0048429D01*
X0238748Y0048259D01*
X0238671Y0048091D01*
X0238590Y0047924D01*
X0238505Y0047760D01*
X0238416Y0047598D01*
X0238322Y0047438D01*
X0238225Y0047281D01*
X0238124Y0047126D01*
X0238020Y0046973D01*
X0237911Y0046823D01*
X0237799Y0046676D01*
X0237684Y0046531D01*
X0237565Y0046390D01*
X0237442Y0046251D01*
X0237316Y0046116D01*
X0237187Y0045983D01*
X0237054Y0045854D01*
X0236919Y0045728D01*
X0236780Y0045605D01*
X0236639Y0045486D01*
X0236494Y0045371D01*
X0236347Y0045259D01*
X0236197Y0045150D01*
X0236044Y0045046D01*
X0235889Y0044945D01*
X0235732Y0044848D01*
X0235572Y0044754D01*
X0235410Y0044665D01*
X0235246Y0044580D01*
X0235079Y0044499D01*
X0234911Y0044422D01*
X0234741Y0044349D01*
X0234569Y0044280D01*
X0234396Y0044216D01*
X0234221Y0044156D01*
X0234044Y0044100D01*
X0233867Y0044048D01*
X0233688Y0044001D01*
X0233508Y0043958D01*
X0233327Y0043920D01*
X0233145Y0043886D01*
X0232962Y0043857D01*
X0232779Y0043832D01*
X0232595Y0043811D01*
X0232411Y0043795D01*
X0232226Y0043784D01*
X0232041Y0043777D01*
X0231856Y0043775D01*
X0231671Y0043777D01*
X0231486Y0043784D01*
X0231301Y0043795D01*
X0231117Y0043811D01*
X0230933Y0043832D01*
X0230750Y0043857D01*
X0230567Y0043886D01*
X0230385Y0043920D01*
X0230204Y0043958D01*
X0230024Y0044001D01*
X0229845Y0044048D01*
X0229668Y0044100D01*
X0229491Y0044156D01*
X0229316Y0044216D01*
X0229143Y0044280D01*
X0228971Y0044349D01*
X0228801Y0044422D01*
X0228633Y0044499D01*
X0228466Y0044580D01*
X0228302Y0044665D01*
X0228140Y0044754D01*
X0227980Y0044848D01*
X0227823Y0044945D01*
X0227668Y0045046D01*
X0227515Y0045150D01*
X0227365Y0045259D01*
X0227218Y0045371D01*
X0227073Y0045486D01*
X0226932Y0045605D01*
X0226793Y0045728D01*
X0226658Y0045854D01*
X0226525Y0045983D01*
X0226396Y0046116D01*
X0226270Y0046251D01*
X0226147Y0046390D01*
X0226028Y0046531D01*
X0225913Y0046676D01*
X0225801Y0046823D01*
X0225692Y0046973D01*
X0225588Y0047126D01*
X0225487Y0047281D01*
X0225390Y0047438D01*
X0225296Y0047598D01*
X0225207Y0047760D01*
X0225122Y0047924D01*
X0225041Y0048091D01*
X0224964Y0048259D01*
X0224891Y0048429D01*
X0224822Y0048601D01*
X0224758Y0048774D01*
X0224698Y0048949D01*
X0224642Y0049126D01*
X0224590Y0049303D01*
X0224543Y0049482D01*
X0224500Y0049662D01*
X0224462Y0049843D01*
X0224428Y0050025D01*
X0224399Y0050208D01*
X0224374Y0050391D01*
X0224353Y0050575D01*
X0224337Y0050759D01*
X0224326Y0050944D01*
X0224319Y0051129D01*
X0224317Y0051314D01*
X0204317Y0051314D02*
X0204319Y0051499D01*
X0204326Y0051684D01*
X0204337Y0051869D01*
X0204353Y0052053D01*
X0204374Y0052237D01*
X0204399Y0052420D01*
X0204428Y0052603D01*
X0204462Y0052785D01*
X0204500Y0052966D01*
X0204543Y0053146D01*
X0204590Y0053325D01*
X0204642Y0053502D01*
X0204698Y0053679D01*
X0204758Y0053854D01*
X0204822Y0054027D01*
X0204891Y0054199D01*
X0204964Y0054369D01*
X0205041Y0054537D01*
X0205122Y0054704D01*
X0205207Y0054868D01*
X0205296Y0055030D01*
X0205390Y0055190D01*
X0205487Y0055347D01*
X0205588Y0055502D01*
X0205692Y0055655D01*
X0205801Y0055805D01*
X0205913Y0055952D01*
X0206028Y0056097D01*
X0206147Y0056238D01*
X0206270Y0056377D01*
X0206396Y0056512D01*
X0206525Y0056645D01*
X0206658Y0056774D01*
X0206793Y0056900D01*
X0206932Y0057023D01*
X0207073Y0057142D01*
X0207218Y0057257D01*
X0207365Y0057369D01*
X0207515Y0057478D01*
X0207668Y0057582D01*
X0207823Y0057683D01*
X0207980Y0057780D01*
X0208140Y0057874D01*
X0208302Y0057963D01*
X0208466Y0058048D01*
X0208633Y0058129D01*
X0208801Y0058206D01*
X0208971Y0058279D01*
X0209143Y0058348D01*
X0209316Y0058412D01*
X0209491Y0058472D01*
X0209668Y0058528D01*
X0209845Y0058580D01*
X0210024Y0058627D01*
X0210204Y0058670D01*
X0210385Y0058708D01*
X0210567Y0058742D01*
X0210750Y0058771D01*
X0210933Y0058796D01*
X0211117Y0058817D01*
X0211301Y0058833D01*
X0211486Y0058844D01*
X0211671Y0058851D01*
X0211856Y0058853D01*
X0212041Y0058851D01*
X0212226Y0058844D01*
X0212411Y0058833D01*
X0212595Y0058817D01*
X0212779Y0058796D01*
X0212962Y0058771D01*
X0213145Y0058742D01*
X0213327Y0058708D01*
X0213508Y0058670D01*
X0213688Y0058627D01*
X0213867Y0058580D01*
X0214044Y0058528D01*
X0214221Y0058472D01*
X0214396Y0058412D01*
X0214569Y0058348D01*
X0214741Y0058279D01*
X0214911Y0058206D01*
X0215079Y0058129D01*
X0215246Y0058048D01*
X0215410Y0057963D01*
X0215572Y0057874D01*
X0215732Y0057780D01*
X0215889Y0057683D01*
X0216044Y0057582D01*
X0216197Y0057478D01*
X0216347Y0057369D01*
X0216494Y0057257D01*
X0216639Y0057142D01*
X0216780Y0057023D01*
X0216919Y0056900D01*
X0217054Y0056774D01*
X0217187Y0056645D01*
X0217316Y0056512D01*
X0217442Y0056377D01*
X0217565Y0056238D01*
X0217684Y0056097D01*
X0217799Y0055952D01*
X0217911Y0055805D01*
X0218020Y0055655D01*
X0218124Y0055502D01*
X0218225Y0055347D01*
X0218322Y0055190D01*
X0218416Y0055030D01*
X0218505Y0054868D01*
X0218590Y0054704D01*
X0218671Y0054537D01*
X0218748Y0054369D01*
X0218821Y0054199D01*
X0218890Y0054027D01*
X0218954Y0053854D01*
X0219014Y0053679D01*
X0219070Y0053502D01*
X0219122Y0053325D01*
X0219169Y0053146D01*
X0219212Y0052966D01*
X0219250Y0052785D01*
X0219284Y0052603D01*
X0219313Y0052420D01*
X0219338Y0052237D01*
X0219359Y0052053D01*
X0219375Y0051869D01*
X0219386Y0051684D01*
X0219393Y0051499D01*
X0219395Y0051314D01*
X0219393Y0051129D01*
X0219386Y0050944D01*
X0219375Y0050759D01*
X0219359Y0050575D01*
X0219338Y0050391D01*
X0219313Y0050208D01*
X0219284Y0050025D01*
X0219250Y0049843D01*
X0219212Y0049662D01*
X0219169Y0049482D01*
X0219122Y0049303D01*
X0219070Y0049126D01*
X0219014Y0048949D01*
X0218954Y0048774D01*
X0218890Y0048601D01*
X0218821Y0048429D01*
X0218748Y0048259D01*
X0218671Y0048091D01*
X0218590Y0047924D01*
X0218505Y0047760D01*
X0218416Y0047598D01*
X0218322Y0047438D01*
X0218225Y0047281D01*
X0218124Y0047126D01*
X0218020Y0046973D01*
X0217911Y0046823D01*
X0217799Y0046676D01*
X0217684Y0046531D01*
X0217565Y0046390D01*
X0217442Y0046251D01*
X0217316Y0046116D01*
X0217187Y0045983D01*
X0217054Y0045854D01*
X0216919Y0045728D01*
X0216780Y0045605D01*
X0216639Y0045486D01*
X0216494Y0045371D01*
X0216347Y0045259D01*
X0216197Y0045150D01*
X0216044Y0045046D01*
X0215889Y0044945D01*
X0215732Y0044848D01*
X0215572Y0044754D01*
X0215410Y0044665D01*
X0215246Y0044580D01*
X0215079Y0044499D01*
X0214911Y0044422D01*
X0214741Y0044349D01*
X0214569Y0044280D01*
X0214396Y0044216D01*
X0214221Y0044156D01*
X0214044Y0044100D01*
X0213867Y0044048D01*
X0213688Y0044001D01*
X0213508Y0043958D01*
X0213327Y0043920D01*
X0213145Y0043886D01*
X0212962Y0043857D01*
X0212779Y0043832D01*
X0212595Y0043811D01*
X0212411Y0043795D01*
X0212226Y0043784D01*
X0212041Y0043777D01*
X0211856Y0043775D01*
X0211671Y0043777D01*
X0211486Y0043784D01*
X0211301Y0043795D01*
X0211117Y0043811D01*
X0210933Y0043832D01*
X0210750Y0043857D01*
X0210567Y0043886D01*
X0210385Y0043920D01*
X0210204Y0043958D01*
X0210024Y0044001D01*
X0209845Y0044048D01*
X0209668Y0044100D01*
X0209491Y0044156D01*
X0209316Y0044216D01*
X0209143Y0044280D01*
X0208971Y0044349D01*
X0208801Y0044422D01*
X0208633Y0044499D01*
X0208466Y0044580D01*
X0208302Y0044665D01*
X0208140Y0044754D01*
X0207980Y0044848D01*
X0207823Y0044945D01*
X0207668Y0045046D01*
X0207515Y0045150D01*
X0207365Y0045259D01*
X0207218Y0045371D01*
X0207073Y0045486D01*
X0206932Y0045605D01*
X0206793Y0045728D01*
X0206658Y0045854D01*
X0206525Y0045983D01*
X0206396Y0046116D01*
X0206270Y0046251D01*
X0206147Y0046390D01*
X0206028Y0046531D01*
X0205913Y0046676D01*
X0205801Y0046823D01*
X0205692Y0046973D01*
X0205588Y0047126D01*
X0205487Y0047281D01*
X0205390Y0047438D01*
X0205296Y0047598D01*
X0205207Y0047760D01*
X0205122Y0047924D01*
X0205041Y0048091D01*
X0204964Y0048259D01*
X0204891Y0048429D01*
X0204822Y0048601D01*
X0204758Y0048774D01*
X0204698Y0048949D01*
X0204642Y0049126D01*
X0204590Y0049303D01*
X0204543Y0049482D01*
X0204500Y0049662D01*
X0204462Y0049843D01*
X0204428Y0050025D01*
X0204399Y0050208D01*
X0204374Y0050391D01*
X0204353Y0050575D01*
X0204337Y0050759D01*
X0204326Y0050944D01*
X0204319Y0051129D01*
X0204317Y0051314D01*
X0201856Y0059111D02*
X0201856Y0043376D01*
X0201856Y0041474D02*
X0241856Y0041474D01*
X0201856Y0059111D02*
X0201856Y0061050D01*
X0282724Y0060905D02*
X0282724Y0057709D01*
X0282724Y0055807D01*
X0282724Y0043788D01*
X0282724Y0041915D01*
X0282724Y0035474D01*
X0341924Y0035474D01*
X0341924Y0041915D01*
X0336013Y0041915D01*
X0335995Y0042074D02*
X0335969Y0042132D01*
X0335942Y0042180D01*
X0335871Y0042276D02*
X0335831Y0042320D01*
X0335779Y0042373D01*
X0335668Y0042466D02*
X0335592Y0042520D01*
X0335453Y0042601D02*
X0335366Y0042642D01*
X0335103Y0042725D02*
X0334964Y0042747D01*
X0334824Y0042754D01*
X0334281Y0042642D02*
X0334215Y0042611D01*
X0334055Y0042520D02*
X0333956Y0042448D01*
X0333869Y0042373D01*
X0333776Y0042276D02*
X0333739Y0042228D01*
X0333706Y0042180D01*
X0333663Y0042102D02*
X0333652Y0042074D01*
X0333634Y0041915D02*
X0321013Y0041915D01*
X0321014Y0041982D02*
X0321005Y0042043D01*
X0320942Y0042180D02*
X0320913Y0042222D01*
X0320871Y0042276D01*
X0320779Y0042373D02*
X0320693Y0042447D01*
X0320486Y0042584D02*
X0320366Y0042642D01*
X0320103Y0042725D02*
X0320020Y0042740D01*
X0319824Y0042754D02*
X0319682Y0042746D01*
X0319410Y0042690D02*
X0319281Y0042642D01*
X0318869Y0042373D02*
X0318820Y0042324D01*
X0318776Y0042276D01*
X0318706Y0042180D02*
X0318667Y0042110D01*
X0318634Y0041915D02*
X0306013Y0041915D01*
X0305980Y0042110D02*
X0305942Y0042180D01*
X0305843Y0042308D02*
X0305779Y0042373D01*
X0305645Y0042483D02*
X0305592Y0042520D01*
X0305453Y0042601D02*
X0305366Y0042642D01*
X0305103Y0042725D02*
X0305001Y0042742D01*
X0304824Y0042754D02*
X0304682Y0042746D01*
X0304410Y0042690D02*
X0304281Y0042642D01*
X0303869Y0042373D02*
X0303820Y0042324D01*
X0303776Y0042276D01*
X0303706Y0042180D02*
X0303675Y0042126D01*
X0303652Y0042074D01*
X0303634Y0041915D02*
X0291013Y0041915D01*
X0291014Y0041982D02*
X0291009Y0042027D01*
X0290995Y0042074D01*
X0290967Y0042137D02*
X0290942Y0042180D01*
X0290871Y0042276D02*
X0290827Y0042324D01*
X0290779Y0042373D01*
X0290366Y0042642D02*
X0290238Y0042689D01*
X0290103Y0042725D01*
X0289907Y0042751D02*
X0289824Y0042754D01*
X0289281Y0042642D02*
X0289215Y0042611D01*
X0289055Y0042520D02*
X0288979Y0042466D01*
X0288869Y0042373D02*
X0288805Y0042308D01*
X0288706Y0042180D02*
X0288667Y0042110D01*
X0288633Y0041982D02*
X0288635Y0041895D01*
X0288634Y0041915D02*
X0282724Y0041915D01*
X0282724Y0043788D02*
X0341924Y0043788D01*
X0341924Y0041915D01*
X0341924Y0043788D02*
X0341924Y0055807D01*
X0341924Y0057709D01*
X0282724Y0057709D01*
X0282724Y0055807D02*
X0341924Y0055807D01*
X0341924Y0057709D02*
X0341924Y0060905D01*
X0282724Y0060905D01*
X0282724Y0062633D01*
X0282724Y0063414D01*
X0341924Y0063414D01*
X0341924Y0062633D01*
X0341924Y0060905D01*
X0341924Y0062633D02*
X0282724Y0062633D01*
X0284115Y0049838D02*
X0284117Y0049989D01*
X0284123Y0050139D01*
X0284133Y0050290D01*
X0284147Y0050440D01*
X0284165Y0050589D01*
X0284186Y0050739D01*
X0284212Y0050887D01*
X0284242Y0051035D01*
X0284275Y0051182D01*
X0284313Y0051328D01*
X0284354Y0051473D01*
X0284399Y0051617D01*
X0284448Y0051759D01*
X0284501Y0051900D01*
X0284557Y0052040D01*
X0284617Y0052178D01*
X0284680Y0052315D01*
X0284748Y0052450D01*
X0284818Y0052583D01*
X0284892Y0052714D01*
X0284970Y0052843D01*
X0285051Y0052970D01*
X0285135Y0053095D01*
X0285223Y0053218D01*
X0285314Y0053338D01*
X0285408Y0053456D01*
X0285505Y0053571D01*
X0285605Y0053684D01*
X0285708Y0053794D01*
X0285814Y0053901D01*
X0285923Y0054006D01*
X0286034Y0054107D01*
X0286148Y0054206D01*
X0286264Y0054301D01*
X0286384Y0054394D01*
X0286505Y0054483D01*
X0286629Y0054569D01*
X0286755Y0054652D01*
X0286883Y0054731D01*
X0287013Y0054807D01*
X0287145Y0054880D01*
X0287279Y0054948D01*
X0287415Y0055014D01*
X0287553Y0055076D01*
X0287692Y0055134D01*
X0287832Y0055188D01*
X0287974Y0055239D01*
X0288117Y0055286D01*
X0288262Y0055329D01*
X0288407Y0055368D01*
X0288554Y0055404D01*
X0288701Y0055435D01*
X0288849Y0055463D01*
X0288998Y0055487D01*
X0289147Y0055507D01*
X0289297Y0055523D01*
X0289447Y0055535D01*
X0289598Y0055543D01*
X0289749Y0055547D01*
X0289899Y0055547D01*
X0290050Y0055543D01*
X0290201Y0055535D01*
X0290351Y0055523D01*
X0290501Y0055507D01*
X0290650Y0055487D01*
X0290799Y0055463D01*
X0290947Y0055435D01*
X0291094Y0055404D01*
X0291241Y0055368D01*
X0291386Y0055329D01*
X0291531Y0055286D01*
X0291674Y0055239D01*
X0291816Y0055188D01*
X0291956Y0055134D01*
X0292095Y0055076D01*
X0292233Y0055014D01*
X0292369Y0054948D01*
X0292503Y0054880D01*
X0292635Y0054807D01*
X0292765Y0054731D01*
X0292893Y0054652D01*
X0293019Y0054569D01*
X0293143Y0054483D01*
X0293264Y0054394D01*
X0293384Y0054301D01*
X0293500Y0054206D01*
X0293614Y0054107D01*
X0293725Y0054006D01*
X0293834Y0053901D01*
X0293940Y0053794D01*
X0294043Y0053684D01*
X0294143Y0053571D01*
X0294240Y0053456D01*
X0294334Y0053338D01*
X0294425Y0053218D01*
X0294513Y0053095D01*
X0294597Y0052970D01*
X0294678Y0052843D01*
X0294756Y0052714D01*
X0294830Y0052583D01*
X0294900Y0052450D01*
X0294968Y0052315D01*
X0295031Y0052178D01*
X0295091Y0052040D01*
X0295147Y0051900D01*
X0295200Y0051759D01*
X0295249Y0051617D01*
X0295294Y0051473D01*
X0295335Y0051328D01*
X0295373Y0051182D01*
X0295406Y0051035D01*
X0295436Y0050887D01*
X0295462Y0050739D01*
X0295483Y0050589D01*
X0295501Y0050440D01*
X0295515Y0050290D01*
X0295525Y0050139D01*
X0295531Y0049989D01*
X0295533Y0049838D01*
X0295531Y0049687D01*
X0295525Y0049537D01*
X0295515Y0049386D01*
X0295501Y0049236D01*
X0295483Y0049087D01*
X0295462Y0048937D01*
X0295436Y0048789D01*
X0295406Y0048641D01*
X0295373Y0048494D01*
X0295335Y0048348D01*
X0295294Y0048203D01*
X0295249Y0048059D01*
X0295200Y0047917D01*
X0295147Y0047776D01*
X0295091Y0047636D01*
X0295031Y0047498D01*
X0294968Y0047361D01*
X0294900Y0047226D01*
X0294830Y0047093D01*
X0294756Y0046962D01*
X0294678Y0046833D01*
X0294597Y0046706D01*
X0294513Y0046581D01*
X0294425Y0046458D01*
X0294334Y0046338D01*
X0294240Y0046220D01*
X0294143Y0046105D01*
X0294043Y0045992D01*
X0293940Y0045882D01*
X0293834Y0045775D01*
X0293725Y0045670D01*
X0293614Y0045569D01*
X0293500Y0045470D01*
X0293384Y0045375D01*
X0293264Y0045282D01*
X0293143Y0045193D01*
X0293019Y0045107D01*
X0292893Y0045024D01*
X0292765Y0044945D01*
X0292635Y0044869D01*
X0292503Y0044796D01*
X0292369Y0044728D01*
X0292233Y0044662D01*
X0292095Y0044600D01*
X0291956Y0044542D01*
X0291816Y0044488D01*
X0291674Y0044437D01*
X0291531Y0044390D01*
X0291386Y0044347D01*
X0291241Y0044308D01*
X0291094Y0044272D01*
X0290947Y0044241D01*
X0290799Y0044213D01*
X0290650Y0044189D01*
X0290501Y0044169D01*
X0290351Y0044153D01*
X0290201Y0044141D01*
X0290050Y0044133D01*
X0289899Y0044129D01*
X0289749Y0044129D01*
X0289598Y0044133D01*
X0289447Y0044141D01*
X0289297Y0044153D01*
X0289147Y0044169D01*
X0288998Y0044189D01*
X0288849Y0044213D01*
X0288701Y0044241D01*
X0288554Y0044272D01*
X0288407Y0044308D01*
X0288262Y0044347D01*
X0288117Y0044390D01*
X0287974Y0044437D01*
X0287832Y0044488D01*
X0287692Y0044542D01*
X0287553Y0044600D01*
X0287415Y0044662D01*
X0287279Y0044728D01*
X0287145Y0044796D01*
X0287013Y0044869D01*
X0286883Y0044945D01*
X0286755Y0045024D01*
X0286629Y0045107D01*
X0286505Y0045193D01*
X0286384Y0045282D01*
X0286264Y0045375D01*
X0286148Y0045470D01*
X0286034Y0045569D01*
X0285923Y0045670D01*
X0285814Y0045775D01*
X0285708Y0045882D01*
X0285605Y0045992D01*
X0285505Y0046105D01*
X0285408Y0046220D01*
X0285314Y0046338D01*
X0285223Y0046458D01*
X0285135Y0046581D01*
X0285051Y0046706D01*
X0284970Y0046833D01*
X0284892Y0046962D01*
X0284818Y0047093D01*
X0284748Y0047226D01*
X0284680Y0047361D01*
X0284617Y0047498D01*
X0284557Y0047636D01*
X0284501Y0047776D01*
X0284448Y0047917D01*
X0284399Y0048059D01*
X0284354Y0048203D01*
X0284313Y0048348D01*
X0284275Y0048494D01*
X0284242Y0048641D01*
X0284212Y0048789D01*
X0284186Y0048937D01*
X0284165Y0049087D01*
X0284147Y0049236D01*
X0284133Y0049386D01*
X0284123Y0049537D01*
X0284117Y0049687D01*
X0284115Y0049838D01*
X0288667Y0042111D02*
X0288653Y0042080D01*
X0288643Y0042048D01*
X0288636Y0042016D01*
X0288633Y0041983D01*
X0288685Y0041626D02*
X0288713Y0041545D01*
X0288774Y0041410D02*
X0288805Y0041357D01*
X0288985Y0041128D02*
X0289047Y0041071D01*
X0289163Y0040983D02*
X0289215Y0040950D01*
X0289478Y0040834D02*
X0289591Y0040806D01*
X0290056Y0040806D02*
X0290170Y0040834D01*
X0290433Y0040950D02*
X0290514Y0041003D01*
X0290662Y0041128D02*
X0290704Y0041172D01*
X0290796Y0041286D02*
X0290843Y0041357D01*
X0290962Y0041626D02*
X0290978Y0041680D01*
X0290995Y0042074D02*
X0290982Y0042106D01*
X0290967Y0042137D01*
X0290942Y0042179D02*
X0290908Y0042228D01*
X0290871Y0042275D01*
X0288878Y0041249D02*
X0288840Y0041302D01*
X0288804Y0041357D01*
X0288706Y0042180D02*
X0288736Y0042225D01*
X0288769Y0042267D01*
X0288805Y0042308D01*
X0290842Y0041357D02*
X0290874Y0041414D01*
X0290904Y0041473D01*
X0289215Y0042612D02*
X0289160Y0042583D01*
X0289107Y0042553D01*
X0289054Y0042520D01*
X0290170Y0040835D02*
X0290231Y0040855D01*
X0290290Y0040879D01*
X0290595Y0042518D02*
X0290540Y0042553D01*
X0290484Y0042585D01*
X0290426Y0042615D01*
X0290367Y0042642D01*
X0288879Y0041249D02*
X0288913Y0041207D01*
X0288948Y0041166D01*
X0288986Y0041127D01*
X0288869Y0042373D02*
X0288904Y0042406D01*
X0288941Y0042437D01*
X0288979Y0042467D01*
X0291004Y0041815D02*
X0290993Y0041747D01*
X0290978Y0041680D01*
X0290103Y0042725D02*
X0290038Y0042738D01*
X0289973Y0042746D01*
X0289907Y0042752D01*
X0290433Y0040950D02*
X0290386Y0040924D01*
X0290339Y0040900D01*
X0290291Y0040878D01*
X0290779Y0042373D02*
X0290735Y0042412D01*
X0290690Y0042450D01*
X0290643Y0042485D01*
X0290595Y0042518D01*
X0290056Y0040805D02*
X0289999Y0040795D01*
X0289941Y0040788D01*
X0289882Y0040783D01*
X0289824Y0040782D01*
X0289281Y0042641D02*
X0289345Y0042667D01*
X0289410Y0042689D01*
X0289477Y0042708D01*
X0289544Y0042724D01*
X0290797Y0041286D02*
X0290767Y0041246D01*
X0290737Y0041208D01*
X0290704Y0041171D01*
X0289823Y0042754D02*
X0289753Y0042752D01*
X0289683Y0042747D01*
X0289613Y0042738D01*
X0289544Y0042725D01*
X0290962Y0041626D02*
X0290945Y0041574D01*
X0290925Y0041523D01*
X0290903Y0041473D01*
X0289477Y0040834D02*
X0289416Y0040854D01*
X0289356Y0040878D01*
X0289163Y0040983D02*
X0289123Y0041010D01*
X0289084Y0041040D01*
X0289047Y0041071D01*
X0288685Y0041626D02*
X0288669Y0041684D01*
X0288655Y0041743D01*
X0288712Y0041545D02*
X0288731Y0041499D01*
X0288752Y0041454D01*
X0288774Y0041410D01*
X0288655Y0041742D02*
X0288646Y0041793D01*
X0288639Y0041843D01*
X0288635Y0041894D01*
X0291003Y0041815D02*
X0291009Y0041870D01*
X0291013Y0041926D01*
X0291014Y0041982D01*
X0290662Y0041127D02*
X0290615Y0041083D01*
X0290565Y0041042D01*
X0290514Y0041003D01*
X0289357Y0040878D02*
X0289308Y0040899D01*
X0289261Y0040923D01*
X0289215Y0040950D01*
X0289592Y0040805D02*
X0289649Y0040795D01*
X0289707Y0040788D01*
X0289766Y0040783D01*
X0289824Y0040782D01*
X0303663Y0041710D02*
X0303685Y0041626D01*
X0303757Y0041443D02*
X0303805Y0041357D01*
X0303919Y0041199D02*
X0303985Y0041128D01*
X0304215Y0040950D02*
X0304299Y0040904D01*
X0304478Y0040834D02*
X0304559Y0040812D01*
X0305592Y0042520D02*
X0305547Y0042548D01*
X0305500Y0042575D01*
X0305453Y0042601D01*
X0305980Y0042110D02*
X0305993Y0042080D01*
X0306004Y0042048D01*
X0306010Y0042016D01*
X0306014Y0041983D01*
X0305978Y0041680D02*
X0305962Y0041626D01*
X0305890Y0041443D02*
X0305843Y0041357D01*
X0305728Y0041199D02*
X0305662Y0041128D01*
X0305514Y0041003D02*
X0305433Y0040950D01*
X0305170Y0040834D02*
X0305056Y0040806D01*
X0304052Y0042518D02*
X0304107Y0042553D01*
X0304164Y0042585D01*
X0304222Y0042615D01*
X0304281Y0042641D01*
X0303652Y0042074D02*
X0303642Y0042044D01*
X0303636Y0042013D01*
X0303633Y0041982D01*
X0303706Y0042180D02*
X0303740Y0042229D01*
X0303776Y0042275D01*
X0306004Y0041815D02*
X0305993Y0041747D01*
X0305978Y0041680D01*
X0305942Y0042179D02*
X0305911Y0042224D01*
X0305878Y0042267D01*
X0305843Y0042308D01*
X0303633Y0041982D02*
X0303634Y0041922D01*
X0303638Y0041861D01*
X0306003Y0041815D02*
X0306009Y0041870D01*
X0306013Y0041926D01*
X0306014Y0041982D01*
X0303663Y0041711D02*
X0303653Y0041761D01*
X0303645Y0041811D01*
X0303639Y0041862D01*
X0304107Y0041023D02*
X0304160Y0040985D01*
X0304214Y0040950D01*
X0305103Y0042725D02*
X0305171Y0042709D01*
X0305237Y0042690D01*
X0305302Y0042668D01*
X0305367Y0042642D01*
X0304477Y0040835D02*
X0304416Y0040855D01*
X0304357Y0040878D01*
X0304298Y0040905D01*
X0303869Y0042373D02*
X0303912Y0042412D01*
X0303957Y0042450D01*
X0304004Y0042485D01*
X0304053Y0042518D01*
X0303986Y0041128D02*
X0304025Y0041091D01*
X0304065Y0041056D01*
X0304107Y0041022D01*
X0304411Y0042690D02*
X0304477Y0042710D01*
X0304545Y0042726D01*
X0304614Y0042738D01*
X0304683Y0042747D01*
X0304824Y0040782D02*
X0304882Y0040783D01*
X0304941Y0040788D01*
X0304999Y0040795D01*
X0305056Y0040805D01*
X0305779Y0042373D02*
X0305736Y0042412D01*
X0305691Y0042449D01*
X0305645Y0042484D01*
X0305662Y0041127D02*
X0305615Y0041083D01*
X0305565Y0041042D01*
X0305514Y0041003D01*
X0305001Y0042742D02*
X0304942Y0042749D01*
X0304883Y0042753D01*
X0304823Y0042754D01*
X0305842Y0041358D02*
X0305807Y0041303D01*
X0305768Y0041250D01*
X0305728Y0041200D01*
X0305432Y0040950D02*
X0305376Y0040919D01*
X0305319Y0040890D01*
X0304823Y0040783D02*
X0304764Y0040784D01*
X0304706Y0040789D01*
X0304705Y0040789D02*
X0304656Y0040795D01*
X0304607Y0040803D01*
X0304559Y0040813D01*
X0305170Y0040835D02*
X0305220Y0040851D01*
X0305270Y0040870D01*
X0305319Y0040891D01*
X0303757Y0041443D02*
X0303730Y0041503D01*
X0303706Y0041564D01*
X0303685Y0041626D01*
X0305890Y0041443D02*
X0305917Y0041503D01*
X0305941Y0041563D01*
X0305962Y0041625D01*
X0303919Y0041199D02*
X0303878Y0041250D01*
X0303840Y0041303D01*
X0303805Y0041357D01*
X0299115Y0049838D02*
X0299117Y0049989D01*
X0299123Y0050139D01*
X0299133Y0050290D01*
X0299147Y0050440D01*
X0299165Y0050589D01*
X0299186Y0050739D01*
X0299212Y0050887D01*
X0299242Y0051035D01*
X0299275Y0051182D01*
X0299313Y0051328D01*
X0299354Y0051473D01*
X0299399Y0051617D01*
X0299448Y0051759D01*
X0299501Y0051900D01*
X0299557Y0052040D01*
X0299617Y0052178D01*
X0299680Y0052315D01*
X0299748Y0052450D01*
X0299818Y0052583D01*
X0299892Y0052714D01*
X0299970Y0052843D01*
X0300051Y0052970D01*
X0300135Y0053095D01*
X0300223Y0053218D01*
X0300314Y0053338D01*
X0300408Y0053456D01*
X0300505Y0053571D01*
X0300605Y0053684D01*
X0300708Y0053794D01*
X0300814Y0053901D01*
X0300923Y0054006D01*
X0301034Y0054107D01*
X0301148Y0054206D01*
X0301264Y0054301D01*
X0301384Y0054394D01*
X0301505Y0054483D01*
X0301629Y0054569D01*
X0301755Y0054652D01*
X0301883Y0054731D01*
X0302013Y0054807D01*
X0302145Y0054880D01*
X0302279Y0054948D01*
X0302415Y0055014D01*
X0302553Y0055076D01*
X0302692Y0055134D01*
X0302832Y0055188D01*
X0302974Y0055239D01*
X0303117Y0055286D01*
X0303262Y0055329D01*
X0303407Y0055368D01*
X0303554Y0055404D01*
X0303701Y0055435D01*
X0303849Y0055463D01*
X0303998Y0055487D01*
X0304147Y0055507D01*
X0304297Y0055523D01*
X0304447Y0055535D01*
X0304598Y0055543D01*
X0304749Y0055547D01*
X0304899Y0055547D01*
X0305050Y0055543D01*
X0305201Y0055535D01*
X0305351Y0055523D01*
X0305501Y0055507D01*
X0305650Y0055487D01*
X0305799Y0055463D01*
X0305947Y0055435D01*
X0306094Y0055404D01*
X0306241Y0055368D01*
X0306386Y0055329D01*
X0306531Y0055286D01*
X0306674Y0055239D01*
X0306816Y0055188D01*
X0306956Y0055134D01*
X0307095Y0055076D01*
X0307233Y0055014D01*
X0307369Y0054948D01*
X0307503Y0054880D01*
X0307635Y0054807D01*
X0307765Y0054731D01*
X0307893Y0054652D01*
X0308019Y0054569D01*
X0308143Y0054483D01*
X0308264Y0054394D01*
X0308384Y0054301D01*
X0308500Y0054206D01*
X0308614Y0054107D01*
X0308725Y0054006D01*
X0308834Y0053901D01*
X0308940Y0053794D01*
X0309043Y0053684D01*
X0309143Y0053571D01*
X0309240Y0053456D01*
X0309334Y0053338D01*
X0309425Y0053218D01*
X0309513Y0053095D01*
X0309597Y0052970D01*
X0309678Y0052843D01*
X0309756Y0052714D01*
X0309830Y0052583D01*
X0309900Y0052450D01*
X0309968Y0052315D01*
X0310031Y0052178D01*
X0310091Y0052040D01*
X0310147Y0051900D01*
X0310200Y0051759D01*
X0310249Y0051617D01*
X0310294Y0051473D01*
X0310335Y0051328D01*
X0310373Y0051182D01*
X0310406Y0051035D01*
X0310436Y0050887D01*
X0310462Y0050739D01*
X0310483Y0050589D01*
X0310501Y0050440D01*
X0310515Y0050290D01*
X0310525Y0050139D01*
X0310531Y0049989D01*
X0310533Y0049838D01*
X0310531Y0049687D01*
X0310525Y0049537D01*
X0310515Y0049386D01*
X0310501Y0049236D01*
X0310483Y0049087D01*
X0310462Y0048937D01*
X0310436Y0048789D01*
X0310406Y0048641D01*
X0310373Y0048494D01*
X0310335Y0048348D01*
X0310294Y0048203D01*
X0310249Y0048059D01*
X0310200Y0047917D01*
X0310147Y0047776D01*
X0310091Y0047636D01*
X0310031Y0047498D01*
X0309968Y0047361D01*
X0309900Y0047226D01*
X0309830Y0047093D01*
X0309756Y0046962D01*
X0309678Y0046833D01*
X0309597Y0046706D01*
X0309513Y0046581D01*
X0309425Y0046458D01*
X0309334Y0046338D01*
X0309240Y0046220D01*
X0309143Y0046105D01*
X0309043Y0045992D01*
X0308940Y0045882D01*
X0308834Y0045775D01*
X0308725Y0045670D01*
X0308614Y0045569D01*
X0308500Y0045470D01*
X0308384Y0045375D01*
X0308264Y0045282D01*
X0308143Y0045193D01*
X0308019Y0045107D01*
X0307893Y0045024D01*
X0307765Y0044945D01*
X0307635Y0044869D01*
X0307503Y0044796D01*
X0307369Y0044728D01*
X0307233Y0044662D01*
X0307095Y0044600D01*
X0306956Y0044542D01*
X0306816Y0044488D01*
X0306674Y0044437D01*
X0306531Y0044390D01*
X0306386Y0044347D01*
X0306241Y0044308D01*
X0306094Y0044272D01*
X0305947Y0044241D01*
X0305799Y0044213D01*
X0305650Y0044189D01*
X0305501Y0044169D01*
X0305351Y0044153D01*
X0305201Y0044141D01*
X0305050Y0044133D01*
X0304899Y0044129D01*
X0304749Y0044129D01*
X0304598Y0044133D01*
X0304447Y0044141D01*
X0304297Y0044153D01*
X0304147Y0044169D01*
X0303998Y0044189D01*
X0303849Y0044213D01*
X0303701Y0044241D01*
X0303554Y0044272D01*
X0303407Y0044308D01*
X0303262Y0044347D01*
X0303117Y0044390D01*
X0302974Y0044437D01*
X0302832Y0044488D01*
X0302692Y0044542D01*
X0302553Y0044600D01*
X0302415Y0044662D01*
X0302279Y0044728D01*
X0302145Y0044796D01*
X0302013Y0044869D01*
X0301883Y0044945D01*
X0301755Y0045024D01*
X0301629Y0045107D01*
X0301505Y0045193D01*
X0301384Y0045282D01*
X0301264Y0045375D01*
X0301148Y0045470D01*
X0301034Y0045569D01*
X0300923Y0045670D01*
X0300814Y0045775D01*
X0300708Y0045882D01*
X0300605Y0045992D01*
X0300505Y0046105D01*
X0300408Y0046220D01*
X0300314Y0046338D01*
X0300223Y0046458D01*
X0300135Y0046581D01*
X0300051Y0046706D01*
X0299970Y0046833D01*
X0299892Y0046962D01*
X0299818Y0047093D01*
X0299748Y0047226D01*
X0299680Y0047361D01*
X0299617Y0047498D01*
X0299557Y0047636D01*
X0299501Y0047776D01*
X0299448Y0047917D01*
X0299399Y0048059D01*
X0299354Y0048203D01*
X0299313Y0048348D01*
X0299275Y0048494D01*
X0299242Y0048641D01*
X0299212Y0048789D01*
X0299186Y0048937D01*
X0299165Y0049087D01*
X0299147Y0049236D01*
X0299133Y0049386D01*
X0299123Y0049537D01*
X0299117Y0049687D01*
X0299115Y0049838D01*
X0314115Y0049838D02*
X0314117Y0049989D01*
X0314123Y0050139D01*
X0314133Y0050290D01*
X0314147Y0050440D01*
X0314165Y0050589D01*
X0314186Y0050739D01*
X0314212Y0050887D01*
X0314242Y0051035D01*
X0314275Y0051182D01*
X0314313Y0051328D01*
X0314354Y0051473D01*
X0314399Y0051617D01*
X0314448Y0051759D01*
X0314501Y0051900D01*
X0314557Y0052040D01*
X0314617Y0052178D01*
X0314680Y0052315D01*
X0314748Y0052450D01*
X0314818Y0052583D01*
X0314892Y0052714D01*
X0314970Y0052843D01*
X0315051Y0052970D01*
X0315135Y0053095D01*
X0315223Y0053218D01*
X0315314Y0053338D01*
X0315408Y0053456D01*
X0315505Y0053571D01*
X0315605Y0053684D01*
X0315708Y0053794D01*
X0315814Y0053901D01*
X0315923Y0054006D01*
X0316034Y0054107D01*
X0316148Y0054206D01*
X0316264Y0054301D01*
X0316384Y0054394D01*
X0316505Y0054483D01*
X0316629Y0054569D01*
X0316755Y0054652D01*
X0316883Y0054731D01*
X0317013Y0054807D01*
X0317145Y0054880D01*
X0317279Y0054948D01*
X0317415Y0055014D01*
X0317553Y0055076D01*
X0317692Y0055134D01*
X0317832Y0055188D01*
X0317974Y0055239D01*
X0318117Y0055286D01*
X0318262Y0055329D01*
X0318407Y0055368D01*
X0318554Y0055404D01*
X0318701Y0055435D01*
X0318849Y0055463D01*
X0318998Y0055487D01*
X0319147Y0055507D01*
X0319297Y0055523D01*
X0319447Y0055535D01*
X0319598Y0055543D01*
X0319749Y0055547D01*
X0319899Y0055547D01*
X0320050Y0055543D01*
X0320201Y0055535D01*
X0320351Y0055523D01*
X0320501Y0055507D01*
X0320650Y0055487D01*
X0320799Y0055463D01*
X0320947Y0055435D01*
X0321094Y0055404D01*
X0321241Y0055368D01*
X0321386Y0055329D01*
X0321531Y0055286D01*
X0321674Y0055239D01*
X0321816Y0055188D01*
X0321956Y0055134D01*
X0322095Y0055076D01*
X0322233Y0055014D01*
X0322369Y0054948D01*
X0322503Y0054880D01*
X0322635Y0054807D01*
X0322765Y0054731D01*
X0322893Y0054652D01*
X0323019Y0054569D01*
X0323143Y0054483D01*
X0323264Y0054394D01*
X0323384Y0054301D01*
X0323500Y0054206D01*
X0323614Y0054107D01*
X0323725Y0054006D01*
X0323834Y0053901D01*
X0323940Y0053794D01*
X0324043Y0053684D01*
X0324143Y0053571D01*
X0324240Y0053456D01*
X0324334Y0053338D01*
X0324425Y0053218D01*
X0324513Y0053095D01*
X0324597Y0052970D01*
X0324678Y0052843D01*
X0324756Y0052714D01*
X0324830Y0052583D01*
X0324900Y0052450D01*
X0324968Y0052315D01*
X0325031Y0052178D01*
X0325091Y0052040D01*
X0325147Y0051900D01*
X0325200Y0051759D01*
X0325249Y0051617D01*
X0325294Y0051473D01*
X0325335Y0051328D01*
X0325373Y0051182D01*
X0325406Y0051035D01*
X0325436Y0050887D01*
X0325462Y0050739D01*
X0325483Y0050589D01*
X0325501Y0050440D01*
X0325515Y0050290D01*
X0325525Y0050139D01*
X0325531Y0049989D01*
X0325533Y0049838D01*
X0325531Y0049687D01*
X0325525Y0049537D01*
X0325515Y0049386D01*
X0325501Y0049236D01*
X0325483Y0049087D01*
X0325462Y0048937D01*
X0325436Y0048789D01*
X0325406Y0048641D01*
X0325373Y0048494D01*
X0325335Y0048348D01*
X0325294Y0048203D01*
X0325249Y0048059D01*
X0325200Y0047917D01*
X0325147Y0047776D01*
X0325091Y0047636D01*
X0325031Y0047498D01*
X0324968Y0047361D01*
X0324900Y0047226D01*
X0324830Y0047093D01*
X0324756Y0046962D01*
X0324678Y0046833D01*
X0324597Y0046706D01*
X0324513Y0046581D01*
X0324425Y0046458D01*
X0324334Y0046338D01*
X0324240Y0046220D01*
X0324143Y0046105D01*
X0324043Y0045992D01*
X0323940Y0045882D01*
X0323834Y0045775D01*
X0323725Y0045670D01*
X0323614Y0045569D01*
X0323500Y0045470D01*
X0323384Y0045375D01*
X0323264Y0045282D01*
X0323143Y0045193D01*
X0323019Y0045107D01*
X0322893Y0045024D01*
X0322765Y0044945D01*
X0322635Y0044869D01*
X0322503Y0044796D01*
X0322369Y0044728D01*
X0322233Y0044662D01*
X0322095Y0044600D01*
X0321956Y0044542D01*
X0321816Y0044488D01*
X0321674Y0044437D01*
X0321531Y0044390D01*
X0321386Y0044347D01*
X0321241Y0044308D01*
X0321094Y0044272D01*
X0320947Y0044241D01*
X0320799Y0044213D01*
X0320650Y0044189D01*
X0320501Y0044169D01*
X0320351Y0044153D01*
X0320201Y0044141D01*
X0320050Y0044133D01*
X0319899Y0044129D01*
X0319749Y0044129D01*
X0319598Y0044133D01*
X0319447Y0044141D01*
X0319297Y0044153D01*
X0319147Y0044169D01*
X0318998Y0044189D01*
X0318849Y0044213D01*
X0318701Y0044241D01*
X0318554Y0044272D01*
X0318407Y0044308D01*
X0318262Y0044347D01*
X0318117Y0044390D01*
X0317974Y0044437D01*
X0317832Y0044488D01*
X0317692Y0044542D01*
X0317553Y0044600D01*
X0317415Y0044662D01*
X0317279Y0044728D01*
X0317145Y0044796D01*
X0317013Y0044869D01*
X0316883Y0044945D01*
X0316755Y0045024D01*
X0316629Y0045107D01*
X0316505Y0045193D01*
X0316384Y0045282D01*
X0316264Y0045375D01*
X0316148Y0045470D01*
X0316034Y0045569D01*
X0315923Y0045670D01*
X0315814Y0045775D01*
X0315708Y0045882D01*
X0315605Y0045992D01*
X0315505Y0046105D01*
X0315408Y0046220D01*
X0315314Y0046338D01*
X0315223Y0046458D01*
X0315135Y0046581D01*
X0315051Y0046706D01*
X0314970Y0046833D01*
X0314892Y0046962D01*
X0314818Y0047093D01*
X0314748Y0047226D01*
X0314680Y0047361D01*
X0314617Y0047498D01*
X0314557Y0047636D01*
X0314501Y0047776D01*
X0314448Y0047917D01*
X0314399Y0048059D01*
X0314354Y0048203D01*
X0314313Y0048348D01*
X0314275Y0048494D01*
X0314242Y0048641D01*
X0314212Y0048789D01*
X0314186Y0048937D01*
X0314165Y0049087D01*
X0314147Y0049236D01*
X0314133Y0049386D01*
X0314123Y0049537D01*
X0314117Y0049687D01*
X0314115Y0049838D01*
X0318667Y0042111D02*
X0318653Y0042080D01*
X0318643Y0042048D01*
X0318636Y0042016D01*
X0318633Y0041983D01*
X0318663Y0041710D02*
X0318685Y0041626D01*
X0318805Y0041357D02*
X0318859Y0041276D01*
X0318985Y0041128D02*
X0319072Y0041050D01*
X0319478Y0040834D02*
X0319559Y0040812D01*
X0319824Y0040783D02*
X0319878Y0040784D01*
X0320170Y0040834D02*
X0320248Y0040861D01*
X0320380Y0040921D02*
X0320433Y0040950D01*
X0320662Y0041128D02*
X0320741Y0041215D01*
X0320962Y0041626D02*
X0320978Y0041680D01*
X0321006Y0042044D02*
X0320993Y0042079D01*
X0320979Y0042114D01*
X0320962Y0042148D01*
X0320942Y0042180D01*
X0318633Y0041982D02*
X0318634Y0041922D01*
X0318638Y0041861D01*
X0318706Y0042180D02*
X0318728Y0042213D01*
X0318751Y0042244D01*
X0318776Y0042275D01*
X0321003Y0041815D02*
X0320992Y0041747D01*
X0320977Y0041680D01*
X0320871Y0042276D02*
X0320842Y0042310D01*
X0320811Y0042342D01*
X0320779Y0042374D01*
X0318639Y0041862D02*
X0318645Y0041811D01*
X0318653Y0041760D01*
X0318663Y0041710D01*
X0318743Y0041473D02*
X0318772Y0041414D01*
X0318805Y0041357D01*
X0320486Y0042584D02*
X0320540Y0042553D01*
X0320592Y0042520D01*
X0320643Y0042485D01*
X0320693Y0042447D01*
X0320011Y0040797D02*
X0319945Y0040789D01*
X0319878Y0040784D01*
X0320020Y0042739D02*
X0319955Y0042747D01*
X0319889Y0042752D01*
X0319823Y0042754D01*
X0320541Y0041023D02*
X0320488Y0040985D01*
X0320433Y0040950D01*
X0319281Y0042641D02*
X0319222Y0042614D01*
X0319164Y0042585D01*
X0319108Y0042553D01*
X0319053Y0042518D01*
X0320541Y0041023D02*
X0320583Y0041056D01*
X0320623Y0041091D01*
X0320662Y0041128D01*
X0319683Y0042747D02*
X0319614Y0042738D01*
X0319545Y0042726D01*
X0319477Y0042710D01*
X0319411Y0042690D01*
X0320011Y0040797D02*
X0320065Y0040807D01*
X0320117Y0040819D01*
X0320170Y0040834D01*
X0320367Y0042642D02*
X0320302Y0042668D01*
X0320237Y0042690D01*
X0320171Y0042709D01*
X0320103Y0042725D01*
X0319263Y0040923D02*
X0319315Y0040897D01*
X0319368Y0040873D01*
X0319422Y0040852D01*
X0319477Y0040834D01*
X0318869Y0042373D02*
X0318912Y0042412D01*
X0318957Y0042450D01*
X0319004Y0042485D01*
X0319053Y0042518D01*
X0321014Y0041982D02*
X0321013Y0041926D01*
X0321009Y0041870D01*
X0321003Y0041815D01*
X0320381Y0040921D02*
X0320338Y0040899D01*
X0320294Y0040879D01*
X0320249Y0040861D01*
X0319823Y0040783D02*
X0319764Y0040784D01*
X0319706Y0040789D01*
X0319706Y0040788D02*
X0319656Y0040794D01*
X0319608Y0040802D01*
X0319559Y0040812D01*
X0318743Y0041473D02*
X0318721Y0041523D01*
X0318701Y0041574D01*
X0318684Y0041626D01*
X0320872Y0041409D02*
X0320898Y0041461D01*
X0320922Y0041515D01*
X0320944Y0041570D01*
X0320962Y0041626D01*
X0318986Y0041128D02*
X0318941Y0041175D01*
X0318899Y0041225D01*
X0318859Y0041276D01*
X0320741Y0041215D02*
X0320778Y0041261D01*
X0320812Y0041309D01*
X0320843Y0041358D01*
X0320872Y0041409D01*
X0319264Y0040922D02*
X0319214Y0040950D01*
X0319165Y0040981D01*
X0319117Y0041014D01*
X0319072Y0041049D01*
X0333670Y0041680D02*
X0333685Y0041626D01*
X0333805Y0041357D02*
X0333851Y0041286D01*
X0333943Y0041172D02*
X0333985Y0041128D01*
X0334133Y0041003D02*
X0334215Y0040950D01*
X0334478Y0040834D02*
X0334531Y0040819D01*
X0334824Y0040783D02*
X0334878Y0040784D01*
X0335170Y0040834D02*
X0335260Y0040866D01*
X0335433Y0040950D02*
X0335514Y0041003D01*
X0335662Y0041128D02*
X0335741Y0041215D01*
X0335962Y0041626D02*
X0335985Y0041710D01*
X0336013Y0041983D02*
X0336010Y0042014D01*
X0336004Y0042044D01*
X0335995Y0042074D01*
X0335942Y0042180D02*
X0335908Y0042229D01*
X0335871Y0042276D01*
X0333729Y0041502D02*
X0333705Y0041563D01*
X0333684Y0041625D01*
X0333633Y0041982D02*
X0333636Y0042013D01*
X0333642Y0042044D01*
X0333652Y0042074D01*
X0333663Y0042101D02*
X0333683Y0042142D01*
X0333706Y0042180D01*
X0333776Y0042276D02*
X0333805Y0042309D01*
X0333836Y0042342D01*
X0333868Y0042373D01*
X0333644Y0041815D02*
X0333651Y0041770D01*
X0333659Y0041724D01*
X0333670Y0041680D01*
X0333851Y0041287D02*
X0333880Y0041247D01*
X0333911Y0041209D01*
X0333943Y0041172D01*
X0335453Y0042601D02*
X0335500Y0042575D01*
X0335547Y0042548D01*
X0335592Y0042520D01*
X0336014Y0041983D02*
X0336013Y0041922D01*
X0336009Y0041862D01*
X0336004Y0041811D01*
X0335996Y0041761D01*
X0335985Y0041711D01*
X0333805Y0041357D02*
X0333778Y0041405D01*
X0333753Y0041453D01*
X0333730Y0041503D01*
X0335668Y0042467D02*
X0335725Y0042422D01*
X0335779Y0042374D01*
X0334662Y0040793D02*
X0334596Y0040804D01*
X0334531Y0040819D01*
X0334054Y0042520D02*
X0334107Y0042553D01*
X0334160Y0042583D01*
X0334215Y0042612D01*
X0334878Y0040784D02*
X0334945Y0040789D01*
X0335011Y0040797D01*
X0335367Y0042642D02*
X0335302Y0042668D01*
X0335237Y0042690D01*
X0335171Y0042709D01*
X0335103Y0042725D01*
X0334824Y0040783D02*
X0334770Y0040784D01*
X0334716Y0040788D01*
X0334662Y0040794D01*
X0334282Y0042641D02*
X0334346Y0042667D01*
X0334411Y0042689D01*
X0334477Y0042708D01*
X0334544Y0042724D01*
X0335011Y0040797D02*
X0335065Y0040807D01*
X0335117Y0040819D01*
X0335170Y0040834D01*
X0334823Y0042754D02*
X0334753Y0042752D01*
X0334683Y0042747D01*
X0334613Y0042738D01*
X0334544Y0042725D01*
X0333633Y0041982D02*
X0333634Y0041926D01*
X0333637Y0041871D01*
X0333644Y0041815D01*
X0334356Y0040878D02*
X0334416Y0040854D01*
X0334477Y0040834D01*
X0334357Y0040878D02*
X0334308Y0040899D01*
X0334261Y0040923D01*
X0334215Y0040950D01*
X0335872Y0041409D02*
X0335898Y0041461D01*
X0335922Y0041515D01*
X0335944Y0041570D01*
X0335962Y0041626D01*
X0335662Y0041127D02*
X0335615Y0041083D01*
X0335565Y0041042D01*
X0335514Y0041003D01*
X0335741Y0041215D02*
X0335778Y0041261D01*
X0335812Y0041309D01*
X0335843Y0041358D01*
X0335872Y0041409D01*
X0334133Y0041003D02*
X0334082Y0041042D01*
X0334032Y0041083D01*
X0333985Y0041127D01*
X0335260Y0040866D02*
X0335319Y0040891D01*
X0335377Y0040919D01*
X0335433Y0040951D01*
X0329115Y0049838D02*
X0329117Y0049989D01*
X0329123Y0050139D01*
X0329133Y0050290D01*
X0329147Y0050440D01*
X0329165Y0050589D01*
X0329186Y0050739D01*
X0329212Y0050887D01*
X0329242Y0051035D01*
X0329275Y0051182D01*
X0329313Y0051328D01*
X0329354Y0051473D01*
X0329399Y0051617D01*
X0329448Y0051759D01*
X0329501Y0051900D01*
X0329557Y0052040D01*
X0329617Y0052178D01*
X0329680Y0052315D01*
X0329748Y0052450D01*
X0329818Y0052583D01*
X0329892Y0052714D01*
X0329970Y0052843D01*
X0330051Y0052970D01*
X0330135Y0053095D01*
X0330223Y0053218D01*
X0330314Y0053338D01*
X0330408Y0053456D01*
X0330505Y0053571D01*
X0330605Y0053684D01*
X0330708Y0053794D01*
X0330814Y0053901D01*
X0330923Y0054006D01*
X0331034Y0054107D01*
X0331148Y0054206D01*
X0331264Y0054301D01*
X0331384Y0054394D01*
X0331505Y0054483D01*
X0331629Y0054569D01*
X0331755Y0054652D01*
X0331883Y0054731D01*
X0332013Y0054807D01*
X0332145Y0054880D01*
X0332279Y0054948D01*
X0332415Y0055014D01*
X0332553Y0055076D01*
X0332692Y0055134D01*
X0332832Y0055188D01*
X0332974Y0055239D01*
X0333117Y0055286D01*
X0333262Y0055329D01*
X0333407Y0055368D01*
X0333554Y0055404D01*
X0333701Y0055435D01*
X0333849Y0055463D01*
X0333998Y0055487D01*
X0334147Y0055507D01*
X0334297Y0055523D01*
X0334447Y0055535D01*
X0334598Y0055543D01*
X0334749Y0055547D01*
X0334899Y0055547D01*
X0335050Y0055543D01*
X0335201Y0055535D01*
X0335351Y0055523D01*
X0335501Y0055507D01*
X0335650Y0055487D01*
X0335799Y0055463D01*
X0335947Y0055435D01*
X0336094Y0055404D01*
X0336241Y0055368D01*
X0336386Y0055329D01*
X0336531Y0055286D01*
X0336674Y0055239D01*
X0336816Y0055188D01*
X0336956Y0055134D01*
X0337095Y0055076D01*
X0337233Y0055014D01*
X0337369Y0054948D01*
X0337503Y0054880D01*
X0337635Y0054807D01*
X0337765Y0054731D01*
X0337893Y0054652D01*
X0338019Y0054569D01*
X0338143Y0054483D01*
X0338264Y0054394D01*
X0338384Y0054301D01*
X0338500Y0054206D01*
X0338614Y0054107D01*
X0338725Y0054006D01*
X0338834Y0053901D01*
X0338940Y0053794D01*
X0339043Y0053684D01*
X0339143Y0053571D01*
X0339240Y0053456D01*
X0339334Y0053338D01*
X0339425Y0053218D01*
X0339513Y0053095D01*
X0339597Y0052970D01*
X0339678Y0052843D01*
X0339756Y0052714D01*
X0339830Y0052583D01*
X0339900Y0052450D01*
X0339968Y0052315D01*
X0340031Y0052178D01*
X0340091Y0052040D01*
X0340147Y0051900D01*
X0340200Y0051759D01*
X0340249Y0051617D01*
X0340294Y0051473D01*
X0340335Y0051328D01*
X0340373Y0051182D01*
X0340406Y0051035D01*
X0340436Y0050887D01*
X0340462Y0050739D01*
X0340483Y0050589D01*
X0340501Y0050440D01*
X0340515Y0050290D01*
X0340525Y0050139D01*
X0340531Y0049989D01*
X0340533Y0049838D01*
X0340531Y0049687D01*
X0340525Y0049537D01*
X0340515Y0049386D01*
X0340501Y0049236D01*
X0340483Y0049087D01*
X0340462Y0048937D01*
X0340436Y0048789D01*
X0340406Y0048641D01*
X0340373Y0048494D01*
X0340335Y0048348D01*
X0340294Y0048203D01*
X0340249Y0048059D01*
X0340200Y0047917D01*
X0340147Y0047776D01*
X0340091Y0047636D01*
X0340031Y0047498D01*
X0339968Y0047361D01*
X0339900Y0047226D01*
X0339830Y0047093D01*
X0339756Y0046962D01*
X0339678Y0046833D01*
X0339597Y0046706D01*
X0339513Y0046581D01*
X0339425Y0046458D01*
X0339334Y0046338D01*
X0339240Y0046220D01*
X0339143Y0046105D01*
X0339043Y0045992D01*
X0338940Y0045882D01*
X0338834Y0045775D01*
X0338725Y0045670D01*
X0338614Y0045569D01*
X0338500Y0045470D01*
X0338384Y0045375D01*
X0338264Y0045282D01*
X0338143Y0045193D01*
X0338019Y0045107D01*
X0337893Y0045024D01*
X0337765Y0044945D01*
X0337635Y0044869D01*
X0337503Y0044796D01*
X0337369Y0044728D01*
X0337233Y0044662D01*
X0337095Y0044600D01*
X0336956Y0044542D01*
X0336816Y0044488D01*
X0336674Y0044437D01*
X0336531Y0044390D01*
X0336386Y0044347D01*
X0336241Y0044308D01*
X0336094Y0044272D01*
X0335947Y0044241D01*
X0335799Y0044213D01*
X0335650Y0044189D01*
X0335501Y0044169D01*
X0335351Y0044153D01*
X0335201Y0044141D01*
X0335050Y0044133D01*
X0334899Y0044129D01*
X0334749Y0044129D01*
X0334598Y0044133D01*
X0334447Y0044141D01*
X0334297Y0044153D01*
X0334147Y0044169D01*
X0333998Y0044189D01*
X0333849Y0044213D01*
X0333701Y0044241D01*
X0333554Y0044272D01*
X0333407Y0044308D01*
X0333262Y0044347D01*
X0333117Y0044390D01*
X0332974Y0044437D01*
X0332832Y0044488D01*
X0332692Y0044542D01*
X0332553Y0044600D01*
X0332415Y0044662D01*
X0332279Y0044728D01*
X0332145Y0044796D01*
X0332013Y0044869D01*
X0331883Y0044945D01*
X0331755Y0045024D01*
X0331629Y0045107D01*
X0331505Y0045193D01*
X0331384Y0045282D01*
X0331264Y0045375D01*
X0331148Y0045470D01*
X0331034Y0045569D01*
X0330923Y0045670D01*
X0330814Y0045775D01*
X0330708Y0045882D01*
X0330605Y0045992D01*
X0330505Y0046105D01*
X0330408Y0046220D01*
X0330314Y0046338D01*
X0330223Y0046458D01*
X0330135Y0046581D01*
X0330051Y0046706D01*
X0329970Y0046833D01*
X0329892Y0046962D01*
X0329818Y0047093D01*
X0329748Y0047226D01*
X0329680Y0047361D01*
X0329617Y0047498D01*
X0329557Y0047636D01*
X0329501Y0047776D01*
X0329448Y0047917D01*
X0329399Y0048059D01*
X0329354Y0048203D01*
X0329313Y0048348D01*
X0329275Y0048494D01*
X0329242Y0048641D01*
X0329212Y0048789D01*
X0329186Y0048937D01*
X0329165Y0049087D01*
X0329147Y0049236D01*
X0329133Y0049386D01*
X0329123Y0049537D01*
X0329117Y0049687D01*
X0329115Y0049838D01*
M02*
