G75*
%MOIN*%
%OFA0B0*%
%FSLAX25Y25*%
%IPPOS*%
%LPD*%
%AMOC8*
5,1,8,0,0,1.08239X$1,22.5*
%
%ADD10R,0.04035X0.03307*%
%ADD11R,0.05512X0.06299*%
%ADD12R,0.02756X0.09055*%
%ADD13R,0.02756X0.03150*%
%ADD14R,0.03150X0.02756*%
%ADD15R,0.06299X0.06299*%
%ADD16C,0.06299*%
%ADD17C,0.00978*%
%ADD18C,0.06299*%
%ADD19R,0.01969X0.05118*%
%ADD20R,0.03307X0.04035*%
%ADD21R,0.03898X0.11378*%
%ADD22R,0.42047X0.27323*%
%ADD23R,0.05906X0.04331*%
%ADD24C,0.00882*%
%ADD25R,0.12992X0.07480*%
%ADD26R,0.07480X0.12992*%
%ADD27R,0.06694X0.04994*%
%ADD28R,0.07200X0.00600*%
%ADD29R,0.05494X0.09794*%
%ADD30R,0.05906X0.05906*%
%ADD31C,0.06394*%
D10*
X0120300Y0084100D03*
X0120300Y0088800D03*
X0120300Y0093100D03*
X0125025Y0093100D03*
X0125025Y0088800D03*
X0125025Y0084100D03*
X0172300Y0089100D03*
X0177025Y0089100D03*
X0129525Y0134100D03*
X0124800Y0134100D03*
X0124800Y0139100D03*
X0129525Y0139100D03*
X0129525Y0144100D03*
X0124800Y0144100D03*
X0142300Y0154100D03*
X0147025Y0154100D03*
X0127025Y0159100D03*
X0122300Y0159100D03*
X0137300Y0174100D03*
X0142025Y0174100D03*
X0147300Y0174100D03*
X0152025Y0174100D03*
X0154800Y0184100D03*
X0159525Y0184100D03*
X0159525Y0189100D03*
X0154800Y0189100D03*
X0154800Y0194100D03*
X0159525Y0194100D03*
X0157025Y0244100D03*
X0152300Y0244100D03*
X0147025Y0244100D03*
X0142300Y0244100D03*
X0192300Y0144100D03*
X0197025Y0144100D03*
X0174425Y0137600D03*
X0169700Y0137600D03*
D11*
X0167172Y0131413D03*
X0174653Y0131413D03*
X0177153Y0096600D03*
X0169672Y0096600D03*
D12*
X0154663Y0103864D03*
X0149663Y0103864D03*
X0144663Y0103864D03*
X0139663Y0103864D03*
X0134663Y0103864D03*
X0129663Y0103864D03*
X0124663Y0103864D03*
X0124663Y0124336D03*
X0129663Y0124336D03*
X0134663Y0124336D03*
X0139663Y0124336D03*
X0144663Y0124336D03*
X0149663Y0124336D03*
X0154663Y0124336D03*
X0194663Y0124336D03*
X0199663Y0124336D03*
X0204663Y0124336D03*
X0209663Y0124336D03*
X0214663Y0124336D03*
X0219663Y0124336D03*
X0224663Y0124336D03*
X0224663Y0103864D03*
X0219663Y0103864D03*
X0214663Y0103864D03*
X0209663Y0103864D03*
X0204663Y0103864D03*
X0199663Y0103864D03*
X0194663Y0103864D03*
X0154663Y0203864D03*
X0149663Y0203864D03*
X0144663Y0203864D03*
X0139663Y0203864D03*
X0134663Y0203864D03*
X0129663Y0203864D03*
X0124663Y0203864D03*
X0124663Y0224336D03*
X0129663Y0224336D03*
X0134663Y0224336D03*
X0139663Y0224336D03*
X0144663Y0224336D03*
X0149663Y0224336D03*
X0154663Y0224336D03*
D13*
X0156631Y0234100D03*
X0152694Y0234100D03*
X0146631Y0234100D03*
X0142694Y0234100D03*
X0142694Y0239100D03*
X0146631Y0239100D03*
X0152694Y0239100D03*
X0156631Y0239100D03*
X0136631Y0239100D03*
X0132694Y0239100D03*
X0126631Y0239100D03*
X0122694Y0239100D03*
X0122694Y0234100D03*
X0126631Y0234100D03*
X0132694Y0234100D03*
X0136631Y0234100D03*
X0146594Y0194200D03*
X0150531Y0194200D03*
X0150531Y0189100D03*
X0146594Y0189100D03*
X0146694Y0184100D03*
X0150631Y0184100D03*
X0124756Y0189100D03*
X0120819Y0189100D03*
X0120819Y0194100D03*
X0124756Y0194100D03*
X0126631Y0164100D03*
X0122694Y0164100D03*
X0135194Y0144100D03*
X0139131Y0144100D03*
X0139131Y0139100D03*
X0135194Y0139100D03*
X0135194Y0134100D03*
X0139131Y0134100D03*
X0150194Y0134100D03*
X0154131Y0134100D03*
X0182694Y0134100D03*
X0186631Y0134100D03*
X0192694Y0134100D03*
X0196631Y0134100D03*
X0196631Y0139100D03*
X0192694Y0139100D03*
X0202694Y0146600D03*
X0206631Y0146600D03*
X0196631Y0149100D03*
X0192694Y0149100D03*
X0179131Y0151600D03*
X0175194Y0151600D03*
X0212694Y0139100D03*
X0216631Y0139100D03*
X0222694Y0139100D03*
X0226631Y0139100D03*
X0226631Y0134100D03*
X0222694Y0134100D03*
X0216631Y0134100D03*
X0212694Y0134100D03*
X0215194Y0094100D03*
X0219131Y0094100D03*
X0219131Y0089100D03*
X0215194Y0089100D03*
X0225194Y0089100D03*
X0229131Y0089100D03*
X0229131Y0094100D03*
X0225194Y0094100D03*
X0190131Y0094100D03*
X0186194Y0094100D03*
X0186194Y0088800D03*
X0190131Y0088800D03*
X0154131Y0089100D03*
X0150194Y0089100D03*
X0150194Y0094100D03*
X0154131Y0094100D03*
X0135331Y0093700D03*
X0131394Y0093700D03*
X0131394Y0088900D03*
X0135331Y0088900D03*
X0135331Y0083800D03*
X0131394Y0083800D03*
X0318944Y0227850D03*
X0322881Y0227850D03*
D14*
X0261349Y0148466D03*
X0261349Y0144529D03*
X0207163Y0138569D03*
X0207163Y0134631D03*
X0202163Y0134631D03*
X0202163Y0138569D03*
X0194663Y0177131D03*
X0194663Y0181069D03*
X0189663Y0181069D03*
X0189663Y0177131D03*
X0174663Y0177131D03*
X0174663Y0181069D03*
X0169663Y0181069D03*
X0169663Y0177131D03*
X0133363Y0189831D03*
X0133363Y0193769D03*
X0163963Y0222931D03*
X0163963Y0226869D03*
X0144663Y0138569D03*
X0144663Y0134631D03*
X0199663Y0093369D03*
X0199663Y0089431D03*
D15*
X0109663Y0229100D03*
X0049663Y0229100D03*
D16*
X0049663Y0219100D03*
X0049663Y0209100D03*
X0049663Y0199100D03*
X0049663Y0189100D03*
X0049663Y0179100D03*
X0049663Y0169100D03*
X0049663Y0159100D03*
X0049663Y0149100D03*
X0049663Y0139100D03*
X0049663Y0129100D03*
X0049663Y0119100D03*
X0049663Y0109100D03*
X0049663Y0099100D03*
X0049663Y0089100D03*
X0109663Y0089100D03*
X0109663Y0099100D03*
X0109663Y0109100D03*
X0109663Y0119100D03*
X0109663Y0129100D03*
X0109663Y0139100D03*
X0109663Y0149100D03*
X0109663Y0159100D03*
X0109663Y0169100D03*
X0109663Y0179100D03*
X0109663Y0189100D03*
X0109663Y0199100D03*
X0109663Y0209100D03*
X0109663Y0219100D03*
D17*
X0137554Y0166971D02*
X0141890Y0166971D01*
X0137554Y0166971D02*
X0137554Y0168709D01*
X0141890Y0168709D01*
X0141890Y0166971D01*
X0141890Y0167900D02*
X0137554Y0167900D01*
X0137554Y0163231D02*
X0141890Y0163231D01*
X0137554Y0163231D02*
X0137554Y0164969D01*
X0141890Y0164969D01*
X0141890Y0163231D01*
X0141890Y0164160D02*
X0137554Y0164160D01*
X0137554Y0159491D02*
X0141890Y0159491D01*
X0137554Y0159491D02*
X0137554Y0161229D01*
X0141890Y0161229D01*
X0141890Y0159491D01*
X0141890Y0160420D02*
X0137554Y0160420D01*
X0147436Y0159491D02*
X0151772Y0159491D01*
X0147436Y0159491D02*
X0147436Y0161229D01*
X0151772Y0161229D01*
X0151772Y0159491D01*
X0151772Y0160420D02*
X0147436Y0160420D01*
X0147436Y0166971D02*
X0151772Y0166971D01*
X0147436Y0166971D02*
X0147436Y0168709D01*
X0151772Y0168709D01*
X0151772Y0166971D01*
X0151772Y0167900D02*
X0147436Y0167900D01*
D18*
X0229210Y0186600D02*
X0235115Y0186600D01*
X0235115Y0196600D02*
X0229210Y0196600D01*
X0229210Y0206600D02*
X0235115Y0206600D01*
X0235115Y0216600D02*
X0229210Y0216600D01*
X0312663Y0087053D02*
X0312663Y0081147D01*
X0322663Y0081147D02*
X0322663Y0087053D01*
X0332663Y0087053D02*
X0332663Y0081147D01*
D19*
X0178501Y0106029D03*
X0175942Y0106029D03*
X0173383Y0106029D03*
X0170824Y0106029D03*
X0170824Y0122171D03*
X0173383Y0122171D03*
X0175942Y0122171D03*
X0178501Y0122171D03*
D20*
X0184663Y0107712D03*
X0188763Y0107762D03*
X0188763Y0103038D03*
X0184663Y0102988D03*
X0205163Y0093862D03*
X0209663Y0093962D03*
X0209663Y0089238D03*
X0205163Y0089138D03*
X0144663Y0089238D03*
X0140963Y0089238D03*
X0140963Y0093962D03*
X0144663Y0093962D03*
X0082163Y0071462D03*
X0082163Y0066738D03*
X0057163Y0066738D03*
X0057163Y0071462D03*
X0179663Y0176738D03*
X0179663Y0181462D03*
X0184663Y0181462D03*
X0184663Y0176738D03*
X0199663Y0176738D03*
X0199663Y0181462D03*
X0169663Y0211738D03*
X0169663Y0216462D03*
X0141263Y0193562D03*
X0137763Y0193562D03*
X0137763Y0188838D03*
X0141263Y0188838D03*
X0129563Y0189238D03*
X0129563Y0193962D03*
X0119163Y0221238D03*
X0119163Y0225962D03*
D21*
X0179663Y0192230D03*
X0184663Y0192230D03*
X0189663Y0192230D03*
X0194663Y0192230D03*
X0199663Y0192230D03*
X0204663Y0192230D03*
X0209663Y0192230D03*
D22*
X0194663Y0232978D03*
D23*
X0176493Y0167840D03*
X0176493Y0160360D03*
X0184082Y0164090D03*
X0192743Y0160350D03*
X0184082Y0156610D03*
X0167832Y0164100D03*
X0314082Y0217850D03*
X0322743Y0221590D03*
X0331582Y0217860D03*
X0340243Y0221600D03*
X0331582Y0225340D03*
X0322743Y0214110D03*
D24*
X0326294Y0235038D02*
X0328128Y0235038D01*
X0326294Y0235038D02*
X0326294Y0235534D01*
X0328128Y0235534D01*
X0328128Y0235038D01*
X0330664Y0236613D02*
X0332498Y0236613D01*
X0330664Y0236613D02*
X0330664Y0237109D01*
X0332498Y0237109D01*
X0332498Y0236613D01*
X0328128Y0238187D02*
X0326294Y0238187D01*
X0326294Y0238683D01*
X0328128Y0238683D01*
X0328128Y0238187D01*
X0170265Y0151352D02*
X0168431Y0151352D01*
X0168431Y0151848D01*
X0170265Y0151848D01*
X0170265Y0151352D01*
X0165895Y0149777D02*
X0164061Y0149777D01*
X0164061Y0150273D01*
X0165895Y0150273D01*
X0165895Y0149777D01*
X0165895Y0152927D02*
X0164061Y0152927D01*
X0164061Y0153423D01*
X0165895Y0153423D01*
X0165895Y0152927D01*
D25*
X0327163Y0184326D03*
X0327163Y0206374D03*
D26*
X0303749Y0192600D03*
X0281702Y0192600D03*
X0223186Y0160350D03*
X0201139Y0160350D03*
X0350076Y0192600D03*
X0372123Y0192600D03*
D27*
X0243413Y0122100D03*
X0243413Y0116100D03*
D28*
X0243413Y0119100D03*
D29*
X0073413Y0069100D03*
X0065913Y0069100D03*
D30*
X0094182Y0063100D03*
X0109143Y0063100D03*
X0109243Y0077800D03*
X0094282Y0077800D03*
X0159982Y0072100D03*
X0174943Y0072100D03*
D31*
X0293593Y0141943D02*
X0299593Y0141943D01*
X0299593Y0151943D02*
X0293593Y0151943D01*
X0293593Y0161943D02*
X0299593Y0161943D01*
X0354335Y0162091D02*
X0360335Y0162091D01*
X0360335Y0152091D02*
X0354335Y0152091D01*
X0354335Y0142091D02*
X0360335Y0142091D01*
M02*
