G75*
%MOIN*%
%OFA0B0*%
%FSLAX25Y25*%
%IPPOS*%
%LPD*%
%AMOC8*
5,1,8,0,0,1.08239X$1,22.5*
%
%ADD10R,0.06299X0.06299*%
%ADD11C,0.06299*%
%ADD12C,0.06299*%
%ADD13R,0.04994X0.06694*%
%ADD14R,0.00600X0.07200*%
D10*
X0049663Y0229100D03*
X0109663Y0229100D03*
D11*
X0049663Y0089100D03*
X0049663Y0099100D03*
X0049663Y0109100D03*
X0049663Y0119100D03*
X0049663Y0129100D03*
X0049663Y0139100D03*
X0049663Y0149100D03*
X0049663Y0159100D03*
X0049663Y0169100D03*
X0049663Y0179100D03*
X0049663Y0189100D03*
X0049663Y0199100D03*
X0049663Y0209100D03*
X0049663Y0219100D03*
X0109663Y0219100D03*
X0109663Y0209100D03*
X0109663Y0199100D03*
X0109663Y0189100D03*
X0109663Y0179100D03*
X0109663Y0169100D03*
X0109663Y0159100D03*
X0109663Y0149100D03*
X0109663Y0139100D03*
X0109663Y0129100D03*
X0109663Y0119100D03*
X0109663Y0109100D03*
X0109663Y0099100D03*
X0109663Y0089100D03*
D12*
X0229210Y0186600D02*
X0235115Y0186600D01*
X0235115Y0196600D02*
X0229210Y0196600D01*
X0229210Y0206600D02*
X0235115Y0206600D01*
X0235115Y0216600D02*
X0229210Y0216600D01*
X0322163Y0089553D02*
X0322163Y0083647D01*
X0332163Y0083647D02*
X0332163Y0089553D01*
D13*
X0161098Y0206590D03*
X0155098Y0206590D03*
D14*
X0158098Y0206590D03*
M02*
