%
M48
M72
T01C0.01378
T02C0.03937
%
T01
X94663Y79100
X99663Y89100
X89663Y99100
X84663Y99100
X89663Y106600
X99663Y111600
X89663Y119100
X84663Y124100
X77163Y116600
X98413Y130350
X94663Y139100
X94663Y149100
X80913Y159100
X77163Y164100
X84663Y174100
X94663Y169100
X122163Y174100
X129663Y169100
X134663Y169100
X131538Y178475
X135913Y179100
X137423Y185369
X124663Y185350
X117144Y191693
X103413Y194100
X79663Y194100
X69663Y199100
X59663Y194100
X59663Y174100
X69663Y154100
X74663Y149100
X64663Y144100
X80913Y137850
X117163Y115350
X115913Y110350
X117163Y101600
X120913Y91619
X120913Y86600
X149663Y84100
X157163Y89100
X166173Y89119
X184663Y97850
X194663Y89100
X207181Y97786
X217163Y97767
X209663Y84100
X214663Y79100
X174663Y114100
X164663Y120350
X159923Y106619
X162163Y101600
X142423Y110369
X139663Y117850
X119663Y134100
X120798Y140350
X120913Y146600
X137163Y156600
X149663Y164100
X159663Y164100
X168413Y167850
X172163Y172850
X159663Y179100
X137144Y197749
X159663Y199100
X169663Y206600
X179663Y204100
X189663Y204100
X194663Y200350
X204663Y204100
X169663Y224100
X158413Y230350
X160931Y244100
X163413Y249100
X154663Y249100
X137163Y246600
X137163Y242850
X132163Y230848
X139923Y214119
X159663Y214100
X109923Y244119
X99663Y234100
X79663Y234100
X59663Y234100
X59663Y214100
X79663Y214100
X84663Y214100
X99663Y214100
X179663Y260350
X229663Y260350
X279663Y252869
X304663Y242869
X314158Y233596
X327163Y232850
X331710Y239100
X338413Y236600
X349663Y239100
X318604Y245350
X327163Y199100
X327163Y194100
X332163Y174100
X342163Y171600
X347163Y171600
X347163Y166600
X352163Y166600
X354663Y161600
X349663Y161600
X349663Y156600
X354663Y156600
X354663Y151600
X349663Y151600
X349663Y146600
X354663Y146600
X357163Y141600
X352163Y141600
X347163Y141600
X342163Y141600
X337163Y141600
X337163Y136600
X342163Y136600
X347163Y136600
X352163Y136600
X357163Y136600
X362163Y136600
X367163Y136600
X372163Y136600
X377163Y136600
X377163Y131600
X382163Y131600
X382163Y126600
X377163Y126600
X372163Y124100
X367163Y124100
X362163Y124100
X357163Y121600
X352163Y121600
X352163Y126600
X357163Y126600
X357163Y131600
X352163Y131600
X347163Y131600
X342163Y131600
X337163Y131600
X332163Y131600
X332163Y136600
X332163Y141600
X339663Y146600
X344663Y146600
X344663Y151600
X344663Y156600
X339663Y156600
X339663Y151600
X339663Y161600
X344663Y161600
X342163Y166600
X319663Y174100
X312163Y171600
X307163Y171600
X307163Y166600
X312163Y166600
X314663Y161600
X309663Y161600
X304663Y161600
X304663Y156600
X309663Y156600
X314663Y156600
X314663Y151600
X309663Y151600
X304663Y151600
X304663Y146600
X309663Y146600
X314663Y146600
X317163Y141600
X322163Y141600
X322163Y136600
X317163Y136600
X317163Y131600
X322163Y131600
X312163Y131600
X307163Y131600
X302163Y131600
X302163Y126600
X297163Y126600
X297163Y131600
X297163Y136600
X302163Y136600
X307163Y136600
X312163Y136600
X312163Y141600
X307163Y141600
X302163Y141600
X297163Y141600
X292163Y141600
X292163Y136600
X287163Y136600
X282163Y136600
X277163Y136600
X277163Y131600
X277163Y126600
X272163Y126600
X272163Y131600
X282163Y124100
X287163Y124100
X292163Y124100
X297163Y121600
X302163Y121600
X302163Y114100
X297163Y114100
X292163Y114100
X287163Y114100
X282163Y114100
X277163Y114100
X272163Y114100
X272163Y109100
X277163Y109100
X277163Y104100
X272163Y104100
X277163Y99100
X282163Y96600
X287163Y96600
X292163Y96600
X297163Y99100
X292163Y101600
X297163Y104100
X302163Y104100
X302163Y109100
X297163Y109100
X287163Y101600
X282163Y101600
X287163Y91600
X277163Y121600
X272163Y121600
X282163Y141600
X287163Y141600
X299663Y146600
X299663Y151600
X299663Y156600
X299663Y161600
X302163Y166600
X362163Y141600
X367163Y141600
X372163Y141600
X382163Y121600
X382163Y114100
X377163Y114100
X372163Y114100
X367163Y114100
X362163Y114100
X357163Y114100
X352163Y114100
X352163Y109100
X357163Y109100
X357163Y104100
X352163Y104100
X357163Y99100
X362163Y96600
X367163Y96600
X372163Y96600
X377163Y99100
X372163Y101600
X367163Y101600
X362163Y101600
X377163Y104100
X382163Y104100
X382163Y109100
X377163Y109100
X367163Y91600
X228413Y130350
X209663Y142850
X212163Y146600
X219663Y144100
X223413Y144100
X202163Y142850
X188153Y144119
X184663Y149100
X168413Y156600
X161126Y152637
X152163Y154100
X149663Y140350
X159663Y139100
X187163Y129100
X209663Y116600
X203413Y174100
X194663Y174081
X74663Y84100
X64663Y84100
T02
X49663Y89100
X49663Y99100
X49663Y109100
X49663Y119100
X49663Y129100
X49663Y139100
X49663Y149100
X49663Y159100
X49663Y169100
X49663Y179100
X49663Y189100
X49663Y199100
X49663Y209100
X49663Y219100
X49663Y229100
X109663Y229100
X109663Y219100
X109663Y209100
X109663Y199100
X109663Y189100
X109663Y179100
X109663Y169100
X109663Y159100
X109663Y149100
X109663Y139100
X109663Y129100
X109663Y119100
X109663Y109100
X109663Y99100
X109663Y89100
X232163Y186600
X232163Y196600
X232163Y206600
X232163Y216600
X322163Y86600
X332163Y86600
M30
